<?xml version="1.0" standalone="no"?>
<!DOCTYPE svg PUBLIC "-//W3C//DTD SVG 1.1//EN" "http://www.w3.org/Graphics/SVG/1.1/DTD/svg11.dtd" >
<svg xmlns="http://www.w3.org/2000/svg" xmlns:xlink="http://www.w3.org/1999/xlink" version="1.1">
<metadata>
Created by FontForge 20170910 at Fri Dec  7 12:02:04 2001
 By Jimmy Wärting
Copyright (c) Vadim Yaroshenko, 2000. All rights reserved.
</metadata>
<defs>
<font id="Dotf1" horiz-adv-x="1600" >
  <font-face 
    font-family="Dotf1"
    font-weight="400"
    font-stretch="normal"
    units-per-em="2048"
    panose-1="2 0 5 6 2 0 0 2 0 4"
    ascent="1638"
    descent="-410"
    x-height="1984"
    cap-height="1984"
    bbox="8 8 1542 1985"
    underline-thickness="0"
    underline-position="0"
    unicode-range="U+0020-0451"
  />
<missing-glyph horiz-adv-x="1024" 
 />
    <glyph glyph-name=".notdef" horiz-adv-x="1024" 
 />
    <glyph glyph-name=".null" horiz-adv-x="0" 
 />
    <glyph glyph-name="nonmarkingreturn" horiz-adv-x="1024" 
 />
    <glyph glyph-name="space" unicode=" " horiz-adv-x="2048" 
 />
    <glyph glyph-name="space" unicode="&#xa0;" horiz-adv-x="2048" 
 />
    <glyph glyph-name="four" unicode="4" 
d="M1162 877h111q47 0 47 -39v-126q0 -39 -47 -39h-111q-47 0 -47 39v126q0 39 47 39zM941 1984h110q47 0 47 -39v-126q0 -39 -47 -39h-110q-47 0 -47 39v126q0 39 47 39zM941 1763h110q47 0 47 -39v-127q0 -39 -47 -39h-110q-47 0 -47 39v127q0 39 47 39zM941 1542h110
q47 0 47 -39v-127q0 -39 -47 -39h-110q-47 0 -47 39v127q0 39 47 39zM941 1320h110q47 0 47 -39v-127q0 -39 -47 -39h-110q-47 0 -47 39v127q0 39 47 39zM941 1099h110q47 0 47 -39v-127q0 -39 -47 -39h-110q-47 0 -47 39v127q0 39 47 39zM941 877h110q47 0 47 -39v-126
q0 -39 -47 -39h-110q-47 0 -47 39v126q0 39 47 39zM941 656h110q47 0 47 -39v-127q0 -39 -47 -39h-110q-47 0 -47 39v127q0 39 47 39zM941 435h110q47 0 47 -39v-127q0 -39 -47 -39h-110q-47 0 -47 39v127q0 39 47 39zM720 877h110q47 0 47 -39v-126q0 -39 -47 -39h-110
q-47 0 -47 39v126q0 39 47 39zM498 877h111q47 0 47 -39v-126q0 -39 -47 -39h-111q-47 0 -47 39v126q0 39 47 39zM277 1763h110q47 0 47 -39v-127q0 -39 -47 -39h-110q-47 0 -47 39v127q0 39 47 39zM277 1542h110q47 0 47 -39v-127q0 -39 -47 -39h-110q-47 0 -47 39v127
q0 39 47 39zM277 1320h110q47 0 47 -39v-127q0 -39 -47 -39h-110q-47 0 -47 39v127q0 39 47 39zM277 1099h110q47 0 47 -39v-127q0 -39 -47 -39h-110q-47 0 -47 39v127q0 39 47 39zM277 877h110q47 0 47 -39v-126q0 -39 -47 -39h-110q-47 0 -47 39v126q0 39 47 39z" />
    <glyph glyph-name="five" unicode="5" 
d="M1162 1984h111q47 0 47 -39v-126q0 -39 -47 -39h-111q-47 0 -47 39v126q0 39 47 39zM1162 1099h111q47 0 47 -39v-127q0 -39 -47 -39h-111q-47 0 -47 39v127q0 39 47 39zM1162 877h111q47 0 47 -39v-126q0 -39 -47 -39h-111q-47 0 -47 39v126q0 39 47 39zM1162 656h111
q47 0 47 -39v-127q0 -39 -47 -39h-111q-47 0 -47 39v127q0 39 47 39zM941 1984h110q47 0 47 -39v-126q0 -39 -47 -39h-110q-47 0 -47 39v126q0 39 47 39zM941 1320h110q47 0 47 -39v-127q0 -39 -47 -39h-110q-47 0 -47 39v127q0 39 47 39zM941 435h110q47 0 47 -39v-127
q0 -39 -47 -39h-110q-47 0 -47 39v127q0 39 47 39zM720 1984h110q47 0 47 -39v-126q0 -39 -47 -39h-110q-47 0 -47 39v126q0 39 47 39zM720 1320h110q47 0 47 -39v-127q0 -39 -47 -39h-110q-47 0 -47 39v127q0 39 47 39zM720 435h110q47 0 47 -39v-127q0 -39 -47 -39h-110
q-47 0 -47 39v127q0 39 47 39zM498 1984h111q47 0 47 -39v-126q0 -39 -47 -39h-111q-47 0 -47 39v126q0 39 47 39zM498 1320h111q47 0 47 -39v-127q0 -39 -47 -39h-111q-47 0 -47 39v127q0 39 47 39zM498 435h111q47 0 47 -39v-127q0 -39 -47 -39h-111q-47 0 -47 39v127
q0 39 47 39zM277 1984h110q47 0 47 -39v-126q0 -39 -47 -39h-110q-47 0 -47 39v126q0 39 47 39zM277 1763h110q47 0 47 -39v-127q0 -39 -47 -39h-110q-47 0 -47 39v127q0 39 47 39zM277 1542h110q47 0 47 -39v-127q0 -39 -47 -39h-110q-47 0 -47 39v127q0 39 47 39z
M277 1320h110q47 0 47 -39v-127q0 -39 -47 -39h-110q-47 0 -47 39v127q0 39 47 39zM277 877h110q47 0 47 -39v-126q0 -39 -47 -39h-110q-47 0 -47 39v126q0 39 47 39zM277 656h110q47 0 47 -39v-127q0 -39 -47 -39h-110q-47 0 -47 39v127q0 39 47 39z" />
    <glyph glyph-name="six" unicode="6" 
d="M277 656h110q47 0 47 -39v-127q0 -39 -47 -39h-110q-47 0 -47 39v127q0 39 47 39zM277 877h110q47 0 47 -39v-126q0 -39 -47 -39h-110q-47 0 -47 39v126q0 39 47 39zM277 1099h110q47 0 47 -39v-127q0 -39 -47 -39h-110q-47 0 -47 39v127q0 39 47 39zM277 1320h110
q47 0 47 -39v-127q0 -39 -47 -39h-110q-47 0 -47 39v127q0 39 47 39zM277 1542h110q47 0 47 -39v-127q0 -39 -47 -39h-110q-47 0 -47 39v127q0 39 47 39zM277 1763h110q47 0 47 -39v-127q0 -39 -47 -39h-110q-47 0 -47 39v127q0 39 47 39zM498 435h111q47 0 47 -39v-127
q0 -39 -47 -39h-111q-47 0 -47 39v127q0 39 47 39zM498 1320h111q47 0 47 -39v-127q0 -39 -47 -39h-111q-47 0 -47 39v127q0 39 47 39zM498 1984h111q47 0 47 -39v-126q0 -39 -47 -39h-111q-47 0 -47 39v126q0 39 47 39zM720 435h110q47 0 47 -39v-127q0 -39 -47 -39h-110
q-47 0 -47 39v127q0 39 47 39zM720 1320h110q47 0 47 -39v-127q0 -39 -47 -39h-110q-47 0 -47 39v127q0 39 47 39zM720 1984h110q47 0 47 -39v-126q0 -39 -47 -39h-110q-47 0 -47 39v126q0 39 47 39zM941 435h110q47 0 47 -39v-127q0 -39 -47 -39h-110q-47 0 -47 39v127
q0 39 47 39zM941 1320h110q47 0 47 -39v-127q0 -39 -47 -39h-110q-47 0 -47 39v127q0 39 47 39zM941 1984h110q47 0 47 -39v-126q0 -39 -47 -39h-110q-47 0 -47 39v126q0 39 47 39zM1162 656h111q47 0 47 -39v-127q0 -39 -47 -39h-111q-47 0 -47 39v127q0 39 47 39z
M1162 877h111q47 0 47 -39v-126q0 -39 -47 -39h-111q-47 0 -47 39v126q0 39 47 39zM1162 1099h111q47 0 47 -39v-127q0 -39 -47 -39h-111q-47 0 -47 39v127q0 39 47 39zM1162 1763h111q47 0 47 -39v-127q0 -39 -47 -39h-111q-47 0 -47 39v127q0 39 47 39z" />
    <glyph glyph-name="seven" unicode="7" 
d="M1162 1984h111q47 0 47 -39v-126q0 -39 -47 -39h-111q-47 0 -47 39v126q0 39 47 39zM1162 1763h111q47 0 47 -39v-127q0 -39 -47 -39h-111q-47 0 -47 39v127q0 39 47 39zM941 1984h110q47 0 47 -39v-126q0 -39 -47 -39h-110q-47 0 -47 39v126q0 39 47 39zM941 1542h110
q47 0 47 -39v-127q0 -39 -47 -39h-110q-47 0 -47 39v127q0 39 47 39zM941 1320h110q47 0 47 -39v-127q0 -39 -47 -39h-110q-47 0 -47 39v127q0 39 47 39zM720 1984h110q47 0 47 -39v-126q0 -39 -47 -39h-110q-47 0 -47 39v126q0 39 47 39zM720 1099h110q47 0 47 -39v-127
q0 -39 -47 -39h-110q-47 0 -47 39v127q0 39 47 39zM720 877h110q47 0 47 -39v-126q0 -39 -47 -39h-110q-47 0 -47 39v126q0 39 47 39zM720 656h110q47 0 47 -39v-127q0 -39 -47 -39h-110q-47 0 -47 39v127q0 39 47 39zM720 435h110q47 0 47 -39v-127q0 -39 -47 -39h-110
q-47 0 -47 39v127q0 39 47 39zM498 1984h111q47 0 47 -39v-126q0 -39 -47 -39h-111q-47 0 -47 39v126q0 39 47 39zM277 1984h110q47 0 47 -39v-126q0 -39 -47 -39h-110q-47 0 -47 39v126q0 39 47 39zM277 1763h110q47 0 47 -39v-127q0 -39 -47 -39h-110q-47 0 -47 39v127
q0 39 47 39z" />
    <glyph glyph-name="eight" unicode="8" 
d="M1162 1763h111q47 0 47 -39v-127q0 -39 -47 -39h-111q-47 0 -47 39v127q0 39 47 39zM1162 1542h111q47 0 47 -39v-127q0 -39 -47 -39h-111q-47 0 -47 39v127q0 39 47 39zM1162 1099h111q47 0 47 -39v-127q0 -39 -47 -39h-111q-47 0 -47 39v127q0 39 47 39zM1162 877h111
q47 0 47 -39v-126q0 -39 -47 -39h-111q-47 0 -47 39v126q0 39 47 39zM1162 656h111q47 0 47 -39v-127q0 -39 -47 -39h-111q-47 0 -47 39v127q0 39 47 39zM941 1984h110q47 0 47 -39v-126q0 -39 -47 -39h-110q-47 0 -47 39v126q0 39 47 39zM941 1320h110q47 0 47 -39v-127
q0 -39 -47 -39h-110q-47 0 -47 39v127q0 39 47 39zM941 435h110q47 0 47 -39v-127q0 -39 -47 -39h-110q-47 0 -47 39v127q0 39 47 39zM720 1984h110q47 0 47 -39v-126q0 -39 -47 -39h-110q-47 0 -47 39v126q0 39 47 39zM720 1320h110q47 0 47 -39v-127q0 -39 -47 -39h-110
q-47 0 -47 39v127q0 39 47 39zM720 435h110q47 0 47 -39v-127q0 -39 -47 -39h-110q-47 0 -47 39v127q0 39 47 39zM498 1984h111q47 0 47 -39v-126q0 -39 -47 -39h-111q-47 0 -47 39v126q0 39 47 39zM498 1320h111q47 0 47 -39v-127q0 -39 -47 -39h-111q-47 0 -47 39v127
q0 39 47 39zM498 435h111q47 0 47 -39v-127q0 -39 -47 -39h-111q-47 0 -47 39v127q0 39 47 39zM277 1763h110q47 0 47 -39v-127q0 -39 -47 -39h-110q-47 0 -47 39v127q0 39 47 39zM277 1542h110q47 0 47 -39v-127q0 -39 -47 -39h-110q-47 0 -47 39v127q0 39 47 39zM277 1099
h110q47 0 47 -39v-127q0 -39 -47 -39h-110q-47 0 -47 39v127q0 39 47 39zM277 877h110q47 0 47 -39v-126q0 -39 -47 -39h-110q-47 0 -47 39v126q0 39 47 39zM277 656h110q47 0 47 -39v-127q0 -39 -47 -39h-110q-47 0 -47 39v127q0 39 47 39z" />
    <glyph glyph-name="nine" unicode="9" 
d="M277 656h110q47 0 47 -39v-127q0 -39 -47 -39h-110q-47 0 -47 39v127q0 39 47 39zM277 1542h110q47 0 47 -39v-127q0 -39 -47 -39h-110q-47 0 -47 39v127q0 39 47 39zM277 1320h110q47 0 47 -39v-127q0 -39 -47 -39h-110q-47 0 -47 39v127q0 39 47 39zM277 1763h110
q47 0 47 -39v-127q0 -39 -47 -39h-110q-47 0 -47 39v127q0 39 47 39zM498 435h111q47 0 47 -39v-127q0 -39 -47 -39h-111q-47 0 -47 39v127q0 39 47 39zM498 1099h111q47 0 47 -39v-127q0 -39 -47 -39h-111q-47 0 -47 39v127q0 39 47 39zM498 1984h111q47 0 47 -39v-126
q0 -39 -47 -39h-111q-47 0 -47 39v126q0 39 47 39zM720 435h110q47 0 47 -39v-127q0 -39 -47 -39h-110q-47 0 -47 39v127q0 39 47 39zM720 1099h110q47 0 47 -39v-127q0 -39 -47 -39h-110q-47 0 -47 39v127q0 39 47 39zM720 1984h110q47 0 47 -39v-126q0 -39 -47 -39h-110
q-47 0 -47 39v126q0 39 47 39zM941 435h110q47 0 47 -39v-127q0 -39 -47 -39h-110q-47 0 -47 39v127q0 39 47 39zM941 1099h110q47 0 47 -39v-127q0 -39 -47 -39h-110q-47 0 -47 39v127q0 39 47 39zM941 1984h110q47 0 47 -39v-126q0 -39 -47 -39h-110q-47 0 -47 39v126
q0 39 47 39zM1162 656h111q47 0 47 -39v-127q0 -39 -47 -39h-111q-47 0 -47 39v127q0 39 47 39zM1162 877h111q47 0 47 -39v-126q0 -39 -47 -39h-111q-47 0 -47 39v126q0 39 47 39zM1162 1099h111q47 0 47 -39v-127q0 -39 -47 -39h-111q-47 0 -47 39v127q0 39 47 39z
M1162 1542h111q47 0 47 -39v-127q0 -39 -47 -39h-111q-47 0 -47 39v127q0 39 47 39zM1162 1320h111q47 0 47 -39v-127q0 -39 -47 -39h-111q-47 0 -47 39v127q0 39 47 39zM1162 1763h111q47 0 47 -39v-127q0 -39 -47 -39h-111q-47 0 -47 39v127q0 39 47 39z" />
    <glyph glyph-name="Agrave" unicode="&#xc0;" 
d="M277 435h110q47 0 47 -39v-127q0 -39 -47 -39h-110q-47 0 -47 39v127q0 39 47 39zM277 656h110q47 0 47 -39v-127q0 -39 -47 -39h-110q-47 0 -47 39v127q0 39 47 39zM277 877h110q47 0 47 -39v-126q0 -39 -47 -39h-110q-47 0 -47 39v126q0 39 47 39zM277 1099h110
q47 0 47 -39v-127q0 -39 -47 -39h-110q-47 0 -47 39v127q0 39 47 39zM277 1320h110q47 0 47 -39v-127q0 -39 -47 -39h-110q-47 0 -47 39v127q0 39 47 39zM277 1542h110q47 0 47 -39v-127q0 -39 -47 -39h-110q-47 0 -47 39v127q0 39 47 39zM277 1763h110q47 0 47 -39v-127
q0 -39 -47 -39h-110q-47 0 -47 39v127q0 39 47 39zM498 877h111q47 0 47 -39v-126q0 -39 -47 -39h-111q-47 0 -47 39v126q0 39 47 39zM498 1984h111q47 0 47 -39v-126q0 -39 -47 -39h-111q-47 0 -47 39v126q0 39 47 39zM720 877h110q47 0 47 -39v-126q0 -39 -47 -39h-110
q-47 0 -47 39v126q0 39 47 39zM720 1984h110q47 0 47 -39v-126q0 -39 -47 -39h-110q-47 0 -47 39v126q0 39 47 39zM941 877h110q47 0 47 -39v-126q0 -39 -47 -39h-110q-47 0 -47 39v126q0 39 47 39zM941 1984h110q47 0 47 -39v-126q0 -39 -47 -39h-110q-47 0 -47 39v126
q0 39 47 39zM1162 435h111q47 0 47 -39v-127q0 -39 -47 -39h-111q-47 0 -47 39v127q0 39 47 39zM1162 656h111q47 0 47 -39v-127q0 -39 -47 -39h-111q-47 0 -47 39v127q0 39 47 39zM1162 877h111q47 0 47 -39v-126q0 -39 -47 -39h-111q-47 0 -47 39v126q0 39 47 39z
M1162 1099h111q47 0 47 -39v-127q0 -39 -47 -39h-111q-47 0 -47 39v127q0 39 47 39zM1162 1320h111q47 0 47 -39v-127q0 -39 -47 -39h-111q-47 0 -47 39v127q0 39 47 39zM1162 1542h111q47 0 47 -39v-127q0 -39 -47 -39h-111q-47 0 -47 39v127q0 39 47 39zM1162 1763h111
q47 0 47 -39v-127q0 -39 -47 -39h-111q-47 0 -47 39v127q0 39 47 39z" />
    <glyph glyph-name="Acircumflex" unicode="&#xc2;" 
d="M1162 1763h111q47 0 47 -39v-127q0 -39 -47 -39h-111q-47 0 -47 39v127q0 39 47 39zM1162 1542h111q47 0 47 -39v-127q0 -39 -47 -39h-111q-47 0 -47 39v127q0 39 47 39zM1162 1099h111q47 0 47 -39v-127q0 -39 -47 -39h-111q-47 0 -47 39v127q0 39 47 39zM1162 877h111
q47 0 47 -39v-126q0 -39 -47 -39h-111q-47 0 -47 39v126q0 39 47 39zM1162 656h111q47 0 47 -39v-127q0 -39 -47 -39h-111q-47 0 -47 39v127q0 39 47 39zM941 1984h110q47 0 47 -39v-126q0 -39 -47 -39h-110q-47 0 -47 39v126q0 39 47 39zM941 1320h110q47 0 47 -39v-127
q0 -39 -47 -39h-110q-47 0 -47 39v127q0 39 47 39zM941 435h110q47 0 47 -39v-127q0 -39 -47 -39h-110q-47 0 -47 39v127q0 39 47 39zM720 1984h110q47 0 47 -39v-126q0 -39 -47 -39h-110q-47 0 -47 39v126q0 39 47 39zM720 1320h110q47 0 47 -39v-127q0 -39 -47 -39h-110
q-47 0 -47 39v127q0 39 47 39zM720 435h110q47 0 47 -39v-127q0 -39 -47 -39h-110q-47 0 -47 39v127q0 39 47 39zM498 1984h111q47 0 47 -39v-126q0 -39 -47 -39h-111q-47 0 -47 39v126q0 39 47 39zM498 1320h111q47 0 47 -39v-127q0 -39 -47 -39h-111q-47 0 -47 39v127
q0 39 47 39zM498 435h111q47 0 47 -39v-127q0 -39 -47 -39h-111q-47 0 -47 39v127q0 39 47 39zM277 1984h110q47 0 47 -39v-126q0 -39 -47 -39h-110q-47 0 -47 39v126q0 39 47 39zM277 1763h110q47 0 47 -39v-127q0 -39 -47 -39h-110q-47 0 -47 39v127q0 39 47 39zM277 1542
h110q47 0 47 -39v-127q0 -39 -47 -39h-110q-47 0 -47 39v127q0 39 47 39zM277 1320h110q47 0 47 -39v-127q0 -39 -47 -39h-110q-47 0 -47 39v127q0 39 47 39zM277 1099h110q47 0 47 -39v-127q0 -39 -47 -39h-110q-47 0 -47 39v127q0 39 47 39zM277 877h110q47 0 47 -39v-126
q0 -39 -47 -39h-110q-47 0 -47 39v126q0 39 47 39zM277 656h110q47 0 47 -39v-127q0 -39 -47 -39h-110q-47 0 -47 39v127q0 39 47 39zM277 435h110q47 0 47 -39v-127q0 -39 -47 -39h-110q-47 0 -47 39v127q0 39 47 39z" />
    <glyph glyph-name="B" unicode="B" 
d="M1162 1763h111q47 0 47 -39v-127q0 -39 -47 -39h-111q-47 0 -47 39v127q0 39 47 39zM1162 1542h111q47 0 47 -39v-127q0 -39 -47 -39h-111q-47 0 -47 39v127q0 39 47 39zM1162 1099h111q47 0 47 -39v-127q0 -39 -47 -39h-111q-47 0 -47 39v127q0 39 47 39zM1162 878h111
q47 0 47 -40v-126q0 -39 -47 -39h-111q-47 0 -47 39v126q0 40 47 40zM1162 656h111q47 0 47 -39v-127q0 -39 -47 -39h-111q-47 0 -47 39v127q0 39 47 39zM941 1985h111q47 0 47 -39v-127q0 -39 -47 -39h-111q-47 0 -47 39v127q0 39 47 39zM941 1320h111q47 0 47 -39v-126
q0 -40 -47 -40h-111q-47 0 -47 40v126q0 39 47 39zM941 435h111q47 0 47 -39v-127q0 -39 -47 -39h-111q-47 0 -47 39v127q0 39 47 39zM720 1985h110q47 0 47 -39v-127q0 -39 -47 -39h-110q-47 0 -47 39v127q0 39 47 39zM720 1320h110q47 0 47 -39v-126q0 -40 -47 -40h-110
q-47 0 -47 40v126q0 39 47 39zM720 435h110q47 0 47 -39v-127q0 -39 -47 -39h-110q-47 0 -47 39v127q0 39 47 39zM498 1985h111q47 0 47 -39v-127q0 -39 -47 -39h-111q-47 0 -47 39v127q0 39 47 39zM498 1320h111q47 0 47 -39v-126q0 -40 -47 -40h-111q-47 0 -47 40v126
q0 39 47 39zM498 435h111q47 0 47 -39v-127q0 -39 -47 -39h-111q-47 0 -47 39v127q0 39 47 39zM277 1985h110q47 0 47 -39v-127q0 -39 -47 -39h-110q-47 0 -47 39v127q0 39 47 39zM277 1763h110q47 0 47 -39v-127q0 -39 -47 -39h-110q-47 0 -47 39v127q0 39 47 39zM277 1542
h110q47 0 47 -39v-127q0 -39 -47 -39h-110q-47 0 -47 39v127q0 39 47 39zM277 1320h110q47 0 47 -39v-126q0 -40 -47 -40h-110q-47 0 -47 40v126q0 39 47 39zM277 1099h110q47 0 47 -39v-127q0 -39 -47 -39h-110q-47 0 -47 39v127q0 39 47 39zM277 878h110q47 0 47 -40v-126
q0 -39 -47 -39h-110q-47 0 -47 39v126q0 40 47 40zM277 656h110q47 0 47 -39v-127q0 -39 -47 -39h-110q-47 0 -47 39v127q0 39 47 39zM277 435h110q47 0 47 -39v-127q0 -39 -47 -39h-110q-47 0 -47 39v127q0 39 47 39z" />
    <glyph glyph-name="C" unicode="C" 
d="M1162 1763h111q47 0 47 -39v-127q0 -39 -47 -39h-111q-47 0 -47 39v127q0 39 47 39zM1162 1542h111q47 0 47 -39v-127q0 -39 -47 -39h-111q-47 0 -47 39v127q0 39 47 39zM1162 877h111q47 0 47 -39v-126q0 -39 -47 -39h-111q-47 0 -47 39v126q0 39 47 39zM1162 656h111
q47 0 47 -39v-127q0 -39 -47 -39h-111q-47 0 -47 39v127q0 39 47 39zM941 1984h110q47 0 47 -39v-126q0 -39 -47 -39h-110q-47 0 -47 39v126q0 39 47 39zM941 435h110q47 0 47 -39v-127q0 -39 -47 -39h-110q-47 0 -47 39v127q0 39 47 39zM720 1984h110q47 0 47 -39v-126
q0 -39 -47 -39h-110q-47 0 -47 39v126q0 39 47 39zM720 435h110q47 0 47 -39v-127q0 -39 -47 -39h-110q-47 0 -47 39v127q0 39 47 39zM498 1984h111q47 0 47 -39v-126q0 -39 -47 -39h-111q-47 0 -47 39v126q0 39 47 39zM498 435h111q47 0 47 -39v-127q0 -39 -47 -39h-111
q-47 0 -47 39v127q0 39 47 39zM277 1763h110q47 0 47 -39v-127q0 -39 -47 -39h-110q-47 0 -47 39v127q0 39 47 39zM277 1542h110q47 0 47 -39v-127q0 -39 -47 -39h-110q-47 0 -47 39v127q0 39 47 39zM277 1320h110q47 0 47 -39v-127q0 -39 -47 -39h-110q-47 0 -47 39v127
q0 39 47 39zM277 1099h110q47 0 47 -39v-127q0 -39 -47 -39h-110q-47 0 -47 39v127q0 39 47 39zM277 877h110q47 0 47 -39v-126q0 -39 -47 -39h-110q-47 0 -47 39v126q0 39 47 39zM277 656h110q47 0 47 -39v-127q0 -39 -47 -39h-110q-47 0 -47 39v127q0 39 47 39z" />
    <glyph glyph-name="Ntilde" unicode="&#xd1;" 
d="M1162 1763h111q47 0 47 -39v-127q0 -39 -47 -39h-111q-47 0 -47 39v127q0 39 47 39zM1162 1542h111q47 0 47 -39v-127q0 -39 -47 -39h-111q-47 0 -47 39v127q0 39 47 39zM1162 877h111q47 0 47 -39v-126q0 -39 -47 -39h-111q-47 0 -47 39v126q0 39 47 39zM1162 656h111
q47 0 47 -39v-127q0 -39 -47 -39h-111q-47 0 -47 39v127q0 39 47 39zM941 1984h110q47 0 47 -39v-126q0 -39 -47 -39h-110q-47 0 -47 39v126q0 39 47 39zM941 435h110q47 0 47 -39v-127q0 -39 -47 -39h-110q-47 0 -47 39v127q0 39 47 39zM720 1984h110q47 0 47 -39v-126
q0 -39 -47 -39h-110q-47 0 -47 39v126q0 39 47 39zM720 435h110q47 0 47 -39v-127q0 -39 -47 -39h-110q-47 0 -47 39v127q0 39 47 39zM498 1984h111q47 0 47 -39v-126q0 -39 -47 -39h-111q-47 0 -47 39v126q0 39 47 39zM498 435h111q47 0 47 -39v-127q0 -39 -47 -39h-111
q-47 0 -47 39v127q0 39 47 39zM277 1763h110q47 0 47 -39v-127q0 -39 -47 -39h-110q-47 0 -47 39v127q0 39 47 39zM277 1542h110q47 0 47 -39v-127q0 -39 -47 -39h-110q-47 0 -47 39v127q0 39 47 39zM277 1320h110q47 0 47 -39v-127q0 -39 -47 -39h-110q-47 0 -47 39v127
q0 39 47 39zM277 1099h110q47 0 47 -39v-127q0 -39 -47 -39h-110q-47 0 -47 39v127q0 39 47 39zM277 877h110q47 0 47 -39v-126q0 -39 -47 -39h-110q-47 0 -47 39v126q0 39 47 39zM277 656h110q47 0 47 -39v-127q0 -39 -47 -39h-110q-47 0 -47 39v127q0 39 47 39z" />
    <glyph glyph-name="D" unicode="D" 
d="M1162 1763h111q47 0 47 -39v-127q0 -39 -47 -39h-111q-47 0 -47 39v127q0 39 47 39zM1162 1542h111q47 0 47 -39v-127q0 -39 -47 -39h-111q-47 0 -47 39v127q0 39 47 39zM1162 1320h111q47 0 47 -39v-127q0 -39 -47 -39h-111q-47 0 -47 39v127q0 39 47 39zM1162 1099h111
q47 0 47 -39v-127q0 -39 -47 -39h-111q-47 0 -47 39v127q0 39 47 39zM1162 877h111q47 0 47 -39v-126q0 -39 -47 -39h-111q-47 0 -47 39v126q0 39 47 39zM1162 656h111q47 0 47 -39v-127q0 -39 -47 -39h-111q-47 0 -47 39v127q0 39 47 39zM941 1984h110q47 0 47 -39v-126
q0 -39 -47 -39h-110q-47 0 -47 39v126q0 39 47 39zM941 435h110q47 0 47 -39v-127q0 -39 -47 -39h-110q-47 0 -47 39v127q0 39 47 39zM720 1984h110q47 0 47 -39v-126q0 -39 -47 -39h-110q-47 0 -47 39v126q0 39 47 39zM720 435h110q47 0 47 -39v-127q0 -39 -47 -39h-110
q-47 0 -47 39v127q0 39 47 39zM498 1984h111q47 0 47 -39v-126q0 -39 -47 -39h-111q-47 0 -47 39v126q0 39 47 39zM498 435h111q47 0 47 -39v-127q0 -39 -47 -39h-111q-47 0 -47 39v127q0 39 47 39zM277 1984h110q47 0 47 -39v-126q0 -39 -47 -39h-110q-47 0 -47 39v126
q0 39 47 39zM277 1763h110q47 0 47 -39v-127q0 -39 -47 -39h-110q-47 0 -47 39v127q0 39 47 39zM277 1542h110q47 0 47 -39v-127q0 -39 -47 -39h-110q-47 0 -47 39v127q0 39 47 39zM277 1320h110q47 0 47 -39v-127q0 -39 -47 -39h-110q-47 0 -47 39v127q0 39 47 39z
M277 1099h110q47 0 47 -39v-127q0 -39 -47 -39h-110q-47 0 -47 39v127q0 39 47 39zM277 877h110q47 0 47 -39v-126q0 -39 -47 -39h-110q-47 0 -47 39v126q0 39 47 39zM277 656h110q47 0 47 -39v-127q0 -39 -47 -39h-110q-47 0 -47 39v127q0 39 47 39zM277 435h110
q47 0 47 -39v-127q0 -39 -47 -39h-110q-47 0 -47 39v127q0 39 47 39z" />
    <glyph glyph-name="E" unicode="E" 
d="M1162 1984h111q47 0 47 -39v-126q0 -39 -47 -39h-111q-47 0 -47 39v126q0 39 47 39zM1162 435h111q47 0 47 -39v-127q0 -39 -47 -39h-111q-47 0 -47 39v127q0 39 47 39zM941 1984h110q47 0 47 -39v-126q0 -39 -47 -39h-110q-47 0 -47 39v126q0 39 47 39zM941 1099h110
q47 0 47 -39v-127q0 -39 -47 -39h-110q-47 0 -47 39v127q0 39 47 39zM941 435h110q47 0 47 -39v-127q0 -39 -47 -39h-110q-47 0 -47 39v127q0 39 47 39zM720 1984h110q47 0 47 -39v-126q0 -39 -47 -39h-110q-47 0 -47 39v126q0 39 47 39zM720 1099h110q47 0 47 -39v-127
q0 -39 -47 -39h-110q-47 0 -47 39v127q0 39 47 39zM720 435h110q47 0 47 -39v-127q0 -39 -47 -39h-110q-47 0 -47 39v127q0 39 47 39zM498 1984h111q47 0 47 -39v-126q0 -39 -47 -39h-111q-47 0 -47 39v126q0 39 47 39zM498 1099h111q47 0 47 -39v-127q0 -39 -47 -39h-111
q-47 0 -47 39v127q0 39 47 39zM498 435h111q47 0 47 -39v-127q0 -39 -47 -39h-111q-47 0 -47 39v127q0 39 47 39zM277 1984h110q47 0 47 -39v-126q0 -39 -47 -39h-110q-47 0 -47 39v126q0 39 47 39zM277 1763h110q47 0 47 -39v-127q0 -39 -47 -39h-110q-47 0 -47 39v127
q0 39 47 39zM277 1542h110q47 0 47 -39v-127q0 -39 -47 -39h-110q-47 0 -47 39v127q0 39 47 39zM277 1320h110q47 0 47 -39v-127q0 -39 -47 -39h-110q-47 0 -47 39v127q0 39 47 39zM277 1099h110q47 0 47 -39v-127q0 -39 -47 -39h-110q-47 0 -47 39v127q0 39 47 39zM277 877
h110q47 0 47 -39v-126q0 -39 -47 -39h-110q-47 0 -47 39v126q0 39 47 39zM277 656h110q47 0 47 -39v-127q0 -39 -47 -39h-110q-47 0 -47 39v127q0 39 47 39zM277 435h110q47 0 47 -39v-127q0 -39 -47 -39h-110q-47 0 -47 39v127q0 39 47 39z" />
    <glyph glyph-name="Aring" unicode="&#xc5;" 
d="M1162 1984h111q47 0 47 -39v-126q0 -39 -47 -39h-111q-47 0 -47 39v126q0 39 47 39zM1162 435h111q47 0 47 -39v-127q0 -39 -47 -39h-111q-47 0 -47 39v127q0 39 47 39zM941 1984h110q47 0 47 -39v-126q0 -39 -47 -39h-110q-47 0 -47 39v126q0 39 47 39zM941 1099h110
q47 0 47 -39v-127q0 -39 -47 -39h-110q-47 0 -47 39v127q0 39 47 39zM941 435h110q47 0 47 -39v-127q0 -39 -47 -39h-110q-47 0 -47 39v127q0 39 47 39zM720 1984h110q47 0 47 -39v-126q0 -39 -47 -39h-110q-47 0 -47 39v126q0 39 47 39zM720 1099h110q47 0 47 -39v-127
q0 -39 -47 -39h-110q-47 0 -47 39v127q0 39 47 39zM720 435h110q47 0 47 -39v-127q0 -39 -47 -39h-110q-47 0 -47 39v127q0 39 47 39zM498 1984h111q47 0 47 -39v-126q0 -39 -47 -39h-111q-47 0 -47 39v126q0 39 47 39zM498 1099h111q47 0 47 -39v-127q0 -39 -47 -39h-111
q-47 0 -47 39v127q0 39 47 39zM498 435h111q47 0 47 -39v-127q0 -39 -47 -39h-111q-47 0 -47 39v127q0 39 47 39zM277 1984h110q47 0 47 -39v-126q0 -39 -47 -39h-110q-47 0 -47 39v126q0 39 47 39zM277 1763h110q47 0 47 -39v-127q0 -39 -47 -39h-110q-47 0 -47 39v127
q0 39 47 39zM277 1542h110q47 0 47 -39v-127q0 -39 -47 -39h-110q-47 0 -47 39v127q0 39 47 39zM277 1320h110q47 0 47 -39v-127q0 -39 -47 -39h-110q-47 0 -47 39v127q0 39 47 39zM277 1099h110q47 0 47 -39v-127q0 -39 -47 -39h-110q-47 0 -47 39v127q0 39 47 39zM277 877
h110q47 0 47 -39v-126q0 -39 -47 -39h-110q-47 0 -47 39v126q0 39 47 39zM277 656h110q47 0 47 -39v-127q0 -39 -47 -39h-110q-47 0 -47 39v127q0 39 47 39zM277 435h110q47 0 47 -39v-127q0 -39 -47 -39h-110q-47 0 -47 39v127q0 39 47 39z" />
    <glyph glyph-name="F" unicode="F" 
d="M277 435h110q47 0 47 -39v-127q0 -39 -47 -39h-110q-47 0 -47 39v127q0 39 47 39zM277 656h110q47 0 47 -39v-127q0 -39 -47 -39h-110q-47 0 -47 39v127q0 39 47 39zM277 877h110q47 0 47 -39v-126q0 -39 -47 -39h-110q-47 0 -47 39v126q0 39 47 39zM277 1099h110
q47 0 47 -39v-127q0 -39 -47 -39h-110q-47 0 -47 39v127q0 39 47 39zM277 1320h110q47 0 47 -39v-127q0 -39 -47 -39h-110q-47 0 -47 39v127q0 39 47 39zM277 1542h110q47 0 47 -39v-127q0 -39 -47 -39h-110q-47 0 -47 39v127q0 39 47 39zM277 1763h110q47 0 47 -39v-127
q0 -39 -47 -39h-110q-47 0 -47 39v127q0 39 47 39zM277 1984h110q47 0 47 -39v-126q0 -39 -47 -39h-110q-47 0 -47 39v126q0 39 47 39zM498 1099h111q47 0 47 -39v-127q0 -39 -47 -39h-111q-47 0 -47 39v127q0 39 47 39zM498 1984h111q47 0 47 -39v-126q0 -39 -47 -39h-111
q-47 0 -47 39v126q0 39 47 39zM720 1099h110q47 0 47 -39v-127q0 -39 -47 -39h-110q-47 0 -47 39v127q0 39 47 39zM720 1984h110q47 0 47 -39v-126q0 -39 -47 -39h-110q-47 0 -47 39v126q0 39 47 39zM941 1099h110q47 0 47 -39v-127q0 -39 -47 -39h-110q-47 0 -47 39v127
q0 39 47 39zM941 1984h110q47 0 47 -39v-126q0 -39 -47 -39h-110q-47 0 -47 39v126q0 39 47 39zM1162 1984h111q47 0 47 -39v-126q0 -39 -47 -39h-111q-47 0 -47 39v126q0 39 47 39z" />
    <glyph glyph-name="G" unicode="G" 
d="M1162 1763h111q47 0 47 -39v-127q0 -39 -47 -39h-111q-47 0 -47 39v127q0 39 47 39zM1162 877h111q47 0 47 -39v-126q0 -39 -47 -39h-111q-47 0 -47 39v126q0 39 47 39zM1162 1099h111q47 0 47 -39v-127q0 -39 -47 -39h-111q-47 0 -47 39v127q0 39 47 39zM1162 656h111
q47 0 47 -39v-127q0 -39 -47 -39h-111q-47 0 -47 39v127q0 39 47 39zM941 1984h110q47 0 47 -39v-126q0 -39 -47 -39h-110q-47 0 -47 39v126q0 39 47 39zM941 1099h110q47 0 47 -39v-127q0 -39 -47 -39h-110q-47 0 -47 39v127q0 39 47 39zM941 435h110q47 0 47 -39v-127
q0 -39 -47 -39h-110q-47 0 -47 39v127q0 39 47 39zM720 1984h110q47 0 47 -39v-126q0 -39 -47 -39h-110q-47 0 -47 39v126q0 39 47 39zM720 1099h110q47 0 47 -39v-127q0 -39 -47 -39h-110q-47 0 -47 39v127q0 39 47 39zM720 435h110q47 0 47 -39v-127q0 -39 -47 -39h-110
q-47 0 -47 39v127q0 39 47 39zM498 1984h111q47 0 47 -39v-126q0 -39 -47 -39h-111q-47 0 -47 39v126q0 39 47 39zM498 435h111q47 0 47 -39v-127q0 -39 -47 -39h-111q-47 0 -47 39v127q0 39 47 39zM277 1763h110q47 0 47 -39v-127q0 -39 -47 -39h-110q-47 0 -47 39v127
q0 39 47 39zM277 1542h110q47 0 47 -39v-127q0 -39 -47 -39h-110q-47 0 -47 39v127q0 39 47 39zM277 1320h110q47 0 47 -39v-127q0 -39 -47 -39h-110q-47 0 -47 39v127q0 39 47 39zM277 1099h110q47 0 47 -39v-127q0 -39 -47 -39h-110q-47 0 -47 39v127q0 39 47 39zM277 877
h110q47 0 47 -39v-126q0 -39 -47 -39h-110q-47 0 -47 39v126q0 39 47 39zM277 656h110q47 0 47 -39v-127q0 -39 -47 -39h-110q-47 0 -47 39v127q0 39 47 39z" />
    <glyph glyph-name="H" unicode="H" 
d="M1162 1984h111q47 0 47 -39v-126q0 -39 -47 -39h-111q-47 0 -47 39v126q0 39 47 39zM1162 1763h111q47 0 47 -39v-127q0 -39 -47 -39h-111q-47 0 -47 39v127q0 39 47 39zM1162 1542h111q47 0 47 -39v-127q0 -39 -47 -39h-111q-47 0 -47 39v127q0 39 47 39zM1162 1320h111
q47 0 47 -39v-127q0 -39 -47 -39h-111q-47 0 -47 39v127q0 39 47 39zM1162 1099h111q47 0 47 -39v-127q0 -39 -47 -39h-111q-47 0 -47 39v127q0 39 47 39zM1162 877h111q47 0 47 -39v-126q0 -39 -47 -39h-111q-47 0 -47 39v126q0 39 47 39zM1162 656h111q47 0 47 -39v-127
q0 -39 -47 -39h-111q-47 0 -47 39v127q0 39 47 39zM1162 435h111q47 0 47 -39v-127q0 -39 -47 -39h-111q-47 0 -47 39v127q0 39 47 39zM941 1099h110q47 0 47 -39v-127q0 -39 -47 -39h-110q-47 0 -47 39v127q0 39 47 39zM720 1099h110q47 0 47 -39v-127q0 -39 -47 -39h-110
q-47 0 -47 39v127q0 39 47 39zM498 1099h111q47 0 47 -39v-127q0 -39 -47 -39h-111q-47 0 -47 39v127q0 39 47 39zM277 1984h110q47 0 47 -39v-126q0 -39 -47 -39h-110q-47 0 -47 39v126q0 39 47 39zM277 1763h110q47 0 47 -39v-127q0 -39 -47 -39h-110q-47 0 -47 39v127
q0 39 47 39zM277 1542h110q47 0 47 -39v-127q0 -39 -47 -39h-110q-47 0 -47 39v127q0 39 47 39zM277 1320h110q47 0 47 -39v-127q0 -39 -47 -39h-110q-47 0 -47 39v127q0 39 47 39zM277 1099h110q47 0 47 -39v-127q0 -39 -47 -39h-110q-47 0 -47 39v127q0 39 47 39zM277 877
h110q47 0 47 -39v-126q0 -39 -47 -39h-110q-47 0 -47 39v126q0 39 47 39zM277 656h110q47 0 47 -39v-127q0 -39 -47 -39h-110q-47 0 -47 39v127q0 39 47 39zM277 435h110q47 0 47 -39v-127q0 -39 -47 -39h-110q-47 0 -47 39v127q0 39 47 39z" />
    <glyph glyph-name="Iacute" unicode="&#xcd;" 
d="M1162 1985h111q47 0 47 -39v-127q0 -39 -47 -39h-111q-47 0 -47 39v127q0 39 47 39zM1162 1763h111q47 0 47 -39v-127q0 -39 -47 -39h-111q-47 0 -47 39v127q0 39 47 39zM1162 1542h111q47 0 47 -39v-127q0 -39 -47 -39h-111q-47 0 -47 39v127q0 39 47 39zM1162 1320h111
q47 0 47 -39v-126q0 -40 -47 -40h-111q-47 0 -47 40v126q0 39 47 39zM1162 1099h111q47 0 47 -39v-127q0 -39 -47 -39h-111q-47 0 -47 39v127q0 39 47 39zM1162 878h111q47 0 47 -40v-126q0 -39 -47 -39h-111q-47 0 -47 39v126q0 40 47 40zM1162 656h111q47 0 47 -39v-127
q0 -39 -47 -39h-111q-47 0 -47 39v127q0 39 47 39zM1162 435h111q47 0 47 -39v-127q0 -39 -47 -39h-111q-47 0 -47 39v127q0 39 47 39zM941 1099h111q47 0 47 -39v-127q0 -39 -47 -39h-111q-47 0 -47 39v127q0 39 47 39zM720 1099h110q47 0 47 -39v-127q0 -39 -47 -39h-110
q-47 0 -47 39v127q0 39 47 39zM498 1099h111q47 0 47 -39v-127q0 -39 -47 -39h-111q-47 0 -47 39v127q0 39 47 39zM277 1985h110q47 0 47 -39v-127q0 -39 -47 -39h-110q-47 0 -47 39v127q0 39 47 39zM277 1763h110q47 0 47 -39v-127q0 -39 -47 -39h-110q-47 0 -47 39v127
q0 39 47 39zM277 1542h110q47 0 47 -39v-127q0 -39 -47 -39h-110q-47 0 -47 39v127q0 39 47 39zM277 1320h110q47 0 47 -39v-126q0 -40 -47 -40h-110q-47 0 -47 40v126q0 39 47 39zM277 1099h110q47 0 47 -39v-127q0 -39 -47 -39h-110q-47 0 -47 39v127q0 39 47 39zM277 878
h110q47 0 47 -40v-126q0 -39 -47 -39h-110q-47 0 -47 39v126q0 40 47 40zM277 656h110q47 0 47 -39v-127q0 -39 -47 -39h-110q-47 0 -47 39v127q0 39 47 39zM277 435h110q47 0 47 -39v-127q0 -39 -47 -39h-110q-47 0 -47 39v127q0 39 47 39z" />
    <glyph glyph-name="I" unicode="I" 
d="M1162 1984h111q47 0 47 -39v-126q0 -39 -47 -39h-111q-47 0 -47 39v126q0 39 47 39zM1162 435h111q47 0 47 -39v-127q0 -39 -47 -39h-111q-47 0 -47 39v127q0 39 47 39zM941 1984h110q47 0 47 -39v-126q0 -39 -47 -39h-110q-47 0 -47 39v126q0 39 47 39zM941 435h110
q47 0 47 -39v-127q0 -39 -47 -39h-110q-47 0 -47 39v127q0 39 47 39zM720 1984h110q47 0 47 -39v-126q0 -39 -47 -39h-110q-47 0 -47 39v126q0 39 47 39zM720 1763h110q47 0 47 -39v-127q0 -39 -47 -39h-110q-47 0 -47 39v127q0 39 47 39zM720 1542h110q47 0 47 -39v-127
q0 -39 -47 -39h-110q-47 0 -47 39v127q0 39 47 39zM720 1320h110q47 0 47 -39v-127q0 -39 -47 -39h-110q-47 0 -47 39v127q0 39 47 39zM720 1099h110q47 0 47 -39v-127q0 -39 -47 -39h-110q-47 0 -47 39v127q0 39 47 39zM720 877h110q47 0 47 -39v-126q0 -39 -47 -39h-110
q-47 0 -47 39v126q0 39 47 39zM720 656h110q47 0 47 -39v-127q0 -39 -47 -39h-110q-47 0 -47 39v127q0 39 47 39zM720 435h110q47 0 47 -39v-127q0 -39 -47 -39h-110q-47 0 -47 39v127q0 39 47 39zM498 1984h111q47 0 47 -39v-126q0 -39 -47 -39h-111q-47 0 -47 39v126
q0 39 47 39zM498 435h111q47 0 47 -39v-127q0 -39 -47 -39h-111q-47 0 -47 39v127q0 39 47 39zM277 1984h110q47 0 47 -39v-126q0 -39 -47 -39h-110q-47 0 -47 39v126q0 39 47 39zM277 435h110q47 0 47 -39v-127q0 -39 -47 -39h-110q-47 0 -47 39v127q0 39 47 39z" />
    <glyph glyph-name="T" unicode="T" 
d="M277 1984h110q47 0 47 -39v-126q0 -39 -47 -39h-110q-47 0 -47 39v126q0 39 47 39zM498 1984h111q47 0 47 -39v-126q0 -39 -47 -39h-111q-47 0 -47 39v126q0 39 47 39zM720 435h110q47 0 47 -39v-127q0 -39 -47 -39h-110q-47 0 -47 39v127q0 39 47 39zM720 656h110
q47 0 47 -39v-127q0 -39 -47 -39h-110q-47 0 -47 39v127q0 39 47 39zM720 877h110q47 0 47 -39v-126q0 -39 -47 -39h-110q-47 0 -47 39v126q0 39 47 39zM720 1099h110q47 0 47 -39v-127q0 -39 -47 -39h-110q-47 0 -47 39v127q0 39 47 39zM720 1320h110q47 0 47 -39v-127
q0 -39 -47 -39h-110q-47 0 -47 39v127q0 39 47 39zM720 1542h110q47 0 47 -39v-127q0 -39 -47 -39h-110q-47 0 -47 39v127q0 39 47 39zM720 1763h110q47 0 47 -39v-127q0 -39 -47 -39h-110q-47 0 -47 39v127q0 39 47 39zM720 1984h110q47 0 47 -39v-126q0 -39 -47 -39h-110
q-47 0 -47 39v126q0 39 47 39zM941 1984h110q47 0 47 -39v-126q0 -39 -47 -39h-110q-47 0 -47 39v126q0 39 47 39zM1162 1984h111q47 0 47 -39v-126q0 -39 -47 -39h-111q-47 0 -47 39v126q0 39 47 39z" />
    <glyph glyph-name="Ograve" unicode="&#xd2;" 
d="M277 1984h110q47 0 47 -39v-126q0 -39 -47 -39h-110q-47 0 -47 39v126q0 39 47 39zM498 1984h111q47 0 47 -39v-126q0 -39 -47 -39h-111q-47 0 -47 39v126q0 39 47 39zM720 435h110q47 0 47 -39v-127q0 -39 -47 -39h-110q-47 0 -47 39v127q0 39 47 39zM720 656h110
q47 0 47 -39v-127q0 -39 -47 -39h-110q-47 0 -47 39v127q0 39 47 39zM720 877h110q47 0 47 -39v-126q0 -39 -47 -39h-110q-47 0 -47 39v126q0 39 47 39zM720 1099h110q47 0 47 -39v-127q0 -39 -47 -39h-110q-47 0 -47 39v127q0 39 47 39zM720 1320h110q47 0 47 -39v-127
q0 -39 -47 -39h-110q-47 0 -47 39v127q0 39 47 39zM720 1542h110q47 0 47 -39v-127q0 -39 -47 -39h-110q-47 0 -47 39v127q0 39 47 39zM720 1763h110q47 0 47 -39v-127q0 -39 -47 -39h-110q-47 0 -47 39v127q0 39 47 39zM720 1984h110q47 0 47 -39v-126q0 -39 -47 -39h-110
q-47 0 -47 39v126q0 39 47 39zM941 1984h110q47 0 47 -39v-126q0 -39 -47 -39h-110q-47 0 -47 39v126q0 39 47 39zM1162 1984h111q47 0 47 -39v-126q0 -39 -47 -39h-111q-47 0 -47 39v126q0 39 47 39z" />
    <glyph glyph-name="J" unicode="J" 
d="M1162 1984h111q47 0 47 -39v-126q0 -39 -47 -39h-111q-47 0 -47 39v126q0 39 47 39zM1162 1763h111q47 0 47 -39v-127q0 -39 -47 -39h-111q-47 0 -47 39v127q0 39 47 39zM1162 1542h111q47 0 47 -39v-127q0 -39 -47 -39h-111q-47 0 -47 39v127q0 39 47 39zM1162 1320h111
q47 0 47 -39v-127q0 -39 -47 -39h-111q-47 0 -47 39v127q0 39 47 39zM1162 1099h111q47 0 47 -39v-127q0 -39 -47 -39h-111q-47 0 -47 39v127q0 39 47 39zM1162 877h111q47 0 47 -39v-126q0 -39 -47 -39h-111q-47 0 -47 39v126q0 39 47 39zM1162 656h111q47 0 47 -39v-127
q0 -39 -47 -39h-111q-47 0 -47 39v127q0 39 47 39zM941 1984h110q47 0 47 -39v-126q0 -39 -47 -39h-110q-47 0 -47 39v126q0 39 47 39zM941 435h110q47 0 47 -39v-127q0 -39 -47 -39h-110q-47 0 -47 39v127q0 39 47 39zM720 1984h110q47 0 47 -39v-126q0 -39 -47 -39h-110
q-47 0 -47 39v126q0 39 47 39zM720 435h110q47 0 47 -39v-127q0 -39 -47 -39h-110q-47 0 -47 39v127q0 39 47 39zM498 1984h111q47 0 47 -39v-126q0 -39 -47 -39h-111q-47 0 -47 39v126q0 39 47 39zM498 435h111q47 0 47 -39v-127q0 -39 -47 -39h-111q-47 0 -47 39v127
q0 39 47 39zM277 1984h110q47 0 47 -39v-126q0 -39 -47 -39h-110q-47 0 -47 39v126q0 39 47 39zM277 877h110q47 0 47 -39v-126q0 -39 -47 -39h-110q-47 0 -47 39v126q0 39 47 39zM277 656h110q47 0 47 -39v-127q0 -39 -47 -39h-110q-47 0 -47 39v127q0 39 47 39z" />
    <glyph glyph-name="K" unicode="K" 
d="M1162 1984h111q47 0 47 -39v-126q0 -39 -47 -39h-111q-47 0 -47 39v126q0 39 47 39zM1162 435h111q47 0 47 -39v-127q0 -39 -47 -39h-111q-47 0 -47 39v127q0 39 47 39zM1162 656h111q47 0 47 -39v-127q0 -39 -47 -39h-111q-47 0 -47 39v127q0 39 47 39zM1162 877h111
q47 0 47 -39v-126q0 -39 -47 -39h-111q-47 0 -47 39v126q0 39 47 39zM941 1763h110q47 0 47 -39v-127q0 -39 -47 -39h-110q-47 0 -47 39v127q0 39 47 39zM941 1099h110q47 0 47 -39v-127q0 -39 -47 -39h-110q-47 0 -47 39v127q0 39 47 39zM720 1542h110q47 0 47 -39v-127
q0 -39 -47 -39h-110q-47 0 -47 39v127q0 39 47 39zM720 1099h110q47 0 47 -39v-127q0 -39 -47 -39h-110q-47 0 -47 39v127q0 39 47 39zM498 1320h111q47 0 47 -39v-127q0 -39 -47 -39h-111q-47 0 -47 39v127q0 39 47 39zM498 1099h111q47 0 47 -39v-127q0 -39 -47 -39h-111
q-47 0 -47 39v127q0 39 47 39zM277 1984h110q47 0 47 -39v-126q0 -39 -47 -39h-110q-47 0 -47 39v126q0 39 47 39zM277 1763h110q47 0 47 -39v-127q0 -39 -47 -39h-110q-47 0 -47 39v127q0 39 47 39zM277 1542h110q47 0 47 -39v-127q0 -39 -47 -39h-110q-47 0 -47 39v127
q0 39 47 39zM277 1320h110q47 0 47 -39v-127q0 -39 -47 -39h-110q-47 0 -47 39v127q0 39 47 39zM277 1099h110q47 0 47 -39v-127q0 -39 -47 -39h-110q-47 0 -47 39v127q0 39 47 39zM277 877h110q47 0 47 -39v-126q0 -39 -47 -39h-110q-47 0 -47 39v126q0 39 47 39zM277 656
h110q47 0 47 -39v-127q0 -39 -47 -39h-110q-47 0 -47 39v127q0 39 47 39zM277 435h110q47 0 47 -39v-127q0 -39 -47 -39h-110q-47 0 -47 39v127q0 39 47 39z" />
    <glyph glyph-name="Ecircumflex" unicode="&#xca;" 
d="M1162 1984h111q47 0 47 -39v-126q0 -39 -47 -39h-111q-47 0 -47 39v126q0 39 47 39zM1162 435h111q47 0 47 -39v-127q0 -39 -47 -39h-111q-47 0 -47 39v127q0 39 47 39zM1162 656h111q47 0 47 -39v-127q0 -39 -47 -39h-111q-47 0 -47 39v127q0 39 47 39zM941 1763h110
q47 0 47 -39v-127q0 -39 -47 -39h-110q-47 0 -47 39v127q0 39 47 39zM941 877h110q47 0 47 -39v-126q0 -39 -47 -39h-110q-47 0 -47 39v126q0 39 47 39zM720 1542h110q47 0 47 -39v-127q0 -39 -47 -39h-110q-47 0 -47 39v127q0 39 47 39zM720 1099h110q47 0 47 -39v-127
q0 -39 -47 -39h-110q-47 0 -47 39v127q0 39 47 39zM498 1320h111q47 0 47 -39v-127q0 -39 -47 -39h-111q-47 0 -47 39v127q0 39 47 39zM277 1984h110q47 0 47 -39v-126q0 -39 -47 -39h-110q-47 0 -47 39v126q0 39 47 39zM277 1763h110q47 0 47 -39v-127q0 -39 -47 -39h-110
q-47 0 -47 39v127q0 39 47 39zM277 1542h110q47 0 47 -39v-127q0 -39 -47 -39h-110q-47 0 -47 39v127q0 39 47 39zM277 1320h110q47 0 47 -39v-127q0 -39 -47 -39h-110q-47 0 -47 39v127q0 39 47 39zM277 1099h110q47 0 47 -39v-127q0 -39 -47 -39h-110q-47 0 -47 39v127
q0 39 47 39zM277 877h110q47 0 47 -39v-126q0 -39 -47 -39h-110q-47 0 -47 39v126q0 39 47 39zM277 656h110q47 0 47 -39v-127q0 -39 -47 -39h-110q-47 0 -47 39v127q0 39 47 39zM277 435h110q47 0 47 -39v-127q0 -39 -47 -39h-110q-47 0 -47 39v127q0 39 47 39z" />
    <glyph glyph-name="L" unicode="L" 
d="M1162 435h111q47 0 47 -39v-127q0 -39 -47 -39h-111q-47 0 -47 39v127q0 39 47 39zM941 435h111q47 0 47 -39v-127q0 -39 -47 -39h-111q-47 0 -47 39v127q0 39 47 39zM720 435h110q47 0 47 -39v-127q0 -39 -47 -39h-110q-47 0 -47 39v127q0 39 47 39zM498 435h111
q47 0 47 -39v-127q0 -39 -47 -39h-111q-47 0 -47 39v127q0 39 47 39zM277 1985h110q47 0 47 -39v-127q0 -39 -47 -39h-110q-47 0 -47 39v127q0 39 47 39zM277 1763h110q47 0 47 -39v-127q0 -39 -47 -39h-110q-47 0 -47 39v127q0 39 47 39zM277 1542h110q47 0 47 -39v-127
q0 -39 -47 -39h-110q-47 0 -47 39v127q0 39 47 39zM277 1320h110q47 0 47 -39v-126q0 -40 -47 -40h-110q-47 0 -47 40v126q0 39 47 39zM277 1099h110q47 0 47 -39v-127q0 -39 -47 -39h-110q-47 0 -47 39v127q0 39 47 39zM277 878h110q47 0 47 -40v-126q0 -39 -47 -39h-110
q-47 0 -47 39v126q0 40 47 40zM277 656h110q47 0 47 -39v-127q0 -39 -47 -39h-110q-47 0 -47 39v127q0 39 47 39zM277 435h110q47 0 47 -39v-127q0 -39 -47 -39h-110q-47 0 -47 39v127q0 39 47 39z" />
    <glyph glyph-name="M" unicode="M" 
d="M1384 1985h110q48 0 48 -39v-127q0 -39 -48 -39h-110q-47 0 -47 39v127q0 39 47 39zM1384 1763h110q48 0 48 -39v-127q0 -39 -48 -39h-110q-47 0 -47 39v127q0 39 47 39zM1384 1542h110q48 0 48 -39v-127q0 -39 -48 -39h-110q-47 0 -47 39v127q0 39 47 39zM1384 1320h110
q48 0 48 -39v-126q0 -40 -48 -40h-110q-47 0 -47 40v126q0 39 47 39zM1384 1099h110q48 0 48 -39v-127q0 -39 -48 -39h-110q-47 0 -47 39v127q0 39 47 39zM1384 878h110q48 0 48 -40v-126q0 -39 -48 -39h-110q-47 0 -47 39v126q0 40 47 40zM1384 656h110q48 0 48 -39v-127
q0 -39 -48 -39h-110q-47 0 -47 39v127q0 39 47 39zM1384 435h110q48 0 48 -39v-127q0 -39 -48 -39h-110q-47 0 -47 39v127q0 39 47 39zM1162 1763h111q47 0 47 -39v-127q0 -39 -47 -39h-111q-47 0 -47 39v127q0 39 47 39zM941 1542h111q47 0 47 -39v-127q0 -39 -47 -39h-111
q-47 0 -47 39v127q0 39 47 39zM720 1542h110q47 0 47 -39v-127q0 -39 -47 -39h-110q-47 0 -47 39v127q0 39 47 39zM498 1763h111q47 0 47 -39v-127q0 -39 -47 -39h-111q-47 0 -47 39v127q0 39 47 39zM277 1985h110q47 0 47 -39v-127q0 -39 -47 -39h-110q-47 0 -47 39v127
q0 39 47 39zM277 1763h110q47 0 47 -39v-127q0 -39 -47 -39h-110q-47 0 -47 39v127q0 39 47 39zM277 1542h110q47 0 47 -39v-127q0 -39 -47 -39h-110q-47 0 -47 39v127q0 39 47 39zM277 1320h110q47 0 47 -39v-126q0 -40 -47 -40h-110q-47 0 -47 40v126q0 39 47 39z
M277 1099h110q47 0 47 -39v-127q0 -39 -47 -39h-110q-47 0 -47 39v127q0 39 47 39zM277 878h110q47 0 47 -40v-126q0 -39 -47 -39h-110q-47 0 -47 39v126q0 40 47 40zM277 656h110q47 0 47 -39v-127q0 -39 -47 -39h-110q-47 0 -47 39v127q0 39 47 39zM277 435h110
q47 0 47 -39v-127q0 -39 -47 -39h-110q-47 0 -47 39v127q0 39 47 39z" />
    <glyph glyph-name="Igrave" unicode="&#xcc;" 
d="M1384 1984h110q47 0 47 -39v-126q0 -39 -47 -39h-110q-47 0 -47 39v126q0 39 47 39zM1384 1763h110q47 0 47 -39v-127q0 -39 -47 -39h-110q-47 0 -47 39v127q0 39 47 39zM1384 1542h110q47 0 47 -39v-127q0 -39 -47 -39h-110q-47 0 -47 39v127q0 39 47 39zM1384 1320h110
q47 0 47 -39v-127q0 -39 -47 -39h-110q-47 0 -47 39v127q0 39 47 39zM1384 1099h110q47 0 47 -39v-127q0 -39 -47 -39h-110q-47 0 -47 39v127q0 39 47 39zM1384 877h110q47 0 47 -39v-126q0 -39 -47 -39h-110q-47 0 -47 39v126q0 39 47 39zM1384 656h110q47 0 47 -39v-127
q0 -39 -47 -39h-110q-47 0 -47 39v127q0 39 47 39zM1384 435h110q47 0 47 -39v-127q0 -39 -47 -39h-110q-47 0 -47 39v127q0 39 47 39zM1162 1763h111q47 0 47 -39v-127q0 -39 -47 -39h-111q-47 0 -47 39v127q0 39 47 39zM941 1542h110q47 0 47 -39v-127q0 -39 -47 -39h-110
q-47 0 -47 39v127q0 39 47 39zM720 1542h110q47 0 47 -39v-127q0 -39 -47 -39h-110q-47 0 -47 39v127q0 39 47 39zM498 1763h111q47 0 47 -39v-127q0 -39 -47 -39h-111q-47 0 -47 39v127q0 39 47 39zM277 1984h110q47 0 47 -39v-126q0 -39 -47 -39h-110q-47 0 -47 39v126
q0 39 47 39zM277 1763h110q47 0 47 -39v-127q0 -39 -47 -39h-110q-47 0 -47 39v127q0 39 47 39zM277 1542h110q47 0 47 -39v-127q0 -39 -47 -39h-110q-47 0 -47 39v127q0 39 47 39zM277 1320h110q47 0 47 -39v-127q0 -39 -47 -39h-110q-47 0 -47 39v127q0 39 47 39z
M277 1099h110q47 0 47 -39v-127q0 -39 -47 -39h-110q-47 0 -47 39v127q0 39 47 39zM277 877h110q47 0 47 -39v-126q0 -39 -47 -39h-110q-47 0 -47 39v126q0 39 47 39zM277 656h110q47 0 47 -39v-127q0 -39 -47 -39h-110q-47 0 -47 39v127q0 39 47 39zM277 435h110
q47 0 47 -39v-127q0 -39 -47 -39h-110q-47 0 -47 39v127q0 39 47 39z" />
    <glyph glyph-name="N" unicode="N" 
d="M1162 1984h111q47 0 47 -39v-126q0 -39 -47 -39h-111q-47 0 -47 39v126q0 39 47 39zM1162 1763h111q47 0 47 -39v-127q0 -39 -47 -39h-111q-47 0 -47 39v127q0 39 47 39zM1162 1542h111q47 0 47 -39v-127q0 -39 -47 -39h-111q-47 0 -47 39v127q0 39 47 39zM1162 1320h111
q47 0 47 -39v-127q0 -39 -47 -39h-111q-47 0 -47 39v127q0 39 47 39zM1162 1099h111q47 0 47 -39v-127q0 -39 -47 -39h-111q-47 0 -47 39v127q0 39 47 39zM1162 877h111q47 0 47 -39v-126q0 -39 -47 -39h-111q-47 0 -47 39v126q0 39 47 39zM1162 656h111q47 0 47 -39v-127
q0 -39 -47 -39h-111q-47 0 -47 39v127q0 39 47 39zM1162 435h111q47 0 47 -39v-127q0 -39 -47 -39h-111q-47 0 -47 39v127q0 39 47 39zM941 877h110q47 0 47 -39v-126q0 -39 -47 -39h-110q-47 0 -47 39v126q0 39 47 39zM720 1099h110q47 0 47 -39v-127q0 -39 -47 -39h-110
q-47 0 -47 39v127q0 39 47 39zM498 1320h111q47 0 47 -39v-127q0 -39 -47 -39h-111q-47 0 -47 39v127q0 39 47 39zM277 1984h110q47 0 47 -39v-126q0 -39 -47 -39h-110q-47 0 -47 39v126q0 39 47 39zM277 1763h110q47 0 47 -39v-127q0 -39 -47 -39h-110q-47 0 -47 39v127
q0 39 47 39zM277 1542h110q47 0 47 -39v-127q0 -39 -47 -39h-110q-47 0 -47 39v127q0 39 47 39zM277 1320h110q47 0 47 -39v-127q0 -39 -47 -39h-110q-47 0 -47 39v127q0 39 47 39zM277 1099h110q47 0 47 -39v-127q0 -39 -47 -39h-110q-47 0 -47 39v127q0 39 47 39zM277 877
h110q47 0 47 -39v-126q0 -39 -47 -39h-110q-47 0 -47 39v126q0 39 47 39zM277 656h110q47 0 47 -39v-127q0 -39 -47 -39h-110q-47 0 -47 39v127q0 39 47 39zM277 435h110q47 0 47 -39v-127q0 -39 -47 -39h-110q-47 0 -47 39v127q0 39 47 39z" />
    <glyph glyph-name="Egrave" unicode="&#xc8;" 
d="M277 435h110q47 0 47 -39v-127q0 -39 -47 -39h-110q-47 0 -47 39v127q0 39 47 39zM277 656h110q47 0 47 -39v-127q0 -39 -47 -39h-110q-47 0 -47 39v127q0 39 47 39zM277 877h110q47 0 47 -39v-126q0 -39 -47 -39h-110q-47 0 -47 39v126q0 39 47 39zM277 1099h110
q47 0 47 -39v-127q0 -39 -47 -39h-110q-47 0 -47 39v127q0 39 47 39zM277 1320h110q47 0 47 -39v-127q0 -39 -47 -39h-110q-47 0 -47 39v127q0 39 47 39zM277 1542h110q47 0 47 -39v-127q0 -39 -47 -39h-110q-47 0 -47 39v127q0 39 47 39zM277 1763h110q47 0 47 -39v-127
q0 -39 -47 -39h-110q-47 0 -47 39v127q0 39 47 39zM277 1984h110q47 0 47 -39v-126q0 -39 -47 -39h-110q-47 0 -47 39v126q0 39 47 39zM498 877h111q47 0 47 -39v-126q0 -39 -47 -39h-111q-47 0 -47 39v126q0 39 47 39zM720 1099h110q47 0 47 -39v-127q0 -39 -47 -39h-110
q-47 0 -47 39v127q0 39 47 39zM941 1320h110q47 0 47 -39v-127q0 -39 -47 -39h-110q-47 0 -47 39v127q0 39 47 39zM1162 435h111q47 0 47 -39v-127q0 -39 -47 -39h-111q-47 0 -47 39v127q0 39 47 39zM1162 656h111q47 0 47 -39v-127q0 -39 -47 -39h-111q-47 0 -47 39v127
q0 39 47 39zM1162 877h111q47 0 47 -39v-126q0 -39 -47 -39h-111q-47 0 -47 39v126q0 39 47 39zM1162 1099h111q47 0 47 -39v-127q0 -39 -47 -39h-111q-47 0 -47 39v127q0 39 47 39zM1162 1320h111q47 0 47 -39v-127q0 -39 -47 -39h-111q-47 0 -47 39v127q0 39 47 39z
M1162 1542h111q47 0 47 -39v-127q0 -39 -47 -39h-111q-47 0 -47 39v127q0 39 47 39zM1162 1763h111q47 0 47 -39v-127q0 -39 -47 -39h-111q-47 0 -47 39v127q0 39 47 39zM1162 1984h111q47 0 47 -39v-126q0 -39 -47 -39h-111q-47 0 -47 39v126q0 39 47 39z" />
    <glyph glyph-name="Eacute" unicode="&#xc9;" 
d="M1162 1763h111q47 0 47 -39v-127q0 -39 -47 -39h-111q-47 0 -47 39v127q0 39 47 39zM1162 1542h111q47 0 47 -39v-127q0 -39 -47 -39h-111q-47 0 -47 39v127q0 39 47 39zM1162 1320h111q47 0 47 -39v-127q0 -39 -47 -39h-111q-47 0 -47 39v127q0 39 47 39zM1162 1099h111
q47 0 47 -39v-127q0 -39 -47 -39h-111q-47 0 -47 39v127q0 39 47 39zM1162 877h111q47 0 47 -39v-126q0 -39 -47 -39h-111q-47 0 -47 39v126q0 39 47 39zM1162 656h111q47 0 47 -39v-127q0 -39 -47 -39h-111q-47 0 -47 39v127q0 39 47 39zM1162 435h111q47 0 47 -39v-127
q0 -39 -47 -39h-111q-47 0 -47 39v127q0 39 47 39zM941 1320h110q47 0 47 -39v-127q0 -39 -47 -39h-110q-47 0 -47 39v127q0 39 47 39zM720 1099h110q47 0 47 -39v-127q0 -39 -47 -39h-110q-47 0 -47 39v127q0 39 47 39zM498 877h111q47 0 47 -39v-126q0 -39 -47 -39h-111
q-47 0 -47 39v126q0 39 47 39zM720 1984h110q47 0 47 -39v-126q0 -39 -47 -39h-110q-47 0 -47 39v126q0 39 47 39zM277 1763h110q47 0 47 -39v-127q0 -39 -47 -39h-110q-47 0 -47 39v127q0 39 47 39zM277 1542h110q47 0 47 -39v-127q0 -39 -47 -39h-110q-47 0 -47 39v127
q0 39 47 39zM277 1320h110q47 0 47 -39v-127q0 -39 -47 -39h-110q-47 0 -47 39v127q0 39 47 39zM277 1099h110q47 0 47 -39v-127q0 -39 -47 -39h-110q-47 0 -47 39v127q0 39 47 39zM277 877h110q47 0 47 -39v-126q0 -39 -47 -39h-110q-47 0 -47 39v126q0 39 47 39zM277 656
h110q47 0 47 -39v-127q0 -39 -47 -39h-110q-47 0 -47 39v127q0 39 47 39zM277 435h110q47 0 47 -39v-127q0 -39 -47 -39h-110q-47 0 -47 39v127q0 39 47 39z" />
    <glyph glyph-name="Icircumflex" unicode="&#xce;" 
d="M1162 1763h111q47 0 47 -39v-127q0 -39 -47 -39h-111q-47 0 -47 39v127q0 39 47 39zM1162 1542h111q47 0 47 -39v-127q0 -39 -47 -39h-111q-47 0 -47 39v127q0 39 47 39zM1162 1320h111q47 0 47 -39v-127q0 -39 -47 -39h-111q-47 0 -47 39v127q0 39 47 39zM1162 1099h111
q47 0 47 -39v-127q0 -39 -47 -39h-111q-47 0 -47 39v127q0 39 47 39zM1162 877h111q47 0 47 -39v-126q0 -39 -47 -39h-111q-47 0 -47 39v126q0 39 47 39zM1162 656h111q47 0 47 -39v-127q0 -39 -47 -39h-111q-47 0 -47 39v127q0 39 47 39zM941 1984h110q47 0 47 -39v-126
q0 -39 -47 -39h-110q-47 0 -47 39v126q0 39 47 39zM941 435h110q47 0 47 -39v-127q0 -39 -47 -39h-110q-47 0 -47 39v127q0 39 47 39zM720 1984h110q47 0 47 -39v-126q0 -39 -47 -39h-110q-47 0 -47 39v126q0 39 47 39zM720 435h110q47 0 47 -39v-127q0 -39 -47 -39h-110
q-47 0 -47 39v127q0 39 47 39zM498 1984h111q47 0 47 -39v-126q0 -39 -47 -39h-111q-47 0 -47 39v126q0 39 47 39zM498 435h111q47 0 47 -39v-127q0 -39 -47 -39h-111q-47 0 -47 39v127q0 39 47 39zM277 1763h110q47 0 47 -39v-127q0 -39 -47 -39h-110q-47 0 -47 39v127
q0 39 47 39zM277 1542h110q47 0 47 -39v-127q0 -39 -47 -39h-110q-47 0 -47 39v127q0 39 47 39zM277 1320h110q47 0 47 -39v-127q0 -39 -47 -39h-110q-47 0 -47 39v127q0 39 47 39zM277 1099h110q47 0 47 -39v-127q0 -39 -47 -39h-110q-47 0 -47 39v127q0 39 47 39zM277 877
h110q47 0 47 -39v-126q0 -39 -47 -39h-110q-47 0 -47 39v126q0 39 47 39zM277 656h110q47 0 47 -39v-127q0 -39 -47 -39h-110q-47 0 -47 39v127q0 39 47 39z" />
    <glyph glyph-name="O" unicode="O" 
d="M1162 1763h111q47 0 47 -39v-127q0 -39 -47 -39h-111q-47 0 -47 39v127q0 39 47 39zM1162 1542h111q47 0 47 -39v-127q0 -39 -47 -39h-111q-47 0 -47 39v127q0 39 47 39zM1162 1320h111q47 0 47 -39v-127q0 -39 -47 -39h-111q-47 0 -47 39v127q0 39 47 39zM1162 1099h111
q47 0 47 -39v-127q0 -39 -47 -39h-111q-47 0 -47 39v127q0 39 47 39zM1162 877h111q47 0 47 -39v-126q0 -39 -47 -39h-111q-47 0 -47 39v126q0 39 47 39zM1162 656h111q47 0 47 -39v-127q0 -39 -47 -39h-111q-47 0 -47 39v127q0 39 47 39zM941 1984h110q47 0 47 -39v-126
q0 -39 -47 -39h-110q-47 0 -47 39v126q0 39 47 39zM941 435h110q47 0 47 -39v-127q0 -39 -47 -39h-110q-47 0 -47 39v127q0 39 47 39zM720 1984h110q47 0 47 -39v-126q0 -39 -47 -39h-110q-47 0 -47 39v126q0 39 47 39zM720 435h110q47 0 47 -39v-127q0 -39 -47 -39h-110
q-47 0 -47 39v127q0 39 47 39zM498 1984h111q47 0 47 -39v-126q0 -39 -47 -39h-111q-47 0 -47 39v126q0 39 47 39zM498 435h111q47 0 47 -39v-127q0 -39 -47 -39h-111q-47 0 -47 39v127q0 39 47 39zM277 1763h110q47 0 47 -39v-127q0 -39 -47 -39h-110q-47 0 -47 39v127
q0 39 47 39zM277 1542h110q47 0 47 -39v-127q0 -39 -47 -39h-110q-47 0 -47 39v127q0 39 47 39zM277 1320h110q47 0 47 -39v-127q0 -39 -47 -39h-110q-47 0 -47 39v127q0 39 47 39zM277 1099h110q47 0 47 -39v-127q0 -39 -47 -39h-110q-47 0 -47 39v127q0 39 47 39zM277 877
h110q47 0 47 -39v-126q0 -39 -47 -39h-110q-47 0 -47 39v126q0 39 47 39zM277 656h110q47 0 47 -39v-127q0 -39 -47 -39h-110q-47 0 -47 39v127q0 39 47 39z" />
    <glyph glyph-name="R" unicode="R" 
d="M1162 1763h111q47 0 47 -39v-127q0 -39 -47 -39h-111q-47 0 -47 39v127q0 39 47 39zM1162 1542h111q47 0 47 -39v-127q0 -39 -47 -39h-111q-47 0 -47 39v127q0 39 47 39zM1162 1320h111q47 0 47 -39v-127q0 -39 -47 -39h-111q-47 0 -47 39v127q0 39 47 39zM1162 877h111
q47 0 47 -39v-126q0 -39 -47 -39h-111q-47 0 -47 39v126q0 39 47 39zM1162 656h111q47 0 47 -39v-127q0 -39 -47 -39h-111q-47 0 -47 39v127q0 39 47 39zM1162 435h111q47 0 47 -39v-127q0 -39 -47 -39h-111q-47 0 -47 39v127q0 39 47 39zM941 1984h110q47 0 47 -39v-126
q0 -39 -47 -39h-110q-47 0 -47 39v126q0 39 47 39zM941 1099h110q47 0 47 -39v-127q0 -39 -47 -39h-110q-47 0 -47 39v127q0 39 47 39zM720 1984h110q47 0 47 -39v-126q0 -39 -47 -39h-110q-47 0 -47 39v126q0 39 47 39zM720 1099h110q47 0 47 -39v-127q0 -39 -47 -39h-110
q-47 0 -47 39v127q0 39 47 39zM498 1984h111q47 0 47 -39v-126q0 -39 -47 -39h-111q-47 0 -47 39v126q0 39 47 39zM498 1099h111q47 0 47 -39v-127q0 -39 -47 -39h-111q-47 0 -47 39v127q0 39 47 39zM277 1984h110q47 0 47 -39v-126q0 -39 -47 -39h-110q-47 0 -47 39v126
q0 39 47 39zM277 1763h110q47 0 47 -39v-127q0 -39 -47 -39h-110q-47 0 -47 39v127q0 39 47 39zM277 1542h110q47 0 47 -39v-127q0 -39 -47 -39h-110q-47 0 -47 39v127q0 39 47 39zM277 1320h110q47 0 47 -39v-127q0 -39 -47 -39h-110q-47 0 -47 39v127q0 39 47 39z
M277 1099h110q47 0 47 -39v-127q0 -39 -47 -39h-110q-47 0 -47 39v127q0 39 47 39zM277 877h110q47 0 47 -39v-126q0 -39 -47 -39h-110q-47 0 -47 39v126q0 39 47 39zM277 656h110q47 0 47 -39v-127q0 -39 -47 -39h-110q-47 0 -47 39v127q0 39 47 39zM277 435h110
q47 0 47 -39v-127q0 -39 -47 -39h-110q-47 0 -47 39v127q0 39 47 39z" />
    <glyph glyph-name="P" unicode="P" 
d="M277 435h110q47 0 47 -39v-127q0 -39 -47 -39h-110q-47 0 -47 39v127q0 39 47 39zM277 656h110q47 0 47 -39v-127q0 -39 -47 -39h-110q-47 0 -47 39v127q0 39 47 39zM277 877h110q47 0 47 -39v-126q0 -39 -47 -39h-110q-47 0 -47 39v126q0 39 47 39zM277 1099h110
q47 0 47 -39v-127q0 -39 -47 -39h-110q-47 0 -47 39v127q0 39 47 39zM277 1320h110q47 0 47 -39v-127q0 -39 -47 -39h-110q-47 0 -47 39v127q0 39 47 39zM277 1542h110q47 0 47 -39v-127q0 -39 -47 -39h-110q-47 0 -47 39v127q0 39 47 39zM277 1763h110q47 0 47 -39v-127
q0 -39 -47 -39h-110q-47 0 -47 39v127q0 39 47 39zM277 1984h110q47 0 47 -39v-126q0 -39 -47 -39h-110q-47 0 -47 39v126q0 39 47 39zM498 1099h111q47 0 47 -39v-127q0 -39 -47 -39h-111q-47 0 -47 39v127q0 39 47 39zM498 1984h111q47 0 47 -39v-126q0 -39 -47 -39h-111
q-47 0 -47 39v126q0 39 47 39zM720 1099h110q47 0 47 -39v-127q0 -39 -47 -39h-110q-47 0 -47 39v127q0 39 47 39zM720 1984h110q47 0 47 -39v-126q0 -39 -47 -39h-110q-47 0 -47 39v126q0 39 47 39zM941 1099h110q47 0 47 -39v-127q0 -39 -47 -39h-110q-47 0 -47 39v127
q0 39 47 39zM941 1984h110q47 0 47 -39v-126q0 -39 -47 -39h-110q-47 0 -47 39v126q0 39 47 39zM1162 1320h111q47 0 47 -39v-127q0 -39 -47 -39h-111q-47 0 -47 39v127q0 39 47 39zM1162 1542h111q47 0 47 -39v-127q0 -39 -47 -39h-111q-47 0 -47 39v127q0 39 47 39z
M1162 1763h111q47 0 47 -39v-127q0 -39 -47 -39h-111q-47 0 -47 39v127q0 39 47 39z" />
    <glyph glyph-name="Q" unicode="Q" 
d="M1162 1763h111q47 0 47 -39v-127q0 -39 -47 -39h-111q-47 0 -47 39v127q0 39 47 39zM1162 1542h111q47 0 47 -39v-127q0 -39 -47 -39h-111q-47 0 -47 39v127q0 39 47 39zM1162 1320q-47 0 -47 -39v-127q0 -39 47 -39h111q47 0 47 39v127q0 39 -47 39h-111zM1162 1099
q-47 0 -47 -39v-127q0 -39 47 -39h111q47 0 47 39v127q0 39 -47 39h-111zM1162 877q-47 0 -47 -39v-126q0 -39 47 -39h111q47 0 47 39v126q0 39 -47 39h-111zM1162 656h111q47 0 47 -39v-127q0 -39 -47 -39h-111q-47 0 -47 39v127q0 39 47 39zM1162 213q-47 0 -47 -39v-127
q0 -39 47 -39h111q47 0 47 39v127q0 39 -47 39h-111zM941 1984h110q47 0 47 -39v-126q0 -39 -47 -39h-110q-47 0 -47 39v126q0 39 47 39zM941 435q-47 0 -47 -39v-127q0 -39 47 -39h110q47 0 47 39v127q0 39 -47 39h-110zM720 1984h110q47 0 47 -39v-126q0 -39 -47 -39h-110
q-47 0 -47 39v126q0 39 47 39zM720 656h110q47 0 47 -39v-127q0 -39 -47 -39h-110q-47 0 -47 39v127q0 39 47 39zM720 435h110q47 0 47 -39v-127q0 -39 -47 -39h-110q-47 0 -47 39v127q0 39 47 39zM498 1984h111q47 0 47 -39v-126q0 -39 -47 -39h-111q-47 0 -47 39v126
q0 39 47 39zM498 435h111q47 0 47 -39v-127q0 -39 -47 -39h-111q-47 0 -47 39v127q0 39 47 39zM277 1763h110q47 0 47 -39v-127q0 -39 -47 -39h-110q-47 0 -47 39v127q0 39 47 39zM277 1542h110q47 0 47 -39v-127q0 -39 -47 -39h-110q-47 0 -47 39v127q0 39 47 39zM277 1320
q-47 0 -47 -39v-127q0 -39 47 -39h110q47 0 47 39v127q0 39 -47 39h-110zM277 1099q-47 0 -47 -39v-127q0 -39 47 -39h110q47 0 47 39v127q0 39 -47 39h-110zM277 877q-47 0 -47 -39v-126q0 -39 47 -39h110q47 0 47 39v126q0 39 -47 39h-110zM277 656q-47 0 -47 -39v-127
q0 -39 47 -39h110q47 0 47 39v127q0 39 -47 39h-110z" />
    <glyph glyph-name="Z" unicode="Z" 
d="M1162 1984h111q47 0 47 -39v-126q0 -39 -47 -39h-111q-47 0 -47 39v126q0 39 47 39zM1162 1763h111q47 0 47 -39v-127q0 -39 -47 -39h-111q-47 0 -47 39v127q0 39 47 39zM1162 1542h111q47 0 47 -39v-127q0 -39 -47 -39h-111q-47 0 -47 39v127q0 39 47 39zM1162 435h111
q47 0 47 -39v-127q0 -39 -47 -39h-111q-47 0 -47 39v127q0 39 47 39zM941 1984h110q47 0 47 -39v-126q0 -39 -47 -39h-110q-47 0 -47 39v126q0 39 47 39zM941 1320h110q47 0 47 -39v-127q0 -39 -47 -39h-110q-47 0 -47 39v127q0 39 47 39zM941 435h110q47 0 47 -39v-127
q0 -39 -47 -39h-110q-47 0 -47 39v127q0 39 47 39zM720 1984h110q47 0 47 -39v-126q0 -39 -47 -39h-110q-47 0 -47 39v126q0 39 47 39zM720 1099h110q47 0 47 -39v-127q0 -39 -47 -39h-110q-47 0 -47 39v127q0 39 47 39zM720 435h110q47 0 47 -39v-127q0 -39 -47 -39h-110
q-47 0 -47 39v127q0 39 47 39zM498 1984h111q47 0 47 -39v-126q0 -39 -47 -39h-111q-47 0 -47 39v126q0 39 47 39zM498 877h111q47 0 47 -39v-126q0 -39 -47 -39h-111q-47 0 -47 39v126q0 39 47 39zM498 435h111q47 0 47 -39v-127q0 -39 -47 -39h-111q-47 0 -47 39v127
q0 39 47 39zM277 1984h110q47 0 47 -39v-126q0 -39 -47 -39h-110q-47 0 -47 39v126q0 39 47 39zM277 656h110q47 0 47 -39v-127q0 -39 -47 -39h-110q-47 0 -47 39v127q0 39 47 39zM277 435h110q47 0 47 -39v-127q0 -39 -47 -39h-110q-47 0 -47 39v127q0 39 47 39z" />
    <glyph glyph-name="S" unicode="S" 
d="M1162 1763h111q47 0 47 -39v-127q0 -39 -47 -39h-111q-47 0 -47 39v127q0 39 47 39zM1162 1099h111q47 0 47 -39v-127q0 -39 -47 -39h-111q-47 0 -47 39v127q0 39 47 39zM1162 877h111q47 0 47 -39v-126q0 -39 -47 -39h-111q-47 0 -47 39v126q0 39 47 39zM1162 656h111
q47 0 47 -39v-127q0 -39 -47 -39h-111q-47 0 -47 39v127q0 39 47 39zM941 1984h110q47 0 47 -39v-126q0 -39 -47 -39h-110q-47 0 -47 39v126q0 39 47 39zM941 1320h110q47 0 47 -39v-127q0 -39 -47 -39h-110q-47 0 -47 39v127q0 39 47 39zM941 435h110q47 0 47 -39v-127
q0 -39 -47 -39h-110q-47 0 -47 39v127q0 39 47 39zM720 1984h110q47 0 47 -39v-126q0 -39 -47 -39h-110q-47 0 -47 39v126q0 39 47 39zM720 1320h110q47 0 47 -39v-127q0 -39 -47 -39h-110q-47 0 -47 39v127q0 39 47 39zM720 435h110q47 0 47 -39v-127q0 -39 -47 -39h-110
q-47 0 -47 39v127q0 39 47 39zM498 1984h111q47 0 47 -39v-126q0 -39 -47 -39h-111q-47 0 -47 39v126q0 39 47 39zM498 1320h111q47 0 47 -39v-127q0 -39 -47 -39h-111q-47 0 -47 39v127q0 39 47 39zM498 435h111q47 0 47 -39v-127q0 -39 -47 -39h-111q-47 0 -47 39v127
q0 39 47 39zM277 1763h110q47 0 47 -39v-127q0 -39 -47 -39h-110q-47 0 -47 39v127q0 39 47 39zM277 1542h110q47 0 47 -39v-127q0 -39 -47 -39h-110q-47 0 -47 39v127q0 39 47 39zM277 656h110q47 0 47 -39v-127q0 -39 -47 -39h-110q-47 0 -47 39v127q0 39 47 39zM277 877
h110q47 0 47 -39v-126q0 -39 -47 -39h-110q-47 0 -47 39v126q0 39 47 39z" />
    <glyph glyph-name="U" unicode="U" 
d="M277 877h110q47 0 47 -39v-126q0 -39 -47 -39h-110q-47 0 -47 39v126q0 39 47 39zM277 1099h110q47 0 47 -39v-127q0 -39 -47 -39h-110q-47 0 -47 39v127q0 39 47 39zM277 1320h110q47 0 47 -39v-127q0 -39 -47 -39h-110q-47 0 -47 39v127q0 39 47 39zM277 1542h110
q47 0 47 -39v-127q0 -39 -47 -39h-110q-47 0 -47 39v127q0 39 47 39zM277 1763h110q47 0 47 -39v-127q0 -39 -47 -39h-110q-47 0 -47 39v127q0 39 47 39zM277 1984h110q47 0 47 -39v-126q0 -39 -47 -39h-110q-47 0 -47 39v126q0 39 47 39zM277 656h110q47 0 47 -39v-127
q0 -39 -47 -39h-110q-47 0 -47 39v127q0 39 47 39zM498 435h111q47 0 47 -39v-127q0 -39 -47 -39h-111q-47 0 -47 39v127q0 39 47 39zM720 435h110q47 0 47 -39v-127q0 -39 -47 -39h-110q-47 0 -47 39v127q0 39 47 39zM941 435h110q47 0 47 -39v-127q0 -39 -47 -39h-110
q-47 0 -47 39v127q0 39 47 39zM1162 656h111q47 0 47 -39v-127q0 -39 -47 -39h-111q-47 0 -47 39v127q0 39 47 39zM1162 877h111q47 0 47 -39v-126q0 -39 -47 -39h-111q-47 0 -47 39v126q0 39 47 39zM1162 1099h111q47 0 47 -39v-127q0 -39 -47 -39h-111q-47 0 -47 39v127
q0 39 47 39zM1162 1320h111q47 0 47 -39v-127q0 -39 -47 -39h-111q-47 0 -47 39v127q0 39 47 39zM1162 1542h111q47 0 47 -39v-127q0 -39 -47 -39h-111q-47 0 -47 39v127q0 39 47 39zM1162 1763h111q47 0 47 -39v-127q0 -39 -47 -39h-111q-47 0 -47 39v127q0 39 47 39z
M1162 1984h111q47 0 47 -39v-126q0 -39 -47 -39h-111q-47 0 -47 39v126q0 39 47 39z" />
    <glyph glyph-name="W" unicode="W" 
d="M1384 1984h110q47 0 47 -39v-126q0 -39 -47 -39h-110q-47 0 -47 39v126q0 39 47 39zM1384 1763h110q47 0 47 -39v-127q0 -39 -47 -39h-110q-47 0 -47 39v127q0 39 47 39zM1384 1542h110q47 0 47 -39v-127q0 -39 -47 -39h-110q-47 0 -47 39v127q0 39 47 39zM1384 1320h110
q47 0 47 -39v-127q0 -39 -47 -39h-110q-47 0 -47 39v127q0 39 47 39zM1384 1099h110q47 0 47 -39v-127q0 -39 -47 -39h-110q-47 0 -47 39v127q0 39 47 39zM1384 877h110q47 0 47 -39v-126q0 -39 -47 -39h-110q-47 0 -47 39v126q0 39 47 39zM1384 656h110q47 0 47 -39v-127
q0 -39 -47 -39h-110q-47 0 -47 39v127q0 39 47 39zM941 656h110q47 0 47 -39v-127q0 -39 -47 -39h-110q-47 0 -47 39v127q0 39 47 39zM1162 435h111q47 0 47 -39v-127q0 -39 -47 -39h-111q-47 0 -47 39v127q0 39 47 39zM720 877h110q47 0 47 -39v-126q0 -39 -47 -39h-110
q-47 0 -47 39v126q0 39 47 39zM498 656h111q47 0 47 -39v-127q0 -39 -47 -39h-111q-47 0 -47 39v127q0 39 47 39zM277 435h110q47 0 47 -39v-127q0 -39 -47 -39h-110q-47 0 -47 39v127q0 39 47 39zM55 656h111q47 0 47 -39v-127q0 -39 -47 -39h-111q-47 0 -47 39v127
q0 39 47 39zM55 1984h111q47 0 47 -39v-126q0 -39 -47 -39h-111q-47 0 -47 39v126q0 39 47 39zM55 1763h111q47 0 47 -39v-127q0 -39 -47 -39h-111q-47 0 -47 39v127q0 39 47 39zM55 1542h111q47 0 47 -39v-127q0 -39 -47 -39h-111q-47 0 -47 39v127q0 39 47 39zM55 1320
h111q47 0 47 -39v-127q0 -39 -47 -39h-111q-47 0 -47 39v127q0 39 47 39zM55 1099h111q47 0 47 -39v-127q0 -39 -47 -39h-111q-47 0 -47 39v127q0 39 47 39zM55 877h111q47 0 47 -39v-126q0 -39 -47 -39h-111q-47 0 -47 39v126q0 39 47 39z" />
    <glyph glyph-name="V" unicode="V" 
d="M277 877h110q47 0 47 -39v-126q0 -39 -47 -39h-110q-47 0 -47 39v126q0 39 47 39zM277 1099h110q47 0 47 -39v-127q0 -39 -47 -39h-110q-47 0 -47 39v127q0 39 47 39zM277 1320h110q47 0 47 -39v-127q0 -39 -47 -39h-110q-47 0 -47 39v127q0 39 47 39zM277 1542h110
q47 0 47 -39v-127q0 -39 -47 -39h-110q-47 0 -47 39v127q0 39 47 39zM277 1763h110q47 0 47 -39v-127q0 -39 -47 -39h-110q-47 0 -47 39v127q0 39 47 39zM277 1984h110q47 0 47 -39v-126q0 -39 -47 -39h-110q-47 0 -47 39v126q0 39 47 39zM720 435h110q47 0 47 -39v-127
q0 -39 -47 -39h-110q-47 0 -47 39v127q0 39 47 39zM941 435h110q47 0 47 -39v-127q0 -39 -47 -39h-110q-47 0 -47 39v127q0 39 47 39zM498 656h111q47 0 47 -39v-127q0 -39 -47 -39h-111q-47 0 -47 39v127q0 39 47 39zM1162 656h111q47 0 47 -39v-127q0 -39 -47 -39h-111
q-47 0 -47 39v127q0 39 47 39zM1384 877h110q47 0 47 -39v-126q0 -39 -47 -39h-110q-47 0 -47 39v126q0 39 47 39zM1384 1099h110q47 0 47 -39v-127q0 -39 -47 -39h-110q-47 0 -47 39v127q0 39 47 39zM1384 1320h110q47 0 47 -39v-127q0 -39 -47 -39h-110q-47 0 -47 39v127
q0 39 47 39zM1384 1542h110q47 0 47 -39v-127q0 -39 -47 -39h-110q-47 0 -47 39v127q0 39 47 39zM1384 1763h110q47 0 47 -39v-127q0 -39 -47 -39h-110q-47 0 -47 39v127q0 39 47 39zM1384 1984h110q47 0 47 -39v-126q0 -39 -47 -39h-110q-47 0 -47 39v126q0 39 47 39z" />
    <glyph glyph-name="X" unicode="X" 
d="M1162 1984h111q47 0 47 -39v-126q0 -39 -47 -39h-111q-47 0 -47 39v126q0 39 47 39zM1162 1763h111q47 0 47 -39v-127q0 -39 -47 -39h-111q-47 0 -47 39v127q0 39 47 39zM1162 877h111q47 0 47 -39v-126q0 -39 -47 -39h-111q-47 0 -47 39v126q0 39 47 39zM1162 656h111
q47 0 47 -39v-127q0 -39 -47 -39h-111q-47 0 -47 39v127q0 39 47 39zM1162 435h111q47 0 47 -39v-127q0 -39 -47 -39h-111q-47 0 -47 39v127q0 39 47 39zM941 1542h110q47 0 47 -39v-127q0 -39 -47 -39h-110q-47 0 -47 39v127q0 39 47 39zM941 1099h110q47 0 47 -39v-127
q0 -39 -47 -39h-110q-47 0 -47 39v127q0 39 47 39zM720 1320h110q47 0 47 -39v-127q0 -39 -47 -39h-110q-47 0 -47 39v127q0 39 47 39zM498 1542h111q47 0 47 -39v-127q0 -39 -47 -39h-111q-47 0 -47 39v127q0 39 47 39zM498 1099h111q47 0 47 -39v-127q0 -39 -47 -39h-111
q-47 0 -47 39v127q0 39 47 39zM277 1984h110q47 0 47 -39v-126q0 -39 -47 -39h-110q-47 0 -47 39v126q0 39 47 39zM277 1763h110q47 0 47 -39v-127q0 -39 -47 -39h-110q-47 0 -47 39v127q0 39 47 39zM277 877h110q47 0 47 -39v-126q0 -39 -47 -39h-110q-47 0 -47 39v126
q0 39 47 39zM277 656h110q47 0 47 -39v-127q0 -39 -47 -39h-110q-47 0 -47 39v127q0 39 47 39zM277 435h110q47 0 47 -39v-127q0 -39 -47 -39h-110q-47 0 -47 39v127q0 39 47 39z" />
    <glyph glyph-name="Otilde" unicode="&#xd5;" 
d="M1162 1984h111q47 0 47 -39v-126q0 -39 -47 -39h-111q-47 0 -47 39v126q0 39 47 39zM1162 1763h111q47 0 47 -39v-127q0 -39 -47 -39h-111q-47 0 -47 39v127q0 39 47 39zM1162 877h111q47 0 47 -39v-126q0 -39 -47 -39h-111q-47 0 -47 39v126q0 39 47 39zM1162 656h111
q47 0 47 -39v-127q0 -39 -47 -39h-111q-47 0 -47 39v127q0 39 47 39zM1162 435h111q47 0 47 -39v-127q0 -39 -47 -39h-111q-47 0 -47 39v127q0 39 47 39zM941 1542h110q47 0 47 -39v-127q0 -39 -47 -39h-110q-47 0 -47 39v127q0 39 47 39zM941 1099h110q47 0 47 -39v-127
q0 -39 -47 -39h-110q-47 0 -47 39v127q0 39 47 39zM720 1320h110q47 0 47 -39v-127q0 -39 -47 -39h-110q-47 0 -47 39v127q0 39 47 39zM498 1542h111q47 0 47 -39v-127q0 -39 -47 -39h-111q-47 0 -47 39v127q0 39 47 39zM498 1099h111q47 0 47 -39v-127q0 -39 -47 -39h-111
q-47 0 -47 39v127q0 39 47 39zM277 1984h110q47 0 47 -39v-126q0 -39 -47 -39h-110q-47 0 -47 39v126q0 39 47 39zM277 1763h110q47 0 47 -39v-127q0 -39 -47 -39h-110q-47 0 -47 39v127q0 39 47 39zM277 877h110q47 0 47 -39v-126q0 -39 -47 -39h-110q-47 0 -47 39v126
q0 39 47 39zM277 656h110q47 0 47 -39v-127q0 -39 -47 -39h-110q-47 0 -47 39v127q0 39 47 39zM277 435h110q47 0 47 -39v-127q0 -39 -47 -39h-110q-47 0 -47 39v127q0 39 47 39z" />
    <glyph glyph-name="Oacute" unicode="&#xd3;" 
d="M1162 1984h111q47 0 47 -39v-126q0 -39 -47 -39h-111q-47 0 -47 39v126q0 39 47 39zM1162 1763h111q47 0 47 -39v-127q0 -39 -47 -39h-111q-47 0 -47 39v127q0 39 47 39zM1162 1542h111q47 0 47 -39v-127q0 -39 -47 -39h-111q-47 0 -47 39v127q0 39 47 39zM1162 1320h111
q47 0 47 -39v-127q0 -39 -47 -39h-111q-47 0 -47 39v127q0 39 47 39zM1162 1099h111q47 0 47 -39v-127q0 -39 -47 -39h-111q-47 0 -47 39v127q0 39 47 39zM1162 877h111q47 0 47 -39v-126q0 -39 -47 -39h-111q-47 0 -47 39v126q0 39 47 39zM1162 656h111q47 0 47 -39v-127
q0 -39 -47 -39h-111q-47 0 -47 39v127q0 39 47 39zM941 1099h110q47 0 47 -39v-127q0 -39 -47 -39h-110q-47 0 -47 39v127q0 39 47 39zM941 435h110q47 0 47 -39v-127q0 -39 -47 -39h-110q-47 0 -47 39v127q0 39 47 39zM720 1099h110q47 0 47 -39v-127q0 -39 -47 -39h-110
q-47 0 -47 39v127q0 39 47 39zM720 435h110q47 0 47 -39v-127q0 -39 -47 -39h-110q-47 0 -47 39v127q0 39 47 39zM498 1099h111q47 0 47 -39v-127q0 -39 -47 -39h-111q-47 0 -47 39v127q0 39 47 39zM498 435h111q47 0 47 -39v-127q0 -39 -47 -39h-111q-47 0 -47 39v127
q0 39 47 39zM277 1984h110q47 0 47 -39v-126q0 -39 -47 -39h-110q-47 0 -47 39v126q0 39 47 39zM277 1763h110q47 0 47 -39v-127q0 -39 -47 -39h-110q-47 0 -47 39v127q0 39 47 39zM277 1542h110q47 0 47 -39v-127q0 -39 -47 -39h-110q-47 0 -47 39v127q0 39 47 39z
M277 1320h110q47 0 47 -39v-127q0 -39 -47 -39h-110q-47 0 -47 39v127q0 39 47 39zM277 656h110q47 0 47 -39v-127q0 -39 -47 -39h-110q-47 0 -47 39v127q0 39 47 39z" />
    <glyph glyph-name="Y" unicode="Y" 
d="M277 1320h110q47 0 47 -39v-127q0 -39 -47 -39h-110q-47 0 -47 39v127q0 39 47 39zM277 1542h110q47 0 47 -39v-127q0 -39 -47 -39h-110q-47 0 -47 39v127q0 39 47 39zM277 1763h110q47 0 47 -39v-127q0 -39 -47 -39h-110q-47 0 -47 39v127q0 39 47 39zM277 1984h110
q47 0 47 -39v-126q0 -39 -47 -39h-110q-47 0 -47 39v126q0 39 47 39zM498 1099h111q47 0 47 -39v-127q0 -39 -47 -39h-111q-47 0 -47 39v127q0 39 47 39zM720 435h110q47 0 47 -39v-127q0 -39 -47 -39h-110q-47 0 -47 39v127q0 39 47 39zM720 656h110q47 0 47 -39v-127
q0 -39 -47 -39h-110q-47 0 -47 39v127q0 39 47 39zM720 877h110q47 0 47 -39v-126q0 -39 -47 -39h-110q-47 0 -47 39v126q0 39 47 39zM941 1099h110q47 0 47 -39v-127q0 -39 -47 -39h-110q-47 0 -47 39v127q0 39 47 39zM1162 1320h111q47 0 47 -39v-127q0 -39 -47 -39h-111
q-47 0 -47 39v127q0 39 47 39zM1162 1542h111q47 0 47 -39v-127q0 -39 -47 -39h-111q-47 0 -47 39v127q0 39 47 39zM1162 1763h111q47 0 47 -39v-127q0 -39 -47 -39h-111q-47 0 -47 39v127q0 39 47 39zM1162 1984h111q47 0 47 -39v-126q0 -39 -47 -39h-111q-47 0 -47 39v126
q0 39 47 39z" />
    <glyph glyph-name="Ocircumflex" unicode="&#xd4;" 
d="M1384 1763h110q47 0 47 -39v-127q0 -39 -47 -39h-110q-47 0 -47 39v127q0 39 47 39zM1384 1542h110q47 0 47 -39v-127q0 -39 -47 -39h-110q-47 0 -47 39v127q0 39 47 39zM1384 1320h110q47 0 47 -39v-127q0 -39 -47 -39h-110q-47 0 -47 39v127q0 39 47 39zM1384 1099h110
q47 0 47 -39v-127q0 -39 -47 -39h-110q-47 0 -47 39v127q0 39 47 39zM1162 1984h111q47 0 47 -39v-126q0 -39 -47 -39h-111q-47 0 -47 39v126q0 39 47 39zM1162 877h111q47 0 47 -39v-126q0 -39 -47 -39h-111q-47 0 -47 39v126q0 39 47 39zM941 1984h110q47 0 47 -39v-126
q0 -39 -47 -39h-110q-47 0 -47 39v126q0 39 47 39zM941 877h110q47 0 47 -39v-126q0 -39 -47 -39h-110q-47 0 -47 39v126q0 39 47 39zM720 1984h110q47 0 47 -39v-126q0 -39 -47 -39h-110q-47 0 -47 39v126q0 39 47 39zM720 1763h110q47 0 47 -39v-127q0 -39 -47 -39h-110
q-47 0 -47 39v127q0 39 47 39zM720 1542h110q47 0 47 -39v-127q0 -39 -47 -39h-110q-47 0 -47 39v127q0 39 47 39zM720 1320h110q47 0 47 -39v-127q0 -39 -47 -39h-110q-47 0 -47 39v127q0 39 47 39zM720 1099h110q47 0 47 -39v-127q0 -39 -47 -39h-110q-47 0 -47 39v127
q0 39 47 39zM720 877h110q47 0 47 -39v-126q0 -39 -47 -39h-110q-47 0 -47 39v126q0 39 47 39zM720 656h110q47 0 47 -39v-127q0 -39 -47 -39h-110q-47 0 -47 39v127q0 39 47 39zM720 435h110q47 0 47 -39v-127q0 -39 -47 -39h-110q-47 0 -47 39v127q0 39 47 39zM498 1984
h111q47 0 47 -39v-126q0 -39 -47 -39h-111q-47 0 -47 39v126q0 39 47 39zM498 877h111q47 0 47 -39v-126q0 -39 -47 -39h-111q-47 0 -47 39v126q0 39 47 39zM277 1984h110q47 0 47 -39v-126q0 -39 -47 -39h-110q-47 0 -47 39v126q0 39 47 39zM277 877h110q47 0 47 -39v-126
q0 -39 -47 -39h-110q-47 0 -47 39v126q0 39 47 39zM55 1763h111q47 0 47 -39v-127q0 -39 -47 -39h-111q-47 0 -47 39v127q0 39 47 39zM55 1542h111q47 0 47 -39v-127q0 -39 -47 -39h-111q-47 0 -47 39v127q0 39 47 39zM55 1320h111q47 0 47 -39v-127q0 -39 -47 -39h-111
q-47 0 -47 39v127q0 39 47 39zM55 1099h111q47 0 47 -39v-127q0 -39 -47 -39h-111q-47 0 -47 39v127q0 39 47 39z" />
    <glyph glyph-name="Aacute" unicode="&#xc1;" 
d="M1162 1984h111q47 0 47 -39v-126q0 -39 -47 -39h-111q-47 0 -47 39v126q0 39 47 39zM1162 1099h111q47 0 47 -39v-127q0 -39 -47 -39h-111q-47 0 -47 39v127q0 39 47 39zM1162 877h111q47 0 47 -39v-126q0 -39 -47 -39h-111q-47 0 -47 39v126q0 39 47 39zM1162 656h111
q47 0 47 -39v-127q0 -39 -47 -39h-111q-47 0 -47 39v127q0 39 47 39zM941 1984h110q47 0 47 -39v-126q0 -39 -47 -39h-110q-47 0 -47 39v126q0 39 47 39zM941 1320h110q47 0 47 -39v-127q0 -39 -47 -39h-110q-47 0 -47 39v127q0 39 47 39zM941 435h110q47 0 47 -39v-127
q0 -39 -47 -39h-110q-47 0 -47 39v127q0 39 47 39zM720 1984h110q47 0 47 -39v-126q0 -39 -47 -39h-110q-47 0 -47 39v126q0 39 47 39zM720 1320h110q47 0 47 -39v-127q0 -39 -47 -39h-110q-47 0 -47 39v127q0 39 47 39zM720 435h110q47 0 47 -39v-127q0 -39 -47 -39h-110
q-47 0 -47 39v127q0 39 47 39zM498 1984h111q47 0 47 -39v-126q0 -39 -47 -39h-111q-47 0 -47 39v126q0 39 47 39zM498 1320h111q47 0 47 -39v-127q0 -39 -47 -39h-111q-47 0 -47 39v127q0 39 47 39zM498 435h111q47 0 47 -39v-127q0 -39 -47 -39h-111q-47 0 -47 39v127
q0 39 47 39zM277 1984h110q47 0 47 -39v-126q0 -39 -47 -39h-110q-47 0 -47 39v126q0 39 47 39zM277 1763h110q47 0 47 -39v-127q0 -39 -47 -39h-110q-47 0 -47 39v127q0 39 47 39zM277 1542h110q47 0 47 -39v-127q0 -39 -47 -39h-110q-47 0 -47 39v127q0 39 47 39z
M277 1320h110q47 0 47 -39v-127q0 -39 -47 -39h-110q-47 0 -47 39v127q0 39 47 39zM277 1099h110q47 0 47 -39v-127q0 -39 -47 -39h-110q-47 0 -47 39v127q0 39 47 39zM277 877h110q47 0 47 -39v-126q0 -39 -47 -39h-110q-47 0 -47 39v126q0 39 47 39zM277 656h110
q47 0 47 -39v-127q0 -39 -47 -39h-110q-47 0 -47 39v127q0 39 47 39zM277 435h110q47 0 47 -39v-127q0 -39 -47 -39h-110q-47 0 -47 39v127q0 39 47 39z" />
    <glyph glyph-name="Atilde" unicode="&#xc3;" 
d="M277 435h110q47 0 47 -39v-127q0 -39 -47 -39h-110q-47 0 -47 39v127q0 39 47 39zM277 656h110q47 0 47 -39v-127q0 -39 -47 -39h-110q-47 0 -47 39v127q0 39 47 39zM277 877h110q47 0 47 -39v-126q0 -39 -47 -39h-110q-47 0 -47 39v126q0 39 47 39zM277 1099h110
q47 0 47 -39v-127q0 -39 -47 -39h-110q-47 0 -47 39v127q0 39 47 39zM277 1320h110q47 0 47 -39v-127q0 -39 -47 -39h-110q-47 0 -47 39v127q0 39 47 39zM277 1542h110q47 0 47 -39v-127q0 -39 -47 -39h-110q-47 0 -47 39v127q0 39 47 39zM277 1763h110q47 0 47 -39v-127
q0 -39 -47 -39h-110q-47 0 -47 39v127q0 39 47 39zM277 1984h110q47 0 47 -39v-126q0 -39 -47 -39h-110q-47 0 -47 39v126q0 39 47 39zM498 1984h111q47 0 47 -39v-126q0 -39 -47 -39h-111q-47 0 -47 39v126q0 39 47 39zM720 1984h110q47 0 47 -39v-126q0 -39 -47 -39h-110
q-47 0 -47 39v126q0 39 47 39zM941 1984h110q47 0 47 -39v-126q0 -39 -47 -39h-110q-47 0 -47 39v126q0 39 47 39zM1162 1984h111q47 0 47 -39v-126q0 -39 -47 -39h-111q-47 0 -47 39v126q0 39 47 39z" />
    <glyph glyph-name="Adieresis" unicode="&#xc4;" 
d="M1384 435h110q47 0 47 -39v-127q0 -39 -47 -39h-110q-47 0 -47 39v127q0 39 47 39zM1384 213h110q47 0 47 -39v-127q0 -39 -47 -39h-110q-47 0 -47 39v127q0 39 47 39zM1162 1984h111q47 0 47 -39v-126q0 -39 -47 -39h-111q-47 0 -47 39v126q0 39 47 39zM1162 1763h111
q47 0 47 -39v-127q0 -39 -47 -39h-111q-47 0 -47 39v127q0 39 47 39zM1162 1542h111q47 0 47 -39v-127q0 -39 -47 -39h-111q-47 0 -47 39v127q0 39 47 39zM1162 1320h111q47 0 47 -39v-127q0 -39 -47 -39h-111q-47 0 -47 39v127q0 39 47 39zM1162 1099h111q47 0 47 -39v-127
q0 -39 -47 -39h-111q-47 0 -47 39v127q0 39 47 39zM1162 877h111q47 0 47 -39v-126q0 -39 -47 -39h-111q-47 0 -47 39v126q0 39 47 39zM1162 656h111q47 0 47 -39v-127q0 -39 -47 -39h-111q-47 0 -47 39v127q0 39 47 39zM1162 435h111q47 0 47 -39v-127q0 -39 -47 -39h-111
q-47 0 -47 39v127q0 39 47 39zM941 1984h110q47 0 47 -39v-126q0 -39 -47 -39h-110q-47 0 -47 39v126q0 39 47 39zM941 435h110q47 0 47 -39v-127q0 -39 -47 -39h-110q-47 0 -47 39v127q0 39 47 39zM720 1984h110q47 0 47 -39v-126q0 -39 -47 -39h-110q-47 0 -47 39v126
q0 39 47 39zM720 435h110q47 0 47 -39v-127q0 -39 -47 -39h-110q-47 0 -47 39v127q0 39 47 39zM498 1763h111q47 0 47 -39v-127q0 -39 -47 -39h-111q-47 0 -47 39v127q0 39 47 39zM498 1542h111q47 0 47 -39v-127q0 -39 -47 -39h-111q-47 0 -47 39v127q0 39 47 39zM498 1320
h111q47 0 47 -39v-127q0 -39 -47 -39h-111q-47 0 -47 39v127q0 39 47 39zM498 1099h111q47 0 47 -39v-127q0 -39 -47 -39h-111q-47 0 -47 39v127q0 39 47 39zM498 877h111q47 0 47 -39v-126q0 -39 -47 -39h-111q-47 0 -47 39v126q0 39 47 39zM498 656h111q47 0 47 -39v-127
q0 -39 -47 -39h-111q-47 0 -47 39v127q0 39 47 39zM498 435h111q47 0 47 -39v-127q0 -39 -47 -39h-111q-47 0 -47 39v127q0 39 47 39zM277 435h110q47 0 47 -39v-127q0 -39 -47 -39h-110q-47 0 -47 39v127q0 39 47 39zM277 213h110q47 0 47 -39v-127q0 -39 -47 -39h-110
q-47 0 -47 39v127q0 39 47 39z" />
    <glyph glyph-name="Ccedilla" unicode="&#xc7;" 
d="M1162 1763h111q47 0 47 -39v-127q0 -39 -47 -39h-111q-47 0 -47 39v127q0 39 47 39zM1162 1542h111q47 0 47 -39v-127q0 -39 -47 -39h-111q-47 0 -47 39v127q0 39 47 39zM1162 1099h111q47 0 47 -39v-127q0 -39 -47 -39h-111q-47 0 -47 39v127q0 39 47 39zM1162 877h111
q47 0 47 -39v-126q0 -39 -47 -39h-111q-47 0 -47 39v126q0 39 47 39zM1162 656h111q47 0 47 -39v-127q0 -39 -47 -39h-111q-47 0 -47 39v127q0 39 47 39zM941 1984h110q47 0 47 -39v-126q0 -39 -47 -39h-110q-47 0 -47 39v126q0 39 47 39zM941 1320h110q47 0 47 -39v-127
q0 -39 -47 -39h-110q-47 0 -47 39v127q0 39 47 39zM941 435h110q47 0 47 -39v-127q0 -39 -47 -39h-110q-47 0 -47 39v127q0 39 47 39zM720 1984h110q47 0 47 -39v-126q0 -39 -47 -39h-110q-47 0 -47 39v126q0 39 47 39zM720 1320h110q47 0 47 -39v-127q0 -39 -47 -39h-110
q-47 0 -47 39v127q0 39 47 39zM720 435h110q47 0 47 -39v-127q0 -39 -47 -39h-110q-47 0 -47 39v127q0 39 47 39zM498 1984h111q47 0 47 -39v-126q0 -39 -47 -39h-111q-47 0 -47 39v126q0 39 47 39zM498 435h111q47 0 47 -39v-127q0 -39 -47 -39h-111q-47 0 -47 39v127
q0 39 47 39zM277 1763h110q47 0 47 -39v-127q0 -39 -47 -39h-110q-47 0 -47 39v127q0 39 47 39zM277 656h110q47 0 47 -39v-127q0 -39 -47 -39h-110q-47 0 -47 39v127q0 39 47 39z" />
    <glyph glyph-name="AE" unicode="&#xc6;" 
d="M277 435h110q47 0 47 -39v-127q0 -39 -47 -39h-110q-47 0 -47 39v127q0 39 47 39zM277 656h110q47 0 47 -39v-127q0 -39 -47 -39h-110q-47 0 -47 39v127q0 39 47 39zM277 1099h110q47 0 47 -39v-127q0 -39 -47 -39h-110q-47 0 -47 39v127q0 39 47 39zM277 877h110
q47 0 47 -39v-126q0 -39 -47 -39h-110q-47 0 -47 39v126q0 39 47 39zM277 1542h110q47 0 47 -39v-127q0 -39 -47 -39h-110q-47 0 -47 39v127q0 39 47 39zM277 1763h110q47 0 47 -39v-127q0 -39 -47 -39h-110q-47 0 -47 39v127q0 39 47 39zM277 1984h110q47 0 47 -39v-126
q0 -39 -47 -39h-110q-47 0 -47 39v126q0 39 47 39zM498 1320h111q47 0 47 -39v-127q0 -39 -47 -39h-111q-47 0 -47 39v127q0 39 47 39zM720 435h110q47 0 47 -39v-127q0 -39 -47 -39h-110q-47 0 -47 39v127q0 39 47 39zM720 656h110q47 0 47 -39v-127q0 -39 -47 -39h-110
q-47 0 -47 39v127q0 39 47 39zM720 877h110q47 0 47 -39v-126q0 -39 -47 -39h-110q-47 0 -47 39v126q0 39 47 39zM720 1099h110q47 0 47 -39v-127q0 -39 -47 -39h-110q-47 0 -47 39v127q0 39 47 39zM720 1320h110q47 0 47 -39v-127q0 -39 -47 -39h-110q-47 0 -47 39v127
q0 39 47 39zM720 1542h110q47 0 47 -39v-127q0 -39 -47 -39h-110q-47 0 -47 39v127q0 39 47 39zM720 1763h110q47 0 47 -39v-127q0 -39 -47 -39h-110q-47 0 -47 39v127q0 39 47 39zM720 1984h110q47 0 47 -39v-126q0 -39 -47 -39h-110q-47 0 -47 39v126q0 39 47 39z
M941 1320h110q47 0 47 -39v-127q0 -39 -47 -39h-110q-47 0 -47 39v127q0 39 47 39zM1162 1542h111q47 0 47 -39v-127q0 -39 -47 -39h-111q-47 0 -47 39v127q0 39 47 39zM1162 1763h111q47 0 47 -39v-127q0 -39 -47 -39h-111q-47 0 -47 39v127q0 39 47 39zM1162 1984h111
q47 0 47 -39v-126q0 -39 -47 -39h-111q-47 0 -47 39v126q0 39 47 39zM1162 435h111q47 0 47 -39v-127q0 -39 -47 -39h-111q-47 0 -47 39v127q0 39 47 39zM1162 656h111q47 0 47 -39v-127q0 -39 -47 -39h-111q-47 0 -47 39v127q0 39 47 39zM1162 1099h111q47 0 47 -39v-127
q0 -39 -47 -39h-111q-47 0 -47 39v127q0 39 47 39zM1162 877h111q47 0 47 -39v-126q0 -39 -47 -39h-111q-47 0 -47 39v126q0 39 47 39z" />
    <glyph glyph-name="Edieresis" unicode="&#xcb;" 
d="M1162 1984h111q47 0 47 -39v-126q0 -39 -47 -39h-111q-47 0 -47 39v126q0 39 47 39zM1162 1763h111q47 0 47 -39v-127q0 -39 -47 -39h-111q-47 0 -47 39v127q0 39 47 39zM1162 1542h111q47 0 47 -39v-127q0 -39 -47 -39h-111q-47 0 -47 39v127q0 39 47 39zM1162 1320h111
q47 0 47 -39v-127q0 -39 -47 -39h-111q-47 0 -47 39v127q0 39 47 39zM1162 1099h111q47 0 47 -39v-127q0 -39 -47 -39h-111q-47 0 -47 39v127q0 39 47 39zM1162 877h111q47 0 47 -39v-126q0 -39 -47 -39h-111q-47 0 -47 39v126q0 39 47 39zM1162 656h111q47 0 47 -39v-127
q0 -39 -47 -39h-111q-47 0 -47 39v127q0 39 47 39zM1162 435h111q47 0 47 -39v-127q0 -39 -47 -39h-111q-47 0 -47 39v127q0 39 47 39zM941 1984h110q47 0 47 -39v-126q0 -39 -47 -39h-110q-47 0 -47 39v126q0 39 47 39zM720 1984h110q47 0 47 -39v-126q0 -39 -47 -39h-110
q-47 0 -47 39v126q0 39 47 39zM498 1763h111q47 0 47 -39v-127q0 -39 -47 -39h-111q-47 0 -47 39v127q0 39 47 39zM277 1542h110q47 0 47 -39v-127q0 -39 -47 -39h-110q-47 0 -47 39v127q0 39 47 39zM277 1320h110q47 0 47 -39v-127q0 -39 -47 -39h-110q-47 0 -47 39v127
q0 39 47 39zM277 1099h110q47 0 47 -39v-127q0 -39 -47 -39h-110q-47 0 -47 39v127q0 39 47 39zM277 877h110q47 0 47 -39v-126q0 -39 -47 -39h-110q-47 0 -47 39v126q0 39 47 39zM277 656h110q47 0 47 -39v-127q0 -39 -47 -39h-110q-47 0 -47 39v127q0 39 47 39zM277 435
h110q47 0 47 -39v-127q0 -39 -47 -39h-110q-47 0 -47 39v127q0 39 47 39z" />
    <glyph glyph-name="Idieresis" unicode="&#xcf;" 
d="M1162 1984h111q47 0 47 -39v-126q0 -39 -47 -39h-111q-47 0 -47 39v126q0 39 47 39zM1162 1763h111q47 0 47 -39v-127q0 -39 -47 -39h-111q-47 0 -47 39v127q0 39 47 39zM1162 1542h111q47 0 47 -39v-127q0 -39 -47 -39h-111q-47 0 -47 39v127q0 39 47 39zM1162 1320h111
q47 0 47 -39v-127q0 -39 -47 -39h-111q-47 0 -47 39v127q0 39 47 39zM1162 1099h111q47 0 47 -39v-127q0 -39 -47 -39h-111q-47 0 -47 39v127q0 39 47 39zM1162 877h111q47 0 47 -39v-126q0 -39 -47 -39h-111q-47 0 -47 39v126q0 39 47 39zM1162 656h111q47 0 47 -39v-127
q0 -39 -47 -39h-111q-47 0 -47 39v127q0 39 47 39zM1162 435h111q47 0 47 -39v-127q0 -39 -47 -39h-111q-47 0 -47 39v127q0 39 47 39zM941 1984h110q47 0 47 -39v-126q0 -39 -47 -39h-110q-47 0 -47 39v126q0 39 47 39zM720 1984h110q47 0 47 -39v-126q0 -39 -47 -39h-110
q-47 0 -47 39v126q0 39 47 39zM498 1984h111q47 0 47 -39v-126q0 -39 -47 -39h-111q-47 0 -47 39v126q0 39 47 39zM277 1984h110q47 0 47 -39v-126q0 -39 -47 -39h-110q-47 0 -47 39v126q0 39 47 39zM277 1763h110q47 0 47 -39v-127q0 -39 -47 -39h-110q-47 0 -47 39v127
q0 39 47 39zM277 1542h110q47 0 47 -39v-127q0 -39 -47 -39h-110q-47 0 -47 39v127q0 39 47 39zM277 1320h110q47 0 47 -39v-127q0 -39 -47 -39h-110q-47 0 -47 39v127q0 39 47 39zM277 1099h110q47 0 47 -39v-127q0 -39 -47 -39h-110q-47 0 -47 39v127q0 39 47 39zM277 877
h110q47 0 47 -39v-126q0 -39 -47 -39h-110q-47 0 -47 39v126q0 39 47 39zM277 656h110q47 0 47 -39v-127q0 -39 -47 -39h-110q-47 0 -47 39v127q0 39 47 39zM277 435h110q47 0 47 -39v-127q0 -39 -47 -39h-110q-47 0 -47 39v127q0 39 47 39z" />
    <glyph glyph-name="Odieresis" unicode="&#xd6;" 
d="M1384 435h110q47 0 47 -39v-127q0 -39 -47 -39h-110q-47 0 -47 39v127q0 39 47 39zM1384 213h110q47 0 47 -39v-127q0 -39 -47 -39h-110q-47 0 -47 39v127q0 39 47 39zM1162 1984h111q47 0 47 -39v-126q0 -39 -47 -39h-111q-47 0 -47 39v126q0 39 47 39zM1162 1763h111
q47 0 47 -39v-127q0 -39 -47 -39h-111q-47 0 -47 39v127q0 39 47 39zM1162 1542h111q47 0 47 -39v-127q0 -39 -47 -39h-111q-47 0 -47 39v127q0 39 47 39zM1162 1320h111q47 0 47 -39v-127q0 -39 -47 -39h-111q-47 0 -47 39v127q0 39 47 39zM1162 1099h111q47 0 47 -39v-127
q0 -39 -47 -39h-111q-47 0 -47 39v127q0 39 47 39zM1162 877h111q47 0 47 -39v-126q0 -39 -47 -39h-111q-47 0 -47 39v126q0 39 47 39zM1162 656h111q47 0 47 -39v-127q0 -39 -47 -39h-111q-47 0 -47 39v127q0 39 47 39zM1162 435h111q47 0 47 -39v-127q0 -39 -47 -39h-111
q-47 0 -47 39v127q0 39 47 39zM941 435h110q47 0 47 -39v-127q0 -39 -47 -39h-110q-47 0 -47 39v127q0 39 47 39zM720 435h110q47 0 47 -39v-127q0 -39 -47 -39h-110q-47 0 -47 39v127q0 39 47 39zM498 435h111q47 0 47 -39v-127q0 -39 -47 -39h-111q-47 0 -47 39v127
q0 39 47 39zM277 1984h110q47 0 47 -39v-126q0 -39 -47 -39h-110q-47 0 -47 39v126q0 39 47 39zM277 1763h110q47 0 47 -39v-127q0 -39 -47 -39h-110q-47 0 -47 39v127q0 39 47 39zM277 1542h110q47 0 47 -39v-127q0 -39 -47 -39h-110q-47 0 -47 39v127q0 39 47 39z
M277 1320h110q47 0 47 -39v-127q0 -39 -47 -39h-110q-47 0 -47 39v127q0 39 47 39zM277 1099h110q47 0 47 -39v-127q0 -39 -47 -39h-110q-47 0 -47 39v127q0 39 47 39zM277 877h110q47 0 47 -39v-126q0 -39 -47 -39h-110q-47 0 -47 39v126q0 39 47 39zM277 656h110
q47 0 47 -39v-127q0 -39 -47 -39h-110q-47 0 -47 39v127q0 39 47 39zM277 435h110q47 0 47 -39v-127q0 -39 -47 -39h-110q-47 0 -47 39v127q0 39 47 39z" />
    <glyph glyph-name="Ugrave" unicode="&#xd9;" 
d="M277 435h110q47 0 47 -39v-127q0 -39 -47 -39h-110q-47 0 -47 39v127q0 39 47 39zM277 656h110q47 0 47 -39v-127q0 -39 -47 -39h-110q-47 0 -47 39v127q0 39 47 39zM277 877h110q47 0 47 -39v-126q0 -39 -47 -39h-110q-47 0 -47 39v126q0 39 47 39zM277 1099h110
q47 0 47 -39v-127q0 -39 -47 -39h-110q-47 0 -47 39v127q0 39 47 39zM277 1320h110q47 0 47 -39v-127q0 -39 -47 -39h-110q-47 0 -47 39v127q0 39 47 39zM277 1542h110q47 0 47 -39v-127q0 -39 -47 -39h-110q-47 0 -47 39v127q0 39 47 39zM277 1763h110q47 0 47 -39v-127
q0 -39 -47 -39h-110q-47 0 -47 39v127q0 39 47 39zM277 1984h110q47 0 47 -39v-126q0 -39 -47 -39h-110q-47 0 -47 39v126q0 39 47 39zM498 435h111q47 0 47 -39v-127q0 -39 -47 -39h-111q-47 0 -47 39v127q0 39 47 39zM720 435h110q47 0 47 -39v-127q0 -39 -47 -39h-110
q-47 0 -47 39v127q0 39 47 39zM941 435h110q47 0 47 -39v-127q0 -39 -47 -39h-110q-47 0 -47 39v127q0 39 47 39zM1162 435h111q47 0 47 -39v-127q0 -39 -47 -39h-111q-47 0 -47 39v127q0 39 47 39zM1162 656h111q47 0 47 -39v-127q0 -39 -47 -39h-111q-47 0 -47 39v127
q0 39 47 39zM720 656h110q47 0 47 -39v-127q0 -39 -47 -39h-110q-47 0 -47 39v127q0 39 47 39zM1162 877h111q47 0 47 -39v-126q0 -39 -47 -39h-111q-47 0 -47 39v126q0 39 47 39zM720 877h110q47 0 47 -39v-126q0 -39 -47 -39h-110q-47 0 -47 39v126q0 39 47 39zM1162 1099
h111q47 0 47 -39v-127q0 -39 -47 -39h-111q-47 0 -47 39v127q0 39 47 39zM720 1099h110q47 0 47 -39v-127q0 -39 -47 -39h-110q-47 0 -47 39v127q0 39 47 39zM1162 1320h111q47 0 47 -39v-127q0 -39 -47 -39h-111q-47 0 -47 39v127q0 39 47 39zM720 1320h110q47 0 47 -39
v-127q0 -39 -47 -39h-110q-47 0 -47 39v127q0 39 47 39zM1162 1542h111q47 0 47 -39v-127q0 -39 -47 -39h-111q-47 0 -47 39v127q0 39 47 39zM720 1542h110q47 0 47 -39v-127q0 -39 -47 -39h-110q-47 0 -47 39v127q0 39 47 39zM1162 1763h111q47 0 47 -39v-127
q0 -39 -47 -39h-111q-47 0 -47 39v127q0 39 47 39zM720 1763h110q47 0 47 -39v-127q0 -39 -47 -39h-110q-47 0 -47 39v127q0 39 47 39zM1162 1984h111q47 0 47 -39v-126q0 -39 -47 -39h-111q-47 0 -47 39v126q0 39 47 39zM720 1984h110q47 0 47 -39v-126q0 -39 -47 -39h-110
q-47 0 -47 39v126q0 39 47 39zM1384 213h110q47 0 47 -39v-127q0 -39 -47 -39h-110q-47 0 -47 39v127q0 39 47 39zM1384 435h110q47 0 47 -39v-127q0 -39 -47 -39h-110q-47 0 -47 39v127q0 39 47 39z" />
    <glyph glyph-name="Oslash" unicode="&#xd8;" 
d="M720 1984h110q47 0 47 -39v-126q0 -39 -47 -39h-110q-47 0 -47 39v126q0 39 47 39zM1162 1984h111q47 0 47 -39v-126q0 -39 -47 -39h-111q-47 0 -47 39v126q0 39 47 39zM720 1763h110q47 0 47 -39v-127q0 -39 -47 -39h-110q-47 0 -47 39v127q0 39 47 39zM1162 1763h111
q47 0 47 -39v-127q0 -39 -47 -39h-111q-47 0 -47 39v127q0 39 47 39zM720 1542h110q47 0 47 -39v-127q0 -39 -47 -39h-110q-47 0 -47 39v127q0 39 47 39zM1162 1542h111q47 0 47 -39v-127q0 -39 -47 -39h-111q-47 0 -47 39v127q0 39 47 39zM720 1320h110q47 0 47 -39v-127
q0 -39 -47 -39h-110q-47 0 -47 39v127q0 39 47 39zM1162 1320h111q47 0 47 -39v-127q0 -39 -47 -39h-111q-47 0 -47 39v127q0 39 47 39zM720 1099h110q47 0 47 -39v-127q0 -39 -47 -39h-110q-47 0 -47 39v127q0 39 47 39zM1162 1099h111q47 0 47 -39v-127q0 -39 -47 -39
h-111q-47 0 -47 39v127q0 39 47 39zM720 877h110q47 0 47 -39v-126q0 -39 -47 -39h-110q-47 0 -47 39v126q0 39 47 39zM1162 877h111q47 0 47 -39v-126q0 -39 -47 -39h-111q-47 0 -47 39v126q0 39 47 39zM720 656h110q47 0 47 -39v-127q0 -39 -47 -39h-110q-47 0 -47 39v127
q0 39 47 39zM1162 656h111q47 0 47 -39v-127q0 -39 -47 -39h-111q-47 0 -47 39v127q0 39 47 39zM1162 435h111q47 0 47 -39v-127q0 -39 -47 -39h-111q-47 0 -47 39v127q0 39 47 39zM941 435h110q47 0 47 -39v-127q0 -39 -47 -39h-110q-47 0 -47 39v127q0 39 47 39zM720 435
h110q47 0 47 -39v-127q0 -39 -47 -39h-110q-47 0 -47 39v127q0 39 47 39zM498 435h111q47 0 47 -39v-127q0 -39 -47 -39h-111q-47 0 -47 39v127q0 39 47 39zM277 1984h110q47 0 47 -39v-126q0 -39 -47 -39h-110q-47 0 -47 39v126q0 39 47 39zM277 1763h110q47 0 47 -39v-127
q0 -39 -47 -39h-110q-47 0 -47 39v127q0 39 47 39zM277 1542h110q47 0 47 -39v-127q0 -39 -47 -39h-110q-47 0 -47 39v127q0 39 47 39zM277 1320h110q47 0 47 -39v-127q0 -39 -47 -39h-110q-47 0 -47 39v127q0 39 47 39zM277 1099h110q47 0 47 -39v-127q0 -39 -47 -39h-110
q-47 0 -47 39v127q0 39 47 39zM277 877h110q47 0 47 -39v-126q0 -39 -47 -39h-110q-47 0 -47 39v126q0 39 47 39zM277 656h110q47 0 47 -39v-127q0 -39 -47 -39h-110q-47 0 -47 39v127q0 39 47 39zM277 435h110q47 0 47 -39v-127q0 -39 -47 -39h-110q-47 0 -47 39v127
q0 39 47 39z" />
    <glyph glyph-name="Udieresis" unicode="&#xdc;" 
d="M1162 1099h111q47 0 47 -39v-127q0 -39 -47 -39h-111q-47 0 -47 39v127q0 39 47 39zM1162 877h111q47 0 47 -39v-126q0 -39 -47 -39h-111q-47 0 -47 39v126q0 39 47 39zM1162 656h111q47 0 47 -39v-127q0 -39 -47 -39h-111q-47 0 -47 39v127q0 39 47 39zM941 1320h110
q47 0 47 -39v-127q0 -39 -47 -39h-110q-47 0 -47 39v127q0 39 47 39zM941 435h110q47 0 47 -39v-127q0 -39 -47 -39h-110q-47 0 -47 39v127q0 39 47 39zM720 1320h110q47 0 47 -39v-127q0 -39 -47 -39h-110q-47 0 -47 39v127q0 39 47 39zM720 435h110q47 0 47 -39v-127
q0 -39 -47 -39h-110q-47 0 -47 39v127q0 39 47 39zM498 1320h111q47 0 47 -39v-127q0 -39 -47 -39h-111q-47 0 -47 39v127q0 39 47 39zM498 435h111q47 0 47 -39v-127q0 -39 -47 -39h-111q-47 0 -47 39v127q0 39 47 39zM277 1984h110q47 0 47 -39v-126q0 -39 -47 -39h-110
q-47 0 -47 39v126q0 39 47 39zM277 1763h110q47 0 47 -39v-127q0 -39 -47 -39h-110q-47 0 -47 39v127q0 39 47 39zM277 1542h110q47 0 47 -39v-127q0 -39 -47 -39h-110q-47 0 -47 39v127q0 39 47 39zM277 1320h110q47 0 47 -39v-127q0 -39 -47 -39h-110q-47 0 -47 39v127
q0 39 47 39zM277 1099h110q47 0 47 -39v-127q0 -39 -47 -39h-110q-47 0 -47 39v127q0 39 47 39zM277 877h110q47 0 47 -39v-126q0 -39 -47 -39h-110q-47 0 -47 39v126q0 39 47 39zM277 656h110q47 0 47 -39v-127q0 -39 -47 -39h-110q-47 0 -47 39v127q0 39 47 39zM277 435
h110q47 0 47 -39v-127q0 -39 -47 -39h-110q-47 0 -47 39v127q0 39 47 39z" />
    <glyph glyph-name="Uacute" unicode="&#xda;" 
d="M277 435h110q47 0 47 -39v-127q0 -39 -47 -39h-110q-47 0 -47 39v127q0 39 47 39zM277 656h110q47 0 47 -39v-127q0 -39 -47 -39h-110q-47 0 -47 39v127q0 39 47 39zM277 877h110q47 0 47 -39v-126q0 -39 -47 -39h-110q-47 0 -47 39v126q0 39 47 39zM277 1099h110
q47 0 47 -39v-127q0 -39 -47 -39h-110q-47 0 -47 39v127q0 39 47 39zM277 1320h110q47 0 47 -39v-127q0 -39 -47 -39h-110q-47 0 -47 39v127q0 39 47 39zM277 1542h110q47 0 47 -39v-127q0 -39 -47 -39h-110q-47 0 -47 39v127q0 39 47 39zM277 1763h110q47 0 47 -39v-127
q0 -39 -47 -39h-110q-47 0 -47 39v127q0 39 47 39zM277 1984h110q47 0 47 -39v-126q0 -39 -47 -39h-110q-47 0 -47 39v126q0 39 47 39zM55 1984h111q47 0 47 -39v-126q0 -39 -47 -39h-111q-47 0 -47 39v126q0 39 47 39zM498 435h111q47 0 47 -39v-127q0 -39 -47 -39h-111
q-47 0 -47 39v127q0 39 47 39zM498 1320h111q47 0 47 -39v-127q0 -39 -47 -39h-111q-47 0 -47 39v127q0 39 47 39zM720 435h110q47 0 47 -39v-127q0 -39 -47 -39h-110q-47 0 -47 39v127q0 39 47 39zM720 1320h110q47 0 47 -39v-127q0 -39 -47 -39h-110q-47 0 -47 39v127
q0 39 47 39zM941 435h110q47 0 47 -39v-127q0 -39 -47 -39h-110q-47 0 -47 39v127q0 39 47 39zM941 1320h110q47 0 47 -39v-127q0 -39 -47 -39h-110q-47 0 -47 39v127q0 39 47 39zM1162 656h111q47 0 47 -39v-127q0 -39 -47 -39h-111q-47 0 -47 39v127q0 39 47 39zM1162 877
h111q47 0 47 -39v-126q0 -39 -47 -39h-111q-47 0 -47 39v126q0 39 47 39zM1162 1099h111q47 0 47 -39v-127q0 -39 -47 -39h-111q-47 0 -47 39v127q0 39 47 39z" />
    <glyph glyph-name="Ucircumflex" unicode="&#xdb;" 
d="M941 1099h110q47 0 47 -39v-127q0 -39 -47 -39h-110q-47 0 -47 39v127q0 39 47 39zM941 877h110q47 0 47 -39v-126q0 -39 -47 -39h-110q-47 0 -47 39v126q0 39 47 39zM941 656h110q47 0 47 -39v-127q0 -39 -47 -39h-110q-47 0 -47 39v127q0 39 47 39zM720 1320h110
q47 0 47 -39v-127q0 -39 -47 -39h-110q-47 0 -47 39v127q0 39 47 39zM720 435h110q47 0 47 -39v-127q0 -39 -47 -39h-110q-47 0 -47 39v127q0 39 47 39zM498 1320h111q47 0 47 -39v-127q0 -39 -47 -39h-111q-47 0 -47 39v127q0 39 47 39zM498 435h111q47 0 47 -39v-127
q0 -39 -47 -39h-111q-47 0 -47 39v127q0 39 47 39zM277 1984h110q47 0 47 -39v-126q0 -39 -47 -39h-110q-47 0 -47 39v126q0 39 47 39zM1384 1984h110q47 0 47 -39v-126q0 -39 -47 -39h-110q-47 0 -47 39v126q0 39 47 39zM277 1763h110q47 0 47 -39v-127q0 -39 -47 -39h-110
q-47 0 -47 39v127q0 39 47 39zM1384 1763h110q47 0 47 -39v-127q0 -39 -47 -39h-110q-47 0 -47 39v127q0 39 47 39zM277 1542h110q47 0 47 -39v-127q0 -39 -47 -39h-110q-47 0 -47 39v127q0 39 47 39zM1384 1542h110q47 0 47 -39v-127q0 -39 -47 -39h-110q-47 0 -47 39v127
q0 39 47 39zM277 1320h110q47 0 47 -39v-127q0 -39 -47 -39h-110q-47 0 -47 39v127q0 39 47 39zM1384 1320h110q47 0 47 -39v-127q0 -39 -47 -39h-110q-47 0 -47 39v127q0 39 47 39zM277 1099h110q47 0 47 -39v-127q0 -39 -47 -39h-110q-47 0 -47 39v127q0 39 47 39z
M1384 1099h110q47 0 47 -39v-127q0 -39 -47 -39h-110q-47 0 -47 39v127q0 39 47 39zM277 877h110q47 0 47 -39v-126q0 -39 -47 -39h-110q-47 0 -47 39v126q0 39 47 39zM1384 877h110q47 0 47 -39v-126q0 -39 -47 -39h-110q-47 0 -47 39v126q0 39 47 39zM277 656h110
q47 0 47 -39v-127q0 -39 -47 -39h-110q-47 0 -47 39v127q0 39 47 39zM1384 656h110q47 0 47 -39v-127q0 -39 -47 -39h-110q-47 0 -47 39v127q0 39 47 39zM277 435h110q47 0 47 -39v-127q0 -39 -47 -39h-110q-47 0 -47 39v127q0 39 47 39zM1384 435h110q47 0 47 -39v-127
q0 -39 -47 -39h-110q-47 0 -47 39v127q0 39 47 39z" />
    <glyph glyph-name="germandbls" unicode="&#xdf;" 
d="M1162 1984h111q47 0 47 -39v-126q0 -39 -47 -39h-111q-47 0 -47 39v126q0 39 47 39zM1162 1763h111q47 0 47 -39v-127q0 -39 -47 -39h-111q-47 0 -47 39v127q0 39 47 39zM1162 1542h111q47 0 47 -39v-127q0 -39 -47 -39h-111q-47 0 -47 39v127q0 39 47 39zM1162 1320h111
q47 0 47 -39v-127q0 -39 -47 -39h-111q-47 0 -47 39v127q0 39 47 39zM1162 1099h111q47 0 47 -39v-127q0 -39 -47 -39h-111q-47 0 -47 39v127q0 39 47 39zM1162 877h111q47 0 47 -39v-126q0 -39 -47 -39h-111q-47 0 -47 39v126q0 39 47 39zM1162 656h111q47 0 47 -39v-127
q0 -39 -47 -39h-111q-47 0 -47 39v127q0 39 47 39zM1162 435h111q47 0 47 -39v-127q0 -39 -47 -39h-111q-47 0 -47 39v127q0 39 47 39zM941 1984h110q47 0 47 -39v-126q0 -39 -47 -39h-110q-47 0 -47 39v126q0 39 47 39zM941 1099h110q47 0 47 -39v-127q0 -39 -47 -39h-110
q-47 0 -47 39v127q0 39 47 39zM720 1984h110q47 0 47 -39v-126q0 -39 -47 -39h-110q-47 0 -47 39v126q0 39 47 39zM720 1099h110q47 0 47 -39v-127q0 -39 -47 -39h-110q-47 0 -47 39v127q0 39 47 39zM720 877h110q47 0 47 -39v-126q0 -39 -47 -39h-110q-47 0 -47 39v126
q0 39 47 39zM498 1984h111q47 0 47 -39v-126q0 -39 -47 -39h-111q-47 0 -47 39v126q0 39 47 39zM498 1099h111q47 0 47 -39v-127q0 -39 -47 -39h-111q-47 0 -47 39v127q0 39 47 39zM498 656h111q47 0 47 -39v-127q0 -39 -47 -39h-111q-47 0 -47 39v127q0 39 47 39zM277 1763
h110q47 0 47 -39v-127q0 -39 -47 -39h-110q-47 0 -47 39v127q0 39 47 39zM277 1542h110q47 0 47 -39v-127q0 -39 -47 -39h-110q-47 0 -47 39v127q0 39 47 39zM277 1320h110q47 0 47 -39v-127q0 -39 -47 -39h-110q-47 0 -47 39v127q0 39 47 39zM277 435h110q47 0 47 -39v-127
q0 -39 -47 -39h-110q-47 0 -47 39v127q0 39 47 39z" />
    <glyph glyph-name="exclam" unicode="!" 
d="M720 1984h110q47 0 47 -39v-126q0 -39 -47 -39h-110q-47 0 -47 39v126q0 39 47 39zM720 1763h110q47 0 47 -39v-127q0 -39 -47 -39h-110q-47 0 -47 39v127q0 39 47 39zM720 1542h110q47 0 47 -39v-127q0 -39 -47 -39h-110q-47 0 -47 39v127q0 39 47 39zM720 1320h110
q47 0 47 -39v-127q0 -39 -47 -39h-110q-47 0 -47 39v127q0 39 47 39zM720 1099h110q47 0 47 -39v-127q0 -39 -47 -39h-110q-47 0 -47 39v127q0 39 47 39zM720 877h110q47 0 47 -39v-126q0 -39 -47 -39h-110q-47 0 -47 39v126q0 39 47 39zM720 435h110q47 0 47 -39v-127
q0 -39 -47 -39h-110q-47 0 -47 39v127q0 39 47 39z" />
    <glyph glyph-name="quotedbl" unicode="&#x22;" 
d="M941 1984h110q47 0 47 -39v-126q0 -39 -47 -39h-110q-47 0 -47 39v126q0 39 47 39zM941 1763h110q47 0 47 -39v-127q0 -39 -47 -39h-110q-47 0 -47 39v127q0 39 47 39zM941 1542h110q47 0 47 -39v-127q0 -39 -47 -39h-110q-47 0 -47 39v127q0 39 47 39zM498 1984h111
q47 0 47 -39v-126q0 -39 -47 -39h-111q-47 0 -47 39v126q0 39 47 39zM498 1763h111q47 0 47 -39v-127q0 -39 -47 -39h-111q-47 0 -47 39v127q0 39 47 39zM498 1542h111q47 0 47 -39v-127q0 -39 -47 -39h-111q-47 0 -47 39v127q0 39 47 39z" />
    <glyph glyph-name="period" unicode="." 
d="M941 656h110q47 0 47 -39v-127q0 -39 -47 -39h-110q-47 0 -47 39v127q0 39 47 39zM941 435h110q47 0 47 -39v-127q0 -39 -47 -39h-110q-47 0 -47 39v127q0 39 47 39zM720 656h110q47 0 47 -39v-127q0 -39 -47 -39h-110q-47 0 -47 39v127q0 39 47 39zM720 435h110
q47 0 47 -39v-127q0 -39 -47 -39h-110q-47 0 -47 39v127q0 39 47 39z" />
    <glyph glyph-name="A" unicode="A" 
d="M1162 1763h111q47 0 47 -39v-127q0 -39 -47 -39h-111q-47 0 -47 39v127q0 39 47 39zM1162 1542h111q47 0 47 -39v-127q0 -39 -47 -39h-111q-47 0 -47 39v127q0 39 47 39zM1162 1320h111q47 0 47 -39v-127q0 -39 -47 -39h-111q-47 0 -47 39v127q0 39 47 39zM1162 1099h111
q47 0 47 -39v-127q0 -39 -47 -39h-111q-47 0 -47 39v127q0 39 47 39zM1162 877h111q47 0 47 -39v-126q0 -39 -47 -39h-111q-47 0 -47 39v126q0 39 47 39zM1162 656h111q47 0 47 -39v-127q0 -39 -47 -39h-111q-47 0 -47 39v127q0 39 47 39zM1162 435h111q47 0 47 -39v-127
q0 -39 -47 -39h-111q-47 0 -47 39v127q0 39 47 39zM941 1984h110q47 0 47 -39v-126q0 -39 -47 -39h-110q-47 0 -47 39v126q0 39 47 39zM941 877h110q47 0 47 -39v-126q0 -39 -47 -39h-110q-47 0 -47 39v126q0 39 47 39zM720 1984h110q47 0 47 -39v-126q0 -39 -47 -39h-110
q-47 0 -47 39v126q0 39 47 39zM720 877h110q47 0 47 -39v-126q0 -39 -47 -39h-110q-47 0 -47 39v126q0 39 47 39zM498 1984h111q47 0 47 -39v-126q0 -39 -47 -39h-111q-47 0 -47 39v126q0 39 47 39zM498 877h111q47 0 47 -39v-126q0 -39 -47 -39h-111q-47 0 -47 39v126
q0 39 47 39zM277 1763h110q47 0 47 -39v-127q0 -39 -47 -39h-110q-47 0 -47 39v127q0 39 47 39zM277 1542h110q47 0 47 -39v-127q0 -39 -47 -39h-110q-47 0 -47 39v127q0 39 47 39zM277 1320h110q47 0 47 -39v-127q0 -39 -47 -39h-110q-47 0 -47 39v127q0 39 47 39z
M277 1099h110q47 0 47 -39v-127q0 -39 -47 -39h-110q-47 0 -47 39v127q0 39 47 39zM277 877h110q47 0 47 -39v-126q0 -39 -47 -39h-110q-47 0 -47 39v126q0 39 47 39zM277 656h110q47 0 47 -39v-127q0 -39 -47 -39h-110q-47 0 -47 39v127q0 39 47 39zM277 435h110
q47 0 47 -39v-127q0 -39 -47 -39h-110q-47 0 -47 39v127q0 39 47 39z" />
    <glyph glyph-name="dieresis" unicode="&#xa8;" 
d="M1162 1542h111q47 0 47 -39v-127q0 -39 -47 -39h-111q-47 0 -47 39v127q0 39 47 39zM1162 435h111q47 0 47 -39v-127q0 -39 -47 -39h-111q-47 0 -47 39v127q0 39 47 39zM941 1984h110q47 0 47 -39v-126q0 -39 -47 -39h-110q-47 0 -47 39v126q0 39 47 39zM941 1542h110
q47 0 47 -39v-127q0 -39 -47 -39h-110q-47 0 -47 39v127q0 39 47 39zM941 877h110q47 0 47 -39v-126q0 -39 -47 -39h-110q-47 0 -47 39v126q0 39 47 39zM941 435h110q47 0 47 -39v-127q0 -39 -47 -39h-110q-47 0 -47 39v127q0 39 47 39zM720 1542h110q47 0 47 -39v-127
q0 -39 -47 -39h-110q-47 0 -47 39v127q0 39 47 39zM720 877h110q47 0 47 -39v-126q0 -39 -47 -39h-110q-47 0 -47 39v126q0 39 47 39zM720 435h110q47 0 47 -39v-127q0 -39 -47 -39h-110q-47 0 -47 39v127q0 39 47 39zM498 1984h111q47 0 47 -39v-126q0 -39 -47 -39h-111
q-47 0 -47 39v126q0 39 47 39zM498 1542h111q47 0 47 -39v-127q0 -39 -47 -39h-111q-47 0 -47 39v127q0 39 47 39zM498 877h111q47 0 47 -39v-126q0 -39 -47 -39h-111q-47 0 -47 39v126q0 39 47 39zM498 435h111q47 0 47 -39v-127q0 -39 -47 -39h-111q-47 0 -47 39v127
q0 39 47 39zM277 1542h110q47 0 47 -39v-127q0 -39 -47 -39h-110q-47 0 -47 39v127q0 39 47 39zM277 1320h110q47 0 47 -39v-127q0 -39 -47 -39h-110q-47 0 -47 39v127q0 39 47 39zM277 1099h110q47 0 47 -39v-127q0 -39 -47 -39h-110q-47 0 -47 39v127q0 39 47 39zM277 877
h110q47 0 47 -39v-126q0 -39 -47 -39h-110q-47 0 -47 39v126q0 39 47 39zM277 656h110q47 0 47 -39v-127q0 -39 -47 -39h-110q-47 0 -47 39v127q0 39 47 39zM277 435h110q47 0 47 -39v-127q0 -39 -47 -39h-110q-47 0 -47 39v127q0 39 47 39z" />
    <glyph glyph-name="comma" unicode="," 
d="M720 656h110q47 0 47 -39v-127q0 -39 -47 -39h-110q-47 0 -47 39v127q0 39 47 39zM720 435h110q47 0 47 -39v-127q0 -39 -47 -39h-110q-47 0 -47 39v127q0 39 47 39zM498 656h111q47 0 47 -39v-127q0 -39 -47 -39h-111q-47 0 -47 39v127q0 39 47 39zM498 435h111
q47 0 47 -39v-127q0 -39 -47 -39h-111q-47 0 -47 39v127q0 39 47 39zM277 213h110q47 0 47 -39v-127q0 -39 -47 -39h-110q-47 0 -47 39v127q0 39 47 39z" />
    <glyph glyph-name="plus" unicode="+" 
d="M1162 1099h111q47 0 47 -39v-127q0 -39 -47 -39h-111q-47 0 -47 39v127q0 39 47 39zM941 1099h110q47 0 47 -39v-127q0 -39 -47 -39h-110q-47 0 -47 39v127q0 39 47 39zM720 1542h110q47 0 47 -39v-127q0 -39 -47 -39h-110q-47 0 -47 39v127q0 39 47 39zM720 1320h110
q47 0 47 -39v-127q0 -39 -47 -39h-110q-47 0 -47 39v127q0 39 47 39zM720 1099h110q47 0 47 -39v-127q0 -39 -47 -39h-110q-47 0 -47 39v127q0 39 47 39zM720 877h110q47 0 47 -39v-126q0 -39 -47 -39h-110q-47 0 -47 39v126q0 39 47 39zM720 656h110q47 0 47 -39v-127
q0 -39 -47 -39h-110q-47 0 -47 39v127q0 39 47 39zM498 1099h111q47 0 47 -39v-127q0 -39 -47 -39h-111q-47 0 -47 39v127q0 39 47 39zM277 1099h110q47 0 47 -39v-127q0 -39 -47 -39h-110q-47 0 -47 39v127q0 39 47 39z" />
    <glyph glyph-name="hyphen" unicode="-" 
d="M277 1099h110q47 0 47 -39v-127q0 -39 -47 -39h-110q-47 0 -47 39v127q0 39 47 39zM498 1099h111q47 0 47 -39v-127q0 -39 -47 -39h-111q-47 0 -47 39v127q0 39 47 39zM720 1099h110q47 0 47 -39v-127q0 -39 -47 -39h-110q-47 0 -47 39v127q0 39 47 39zM941 1099h110
q47 0 47 -39v-127q0 -39 -47 -39h-110q-47 0 -47 39v127q0 39 47 39zM1162 1099h111q47 0 47 -39v-127q0 -39 -47 -39h-111q-47 0 -47 39v127q0 39 47 39z" />
    <glyph glyph-name="parenright" unicode=")" 
d="M498 1763h111q47 0 47 -39v-127q0 -39 -47 -39h-111q-47 0 -47 39v127q0 39 47 39zM720 1542h110q47 0 47 -39v-127q0 -39 -47 -39h-110q-47 0 -47 39v127q0 39 47 39zM720 1320h110q47 0 47 -39v-127q0 -39 -47 -39h-110q-47 0 -47 39v127q0 39 47 39zM720 1099h110
q47 0 47 -39v-127q0 -39 -47 -39h-110q-47 0 -47 39v127q0 39 47 39zM720 877h110q47 0 47 -39v-126q0 -39 -47 -39h-110q-47 0 -47 39v126q0 39 47 39zM720 656h110q47 0 47 -39v-127q0 -39 -47 -39h-110q-47 0 -47 39v127q0 39 47 39zM498 435h111q47 0 47 -39v-127
q0 -39 -47 -39h-111q-47 0 -47 39v127q0 39 47 39z" />
    <glyph glyph-name="parenleft" unicode="(" 
d="M941 435h110q47 0 47 -39v-127q0 -39 -47 -39h-110q-47 0 -47 39v127q0 39 47 39zM720 656h110q47 0 47 -39v-127q0 -39 -47 -39h-110q-47 0 -47 39v127q0 39 47 39zM720 877h110q47 0 47 -39v-126q0 -39 -47 -39h-110q-47 0 -47 39v126q0 39 47 39zM720 1099h110
q47 0 47 -39v-127q0 -39 -47 -39h-110q-47 0 -47 39v127q0 39 47 39zM720 1320h110q47 0 47 -39v-127q0 -39 -47 -39h-110q-47 0 -47 39v127q0 39 47 39zM720 1542h110q47 0 47 -39v-127q0 -39 -47 -39h-110q-47 0 -47 39v127q0 39 47 39zM941 1763h110q47 0 47 -39v-127
q0 -39 -47 -39h-110q-47 0 -47 39v127q0 39 47 39z" />
    <glyph glyph-name="zero" unicode="0" 
d="M1162 1763h111q47 0 47 -39v-127q0 -39 -47 -39h-111q-47 0 -47 39v127q0 39 47 39zM1162 1542h111q47 0 47 -39v-127q0 -39 -47 -39h-111q-47 0 -47 39v127q0 39 47 39zM1162 1320h111q47 0 47 -39v-127q0 -39 -47 -39h-111q-47 0 -47 39v127q0 39 47 39zM1162 1099h111
q47 0 47 -39v-127q0 -39 -47 -39h-111q-47 0 -47 39v127q0 39 47 39zM1162 877h111q47 0 47 -39v-126q0 -39 -47 -39h-111q-47 0 -47 39v126q0 39 47 39zM1162 656h111q47 0 47 -39v-127q0 -39 -47 -39h-111q-47 0 -47 39v127q0 39 47 39zM941 1984h110q47 0 47 -39v-126
q0 -39 -47 -39h-110q-47 0 -47 39v126q0 39 47 39zM941 1542h110q47 0 47 -39v-127q0 -39 -47 -39h-110q-47 0 -47 39v127q0 39 47 39zM941 435h110q47 0 47 -39v-127q0 -39 -47 -39h-110q-47 0 -47 39v127q0 39 47 39zM720 1984h110q47 0 47 -39v-126q0 -39 -47 -39h-110
q-47 0 -47 39v126q0 39 47 39zM720 1320h110q47 0 47 -39v-127q0 -39 -47 -39h-110q-47 0 -47 39v127q0 39 47 39zM720 435h110q47 0 47 -39v-127q0 -39 -47 -39h-110q-47 0 -47 39v127q0 39 47 39zM498 1984h111q47 0 47 -39v-126q0 -39 -47 -39h-111q-47 0 -47 39v126
q0 39 47 39zM498 1099h111q47 0 47 -39v-127q0 -39 -47 -39h-111q-47 0 -47 39v127q0 39 47 39zM498 435h111q47 0 47 -39v-127q0 -39 -47 -39h-111q-47 0 -47 39v127q0 39 47 39zM277 1763h110q47 0 47 -39v-127q0 -39 -47 -39h-110q-47 0 -47 39v127q0 39 47 39zM277 1542
h110q47 0 47 -39v-127q0 -39 -47 -39h-110q-47 0 -47 39v127q0 39 47 39zM277 1320h110q47 0 47 -39v-127q0 -39 -47 -39h-110q-47 0 -47 39v127q0 39 47 39zM277 1099h110q47 0 47 -39v-127q0 -39 -47 -39h-110q-47 0 -47 39v127q0 39 47 39zM277 877h110q47 0 47 -39v-126
q0 -39 -47 -39h-110q-47 0 -47 39v126q0 39 47 39zM277 656h110q47 0 47 -39v-127q0 -39 -47 -39h-110q-47 0 -47 39v127q0 39 47 39z" />
    <glyph glyph-name="colon" unicode=":" 
d="M720 1542h110q47 0 47 -39v-127q0 -39 -47 -39h-110q-47 0 -47 39v127q0 39 47 39zM720 1320h110q47 0 47 -39v-127q0 -39 -47 -39h-110q-47 0 -47 39v127q0 39 47 39zM720 656h110q47 0 47 -39v-127q0 -39 -47 -39h-110q-47 0 -47 39v127q0 39 47 39zM720 435h110
q47 0 47 -39v-127q0 -39 -47 -39h-110q-47 0 -47 39v127q0 39 47 39zM498 1542h111q47 0 47 -39v-127q0 -39 -47 -39h-111q-47 0 -47 39v127q0 39 47 39zM498 1320h111q47 0 47 -39v-127q0 -39 -47 -39h-111q-47 0 -47 39v127q0 39 47 39zM498 656h111q47 0 47 -39v-127
q0 -39 -47 -39h-111q-47 0 -47 39v127q0 39 47 39zM498 435h111q47 0 47 -39v-127q0 -39 -47 -39h-111q-47 0 -47 39v127q0 39 47 39z" />
    <glyph glyph-name="semicolon" unicode=";" 
d="M498 213h111q47 0 47 -39v-127q0 -39 -47 -39h-111q-47 0 -47 39v127q0 39 47 39zM498 656h111q47 0 47 -39v-127q0 -39 -47 -39h-111q-47 0 -47 39v127q0 39 47 39zM498 1320h111q47 0 47 -39v-127q0 -39 -47 -39h-111q-47 0 -47 39v127q0 39 47 39zM498 1542h111
q47 0 47 -39v-127q0 -39 -47 -39h-111q-47 0 -47 39v127q0 39 47 39zM720 435h110q47 0 47 -39v-127q0 -39 -47 -39h-110q-47 0 -47 39v127q0 39 47 39zM720 656h110q47 0 47 -39v-127q0 -39 -47 -39h-110q-47 0 -47 39v127q0 39 47 39zM720 1320h110q47 0 47 -39v-127
q0 -39 -47 -39h-110q-47 0 -47 39v127q0 39 47 39zM720 1542h110q47 0 47 -39v-127q0 -39 -47 -39h-110q-47 0 -47 39v127q0 39 47 39z" />
    <glyph glyph-name="equal" unicode="=" 
d="M941 1320h110q47 0 47 -39v-127q0 -39 -47 -39h-110q-47 0 -47 39v127q0 39 47 39zM941 877h110q47 0 47 -39v-126q0 -39 -47 -39h-110q-47 0 -47 39v126q0 39 47 39zM720 1320h110q47 0 47 -39v-127q0 -39 -47 -39h-110q-47 0 -47 39v127q0 39 47 39zM720 877h110
q47 0 47 -39v-126q0 -39 -47 -39h-110q-47 0 -47 39v126q0 39 47 39zM498 1320h111q47 0 47 -39v-127q0 -39 -47 -39h-111q-47 0 -47 39v127q0 39 47 39zM498 877h111q47 0 47 -39v-126q0 -39 -47 -39h-111q-47 0 -47 39v126q0 39 47 39z" />
    <glyph glyph-name="percent" unicode="%" 
d="M1162 1984h111q47 0 47 -39v-126q0 -39 -47 -39h-111q-47 0 -47 39v126q0 39 47 39zM1162 1763h111q47 0 47 -39v-127q0 -39 -47 -39h-111q-47 0 -47 39v127q0 39 47 39zM1162 656h111q47 0 47 -39v-127q0 -39 -47 -39h-111q-47 0 -47 39v127q0 39 47 39zM1162 435h111
q47 0 47 -39v-127q0 -39 -47 -39h-111q-47 0 -47 39v127q0 39 47 39zM941 1542h110q47 0 47 -39v-127q0 -39 -47 -39h-110q-47 0 -47 39v127q0 39 47 39zM941 656h110q47 0 47 -39v-127q0 -39 -47 -39h-110q-47 0 -47 39v127q0 39 47 39zM941 435h110q47 0 47 -39v-127
q0 -39 -47 -39h-110q-47 0 -47 39v127q0 39 47 39zM720 1320h110q47 0 47 -39v-127q0 -39 -47 -39h-110q-47 0 -47 39v127q0 39 47 39zM498 1984h111q47 0 47 -39v-126q0 -39 -47 -39h-111q-47 0 -47 39v126q0 39 47 39zM498 1763h111q47 0 47 -39v-127q0 -39 -47 -39h-111
q-47 0 -47 39v127q0 39 47 39zM498 1099h111q47 0 47 -39v-127q0 -39 -47 -39h-111q-47 0 -47 39v127q0 39 47 39zM277 1984h110q47 0 47 -39v-126q0 -39 -47 -39h-110q-47 0 -47 39v126q0 39 47 39zM277 1763h110q47 0 47 -39v-127q0 -39 -47 -39h-110q-47 0 -47 39v127
q0 39 47 39zM277 877h110q47 0 47 -39v-126q0 -39 -47 -39h-110q-47 0 -47 39v126q0 39 47 39zM277 656h110q47 0 47 -39v-127q0 -39 -47 -39h-110q-47 0 -47 39v127q0 39 47 39zM277 435h110q47 0 47 -39v-127q0 -39 -47 -39h-110q-47 0 -47 39v127q0 39 47 39z" />
    <glyph glyph-name="slash" unicode="/" 
d="M277 435h110q47 0 47 -39v-127q0 -39 -47 -39h-110q-47 0 -47 39v127q0 39 47 39zM277 656h110q47 0 47 -39v-127q0 -39 -47 -39h-110q-47 0 -47 39v127q0 39 47 39zM277 877h110q47 0 47 -39v-126q0 -39 -47 -39h-110q-47 0 -47 39v126q0 39 47 39zM498 1099h111
q47 0 47 -39v-127q0 -39 -47 -39h-111q-47 0 -47 39v127q0 39 47 39zM720 1320h110q47 0 47 -39v-127q0 -39 -47 -39h-110q-47 0 -47 39v127q0 39 47 39zM941 1542h110q47 0 47 -39v-127q0 -39 -47 -39h-110q-47 0 -47 39v127q0 39 47 39zM1162 1763h111q47 0 47 -39v-127
q0 -39 -47 -39h-111q-47 0 -47 39v127q0 39 47 39zM1162 1984h111q47 0 47 -39v-126q0 -39 -47 -39h-111q-47 0 -47 39v126q0 39 47 39z" />
    <glyph glyph-name="dollar" unicode="$" horiz-adv-x="3362" 
d="M1162 1763h111q47 0 47 -39v-127q0 -39 -47 -39h-111q-47 0 -47 39v127q0 39 47 39zM1162 1099h111q47 0 47 -39v-127q0 -39 -47 -39h-111q-47 0 -47 39v127q0 39 47 39zM1162 877h111q47 0 47 -39v-126q0 -39 -47 -39h-111q-47 0 -47 39v126q0 39 47 39zM941 1763h110
q47 0 47 -39v-127q0 -39 -47 -39h-110q-47 0 -47 39v127q0 39 47 39zM941 1320h110q47 0 47 -39v-127q0 -39 -47 -39h-110q-47 0 -47 39v127q0 39 47 39zM941 656h110q47 0 47 -39v-127q0 -39 -47 -39h-110q-47 0 -47 39v127q0 39 47 39zM720 1984h110q47 0 47 -39v-126
q0 -39 -47 -39h-110q-47 0 -47 39v126q0 39 47 39zM720 1763h110q47 0 47 -39v-127q0 -39 -47 -39h-110q-47 0 -47 39v127q0 39 47 39zM720 1542h110q47 0 47 -39v-127q0 -39 -47 -39h-110q-47 0 -47 39v127q0 39 47 39zM720 1320h110q47 0 47 -39v-127q0 -39 -47 -39h-110
q-47 0 -47 39v127q0 39 47 39zM720 1099h110q47 0 47 -39v-127q0 -39 -47 -39h-110q-47 0 -47 39v127q0 39 47 39zM720 877h110q47 0 47 -39v-126q0 -39 -47 -39h-110q-47 0 -47 39v126q0 39 47 39zM720 656h110q47 0 47 -39v-127q0 -39 -47 -39h-110q-47 0 -47 39v127
q0 39 47 39zM720 435h110q47 0 47 -39v-127q0 -39 -47 -39h-110q-47 0 -47 39v127q0 39 47 39zM498 1763h111q47 0 47 -39v-127q0 -39 -47 -39h-111q-47 0 -47 39v127q0 39 47 39zM498 1320h111q47 0 47 -39v-127q0 -39 -47 -39h-111q-47 0 -47 39v127q0 39 47 39zM498 656
h111q47 0 47 -39v-127q0 -39 -47 -39h-111q-47 0 -47 39v127q0 39 47 39zM277 1542h110q47 0 47 -39v-127q0 -39 -47 -39h-110q-47 0 -47 39v127q0 39 47 39zM277 656h110q47 0 47 -39v-127q0 -39 -47 -39h-110q-47 0 -47 39v127q0 39 47 39z" />
    <glyph glyph-name="braceleft" unicode="{" 
d="M941 435h110q47 0 47 -39v-127q0 -39 -47 -39h-110q-47 0 -47 39v127q0 39 47 39zM720 656h110q47 0 47 -39v-127q0 -39 -47 -39h-110q-47 0 -47 39v127q0 39 47 39zM720 877h110q47 0 47 -39v-126q0 -39 -47 -39h-110q-47 0 -47 39v126q0 39 47 39zM720 1099h110
q47 0 47 -39v-127q0 -39 -47 -39h-110q-47 0 -47 39v127q0 39 47 39zM720 1320h110q47 0 47 -39v-127q0 -39 -47 -39h-110q-47 0 -47 39v127q0 39 47 39zM720 1542h110q47 0 47 -39v-127q0 -39 -47 -39h-110q-47 0 -47 39v127q0 39 47 39zM941 1763h110q47 0 47 -39v-127
q0 -39 -47 -39h-110q-47 0 -47 39v127q0 39 47 39z" />
    <glyph glyph-name="a" unicode="a" 
d="M1162 1763h111q47 0 47 -39v-127q0 -39 -47 -39h-111q-47 0 -47 39v127q0 39 47 39zM1162 1542h111q47 0 47 -39v-127q0 -39 -47 -39h-111q-47 0 -47 39v127q0 39 47 39zM1162 1320h111q47 0 47 -39v-127q0 -39 -47 -39h-111q-47 0 -47 39v127q0 39 47 39zM1162 1099h111
q47 0 47 -39v-127q0 -39 -47 -39h-111q-47 0 -47 39v127q0 39 47 39zM1162 877h111q47 0 47 -39v-126q0 -39 -47 -39h-111q-47 0 -47 39v126q0 39 47 39zM1162 656h111q47 0 47 -39v-127q0 -39 -47 -39h-111q-47 0 -47 39v127q0 39 47 39zM1162 435h111q47 0 47 -39v-127
q0 -39 -47 -39h-111q-47 0 -47 39v127q0 39 47 39zM941 1984h110q47 0 47 -39v-126q0 -39 -47 -39h-110q-47 0 -47 39v126q0 39 47 39zM941 877h110q47 0 47 -39v-126q0 -39 -47 -39h-110q-47 0 -47 39v126q0 39 47 39zM720 1984h110q47 0 47 -39v-126q0 -39 -47 -39h-110
q-47 0 -47 39v126q0 39 47 39zM720 877h110q47 0 47 -39v-126q0 -39 -47 -39h-110q-47 0 -47 39v126q0 39 47 39zM498 1984h111q47 0 47 -39v-126q0 -39 -47 -39h-111q-47 0 -47 39v126q0 39 47 39zM498 877h111q47 0 47 -39v-126q0 -39 -47 -39h-111q-47 0 -47 39v126
q0 39 47 39zM277 1763h110q47 0 47 -39v-127q0 -39 -47 -39h-110q-47 0 -47 39v127q0 39 47 39zM277 1542h110q47 0 47 -39v-127q0 -39 -47 -39h-110q-47 0 -47 39v127q0 39 47 39zM277 1320h110q47 0 47 -39v-127q0 -39 -47 -39h-110q-47 0 -47 39v127q0 39 47 39z
M277 1099h110q47 0 47 -39v-127q0 -39 -47 -39h-110q-47 0 -47 39v127q0 39 47 39zM277 877h110q47 0 47 -39v-126q0 -39 -47 -39h-110q-47 0 -47 39v126q0 39 47 39zM277 656h110q47 0 47 -39v-127q0 -39 -47 -39h-110q-47 0 -47 39v127q0 39 47 39zM277 435h110
q47 0 47 -39v-127q0 -39 -47 -39h-110q-47 0 -47 39v127q0 39 47 39z" />
    <glyph glyph-name="b" unicode="b" 
d="M1162 1763h111q47 0 47 -39v-127q0 -39 -47 -39h-111q-47 0 -47 39v127q0 39 47 39zM1162 1542h111q47 0 47 -39v-127q0 -39 -47 -39h-111q-47 0 -47 39v127q0 39 47 39zM1162 1099h111q47 0 47 -39v-127q0 -39 -47 -39h-111q-47 0 -47 39v127q0 39 47 39zM1162 878h111
q47 0 47 -40v-126q0 -39 -47 -39h-111q-47 0 -47 39v126q0 40 47 40zM1162 656h111q47 0 47 -39v-127q0 -39 -47 -39h-111q-47 0 -47 39v127q0 39 47 39zM941 1985h111q47 0 47 -39v-127q0 -39 -47 -39h-111q-47 0 -47 39v127q0 39 47 39zM941 1320h111q47 0 47 -39v-126
q0 -40 -47 -40h-111q-47 0 -47 40v126q0 39 47 39zM941 435h111q47 0 47 -39v-127q0 -39 -47 -39h-111q-47 0 -47 39v127q0 39 47 39zM720 1985h110q47 0 47 -39v-127q0 -39 -47 -39h-110q-47 0 -47 39v127q0 39 47 39zM720 1320h110q47 0 47 -39v-126q0 -40 -47 -40h-110
q-47 0 -47 40v126q0 39 47 39zM720 435h110q47 0 47 -39v-127q0 -39 -47 -39h-110q-47 0 -47 39v127q0 39 47 39zM498 1985h111q47 0 47 -39v-127q0 -39 -47 -39h-111q-47 0 -47 39v127q0 39 47 39zM498 1320h111q47 0 47 -39v-126q0 -40 -47 -40h-111q-47 0 -47 40v126
q0 39 47 39zM498 435h111q47 0 47 -39v-127q0 -39 -47 -39h-111q-47 0 -47 39v127q0 39 47 39zM277 1985h110q47 0 47 -39v-127q0 -39 -47 -39h-110q-47 0 -47 39v127q0 39 47 39zM277 1763h110q47 0 47 -39v-127q0 -39 -47 -39h-110q-47 0 -47 39v127q0 39 47 39zM277 1542
h110q47 0 47 -39v-127q0 -39 -47 -39h-110q-47 0 -47 39v127q0 39 47 39zM277 1320h110q47 0 47 -39v-126q0 -40 -47 -40h-110q-47 0 -47 40v126q0 39 47 39zM277 1099h110q47 0 47 -39v-127q0 -39 -47 -39h-110q-47 0 -47 39v127q0 39 47 39zM277 878h110q47 0 47 -40v-126
q0 -39 -47 -39h-110q-47 0 -47 39v126q0 40 47 40zM277 656h110q47 0 47 -39v-127q0 -39 -47 -39h-110q-47 0 -47 39v127q0 39 47 39zM277 435h110q47 0 47 -39v-127q0 -39 -47 -39h-110q-47 0 -47 39v127q0 39 47 39z" />
    <glyph glyph-name="c" unicode="c" 
d="M1162 1763h111q47 0 47 -39v-127q0 -39 -47 -39h-111q-47 0 -47 39v127q0 39 47 39zM1162 1542h111q47 0 47 -39v-127q0 -39 -47 -39h-111q-47 0 -47 39v127q0 39 47 39zM1162 877h111q47 0 47 -39v-126q0 -39 -47 -39h-111q-47 0 -47 39v126q0 39 47 39zM1162 656h111
q47 0 47 -39v-127q0 -39 -47 -39h-111q-47 0 -47 39v127q0 39 47 39zM941 1984h110q47 0 47 -39v-126q0 -39 -47 -39h-110q-47 0 -47 39v126q0 39 47 39zM941 435h110q47 0 47 -39v-127q0 -39 -47 -39h-110q-47 0 -47 39v127q0 39 47 39zM720 1984h110q47 0 47 -39v-126
q0 -39 -47 -39h-110q-47 0 -47 39v126q0 39 47 39zM720 435h110q47 0 47 -39v-127q0 -39 -47 -39h-110q-47 0 -47 39v127q0 39 47 39zM498 1984h111q47 0 47 -39v-126q0 -39 -47 -39h-111q-47 0 -47 39v126q0 39 47 39zM498 435h111q47 0 47 -39v-127q0 -39 -47 -39h-111
q-47 0 -47 39v127q0 39 47 39zM277 1763h110q47 0 47 -39v-127q0 -39 -47 -39h-110q-47 0 -47 39v127q0 39 47 39zM277 1542h110q47 0 47 -39v-127q0 -39 -47 -39h-110q-47 0 -47 39v127q0 39 47 39zM277 1320h110q47 0 47 -39v-127q0 -39 -47 -39h-110q-47 0 -47 39v127
q0 39 47 39zM277 1099h110q47 0 47 -39v-127q0 -39 -47 -39h-110q-47 0 -47 39v127q0 39 47 39zM277 877h110q47 0 47 -39v-126q0 -39 -47 -39h-110q-47 0 -47 39v126q0 39 47 39zM277 656h110q47 0 47 -39v-127q0 -39 -47 -39h-110q-47 0 -47 39v127q0 39 47 39z" />
    <glyph glyph-name="e" unicode="e" 
d="M1162 1984h111q47 0 47 -39v-126q0 -39 -47 -39h-111q-47 0 -47 39v126q0 39 47 39zM1162 435h111q47 0 47 -39v-127q0 -39 -47 -39h-111q-47 0 -47 39v127q0 39 47 39zM941 1984h110q47 0 47 -39v-126q0 -39 -47 -39h-110q-47 0 -47 39v126q0 39 47 39zM941 1099h110
q47 0 47 -39v-127q0 -39 -47 -39h-110q-47 0 -47 39v127q0 39 47 39zM941 435h110q47 0 47 -39v-127q0 -39 -47 -39h-110q-47 0 -47 39v127q0 39 47 39zM720 1984h110q47 0 47 -39v-126q0 -39 -47 -39h-110q-47 0 -47 39v126q0 39 47 39zM720 1099h110q47 0 47 -39v-127
q0 -39 -47 -39h-110q-47 0 -47 39v127q0 39 47 39zM720 435h110q47 0 47 -39v-127q0 -39 -47 -39h-110q-47 0 -47 39v127q0 39 47 39zM498 1984h111q47 0 47 -39v-126q0 -39 -47 -39h-111q-47 0 -47 39v126q0 39 47 39zM498 1099h111q47 0 47 -39v-127q0 -39 -47 -39h-111
q-47 0 -47 39v127q0 39 47 39zM498 435h111q47 0 47 -39v-127q0 -39 -47 -39h-111q-47 0 -47 39v127q0 39 47 39zM277 1984h110q47 0 47 -39v-126q0 -39 -47 -39h-110q-47 0 -47 39v126q0 39 47 39zM277 1763h110q47 0 47 -39v-127q0 -39 -47 -39h-110q-47 0 -47 39v127
q0 39 47 39zM277 1542h110q47 0 47 -39v-127q0 -39 -47 -39h-110q-47 0 -47 39v127q0 39 47 39zM277 1320h110q47 0 47 -39v-127q0 -39 -47 -39h-110q-47 0 -47 39v127q0 39 47 39zM277 1099h110q47 0 47 -39v-127q0 -39 -47 -39h-110q-47 0 -47 39v127q0 39 47 39zM277 877
h110q47 0 47 -39v-126q0 -39 -47 -39h-110q-47 0 -47 39v126q0 39 47 39zM277 656h110q47 0 47 -39v-127q0 -39 -47 -39h-110q-47 0 -47 39v127q0 39 47 39zM277 435h110q47 0 47 -39v-127q0 -39 -47 -39h-110q-47 0 -47 39v127q0 39 47 39z" />
    <glyph glyph-name="d" unicode="d" 
d="M1162 1763h111q47 0 47 -39v-127q0 -39 -47 -39h-111q-47 0 -47 39v127q0 39 47 39zM1162 1542h111q47 0 47 -39v-127q0 -39 -47 -39h-111q-47 0 -47 39v127q0 39 47 39zM1162 1320h111q47 0 47 -39v-127q0 -39 -47 -39h-111q-47 0 -47 39v127q0 39 47 39zM1162 1099h111
q47 0 47 -39v-127q0 -39 -47 -39h-111q-47 0 -47 39v127q0 39 47 39zM1162 877h111q47 0 47 -39v-126q0 -39 -47 -39h-111q-47 0 -47 39v126q0 39 47 39zM1162 656h111q47 0 47 -39v-127q0 -39 -47 -39h-111q-47 0 -47 39v127q0 39 47 39zM941 1984h110q47 0 47 -39v-126
q0 -39 -47 -39h-110q-47 0 -47 39v126q0 39 47 39zM941 435h110q47 0 47 -39v-127q0 -39 -47 -39h-110q-47 0 -47 39v127q0 39 47 39zM720 1984h110q47 0 47 -39v-126q0 -39 -47 -39h-110q-47 0 -47 39v126q0 39 47 39zM720 435h110q47 0 47 -39v-127q0 -39 -47 -39h-110
q-47 0 -47 39v127q0 39 47 39zM498 1984h111q47 0 47 -39v-126q0 -39 -47 -39h-111q-47 0 -47 39v126q0 39 47 39zM498 435h111q47 0 47 -39v-127q0 -39 -47 -39h-111q-47 0 -47 39v127q0 39 47 39zM277 1984h110q47 0 47 -39v-126q0 -39 -47 -39h-110q-47 0 -47 39v126
q0 39 47 39zM277 1763h110q47 0 47 -39v-127q0 -39 -47 -39h-110q-47 0 -47 39v127q0 39 47 39zM277 1542h110q47 0 47 -39v-127q0 -39 -47 -39h-110q-47 0 -47 39v127q0 39 47 39zM277 1320h110q47 0 47 -39v-127q0 -39 -47 -39h-110q-47 0 -47 39v127q0 39 47 39z
M277 1099h110q47 0 47 -39v-127q0 -39 -47 -39h-110q-47 0 -47 39v127q0 39 47 39zM277 877h110q47 0 47 -39v-126q0 -39 -47 -39h-110q-47 0 -47 39v126q0 39 47 39zM277 656h110q47 0 47 -39v-127q0 -39 -47 -39h-110q-47 0 -47 39v127q0 39 47 39zM277 435h110
q47 0 47 -39v-127q0 -39 -47 -39h-110q-47 0 -47 39v127q0 39 47 39z" />
    <glyph glyph-name="f" unicode="f" 
d="M277 435h110q47 0 47 -39v-127q0 -39 -47 -39h-110q-47 0 -47 39v127q0 39 47 39zM277 656h110q47 0 47 -39v-127q0 -39 -47 -39h-110q-47 0 -47 39v127q0 39 47 39zM277 877h110q47 0 47 -39v-126q0 -39 -47 -39h-110q-47 0 -47 39v126q0 39 47 39zM277 1099h110
q47 0 47 -39v-127q0 -39 -47 -39h-110q-47 0 -47 39v127q0 39 47 39zM277 1320h110q47 0 47 -39v-127q0 -39 -47 -39h-110q-47 0 -47 39v127q0 39 47 39zM277 1542h110q47 0 47 -39v-127q0 -39 -47 -39h-110q-47 0 -47 39v127q0 39 47 39zM277 1763h110q47 0 47 -39v-127
q0 -39 -47 -39h-110q-47 0 -47 39v127q0 39 47 39zM277 1984h110q47 0 47 -39v-126q0 -39 -47 -39h-110q-47 0 -47 39v126q0 39 47 39zM498 1099h111q47 0 47 -39v-127q0 -39 -47 -39h-111q-47 0 -47 39v127q0 39 47 39zM498 1984h111q47 0 47 -39v-126q0 -39 -47 -39h-111
q-47 0 -47 39v126q0 39 47 39zM720 1099h110q47 0 47 -39v-127q0 -39 -47 -39h-110q-47 0 -47 39v127q0 39 47 39zM720 1984h110q47 0 47 -39v-126q0 -39 -47 -39h-110q-47 0 -47 39v126q0 39 47 39zM941 1099h110q47 0 47 -39v-127q0 -39 -47 -39h-110q-47 0 -47 39v127
q0 39 47 39zM941 1984h110q47 0 47 -39v-126q0 -39 -47 -39h-110q-47 0 -47 39v126q0 39 47 39zM1162 1984h111q47 0 47 -39v-126q0 -39 -47 -39h-111q-47 0 -47 39v126q0 39 47 39z" />
    <glyph glyph-name="g" unicode="g" 
d="M1162 1763h111q47 0 47 -39v-127q0 -39 -47 -39h-111q-47 0 -47 39v127q0 39 47 39zM1162 877h111q47 0 47 -39v-126q0 -39 -47 -39h-111q-47 0 -47 39v126q0 39 47 39zM1162 1099h111q47 0 47 -39v-127q0 -39 -47 -39h-111q-47 0 -47 39v127q0 39 47 39zM1162 656h111
q47 0 47 -39v-127q0 -39 -47 -39h-111q-47 0 -47 39v127q0 39 47 39zM941 1984h110q47 0 47 -39v-126q0 -39 -47 -39h-110q-47 0 -47 39v126q0 39 47 39zM941 1099h110q47 0 47 -39v-127q0 -39 -47 -39h-110q-47 0 -47 39v127q0 39 47 39zM941 435h110q47 0 47 -39v-127
q0 -39 -47 -39h-110q-47 0 -47 39v127q0 39 47 39zM720 1984h110q47 0 47 -39v-126q0 -39 -47 -39h-110q-47 0 -47 39v126q0 39 47 39zM720 1099h110q47 0 47 -39v-127q0 -39 -47 -39h-110q-47 0 -47 39v127q0 39 47 39zM720 435h110q47 0 47 -39v-127q0 -39 -47 -39h-110
q-47 0 -47 39v127q0 39 47 39zM498 1984h111q47 0 47 -39v-126q0 -39 -47 -39h-111q-47 0 -47 39v126q0 39 47 39zM498 435h111q47 0 47 -39v-127q0 -39 -47 -39h-111q-47 0 -47 39v127q0 39 47 39zM277 1763h110q47 0 47 -39v-127q0 -39 -47 -39h-110q-47 0 -47 39v127
q0 39 47 39zM277 1542h110q47 0 47 -39v-127q0 -39 -47 -39h-110q-47 0 -47 39v127q0 39 47 39zM277 1320h110q47 0 47 -39v-127q0 -39 -47 -39h-110q-47 0 -47 39v127q0 39 47 39zM277 1099h110q47 0 47 -39v-127q0 -39 -47 -39h-110q-47 0 -47 39v127q0 39 47 39zM277 877
h110q47 0 47 -39v-126q0 -39 -47 -39h-110q-47 0 -47 39v126q0 39 47 39zM277 656h110q47 0 47 -39v-127q0 -39 -47 -39h-110q-47 0 -47 39v127q0 39 47 39z" />
    <glyph glyph-name="h" unicode="h" 
d="M1162 1984h111q47 0 47 -39v-126q0 -39 -47 -39h-111q-47 0 -47 39v126q0 39 47 39zM1162 1763h111q47 0 47 -39v-127q0 -39 -47 -39h-111q-47 0 -47 39v127q0 39 47 39zM1162 1542h111q47 0 47 -39v-127q0 -39 -47 -39h-111q-47 0 -47 39v127q0 39 47 39zM1162 1320h111
q47 0 47 -39v-127q0 -39 -47 -39h-111q-47 0 -47 39v127q0 39 47 39zM1162 1099h111q47 0 47 -39v-127q0 -39 -47 -39h-111q-47 0 -47 39v127q0 39 47 39zM1162 877h111q47 0 47 -39v-126q0 -39 -47 -39h-111q-47 0 -47 39v126q0 39 47 39zM1162 656h111q47 0 47 -39v-127
q0 -39 -47 -39h-111q-47 0 -47 39v127q0 39 47 39zM1162 435h111q47 0 47 -39v-127q0 -39 -47 -39h-111q-47 0 -47 39v127q0 39 47 39zM941 1099h110q47 0 47 -39v-127q0 -39 -47 -39h-110q-47 0 -47 39v127q0 39 47 39zM720 1099h110q47 0 47 -39v-127q0 -39 -47 -39h-110
q-47 0 -47 39v127q0 39 47 39zM498 1099h111q47 0 47 -39v-127q0 -39 -47 -39h-111q-47 0 -47 39v127q0 39 47 39zM277 1984h110q47 0 47 -39v-126q0 -39 -47 -39h-110q-47 0 -47 39v126q0 39 47 39zM277 1763h110q47 0 47 -39v-127q0 -39 -47 -39h-110q-47 0 -47 39v127
q0 39 47 39zM277 1542h110q47 0 47 -39v-127q0 -39 -47 -39h-110q-47 0 -47 39v127q0 39 47 39zM277 1320h110q47 0 47 -39v-127q0 -39 -47 -39h-110q-47 0 -47 39v127q0 39 47 39zM277 1099h110q47 0 47 -39v-127q0 -39 -47 -39h-110q-47 0 -47 39v127q0 39 47 39zM277 877
h110q47 0 47 -39v-126q0 -39 -47 -39h-110q-47 0 -47 39v126q0 39 47 39zM277 656h110q47 0 47 -39v-127q0 -39 -47 -39h-110q-47 0 -47 39v127q0 39 47 39zM277 435h110q47 0 47 -39v-127q0 -39 -47 -39h-110q-47 0 -47 39v127q0 39 47 39z" />
    <glyph glyph-name="i" unicode="i" 
d="M1162 1984h111q47 0 47 -39v-126q0 -39 -47 -39h-111q-47 0 -47 39v126q0 39 47 39zM1162 435h111q47 0 47 -39v-127q0 -39 -47 -39h-111q-47 0 -47 39v127q0 39 47 39zM941 1984h110q47 0 47 -39v-126q0 -39 -47 -39h-110q-47 0 -47 39v126q0 39 47 39zM941 435h110
q47 0 47 -39v-127q0 -39 -47 -39h-110q-47 0 -47 39v127q0 39 47 39zM720 1984h110q47 0 47 -39v-126q0 -39 -47 -39h-110q-47 0 -47 39v126q0 39 47 39zM720 1763h110q47 0 47 -39v-127q0 -39 -47 -39h-110q-47 0 -47 39v127q0 39 47 39zM720 1542h110q47 0 47 -39v-127
q0 -39 -47 -39h-110q-47 0 -47 39v127q0 39 47 39zM720 1320h110q47 0 47 -39v-127q0 -39 -47 -39h-110q-47 0 -47 39v127q0 39 47 39zM720 1099h110q47 0 47 -39v-127q0 -39 -47 -39h-110q-47 0 -47 39v127q0 39 47 39zM720 877h110q47 0 47 -39v-126q0 -39 -47 -39h-110
q-47 0 -47 39v126q0 39 47 39zM720 656h110q47 0 47 -39v-127q0 -39 -47 -39h-110q-47 0 -47 39v127q0 39 47 39zM720 435h110q47 0 47 -39v-127q0 -39 -47 -39h-110q-47 0 -47 39v127q0 39 47 39zM498 1984h111q47 0 47 -39v-126q0 -39 -47 -39h-111q-47 0 -47 39v126
q0 39 47 39zM498 435h111q47 0 47 -39v-127q0 -39 -47 -39h-111q-47 0 -47 39v127q0 39 47 39zM277 1984h110q47 0 47 -39v-126q0 -39 -47 -39h-110q-47 0 -47 39v126q0 39 47 39zM277 435h110q47 0 47 -39v-127q0 -39 -47 -39h-110q-47 0 -47 39v127q0 39 47 39z" />
    <glyph glyph-name="j" unicode="j" 
d="M1162 1984h111q47 0 47 -39v-126q0 -39 -47 -39h-111q-47 0 -47 39v126q0 39 47 39zM1162 1763h111q47 0 47 -39v-127q0 -39 -47 -39h-111q-47 0 -47 39v127q0 39 47 39zM1162 1542h111q47 0 47 -39v-127q0 -39 -47 -39h-111q-47 0 -47 39v127q0 39 47 39zM1162 1320h111
q47 0 47 -39v-127q0 -39 -47 -39h-111q-47 0 -47 39v127q0 39 47 39zM1162 1099h111q47 0 47 -39v-127q0 -39 -47 -39h-111q-47 0 -47 39v127q0 39 47 39zM1162 877h111q47 0 47 -39v-126q0 -39 -47 -39h-111q-47 0 -47 39v126q0 39 47 39zM1162 656h111q47 0 47 -39v-127
q0 -39 -47 -39h-111q-47 0 -47 39v127q0 39 47 39zM941 1984h110q47 0 47 -39v-126q0 -39 -47 -39h-110q-47 0 -47 39v126q0 39 47 39zM941 435h110q47 0 47 -39v-127q0 -39 -47 -39h-110q-47 0 -47 39v127q0 39 47 39zM720 1984h110q47 0 47 -39v-126q0 -39 -47 -39h-110
q-47 0 -47 39v126q0 39 47 39zM720 435h110q47 0 47 -39v-127q0 -39 -47 -39h-110q-47 0 -47 39v127q0 39 47 39zM498 1984h111q47 0 47 -39v-126q0 -39 -47 -39h-111q-47 0 -47 39v126q0 39 47 39zM498 435h111q47 0 47 -39v-127q0 -39 -47 -39h-111q-47 0 -47 39v127
q0 39 47 39zM277 1984h110q47 0 47 -39v-126q0 -39 -47 -39h-110q-47 0 -47 39v126q0 39 47 39zM277 877h110q47 0 47 -39v-126q0 -39 -47 -39h-110q-47 0 -47 39v126q0 39 47 39zM277 656h110q47 0 47 -39v-127q0 -39 -47 -39h-110q-47 0 -47 39v127q0 39 47 39z" />
    <glyph glyph-name="k" unicode="k" 
d="M1162 1984h111q47 0 47 -39v-126q0 -39 -47 -39h-111q-47 0 -47 39v126q0 39 47 39zM1162 435h111q47 0 47 -39v-127q0 -39 -47 -39h-111q-47 0 -47 39v127q0 39 47 39zM1162 656h111q47 0 47 -39v-127q0 -39 -47 -39h-111q-47 0 -47 39v127q0 39 47 39zM1162 877h111
q47 0 47 -39v-126q0 -39 -47 -39h-111q-47 0 -47 39v126q0 39 47 39zM941 1763h110q47 0 47 -39v-127q0 -39 -47 -39h-110q-47 0 -47 39v127q0 39 47 39zM941 1099h110q47 0 47 -39v-127q0 -39 -47 -39h-110q-47 0 -47 39v127q0 39 47 39zM720 1542h110q47 0 47 -39v-127
q0 -39 -47 -39h-110q-47 0 -47 39v127q0 39 47 39zM720 1099h110q47 0 47 -39v-127q0 -39 -47 -39h-110q-47 0 -47 39v127q0 39 47 39zM498 1320h111q47 0 47 -39v-127q0 -39 -47 -39h-111q-47 0 -47 39v127q0 39 47 39zM498 1099h111q47 0 47 -39v-127q0 -39 -47 -39h-111
q-47 0 -47 39v127q0 39 47 39zM277 1984h110q47 0 47 -39v-126q0 -39 -47 -39h-110q-47 0 -47 39v126q0 39 47 39zM277 1763h110q47 0 47 -39v-127q0 -39 -47 -39h-110q-47 0 -47 39v127q0 39 47 39zM277 1542h110q47 0 47 -39v-127q0 -39 -47 -39h-110q-47 0 -47 39v127
q0 39 47 39zM277 1320h110q47 0 47 -39v-127q0 -39 -47 -39h-110q-47 0 -47 39v127q0 39 47 39zM277 1099h110q47 0 47 -39v-127q0 -39 -47 -39h-110q-47 0 -47 39v127q0 39 47 39zM277 877h110q47 0 47 -39v-126q0 -39 -47 -39h-110q-47 0 -47 39v126q0 39 47 39zM277 656
h110q47 0 47 -39v-127q0 -39 -47 -39h-110q-47 0 -47 39v127q0 39 47 39zM277 435h110q47 0 47 -39v-127q0 -39 -47 -39h-110q-47 0 -47 39v127q0 39 47 39z" />
    <glyph glyph-name="l" unicode="l" 
d="M1162 435h111q47 0 47 -39v-127q0 -39 -47 -39h-111q-47 0 -47 39v127q0 39 47 39zM941 435h111q47 0 47 -39v-127q0 -39 -47 -39h-111q-47 0 -47 39v127q0 39 47 39zM720 435h110q47 0 47 -39v-127q0 -39 -47 -39h-110q-47 0 -47 39v127q0 39 47 39zM498 435h111
q47 0 47 -39v-127q0 -39 -47 -39h-111q-47 0 -47 39v127q0 39 47 39zM277 1985h110q47 0 47 -39v-127q0 -39 -47 -39h-110q-47 0 -47 39v127q0 39 47 39zM277 1763h110q47 0 47 -39v-127q0 -39 -47 -39h-110q-47 0 -47 39v127q0 39 47 39zM277 1542h110q47 0 47 -39v-127
q0 -39 -47 -39h-110q-47 0 -47 39v127q0 39 47 39zM277 1320h110q47 0 47 -39v-126q0 -40 -47 -40h-110q-47 0 -47 40v126q0 39 47 39zM277 1099h110q47 0 47 -39v-127q0 -39 -47 -39h-110q-47 0 -47 39v127q0 39 47 39zM277 878h110q47 0 47 -40v-126q0 -39 -47 -39h-110
q-47 0 -47 39v126q0 40 47 40zM277 656h110q47 0 47 -39v-127q0 -39 -47 -39h-110q-47 0 -47 39v127q0 39 47 39zM277 435h110q47 0 47 -39v-127q0 -39 -47 -39h-110q-47 0 -47 39v127q0 39 47 39z" />
    <glyph glyph-name="m" unicode="m" 
d="M1384 1985h110q48 0 48 -39v-127q0 -39 -48 -39h-110q-47 0 -47 39v127q0 39 47 39zM1384 1763h110q48 0 48 -39v-127q0 -39 -48 -39h-110q-47 0 -47 39v127q0 39 47 39zM1384 1542h110q48 0 48 -39v-127q0 -39 -48 -39h-110q-47 0 -47 39v127q0 39 47 39zM1384 1320h110
q48 0 48 -39v-126q0 -40 -48 -40h-110q-47 0 -47 40v126q0 39 47 39zM1384 1099h110q48 0 48 -39v-127q0 -39 -48 -39h-110q-47 0 -47 39v127q0 39 47 39zM1384 878h110q48 0 48 -40v-126q0 -39 -48 -39h-110q-47 0 -47 39v126q0 40 47 40zM1384 656h110q48 0 48 -39v-127
q0 -39 -48 -39h-110q-47 0 -47 39v127q0 39 47 39zM1384 435h110q48 0 48 -39v-127q0 -39 -48 -39h-110q-47 0 -47 39v127q0 39 47 39zM1162 1763h111q47 0 47 -39v-127q0 -39 -47 -39h-111q-47 0 -47 39v127q0 39 47 39zM941 1542h111q47 0 47 -39v-127q0 -39 -47 -39h-111
q-47 0 -47 39v127q0 39 47 39zM720 1542h110q47 0 47 -39v-127q0 -39 -47 -39h-110q-47 0 -47 39v127q0 39 47 39zM498 1763h111q47 0 47 -39v-127q0 -39 -47 -39h-111q-47 0 -47 39v127q0 39 47 39zM277 1985h110q47 0 47 -39v-127q0 -39 -47 -39h-110q-47 0 -47 39v127
q0 39 47 39zM277 1763h110q47 0 47 -39v-127q0 -39 -47 -39h-110q-47 0 -47 39v127q0 39 47 39zM277 1542h110q47 0 47 -39v-127q0 -39 -47 -39h-110q-47 0 -47 39v127q0 39 47 39zM277 1320h110q47 0 47 -39v-126q0 -40 -47 -40h-110q-47 0 -47 40v126q0 39 47 39z
M277 1099h110q47 0 47 -39v-127q0 -39 -47 -39h-110q-47 0 -47 39v127q0 39 47 39zM277 878h110q47 0 47 -40v-126q0 -39 -47 -39h-110q-47 0 -47 39v126q0 40 47 40zM277 656h110q47 0 47 -39v-127q0 -39 -47 -39h-110q-47 0 -47 39v127q0 39 47 39zM277 435h110
q47 0 47 -39v-127q0 -39 -47 -39h-110q-47 0 -47 39v127q0 39 47 39z" />
    <glyph glyph-name="n" unicode="n" 
d="M1162 1984h111q47 0 47 -39v-126q0 -39 -47 -39h-111q-47 0 -47 39v126q0 39 47 39zM1162 1763h111q47 0 47 -39v-127q0 -39 -47 -39h-111q-47 0 -47 39v127q0 39 47 39zM1162 1542h111q47 0 47 -39v-127q0 -39 -47 -39h-111q-47 0 -47 39v127q0 39 47 39zM1162 1320h111
q47 0 47 -39v-127q0 -39 -47 -39h-111q-47 0 -47 39v127q0 39 47 39zM1162 1099h111q47 0 47 -39v-127q0 -39 -47 -39h-111q-47 0 -47 39v127q0 39 47 39zM1162 877h111q47 0 47 -39v-126q0 -39 -47 -39h-111q-47 0 -47 39v126q0 39 47 39zM1162 656h111q47 0 47 -39v-127
q0 -39 -47 -39h-111q-47 0 -47 39v127q0 39 47 39zM1162 435h111q47 0 47 -39v-127q0 -39 -47 -39h-111q-47 0 -47 39v127q0 39 47 39zM941 877h110q47 0 47 -39v-126q0 -39 -47 -39h-110q-47 0 -47 39v126q0 39 47 39zM720 1099h110q47 0 47 -39v-127q0 -39 -47 -39h-110
q-47 0 -47 39v127q0 39 47 39zM498 1320h111q47 0 47 -39v-127q0 -39 -47 -39h-111q-47 0 -47 39v127q0 39 47 39zM277 1984h110q47 0 47 -39v-126q0 -39 -47 -39h-110q-47 0 -47 39v126q0 39 47 39zM277 1763h110q47 0 47 -39v-127q0 -39 -47 -39h-110q-47 0 -47 39v127
q0 39 47 39zM277 1542h110q47 0 47 -39v-127q0 -39 -47 -39h-110q-47 0 -47 39v127q0 39 47 39zM277 1320h110q47 0 47 -39v-127q0 -39 -47 -39h-110q-47 0 -47 39v127q0 39 47 39zM277 1099h110q47 0 47 -39v-127q0 -39 -47 -39h-110q-47 0 -47 39v127q0 39 47 39zM277 877
h110q47 0 47 -39v-126q0 -39 -47 -39h-110q-47 0 -47 39v126q0 39 47 39zM277 656h110q47 0 47 -39v-127q0 -39 -47 -39h-110q-47 0 -47 39v127q0 39 47 39zM277 435h110q47 0 47 -39v-127q0 -39 -47 -39h-110q-47 0 -47 39v127q0 39 47 39z" />
    <glyph glyph-name="o" unicode="o" 
d="M1162 1763h111q47 0 47 -39v-127q0 -39 -47 -39h-111q-47 0 -47 39v127q0 39 47 39zM1162 1542h111q47 0 47 -39v-127q0 -39 -47 -39h-111q-47 0 -47 39v127q0 39 47 39zM1162 1320h111q47 0 47 -39v-127q0 -39 -47 -39h-111q-47 0 -47 39v127q0 39 47 39zM1162 1099h111
q47 0 47 -39v-127q0 -39 -47 -39h-111q-47 0 -47 39v127q0 39 47 39zM1162 877h111q47 0 47 -39v-126q0 -39 -47 -39h-111q-47 0 -47 39v126q0 39 47 39zM1162 656h111q47 0 47 -39v-127q0 -39 -47 -39h-111q-47 0 -47 39v127q0 39 47 39zM941 1984h110q47 0 47 -39v-126
q0 -39 -47 -39h-110q-47 0 -47 39v126q0 39 47 39zM941 435h110q47 0 47 -39v-127q0 -39 -47 -39h-110q-47 0 -47 39v127q0 39 47 39zM720 1984h110q47 0 47 -39v-126q0 -39 -47 -39h-110q-47 0 -47 39v126q0 39 47 39zM720 435h110q47 0 47 -39v-127q0 -39 -47 -39h-110
q-47 0 -47 39v127q0 39 47 39zM498 1984h111q47 0 47 -39v-126q0 -39 -47 -39h-111q-47 0 -47 39v126q0 39 47 39zM498 435h111q47 0 47 -39v-127q0 -39 -47 -39h-111q-47 0 -47 39v127q0 39 47 39zM277 1763h110q47 0 47 -39v-127q0 -39 -47 -39h-110q-47 0 -47 39v127
q0 39 47 39zM277 1542h110q47 0 47 -39v-127q0 -39 -47 -39h-110q-47 0 -47 39v127q0 39 47 39zM277 1320h110q47 0 47 -39v-127q0 -39 -47 -39h-110q-47 0 -47 39v127q0 39 47 39zM277 1099h110q47 0 47 -39v-127q0 -39 -47 -39h-110q-47 0 -47 39v127q0 39 47 39zM277 877
h110q47 0 47 -39v-126q0 -39 -47 -39h-110q-47 0 -47 39v126q0 39 47 39zM277 656h110q47 0 47 -39v-127q0 -39 -47 -39h-110q-47 0 -47 39v127q0 39 47 39z" />
    <glyph glyph-name="p" unicode="p" 
d="M277 435h110q47 0 47 -39v-127q0 -39 -47 -39h-110q-47 0 -47 39v127q0 39 47 39zM277 656h110q47 0 47 -39v-127q0 -39 -47 -39h-110q-47 0 -47 39v127q0 39 47 39zM277 877h110q47 0 47 -39v-126q0 -39 -47 -39h-110q-47 0 -47 39v126q0 39 47 39zM277 1099h110
q47 0 47 -39v-127q0 -39 -47 -39h-110q-47 0 -47 39v127q0 39 47 39zM277 1320h110q47 0 47 -39v-127q0 -39 -47 -39h-110q-47 0 -47 39v127q0 39 47 39zM277 1542h110q47 0 47 -39v-127q0 -39 -47 -39h-110q-47 0 -47 39v127q0 39 47 39zM277 1763h110q47 0 47 -39v-127
q0 -39 -47 -39h-110q-47 0 -47 39v127q0 39 47 39zM277 1984h110q47 0 47 -39v-126q0 -39 -47 -39h-110q-47 0 -47 39v126q0 39 47 39zM498 1099h111q47 0 47 -39v-127q0 -39 -47 -39h-111q-47 0 -47 39v127q0 39 47 39zM498 1984h111q47 0 47 -39v-126q0 -39 -47 -39h-111
q-47 0 -47 39v126q0 39 47 39zM720 1099h110q47 0 47 -39v-127q0 -39 -47 -39h-110q-47 0 -47 39v127q0 39 47 39zM720 1984h110q47 0 47 -39v-126q0 -39 -47 -39h-110q-47 0 -47 39v126q0 39 47 39zM941 1099h110q47 0 47 -39v-127q0 -39 -47 -39h-110q-47 0 -47 39v127
q0 39 47 39zM941 1984h110q47 0 47 -39v-126q0 -39 -47 -39h-110q-47 0 -47 39v126q0 39 47 39zM1162 1320h111q47 0 47 -39v-127q0 -39 -47 -39h-111q-47 0 -47 39v127q0 39 47 39zM1162 1542h111q47 0 47 -39v-127q0 -39 -47 -39h-111q-47 0 -47 39v127q0 39 47 39z
M1162 1763h111q47 0 47 -39v-127q0 -39 -47 -39h-111q-47 0 -47 39v127q0 39 47 39z" />
    <glyph glyph-name="q" unicode="q" 
d="M1162 1763h111q47 0 47 -39v-127q0 -39 -47 -39h-111q-47 0 -47 39v127q0 39 47 39zM1162 1542h111q47 0 47 -39v-127q0 -39 -47 -39h-111q-47 0 -47 39v127q0 39 47 39zM1162 1320q-47 0 -47 -39v-127q0 -39 47 -39h111q47 0 47 39v127q0 39 -47 39h-111zM1162 1099
q-47 0 -47 -39v-127q0 -39 47 -39h111q47 0 47 39v127q0 39 -47 39h-111zM1162 877q-47 0 -47 -39v-126q0 -39 47 -39h111q47 0 47 39v126q0 39 -47 39h-111zM1162 656h111q47 0 47 -39v-127q0 -39 -47 -39h-111q-47 0 -47 39v127q0 39 47 39zM1162 213q-47 0 -47 -39v-127
q0 -39 47 -39h111q47 0 47 39v127q0 39 -47 39h-111zM941 1984h110q47 0 47 -39v-126q0 -39 -47 -39h-110q-47 0 -47 39v126q0 39 47 39zM941 435q-47 0 -47 -39v-127q0 -39 47 -39h110q47 0 47 39v127q0 39 -47 39h-110zM720 1984h110q47 0 47 -39v-126q0 -39 -47 -39h-110
q-47 0 -47 39v126q0 39 47 39zM720 656h110q47 0 47 -39v-127q0 -39 -47 -39h-110q-47 0 -47 39v127q0 39 47 39zM720 435h110q47 0 47 -39v-127q0 -39 -47 -39h-110q-47 0 -47 39v127q0 39 47 39zM498 1984h111q47 0 47 -39v-126q0 -39 -47 -39h-111q-47 0 -47 39v126
q0 39 47 39zM498 435h111q47 0 47 -39v-127q0 -39 -47 -39h-111q-47 0 -47 39v127q0 39 47 39zM277 1763h110q47 0 47 -39v-127q0 -39 -47 -39h-110q-47 0 -47 39v127q0 39 47 39zM277 1542h110q47 0 47 -39v-127q0 -39 -47 -39h-110q-47 0 -47 39v127q0 39 47 39zM277 1320
q-47 0 -47 -39v-127q0 -39 47 -39h110q47 0 47 39v127q0 39 -47 39h-110zM277 1099q-47 0 -47 -39v-127q0 -39 47 -39h110q47 0 47 39v127q0 39 -47 39h-110zM277 877q-47 0 -47 -39v-126q0 -39 47 -39h110q47 0 47 39v126q0 39 -47 39h-110zM277 656q-47 0 -47 -39v-127
q0 -39 47 -39h110q47 0 47 39v127q0 39 -47 39h-110z" />
    <glyph glyph-name="r" unicode="r" 
d="M1162 1763h111q47 0 47 -39v-127q0 -39 -47 -39h-111q-47 0 -47 39v127q0 39 47 39zM1162 1542h111q47 0 47 -39v-127q0 -39 -47 -39h-111q-47 0 -47 39v127q0 39 47 39zM1162 1320h111q47 0 47 -39v-127q0 -39 -47 -39h-111q-47 0 -47 39v127q0 39 47 39zM1162 877h111
q47 0 47 -39v-126q0 -39 -47 -39h-111q-47 0 -47 39v126q0 39 47 39zM1162 656h111q47 0 47 -39v-127q0 -39 -47 -39h-111q-47 0 -47 39v127q0 39 47 39zM1162 435h111q47 0 47 -39v-127q0 -39 -47 -39h-111q-47 0 -47 39v127q0 39 47 39zM941 1984h110q47 0 47 -39v-126
q0 -39 -47 -39h-110q-47 0 -47 39v126q0 39 47 39zM941 1099h110q47 0 47 -39v-127q0 -39 -47 -39h-110q-47 0 -47 39v127q0 39 47 39zM720 1984h110q47 0 47 -39v-126q0 -39 -47 -39h-110q-47 0 -47 39v126q0 39 47 39zM720 1099h110q47 0 47 -39v-127q0 -39 -47 -39h-110
q-47 0 -47 39v127q0 39 47 39zM498 1984h111q47 0 47 -39v-126q0 -39 -47 -39h-111q-47 0 -47 39v126q0 39 47 39zM498 1099h111q47 0 47 -39v-127q0 -39 -47 -39h-111q-47 0 -47 39v127q0 39 47 39zM277 1984h110q47 0 47 -39v-126q0 -39 -47 -39h-110q-47 0 -47 39v126
q0 39 47 39zM277 1763h110q47 0 47 -39v-127q0 -39 -47 -39h-110q-47 0 -47 39v127q0 39 47 39zM277 1542h110q47 0 47 -39v-127q0 -39 -47 -39h-110q-47 0 -47 39v127q0 39 47 39zM277 1320h110q47 0 47 -39v-127q0 -39 -47 -39h-110q-47 0 -47 39v127q0 39 47 39z
M277 1099h110q47 0 47 -39v-127q0 -39 -47 -39h-110q-47 0 -47 39v127q0 39 47 39zM277 877h110q47 0 47 -39v-126q0 -39 -47 -39h-110q-47 0 -47 39v126q0 39 47 39zM277 656h110q47 0 47 -39v-127q0 -39 -47 -39h-110q-47 0 -47 39v127q0 39 47 39zM277 435h110
q47 0 47 -39v-127q0 -39 -47 -39h-110q-47 0 -47 39v127q0 39 47 39z" />
    <glyph glyph-name="s" unicode="s" 
d="M1162 1763h111q47 0 47 -39v-127q0 -39 -47 -39h-111q-47 0 -47 39v127q0 39 47 39zM1162 1099h111q47 0 47 -39v-127q0 -39 -47 -39h-111q-47 0 -47 39v127q0 39 47 39zM1162 877h111q47 0 47 -39v-126q0 -39 -47 -39h-111q-47 0 -47 39v126q0 39 47 39zM1162 656h111
q47 0 47 -39v-127q0 -39 -47 -39h-111q-47 0 -47 39v127q0 39 47 39zM941 1984h110q47 0 47 -39v-126q0 -39 -47 -39h-110q-47 0 -47 39v126q0 39 47 39zM941 1320h110q47 0 47 -39v-127q0 -39 -47 -39h-110q-47 0 -47 39v127q0 39 47 39zM941 435h110q47 0 47 -39v-127
q0 -39 -47 -39h-110q-47 0 -47 39v127q0 39 47 39zM720 1984h110q47 0 47 -39v-126q0 -39 -47 -39h-110q-47 0 -47 39v126q0 39 47 39zM720 1320h110q47 0 47 -39v-127q0 -39 -47 -39h-110q-47 0 -47 39v127q0 39 47 39zM720 435h110q47 0 47 -39v-127q0 -39 -47 -39h-110
q-47 0 -47 39v127q0 39 47 39zM498 1984h111q47 0 47 -39v-126q0 -39 -47 -39h-111q-47 0 -47 39v126q0 39 47 39zM498 1320h111q47 0 47 -39v-127q0 -39 -47 -39h-111q-47 0 -47 39v127q0 39 47 39zM498 435h111q47 0 47 -39v-127q0 -39 -47 -39h-111q-47 0 -47 39v127
q0 39 47 39zM277 1763h110q47 0 47 -39v-127q0 -39 -47 -39h-110q-47 0 -47 39v127q0 39 47 39zM277 1542h110q47 0 47 -39v-127q0 -39 -47 -39h-110q-47 0 -47 39v127q0 39 47 39zM277 656h110q47 0 47 -39v-127q0 -39 -47 -39h-110q-47 0 -47 39v127q0 39 47 39zM277 877
h110q47 0 47 -39v-126q0 -39 -47 -39h-110q-47 0 -47 39v126q0 39 47 39z" />
    <glyph glyph-name="t" unicode="t" 
d="M277 1984h110q47 0 47 -39v-126q0 -39 -47 -39h-110q-47 0 -47 39v126q0 39 47 39zM498 1984h111q47 0 47 -39v-126q0 -39 -47 -39h-111q-47 0 -47 39v126q0 39 47 39zM720 435h110q47 0 47 -39v-127q0 -39 -47 -39h-110q-47 0 -47 39v127q0 39 47 39zM720 656h110
q47 0 47 -39v-127q0 -39 -47 -39h-110q-47 0 -47 39v127q0 39 47 39zM720 877h110q47 0 47 -39v-126q0 -39 -47 -39h-110q-47 0 -47 39v126q0 39 47 39zM720 1099h110q47 0 47 -39v-127q0 -39 -47 -39h-110q-47 0 -47 39v127q0 39 47 39zM720 1320h110q47 0 47 -39v-127
q0 -39 -47 -39h-110q-47 0 -47 39v127q0 39 47 39zM720 1542h110q47 0 47 -39v-127q0 -39 -47 -39h-110q-47 0 -47 39v127q0 39 47 39zM720 1763h110q47 0 47 -39v-127q0 -39 -47 -39h-110q-47 0 -47 39v127q0 39 47 39zM720 1984h110q47 0 47 -39v-126q0 -39 -47 -39h-110
q-47 0 -47 39v126q0 39 47 39zM941 1984h110q47 0 47 -39v-126q0 -39 -47 -39h-110q-47 0 -47 39v126q0 39 47 39zM1162 1984h111q47 0 47 -39v-126q0 -39 -47 -39h-111q-47 0 -47 39v126q0 39 47 39z" />
    <glyph glyph-name="u" unicode="u" 
d="M277 877h110q47 0 47 -39v-126q0 -39 -47 -39h-110q-47 0 -47 39v126q0 39 47 39zM277 1099h110q47 0 47 -39v-127q0 -39 -47 -39h-110q-47 0 -47 39v127q0 39 47 39zM277 1320h110q47 0 47 -39v-127q0 -39 -47 -39h-110q-47 0 -47 39v127q0 39 47 39zM277 1542h110
q47 0 47 -39v-127q0 -39 -47 -39h-110q-47 0 -47 39v127q0 39 47 39zM277 1763h110q47 0 47 -39v-127q0 -39 -47 -39h-110q-47 0 -47 39v127q0 39 47 39zM277 1984h110q47 0 47 -39v-126q0 -39 -47 -39h-110q-47 0 -47 39v126q0 39 47 39zM277 656h110q47 0 47 -39v-127
q0 -39 -47 -39h-110q-47 0 -47 39v127q0 39 47 39zM498 435h111q47 0 47 -39v-127q0 -39 -47 -39h-111q-47 0 -47 39v127q0 39 47 39zM720 435h110q47 0 47 -39v-127q0 -39 -47 -39h-110q-47 0 -47 39v127q0 39 47 39zM941 435h110q47 0 47 -39v-127q0 -39 -47 -39h-110
q-47 0 -47 39v127q0 39 47 39zM1162 656h111q47 0 47 -39v-127q0 -39 -47 -39h-111q-47 0 -47 39v127q0 39 47 39zM1162 877h111q47 0 47 -39v-126q0 -39 -47 -39h-111q-47 0 -47 39v126q0 39 47 39zM1162 1099h111q47 0 47 -39v-127q0 -39 -47 -39h-111q-47 0 -47 39v127
q0 39 47 39zM1162 1320h111q47 0 47 -39v-127q0 -39 -47 -39h-111q-47 0 -47 39v127q0 39 47 39zM1162 1542h111q47 0 47 -39v-127q0 -39 -47 -39h-111q-47 0 -47 39v127q0 39 47 39zM1162 1763h111q47 0 47 -39v-127q0 -39 -47 -39h-111q-47 0 -47 39v127q0 39 47 39z
M1162 1984h111q47 0 47 -39v-126q0 -39 -47 -39h-111q-47 0 -47 39v126q0 39 47 39z" />
    <glyph glyph-name="v" unicode="v" 
d="M277 877h110q47 0 47 -39v-126q0 -39 -47 -39h-110q-47 0 -47 39v126q0 39 47 39zM277 1099h110q47 0 47 -39v-127q0 -39 -47 -39h-110q-47 0 -47 39v127q0 39 47 39zM277 1320h110q47 0 47 -39v-127q0 -39 -47 -39h-110q-47 0 -47 39v127q0 39 47 39zM277 1542h110
q47 0 47 -39v-127q0 -39 -47 -39h-110q-47 0 -47 39v127q0 39 47 39zM277 1763h110q47 0 47 -39v-127q0 -39 -47 -39h-110q-47 0 -47 39v127q0 39 47 39zM277 1984h110q47 0 47 -39v-126q0 -39 -47 -39h-110q-47 0 -47 39v126q0 39 47 39zM720 435h110q47 0 47 -39v-127
q0 -39 -47 -39h-110q-47 0 -47 39v127q0 39 47 39zM941 435h110q47 0 47 -39v-127q0 -39 -47 -39h-110q-47 0 -47 39v127q0 39 47 39zM498 656h111q47 0 47 -39v-127q0 -39 -47 -39h-111q-47 0 -47 39v127q0 39 47 39zM1162 656h111q47 0 47 -39v-127q0 -39 -47 -39h-111
q-47 0 -47 39v127q0 39 47 39zM1384 877h110q47 0 47 -39v-126q0 -39 -47 -39h-110q-47 0 -47 39v126q0 39 47 39zM1384 1099h110q47 0 47 -39v-127q0 -39 -47 -39h-110q-47 0 -47 39v127q0 39 47 39zM1384 1320h110q47 0 47 -39v-127q0 -39 -47 -39h-110q-47 0 -47 39v127
q0 39 47 39zM1384 1542h110q47 0 47 -39v-127q0 -39 -47 -39h-110q-47 0 -47 39v127q0 39 47 39zM1384 1763h110q47 0 47 -39v-127q0 -39 -47 -39h-110q-47 0 -47 39v127q0 39 47 39zM1384 1984h110q47 0 47 -39v-126q0 -39 -47 -39h-110q-47 0 -47 39v126q0 39 47 39z" />
    <glyph glyph-name="w" unicode="w" 
d="M1384 1984h110q47 0 47 -39v-126q0 -39 -47 -39h-110q-47 0 -47 39v126q0 39 47 39zM1384 1763h110q47 0 47 -39v-127q0 -39 -47 -39h-110q-47 0 -47 39v127q0 39 47 39zM1384 1542h110q47 0 47 -39v-127q0 -39 -47 -39h-110q-47 0 -47 39v127q0 39 47 39zM1384 1320h110
q47 0 47 -39v-127q0 -39 -47 -39h-110q-47 0 -47 39v127q0 39 47 39zM1384 1099h110q47 0 47 -39v-127q0 -39 -47 -39h-110q-47 0 -47 39v127q0 39 47 39zM1384 877h110q47 0 47 -39v-126q0 -39 -47 -39h-110q-47 0 -47 39v126q0 39 47 39zM1384 656h110q47 0 47 -39v-127
q0 -39 -47 -39h-110q-47 0 -47 39v127q0 39 47 39zM941 656h110q47 0 47 -39v-127q0 -39 -47 -39h-110q-47 0 -47 39v127q0 39 47 39zM1162 435h111q47 0 47 -39v-127q0 -39 -47 -39h-111q-47 0 -47 39v127q0 39 47 39zM720 877h110q47 0 47 -39v-126q0 -39 -47 -39h-110
q-47 0 -47 39v126q0 39 47 39zM498 656h111q47 0 47 -39v-127q0 -39 -47 -39h-111q-47 0 -47 39v127q0 39 47 39zM277 435h110q47 0 47 -39v-127q0 -39 -47 -39h-110q-47 0 -47 39v127q0 39 47 39zM55 656h111q47 0 47 -39v-127q0 -39 -47 -39h-111q-47 0 -47 39v127
q0 39 47 39zM55 1984h111q47 0 47 -39v-126q0 -39 -47 -39h-111q-47 0 -47 39v126q0 39 47 39zM55 1763h111q47 0 47 -39v-127q0 -39 -47 -39h-111q-47 0 -47 39v127q0 39 47 39zM55 1542h111q47 0 47 -39v-127q0 -39 -47 -39h-111q-47 0 -47 39v127q0 39 47 39zM55 1320
h111q47 0 47 -39v-127q0 -39 -47 -39h-111q-47 0 -47 39v127q0 39 47 39zM55 1099h111q47 0 47 -39v-127q0 -39 -47 -39h-111q-47 0 -47 39v127q0 39 47 39zM55 877h111q47 0 47 -39v-126q0 -39 -47 -39h-111q-47 0 -47 39v126q0 39 47 39z" />
    <glyph glyph-name="x" unicode="x" 
d="M1162 1984h111q47 0 47 -39v-126q0 -39 -47 -39h-111q-47 0 -47 39v126q0 39 47 39zM1162 1763h111q47 0 47 -39v-127q0 -39 -47 -39h-111q-47 0 -47 39v127q0 39 47 39zM1162 877h111q47 0 47 -39v-126q0 -39 -47 -39h-111q-47 0 -47 39v126q0 39 47 39zM1162 656h111
q47 0 47 -39v-127q0 -39 -47 -39h-111q-47 0 -47 39v127q0 39 47 39zM1162 435h111q47 0 47 -39v-127q0 -39 -47 -39h-111q-47 0 -47 39v127q0 39 47 39zM941 1542h110q47 0 47 -39v-127q0 -39 -47 -39h-110q-47 0 -47 39v127q0 39 47 39zM941 1099h110q47 0 47 -39v-127
q0 -39 -47 -39h-110q-47 0 -47 39v127q0 39 47 39zM720 1320h110q47 0 47 -39v-127q0 -39 -47 -39h-110q-47 0 -47 39v127q0 39 47 39zM498 1542h111q47 0 47 -39v-127q0 -39 -47 -39h-111q-47 0 -47 39v127q0 39 47 39zM498 1099h111q47 0 47 -39v-127q0 -39 -47 -39h-111
q-47 0 -47 39v127q0 39 47 39zM277 1984h110q47 0 47 -39v-126q0 -39 -47 -39h-110q-47 0 -47 39v126q0 39 47 39zM277 1763h110q47 0 47 -39v-127q0 -39 -47 -39h-110q-47 0 -47 39v127q0 39 47 39zM277 877h110q47 0 47 -39v-126q0 -39 -47 -39h-110q-47 0 -47 39v126
q0 39 47 39zM277 656h110q47 0 47 -39v-127q0 -39 -47 -39h-110q-47 0 -47 39v127q0 39 47 39zM277 435h110q47 0 47 -39v-127q0 -39 -47 -39h-110q-47 0 -47 39v127q0 39 47 39z" />
    <glyph glyph-name="y" unicode="y" 
d="M277 1320h110q47 0 47 -39v-127q0 -39 -47 -39h-110q-47 0 -47 39v127q0 39 47 39zM277 1542h110q47 0 47 -39v-127q0 -39 -47 -39h-110q-47 0 -47 39v127q0 39 47 39zM277 1763h110q47 0 47 -39v-127q0 -39 -47 -39h-110q-47 0 -47 39v127q0 39 47 39zM277 1984h110
q47 0 47 -39v-126q0 -39 -47 -39h-110q-47 0 -47 39v126q0 39 47 39zM498 1099h111q47 0 47 -39v-127q0 -39 -47 -39h-111q-47 0 -47 39v127q0 39 47 39zM720 435h110q47 0 47 -39v-127q0 -39 -47 -39h-110q-47 0 -47 39v127q0 39 47 39zM720 656h110q47 0 47 -39v-127
q0 -39 -47 -39h-110q-47 0 -47 39v127q0 39 47 39zM720 877h110q47 0 47 -39v-126q0 -39 -47 -39h-110q-47 0 -47 39v126q0 39 47 39zM941 1099h110q47 0 47 -39v-127q0 -39 -47 -39h-110q-47 0 -47 39v127q0 39 47 39zM1162 1320h111q47 0 47 -39v-127q0 -39 -47 -39h-111
q-47 0 -47 39v127q0 39 47 39zM1162 1542h111q47 0 47 -39v-127q0 -39 -47 -39h-111q-47 0 -47 39v127q0 39 47 39zM1162 1763h111q47 0 47 -39v-127q0 -39 -47 -39h-111q-47 0 -47 39v127q0 39 47 39zM1162 1984h111q47 0 47 -39v-126q0 -39 -47 -39h-111q-47 0 -47 39v126
q0 39 47 39z" />
    <glyph glyph-name="z" unicode="z" 
d="M1162 1984h111q47 0 47 -39v-126q0 -39 -47 -39h-111q-47 0 -47 39v126q0 39 47 39zM1162 1763h111q47 0 47 -39v-127q0 -39 -47 -39h-111q-47 0 -47 39v127q0 39 47 39zM1162 1542h111q47 0 47 -39v-127q0 -39 -47 -39h-111q-47 0 -47 39v127q0 39 47 39zM1162 435h111
q47 0 47 -39v-127q0 -39 -47 -39h-111q-47 0 -47 39v127q0 39 47 39zM941 1984h110q47 0 47 -39v-126q0 -39 -47 -39h-110q-47 0 -47 39v126q0 39 47 39zM941 1320h110q47 0 47 -39v-127q0 -39 -47 -39h-110q-47 0 -47 39v127q0 39 47 39zM941 435h110q47 0 47 -39v-127
q0 -39 -47 -39h-110q-47 0 -47 39v127q0 39 47 39zM720 1984h110q47 0 47 -39v-126q0 -39 -47 -39h-110q-47 0 -47 39v126q0 39 47 39zM720 1099h110q47 0 47 -39v-127q0 -39 -47 -39h-110q-47 0 -47 39v127q0 39 47 39zM720 435h110q47 0 47 -39v-127q0 -39 -47 -39h-110
q-47 0 -47 39v127q0 39 47 39zM498 1984h111q47 0 47 -39v-126q0 -39 -47 -39h-111q-47 0 -47 39v126q0 39 47 39zM498 877h111q47 0 47 -39v-126q0 -39 -47 -39h-111q-47 0 -47 39v126q0 39 47 39zM498 435h111q47 0 47 -39v-127q0 -39 -47 -39h-111q-47 0 -47 39v127
q0 39 47 39zM277 1984h110q47 0 47 -39v-126q0 -39 -47 -39h-110q-47 0 -47 39v126q0 39 47 39zM277 656h110q47 0 47 -39v-127q0 -39 -47 -39h-110q-47 0 -47 39v127q0 39 47 39zM277 435h110q47 0 47 -39v-127q0 -39 -47 -39h-110q-47 0 -47 39v127q0 39 47 39z" />
    <glyph glyph-name="braceright" unicode="}" 
d="M498 1763h111q47 0 47 -39v-127q0 -39 -47 -39h-111q-47 0 -47 39v127q0 39 47 39zM720 1542h110q47 0 47 -39v-127q0 -39 -47 -39h-110q-47 0 -47 39v127q0 39 47 39zM720 1320h110q47 0 47 -39v-127q0 -39 -47 -39h-110q-47 0 -47 39v127q0 39 47 39zM720 1099h110
q47 0 47 -39v-127q0 -39 -47 -39h-110q-47 0 -47 39v127q0 39 47 39zM720 877h110q47 0 47 -39v-126q0 -39 -47 -39h-110q-47 0 -47 39v126q0 39 47 39zM720 656h110q47 0 47 -39v-127q0 -39 -47 -39h-110q-47 0 -47 39v127q0 39 47 39zM498 435h111q47 0 47 -39v-127
q0 -39 -47 -39h-111q-47 0 -47 39v127q0 39 47 39z" />
    <glyph glyph-name="agrave" unicode="&#xe0;" 
d="M277 435h110q47 0 47 -39v-127q0 -39 -47 -39h-110q-47 0 -47 39v127q0 39 47 39zM277 656h110q47 0 47 -39v-127q0 -39 -47 -39h-110q-47 0 -47 39v127q0 39 47 39zM277 877h110q47 0 47 -39v-126q0 -39 -47 -39h-110q-47 0 -47 39v126q0 39 47 39zM277 1099h110
q47 0 47 -39v-127q0 -39 -47 -39h-110q-47 0 -47 39v127q0 39 47 39zM277 1320h110q47 0 47 -39v-127q0 -39 -47 -39h-110q-47 0 -47 39v127q0 39 47 39zM277 1542h110q47 0 47 -39v-127q0 -39 -47 -39h-110q-47 0 -47 39v127q0 39 47 39zM277 1763h110q47 0 47 -39v-127
q0 -39 -47 -39h-110q-47 0 -47 39v127q0 39 47 39zM498 877h111q47 0 47 -39v-126q0 -39 -47 -39h-111q-47 0 -47 39v126q0 39 47 39zM498 1984h111q47 0 47 -39v-126q0 -39 -47 -39h-111q-47 0 -47 39v126q0 39 47 39zM720 877h110q47 0 47 -39v-126q0 -39 -47 -39h-110
q-47 0 -47 39v126q0 39 47 39zM720 1984h110q47 0 47 -39v-126q0 -39 -47 -39h-110q-47 0 -47 39v126q0 39 47 39zM941 877h110q47 0 47 -39v-126q0 -39 -47 -39h-110q-47 0 -47 39v126q0 39 47 39zM941 1984h110q47 0 47 -39v-126q0 -39 -47 -39h-110q-47 0 -47 39v126
q0 39 47 39zM1162 435h111q47 0 47 -39v-127q0 -39 -47 -39h-111q-47 0 -47 39v127q0 39 47 39zM1162 656h111q47 0 47 -39v-127q0 -39 -47 -39h-111q-47 0 -47 39v127q0 39 47 39zM1162 877h111q47 0 47 -39v-126q0 -39 -47 -39h-111q-47 0 -47 39v126q0 39 47 39z
M1162 1099h111q47 0 47 -39v-127q0 -39 -47 -39h-111q-47 0 -47 39v127q0 39 47 39zM1162 1320h111q47 0 47 -39v-127q0 -39 -47 -39h-111q-47 0 -47 39v127q0 39 47 39zM1162 1542h111q47 0 47 -39v-127q0 -39 -47 -39h-111q-47 0 -47 39v127q0 39 47 39zM1162 1763h111
q47 0 47 -39v-127q0 -39 -47 -39h-111q-47 0 -47 39v127q0 39 47 39z" />
    <glyph glyph-name="aacute" unicode="&#xe1;" 
d="M1162 1984h111q47 0 47 -39v-126q0 -39 -47 -39h-111q-47 0 -47 39v126q0 39 47 39zM1162 1099h111q47 0 47 -39v-127q0 -39 -47 -39h-111q-47 0 -47 39v127q0 39 47 39zM1162 877h111q47 0 47 -39v-126q0 -39 -47 -39h-111q-47 0 -47 39v126q0 39 47 39zM1162 656h111
q47 0 47 -39v-127q0 -39 -47 -39h-111q-47 0 -47 39v127q0 39 47 39zM941 1984h110q47 0 47 -39v-126q0 -39 -47 -39h-110q-47 0 -47 39v126q0 39 47 39zM941 1320h110q47 0 47 -39v-127q0 -39 -47 -39h-110q-47 0 -47 39v127q0 39 47 39zM941 435h110q47 0 47 -39v-127
q0 -39 -47 -39h-110q-47 0 -47 39v127q0 39 47 39zM720 1984h110q47 0 47 -39v-126q0 -39 -47 -39h-110q-47 0 -47 39v126q0 39 47 39zM720 1320h110q47 0 47 -39v-127q0 -39 -47 -39h-110q-47 0 -47 39v127q0 39 47 39zM720 435h110q47 0 47 -39v-127q0 -39 -47 -39h-110
q-47 0 -47 39v127q0 39 47 39zM498 1984h111q47 0 47 -39v-126q0 -39 -47 -39h-111q-47 0 -47 39v126q0 39 47 39zM498 1320h111q47 0 47 -39v-127q0 -39 -47 -39h-111q-47 0 -47 39v127q0 39 47 39zM498 435h111q47 0 47 -39v-127q0 -39 -47 -39h-111q-47 0 -47 39v127
q0 39 47 39zM277 1984h110q47 0 47 -39v-126q0 -39 -47 -39h-110q-47 0 -47 39v126q0 39 47 39zM277 1763h110q47 0 47 -39v-127q0 -39 -47 -39h-110q-47 0 -47 39v127q0 39 47 39zM277 1542h110q47 0 47 -39v-127q0 -39 -47 -39h-110q-47 0 -47 39v127q0 39 47 39z
M277 1320h110q47 0 47 -39v-127q0 -39 -47 -39h-110q-47 0 -47 39v127q0 39 47 39zM277 1099h110q47 0 47 -39v-127q0 -39 -47 -39h-110q-47 0 -47 39v127q0 39 47 39zM277 877h110q47 0 47 -39v-126q0 -39 -47 -39h-110q-47 0 -47 39v126q0 39 47 39zM277 656h110
q47 0 47 -39v-127q0 -39 -47 -39h-110q-47 0 -47 39v127q0 39 47 39zM277 435h110q47 0 47 -39v-127q0 -39 -47 -39h-110q-47 0 -47 39v127q0 39 47 39z" />
    <glyph glyph-name="acircumflex" unicode="&#xe2;" 
d="M1162 1763h111q47 0 47 -39v-127q0 -39 -47 -39h-111q-47 0 -47 39v127q0 39 47 39zM1162 1542h111q47 0 47 -39v-127q0 -39 -47 -39h-111q-47 0 -47 39v127q0 39 47 39zM1162 1099h111q47 0 47 -39v-127q0 -39 -47 -39h-111q-47 0 -47 39v127q0 39 47 39zM1162 877h111
q47 0 47 -39v-126q0 -39 -47 -39h-111q-47 0 -47 39v126q0 39 47 39zM1162 656h111q47 0 47 -39v-127q0 -39 -47 -39h-111q-47 0 -47 39v127q0 39 47 39zM941 1984h110q47 0 47 -39v-126q0 -39 -47 -39h-110q-47 0 -47 39v126q0 39 47 39zM941 1320h110q47 0 47 -39v-127
q0 -39 -47 -39h-110q-47 0 -47 39v127q0 39 47 39zM941 435h110q47 0 47 -39v-127q0 -39 -47 -39h-110q-47 0 -47 39v127q0 39 47 39zM720 1984h110q47 0 47 -39v-126q0 -39 -47 -39h-110q-47 0 -47 39v126q0 39 47 39zM720 1320h110q47 0 47 -39v-127q0 -39 -47 -39h-110
q-47 0 -47 39v127q0 39 47 39zM720 435h110q47 0 47 -39v-127q0 -39 -47 -39h-110q-47 0 -47 39v127q0 39 47 39zM498 1984h111q47 0 47 -39v-126q0 -39 -47 -39h-111q-47 0 -47 39v126q0 39 47 39zM498 1320h111q47 0 47 -39v-127q0 -39 -47 -39h-111q-47 0 -47 39v127
q0 39 47 39zM498 435h111q47 0 47 -39v-127q0 -39 -47 -39h-111q-47 0 -47 39v127q0 39 47 39zM277 1984h110q47 0 47 -39v-126q0 -39 -47 -39h-110q-47 0 -47 39v126q0 39 47 39zM277 1763h110q47 0 47 -39v-127q0 -39 -47 -39h-110q-47 0 -47 39v127q0 39 47 39zM277 1542
h110q47 0 47 -39v-127q0 -39 -47 -39h-110q-47 0 -47 39v127q0 39 47 39zM277 1320h110q47 0 47 -39v-127q0 -39 -47 -39h-110q-47 0 -47 39v127q0 39 47 39zM277 1099h110q47 0 47 -39v-127q0 -39 -47 -39h-110q-47 0 -47 39v127q0 39 47 39zM277 877h110q47 0 47 -39v-126
q0 -39 -47 -39h-110q-47 0 -47 39v126q0 39 47 39zM277 656h110q47 0 47 -39v-127q0 -39 -47 -39h-110q-47 0 -47 39v127q0 39 47 39zM277 435h110q47 0 47 -39v-127q0 -39 -47 -39h-110q-47 0 -47 39v127q0 39 47 39z" />
    <glyph glyph-name="atilde" unicode="&#xe3;" 
d="M277 435h110q47 0 47 -39v-127q0 -39 -47 -39h-110q-47 0 -47 39v127q0 39 47 39zM277 656h110q47 0 47 -39v-127q0 -39 -47 -39h-110q-47 0 -47 39v127q0 39 47 39zM277 877h110q47 0 47 -39v-126q0 -39 -47 -39h-110q-47 0 -47 39v126q0 39 47 39zM277 1099h110
q47 0 47 -39v-127q0 -39 -47 -39h-110q-47 0 -47 39v127q0 39 47 39zM277 1320h110q47 0 47 -39v-127q0 -39 -47 -39h-110q-47 0 -47 39v127q0 39 47 39zM277 1542h110q47 0 47 -39v-127q0 -39 -47 -39h-110q-47 0 -47 39v127q0 39 47 39zM277 1763h110q47 0 47 -39v-127
q0 -39 -47 -39h-110q-47 0 -47 39v127q0 39 47 39zM277 1984h110q47 0 47 -39v-126q0 -39 -47 -39h-110q-47 0 -47 39v126q0 39 47 39zM498 1984h111q47 0 47 -39v-126q0 -39 -47 -39h-111q-47 0 -47 39v126q0 39 47 39zM720 1984h110q47 0 47 -39v-126q0 -39 -47 -39h-110
q-47 0 -47 39v126q0 39 47 39zM941 1984h110q47 0 47 -39v-126q0 -39 -47 -39h-110q-47 0 -47 39v126q0 39 47 39zM1162 1984h111q47 0 47 -39v-126q0 -39 -47 -39h-111q-47 0 -47 39v126q0 39 47 39z" />
    <glyph glyph-name="ntilde" unicode="&#xf1;" 
d="M1162 1763h111q47 0 47 -39v-127q0 -39 -47 -39h-111q-47 0 -47 39v127q0 39 47 39zM1162 1542h111q47 0 47 -39v-127q0 -39 -47 -39h-111q-47 0 -47 39v127q0 39 47 39zM1162 877h111q47 0 47 -39v-126q0 -39 -47 -39h-111q-47 0 -47 39v126q0 39 47 39zM1162 656h111
q47 0 47 -39v-127q0 -39 -47 -39h-111q-47 0 -47 39v127q0 39 47 39zM941 1984h110q47 0 47 -39v-126q0 -39 -47 -39h-110q-47 0 -47 39v126q0 39 47 39zM941 435h110q47 0 47 -39v-127q0 -39 -47 -39h-110q-47 0 -47 39v127q0 39 47 39zM720 1984h110q47 0 47 -39v-126
q0 -39 -47 -39h-110q-47 0 -47 39v126q0 39 47 39zM720 435h110q47 0 47 -39v-127q0 -39 -47 -39h-110q-47 0 -47 39v127q0 39 47 39zM498 1984h111q47 0 47 -39v-126q0 -39 -47 -39h-111q-47 0 -47 39v126q0 39 47 39zM498 435h111q47 0 47 -39v-127q0 -39 -47 -39h-111
q-47 0 -47 39v127q0 39 47 39zM277 1763h110q47 0 47 -39v-127q0 -39 -47 -39h-110q-47 0 -47 39v127q0 39 47 39zM277 1542h110q47 0 47 -39v-127q0 -39 -47 -39h-110q-47 0 -47 39v127q0 39 47 39zM277 1320h110q47 0 47 -39v-127q0 -39 -47 -39h-110q-47 0 -47 39v127
q0 39 47 39zM277 1099h110q47 0 47 -39v-127q0 -39 -47 -39h-110q-47 0 -47 39v127q0 39 47 39zM277 877h110q47 0 47 -39v-126q0 -39 -47 -39h-110q-47 0 -47 39v126q0 39 47 39zM277 656h110q47 0 47 -39v-127q0 -39 -47 -39h-110q-47 0 -47 39v127q0 39 47 39z" />
    <glyph glyph-name="ograve" unicode="&#xf2;" 
d="M277 1984h110q47 0 47 -39v-126q0 -39 -47 -39h-110q-47 0 -47 39v126q0 39 47 39zM498 1984h111q47 0 47 -39v-126q0 -39 -47 -39h-111q-47 0 -47 39v126q0 39 47 39zM720 435h110q47 0 47 -39v-127q0 -39 -47 -39h-110q-47 0 -47 39v127q0 39 47 39zM720 656h110
q47 0 47 -39v-127q0 -39 -47 -39h-110q-47 0 -47 39v127q0 39 47 39zM720 877h110q47 0 47 -39v-126q0 -39 -47 -39h-110q-47 0 -47 39v126q0 39 47 39zM720 1099h110q47 0 47 -39v-127q0 -39 -47 -39h-110q-47 0 -47 39v127q0 39 47 39zM720 1320h110q47 0 47 -39v-127
q0 -39 -47 -39h-110q-47 0 -47 39v127q0 39 47 39zM720 1542h110q47 0 47 -39v-127q0 -39 -47 -39h-110q-47 0 -47 39v127q0 39 47 39zM720 1763h110q47 0 47 -39v-127q0 -39 -47 -39h-110q-47 0 -47 39v127q0 39 47 39zM720 1984h110q47 0 47 -39v-126q0 -39 -47 -39h-110
q-47 0 -47 39v126q0 39 47 39zM941 1984h110q47 0 47 -39v-126q0 -39 -47 -39h-110q-47 0 -47 39v126q0 39 47 39zM1162 1984h111q47 0 47 -39v-126q0 -39 -47 -39h-111q-47 0 -47 39v126q0 39 47 39z" />
    <glyph glyph-name="oacute" unicode="&#xf3;" 
d="M1162 1984h111q47 0 47 -39v-126q0 -39 -47 -39h-111q-47 0 -47 39v126q0 39 47 39zM1162 1763h111q47 0 47 -39v-127q0 -39 -47 -39h-111q-47 0 -47 39v127q0 39 47 39zM1162 1542h111q47 0 47 -39v-127q0 -39 -47 -39h-111q-47 0 -47 39v127q0 39 47 39zM1162 1320h111
q47 0 47 -39v-127q0 -39 -47 -39h-111q-47 0 -47 39v127q0 39 47 39zM1162 1099h111q47 0 47 -39v-127q0 -39 -47 -39h-111q-47 0 -47 39v127q0 39 47 39zM1162 877h111q47 0 47 -39v-126q0 -39 -47 -39h-111q-47 0 -47 39v126q0 39 47 39zM1162 656h111q47 0 47 -39v-127
q0 -39 -47 -39h-111q-47 0 -47 39v127q0 39 47 39zM941 1099h110q47 0 47 -39v-127q0 -39 -47 -39h-110q-47 0 -47 39v127q0 39 47 39zM941 435h110q47 0 47 -39v-127q0 -39 -47 -39h-110q-47 0 -47 39v127q0 39 47 39zM720 1099h110q47 0 47 -39v-127q0 -39 -47 -39h-110
q-47 0 -47 39v127q0 39 47 39zM720 435h110q47 0 47 -39v-127q0 -39 -47 -39h-110q-47 0 -47 39v127q0 39 47 39zM498 1099h111q47 0 47 -39v-127q0 -39 -47 -39h-111q-47 0 -47 39v127q0 39 47 39zM498 435h111q47 0 47 -39v-127q0 -39 -47 -39h-111q-47 0 -47 39v127
q0 39 47 39zM277 1984h110q47 0 47 -39v-126q0 -39 -47 -39h-110q-47 0 -47 39v126q0 39 47 39zM277 1763h110q47 0 47 -39v-127q0 -39 -47 -39h-110q-47 0 -47 39v127q0 39 47 39zM277 1542h110q47 0 47 -39v-127q0 -39 -47 -39h-110q-47 0 -47 39v127q0 39 47 39z
M277 1320h110q47 0 47 -39v-127q0 -39 -47 -39h-110q-47 0 -47 39v127q0 39 47 39zM277 656h110q47 0 47 -39v-127q0 -39 -47 -39h-110q-47 0 -47 39v127q0 39 47 39z" />
    <glyph glyph-name="ocircumflex" unicode="&#xf4;" 
d="M1384 1763h110q47 0 47 -39v-127q0 -39 -47 -39h-110q-47 0 -47 39v127q0 39 47 39zM1384 1542h110q47 0 47 -39v-127q0 -39 -47 -39h-110q-47 0 -47 39v127q0 39 47 39zM1384 1320h110q47 0 47 -39v-127q0 -39 -47 -39h-110q-47 0 -47 39v127q0 39 47 39zM1384 1099h110
q47 0 47 -39v-127q0 -39 -47 -39h-110q-47 0 -47 39v127q0 39 47 39zM1162 1984h111q47 0 47 -39v-126q0 -39 -47 -39h-111q-47 0 -47 39v126q0 39 47 39zM1162 877h111q47 0 47 -39v-126q0 -39 -47 -39h-111q-47 0 -47 39v126q0 39 47 39zM941 1984h110q47 0 47 -39v-126
q0 -39 -47 -39h-110q-47 0 -47 39v126q0 39 47 39zM941 877h110q47 0 47 -39v-126q0 -39 -47 -39h-110q-47 0 -47 39v126q0 39 47 39zM720 1984h110q47 0 47 -39v-126q0 -39 -47 -39h-110q-47 0 -47 39v126q0 39 47 39zM720 1763h110q47 0 47 -39v-127q0 -39 -47 -39h-110
q-47 0 -47 39v127q0 39 47 39zM720 1542h110q47 0 47 -39v-127q0 -39 -47 -39h-110q-47 0 -47 39v127q0 39 47 39zM720 1320h110q47 0 47 -39v-127q0 -39 -47 -39h-110q-47 0 -47 39v127q0 39 47 39zM720 1099h110q47 0 47 -39v-127q0 -39 -47 -39h-110q-47 0 -47 39v127
q0 39 47 39zM720 877h110q47 0 47 -39v-126q0 -39 -47 -39h-110q-47 0 -47 39v126q0 39 47 39zM720 656h110q47 0 47 -39v-127q0 -39 -47 -39h-110q-47 0 -47 39v127q0 39 47 39zM720 435h110q47 0 47 -39v-127q0 -39 -47 -39h-110q-47 0 -47 39v127q0 39 47 39zM498 1984
h111q47 0 47 -39v-126q0 -39 -47 -39h-111q-47 0 -47 39v126q0 39 47 39zM498 877h111q47 0 47 -39v-126q0 -39 -47 -39h-111q-47 0 -47 39v126q0 39 47 39zM277 1984h110q47 0 47 -39v-126q0 -39 -47 -39h-110q-47 0 -47 39v126q0 39 47 39zM277 877h110q47 0 47 -39v-126
q0 -39 -47 -39h-110q-47 0 -47 39v126q0 39 47 39zM55 1763h111q47 0 47 -39v-127q0 -39 -47 -39h-111q-47 0 -47 39v127q0 39 47 39zM55 1542h111q47 0 47 -39v-127q0 -39 -47 -39h-111q-47 0 -47 39v127q0 39 47 39zM55 1320h111q47 0 47 -39v-127q0 -39 -47 -39h-111
q-47 0 -47 39v127q0 39 47 39zM55 1099h111q47 0 47 -39v-127q0 -39 -47 -39h-111q-47 0 -47 39v127q0 39 47 39z" />
    <glyph glyph-name="otilde" unicode="&#xf5;" 
d="M1162 1984h111q47 0 47 -39v-126q0 -39 -47 -39h-111q-47 0 -47 39v126q0 39 47 39zM1162 1763h111q47 0 47 -39v-127q0 -39 -47 -39h-111q-47 0 -47 39v127q0 39 47 39zM1162 877h111q47 0 47 -39v-126q0 -39 -47 -39h-111q-47 0 -47 39v126q0 39 47 39zM1162 656h111
q47 0 47 -39v-127q0 -39 -47 -39h-111q-47 0 -47 39v127q0 39 47 39zM1162 435h111q47 0 47 -39v-127q0 -39 -47 -39h-111q-47 0 -47 39v127q0 39 47 39zM941 1542h110q47 0 47 -39v-127q0 -39 -47 -39h-110q-47 0 -47 39v127q0 39 47 39zM941 1099h110q47 0 47 -39v-127
q0 -39 -47 -39h-110q-47 0 -47 39v127q0 39 47 39zM720 1320h110q47 0 47 -39v-127q0 -39 -47 -39h-110q-47 0 -47 39v127q0 39 47 39zM498 1542h111q47 0 47 -39v-127q0 -39 -47 -39h-111q-47 0 -47 39v127q0 39 47 39zM498 1099h111q47 0 47 -39v-127q0 -39 -47 -39h-111
q-47 0 -47 39v127q0 39 47 39zM277 1984h110q47 0 47 -39v-126q0 -39 -47 -39h-110q-47 0 -47 39v126q0 39 47 39zM277 1763h110q47 0 47 -39v-127q0 -39 -47 -39h-110q-47 0 -47 39v127q0 39 47 39zM277 877h110q47 0 47 -39v-126q0 -39 -47 -39h-110q-47 0 -47 39v126
q0 39 47 39zM277 656h110q47 0 47 -39v-127q0 -39 -47 -39h-110q-47 0 -47 39v127q0 39 47 39zM277 435h110q47 0 47 -39v-127q0 -39 -47 -39h-110q-47 0 -47 39v127q0 39 47 39z" />
    <glyph glyph-name="odieresis" unicode="&#xf6;" 
d="M1384 435h110q47 0 47 -39v-127q0 -39 -47 -39h-110q-47 0 -47 39v127q0 39 47 39zM1384 213h110q47 0 47 -39v-127q0 -39 -47 -39h-110q-47 0 -47 39v127q0 39 47 39zM1162 1984h111q47 0 47 -39v-126q0 -39 -47 -39h-111q-47 0 -47 39v126q0 39 47 39zM1162 1763h111
q47 0 47 -39v-127q0 -39 -47 -39h-111q-47 0 -47 39v127q0 39 47 39zM1162 1542h111q47 0 47 -39v-127q0 -39 -47 -39h-111q-47 0 -47 39v127q0 39 47 39zM1162 1320h111q47 0 47 -39v-127q0 -39 -47 -39h-111q-47 0 -47 39v127q0 39 47 39zM1162 1099h111q47 0 47 -39v-127
q0 -39 -47 -39h-111q-47 0 -47 39v127q0 39 47 39zM1162 877h111q47 0 47 -39v-126q0 -39 -47 -39h-111q-47 0 -47 39v126q0 39 47 39zM1162 656h111q47 0 47 -39v-127q0 -39 -47 -39h-111q-47 0 -47 39v127q0 39 47 39zM1162 435h111q47 0 47 -39v-127q0 -39 -47 -39h-111
q-47 0 -47 39v127q0 39 47 39zM941 435h110q47 0 47 -39v-127q0 -39 -47 -39h-110q-47 0 -47 39v127q0 39 47 39zM720 435h110q47 0 47 -39v-127q0 -39 -47 -39h-110q-47 0 -47 39v127q0 39 47 39zM498 435h111q47 0 47 -39v-127q0 -39 -47 -39h-111q-47 0 -47 39v127
q0 39 47 39zM277 1984h110q47 0 47 -39v-126q0 -39 -47 -39h-110q-47 0 -47 39v126q0 39 47 39zM277 1763h110q47 0 47 -39v-127q0 -39 -47 -39h-110q-47 0 -47 39v127q0 39 47 39zM277 1542h110q47 0 47 -39v-127q0 -39 -47 -39h-110q-47 0 -47 39v127q0 39 47 39z
M277 1320h110q47 0 47 -39v-127q0 -39 -47 -39h-110q-47 0 -47 39v127q0 39 47 39zM277 1099h110q47 0 47 -39v-127q0 -39 -47 -39h-110q-47 0 -47 39v127q0 39 47 39zM277 877h110q47 0 47 -39v-126q0 -39 -47 -39h-110q-47 0 -47 39v126q0 39 47 39zM277 656h110
q47 0 47 -39v-127q0 -39 -47 -39h-110q-47 0 -47 39v127q0 39 47 39zM277 435h110q47 0 47 -39v-127q0 -39 -47 -39h-110q-47 0 -47 39v127q0 39 47 39z" />
    <glyph glyph-name="divide" unicode="&#xf7;" 
d="M1162 1984h111q47 0 47 -39v-126q0 -39 -47 -39h-111q-47 0 -47 39v126q0 39 47 39zM1162 1763h111q47 0 47 -39v-127q0 -39 -47 -39h-111q-47 0 -47 39v127q0 39 47 39zM1162 1542h111q47 0 47 -39v-127q0 -39 -47 -39h-111q-47 0 -47 39v127q0 39 47 39zM1162 1320h111
q47 0 47 -39v-127q0 -39 -47 -39h-111q-47 0 -47 39v127q0 39 47 39zM1162 1099h111q47 0 47 -39v-127q0 -39 -47 -39h-111q-47 0 -47 39v127q0 39 47 39zM1162 877h111q47 0 47 -39v-126q0 -39 -47 -39h-111q-47 0 -47 39v126q0 39 47 39zM1162 656h111q47 0 47 -39v-127
q0 -39 -47 -39h-111q-47 0 -47 39v127q0 39 47 39zM1162 435h111q47 0 47 -39v-127q0 -39 -47 -39h-111q-47 0 -47 39v127q0 39 47 39zM941 877h110q47 0 47 -39v-126q0 -39 -47 -39h-110q-47 0 -47 39v126q0 39 47 39zM720 877h110q47 0 47 -39v-126q0 -39 -47 -39h-110
q-47 0 -47 39v126q0 39 47 39zM498 877h111q47 0 47 -39v-126q0 -39 -47 -39h-111q-47 0 -47 39v126q0 39 47 39zM277 1984h110q47 0 47 -39v-126q0 -39 -47 -39h-110q-47 0 -47 39v126q0 39 47 39zM277 1763h110q47 0 47 -39v-127q0 -39 -47 -39h-110q-47 0 -47 39v127
q0 39 47 39zM277 1542h110q47 0 47 -39v-127q0 -39 -47 -39h-110q-47 0 -47 39v127q0 39 47 39zM277 1320h110q47 0 47 -39v-127q0 -39 -47 -39h-110q-47 0 -47 39v127q0 39 47 39zM277 1099h110q47 0 47 -39v-127q0 -39 -47 -39h-110q-47 0 -47 39v127q0 39 47 39z" />
    <glyph glyph-name="oslash" unicode="&#xf8;" 
d="M720 1984h110q47 0 47 -39v-126q0 -39 -47 -39h-110q-47 0 -47 39v126q0 39 47 39zM1162 1984h111q47 0 47 -39v-126q0 -39 -47 -39h-111q-47 0 -47 39v126q0 39 47 39zM720 1763h110q47 0 47 -39v-127q0 -39 -47 -39h-110q-47 0 -47 39v127q0 39 47 39zM1162 1763h111
q47 0 47 -39v-127q0 -39 -47 -39h-111q-47 0 -47 39v127q0 39 47 39zM720 1542h110q47 0 47 -39v-127q0 -39 -47 -39h-110q-47 0 -47 39v127q0 39 47 39zM1162 1542h111q47 0 47 -39v-127q0 -39 -47 -39h-111q-47 0 -47 39v127q0 39 47 39zM720 1320h110q47 0 47 -39v-127
q0 -39 -47 -39h-110q-47 0 -47 39v127q0 39 47 39zM1162 1320h111q47 0 47 -39v-127q0 -39 -47 -39h-111q-47 0 -47 39v127q0 39 47 39zM720 1099h110q47 0 47 -39v-127q0 -39 -47 -39h-110q-47 0 -47 39v127q0 39 47 39zM1162 1099h111q47 0 47 -39v-127q0 -39 -47 -39
h-111q-47 0 -47 39v127q0 39 47 39zM720 877h110q47 0 47 -39v-126q0 -39 -47 -39h-110q-47 0 -47 39v126q0 39 47 39zM1162 877h111q47 0 47 -39v-126q0 -39 -47 -39h-111q-47 0 -47 39v126q0 39 47 39zM720 656h110q47 0 47 -39v-127q0 -39 -47 -39h-110q-47 0 -47 39v127
q0 39 47 39zM1162 656h111q47 0 47 -39v-127q0 -39 -47 -39h-111q-47 0 -47 39v127q0 39 47 39zM1162 435h111q47 0 47 -39v-127q0 -39 -47 -39h-111q-47 0 -47 39v127q0 39 47 39zM941 435h110q47 0 47 -39v-127q0 -39 -47 -39h-110q-47 0 -47 39v127q0 39 47 39zM720 435
h110q47 0 47 -39v-127q0 -39 -47 -39h-110q-47 0 -47 39v127q0 39 47 39zM498 435h111q47 0 47 -39v-127q0 -39 -47 -39h-111q-47 0 -47 39v127q0 39 47 39zM277 1984h110q47 0 47 -39v-126q0 -39 -47 -39h-110q-47 0 -47 39v126q0 39 47 39zM277 1763h110q47 0 47 -39v-127
q0 -39 -47 -39h-110q-47 0 -47 39v127q0 39 47 39zM277 1542h110q47 0 47 -39v-127q0 -39 -47 -39h-110q-47 0 -47 39v127q0 39 47 39zM277 1320h110q47 0 47 -39v-127q0 -39 -47 -39h-110q-47 0 -47 39v127q0 39 47 39zM277 1099h110q47 0 47 -39v-127q0 -39 -47 -39h-110
q-47 0 -47 39v127q0 39 47 39zM277 877h110q47 0 47 -39v-126q0 -39 -47 -39h-110q-47 0 -47 39v126q0 39 47 39zM277 656h110q47 0 47 -39v-127q0 -39 -47 -39h-110q-47 0 -47 39v127q0 39 47 39zM277 435h110q47 0 47 -39v-127q0 -39 -47 -39h-110q-47 0 -47 39v127
q0 39 47 39z" />
    <glyph glyph-name="ugrave" unicode="&#xf9;" 
d="M277 435h110q47 0 47 -39v-127q0 -39 -47 -39h-110q-47 0 -47 39v127q0 39 47 39zM277 656h110q47 0 47 -39v-127q0 -39 -47 -39h-110q-47 0 -47 39v127q0 39 47 39zM277 877h110q47 0 47 -39v-126q0 -39 -47 -39h-110q-47 0 -47 39v126q0 39 47 39zM277 1099h110
q47 0 47 -39v-127q0 -39 -47 -39h-110q-47 0 -47 39v127q0 39 47 39zM277 1320h110q47 0 47 -39v-127q0 -39 -47 -39h-110q-47 0 -47 39v127q0 39 47 39zM277 1542h110q47 0 47 -39v-127q0 -39 -47 -39h-110q-47 0 -47 39v127q0 39 47 39zM277 1763h110q47 0 47 -39v-127
q0 -39 -47 -39h-110q-47 0 -47 39v127q0 39 47 39zM277 1984h110q47 0 47 -39v-126q0 -39 -47 -39h-110q-47 0 -47 39v126q0 39 47 39zM498 435h111q47 0 47 -39v-127q0 -39 -47 -39h-111q-47 0 -47 39v127q0 39 47 39zM720 435h110q47 0 47 -39v-127q0 -39 -47 -39h-110
q-47 0 -47 39v127q0 39 47 39zM941 435h110q47 0 47 -39v-127q0 -39 -47 -39h-110q-47 0 -47 39v127q0 39 47 39zM1162 435h111q47 0 47 -39v-127q0 -39 -47 -39h-111q-47 0 -47 39v127q0 39 47 39zM1162 656h111q47 0 47 -39v-127q0 -39 -47 -39h-111q-47 0 -47 39v127
q0 39 47 39zM720 656h110q47 0 47 -39v-127q0 -39 -47 -39h-110q-47 0 -47 39v127q0 39 47 39zM1162 877h111q47 0 47 -39v-126q0 -39 -47 -39h-111q-47 0 -47 39v126q0 39 47 39zM720 877h110q47 0 47 -39v-126q0 -39 -47 -39h-110q-47 0 -47 39v126q0 39 47 39zM1162 1099
h111q47 0 47 -39v-127q0 -39 -47 -39h-111q-47 0 -47 39v127q0 39 47 39zM720 1099h110q47 0 47 -39v-127q0 -39 -47 -39h-110q-47 0 -47 39v127q0 39 47 39zM1162 1320h111q47 0 47 -39v-127q0 -39 -47 -39h-111q-47 0 -47 39v127q0 39 47 39zM720 1320h110q47 0 47 -39
v-127q0 -39 -47 -39h-110q-47 0 -47 39v127q0 39 47 39zM1162 1542h111q47 0 47 -39v-127q0 -39 -47 -39h-111q-47 0 -47 39v127q0 39 47 39zM720 1542h110q47 0 47 -39v-127q0 -39 -47 -39h-110q-47 0 -47 39v127q0 39 47 39zM1162 1763h111q47 0 47 -39v-127
q0 -39 -47 -39h-111q-47 0 -47 39v127q0 39 47 39zM720 1763h110q47 0 47 -39v-127q0 -39 -47 -39h-110q-47 0 -47 39v127q0 39 47 39zM1162 1984h111q47 0 47 -39v-126q0 -39 -47 -39h-111q-47 0 -47 39v126q0 39 47 39zM720 1984h110q47 0 47 -39v-126q0 -39 -47 -39h-110
q-47 0 -47 39v126q0 39 47 39zM1384 213h110q47 0 47 -39v-127q0 -39 -47 -39h-110q-47 0 -47 39v127q0 39 47 39zM1384 435h110q47 0 47 -39v-127q0 -39 -47 -39h-110q-47 0 -47 39v127q0 39 47 39z" />
    <glyph glyph-name="adieresis" unicode="&#xe4;" 
d="M1384 435h110q47 0 47 -39v-127q0 -39 -47 -39h-110q-47 0 -47 39v127q0 39 47 39zM1384 213h110q47 0 47 -39v-127q0 -39 -47 -39h-110q-47 0 -47 39v127q0 39 47 39zM1162 1984h111q47 0 47 -39v-126q0 -39 -47 -39h-111q-47 0 -47 39v126q0 39 47 39zM1162 1763h111
q47 0 47 -39v-127q0 -39 -47 -39h-111q-47 0 -47 39v127q0 39 47 39zM1162 1542h111q47 0 47 -39v-127q0 -39 -47 -39h-111q-47 0 -47 39v127q0 39 47 39zM1162 1320h111q47 0 47 -39v-127q0 -39 -47 -39h-111q-47 0 -47 39v127q0 39 47 39zM1162 1099h111q47 0 47 -39v-127
q0 -39 -47 -39h-111q-47 0 -47 39v127q0 39 47 39zM1162 877h111q47 0 47 -39v-126q0 -39 -47 -39h-111q-47 0 -47 39v126q0 39 47 39zM1162 656h111q47 0 47 -39v-127q0 -39 -47 -39h-111q-47 0 -47 39v127q0 39 47 39zM1162 435h111q47 0 47 -39v-127q0 -39 -47 -39h-111
q-47 0 -47 39v127q0 39 47 39zM941 1984h110q47 0 47 -39v-126q0 -39 -47 -39h-110q-47 0 -47 39v126q0 39 47 39zM941 435h110q47 0 47 -39v-127q0 -39 -47 -39h-110q-47 0 -47 39v127q0 39 47 39zM720 1984h110q47 0 47 -39v-126q0 -39 -47 -39h-110q-47 0 -47 39v126
q0 39 47 39zM720 435h110q47 0 47 -39v-127q0 -39 -47 -39h-110q-47 0 -47 39v127q0 39 47 39zM498 1763h111q47 0 47 -39v-127q0 -39 -47 -39h-111q-47 0 -47 39v127q0 39 47 39zM498 1542h111q47 0 47 -39v-127q0 -39 -47 -39h-111q-47 0 -47 39v127q0 39 47 39zM498 1320
h111q47 0 47 -39v-127q0 -39 -47 -39h-111q-47 0 -47 39v127q0 39 47 39zM498 1099h111q47 0 47 -39v-127q0 -39 -47 -39h-111q-47 0 -47 39v127q0 39 47 39zM498 877h111q47 0 47 -39v-126q0 -39 -47 -39h-111q-47 0 -47 39v126q0 39 47 39zM498 656h111q47 0 47 -39v-127
q0 -39 -47 -39h-111q-47 0 -47 39v127q0 39 47 39zM498 435h111q47 0 47 -39v-127q0 -39 -47 -39h-111q-47 0 -47 39v127q0 39 47 39zM277 435h110q47 0 47 -39v-127q0 -39 -47 -39h-110q-47 0 -47 39v127q0 39 47 39zM277 213h110q47 0 47 -39v-127q0 -39 -47 -39h-110
q-47 0 -47 39v127q0 39 47 39z" />
    <glyph glyph-name="aring" unicode="&#xe5;" 
d="M1162 1984h111q47 0 47 -39v-126q0 -39 -47 -39h-111q-47 0 -47 39v126q0 39 47 39zM1162 435h111q47 0 47 -39v-127q0 -39 -47 -39h-111q-47 0 -47 39v127q0 39 47 39zM941 1984h110q47 0 47 -39v-126q0 -39 -47 -39h-110q-47 0 -47 39v126q0 39 47 39zM941 1099h110
q47 0 47 -39v-127q0 -39 -47 -39h-110q-47 0 -47 39v127q0 39 47 39zM941 435h110q47 0 47 -39v-127q0 -39 -47 -39h-110q-47 0 -47 39v127q0 39 47 39zM720 1984h110q47 0 47 -39v-126q0 -39 -47 -39h-110q-47 0 -47 39v126q0 39 47 39zM720 1099h110q47 0 47 -39v-127
q0 -39 -47 -39h-110q-47 0 -47 39v127q0 39 47 39zM720 435h110q47 0 47 -39v-127q0 -39 -47 -39h-110q-47 0 -47 39v127q0 39 47 39zM498 1984h111q47 0 47 -39v-126q0 -39 -47 -39h-111q-47 0 -47 39v126q0 39 47 39zM498 1099h111q47 0 47 -39v-127q0 -39 -47 -39h-111
q-47 0 -47 39v127q0 39 47 39zM498 435h111q47 0 47 -39v-127q0 -39 -47 -39h-111q-47 0 -47 39v127q0 39 47 39zM277 1984h110q47 0 47 -39v-126q0 -39 -47 -39h-110q-47 0 -47 39v126q0 39 47 39zM277 1763h110q47 0 47 -39v-127q0 -39 -47 -39h-110q-47 0 -47 39v127
q0 39 47 39zM277 1542h110q47 0 47 -39v-127q0 -39 -47 -39h-110q-47 0 -47 39v127q0 39 47 39zM277 1320h110q47 0 47 -39v-127q0 -39 -47 -39h-110q-47 0 -47 39v127q0 39 47 39zM277 1099h110q47 0 47 -39v-127q0 -39 -47 -39h-110q-47 0 -47 39v127q0 39 47 39zM277 877
h110q47 0 47 -39v-126q0 -39 -47 -39h-110q-47 0 -47 39v126q0 39 47 39zM277 656h110q47 0 47 -39v-127q0 -39 -47 -39h-110q-47 0 -47 39v127q0 39 47 39zM277 435h110q47 0 47 -39v-127q0 -39 -47 -39h-110q-47 0 -47 39v127q0 39 47 39z" />
    <glyph glyph-name="ae" unicode="&#xe6;" 
d="M277 435h110q47 0 47 -39v-127q0 -39 -47 -39h-110q-47 0 -47 39v127q0 39 47 39zM277 656h110q47 0 47 -39v-127q0 -39 -47 -39h-110q-47 0 -47 39v127q0 39 47 39zM277 1099h110q47 0 47 -39v-127q0 -39 -47 -39h-110q-47 0 -47 39v127q0 39 47 39zM277 877h110
q47 0 47 -39v-126q0 -39 -47 -39h-110q-47 0 -47 39v126q0 39 47 39zM277 1542h110q47 0 47 -39v-127q0 -39 -47 -39h-110q-47 0 -47 39v127q0 39 47 39zM277 1763h110q47 0 47 -39v-127q0 -39 -47 -39h-110q-47 0 -47 39v127q0 39 47 39zM277 1984h110q47 0 47 -39v-126
q0 -39 -47 -39h-110q-47 0 -47 39v126q0 39 47 39zM498 1320h111q47 0 47 -39v-127q0 -39 -47 -39h-111q-47 0 -47 39v127q0 39 47 39zM720 435h110q47 0 47 -39v-127q0 -39 -47 -39h-110q-47 0 -47 39v127q0 39 47 39zM720 656h110q47 0 47 -39v-127q0 -39 -47 -39h-110
q-47 0 -47 39v127q0 39 47 39zM720 877h110q47 0 47 -39v-126q0 -39 -47 -39h-110q-47 0 -47 39v126q0 39 47 39zM720 1099h110q47 0 47 -39v-127q0 -39 -47 -39h-110q-47 0 -47 39v127q0 39 47 39zM720 1320h110q47 0 47 -39v-127q0 -39 -47 -39h-110q-47 0 -47 39v127
q0 39 47 39zM720 1542h110q47 0 47 -39v-127q0 -39 -47 -39h-110q-47 0 -47 39v127q0 39 47 39zM720 1763h110q47 0 47 -39v-127q0 -39 -47 -39h-110q-47 0 -47 39v127q0 39 47 39zM720 1984h110q47 0 47 -39v-126q0 -39 -47 -39h-110q-47 0 -47 39v126q0 39 47 39z
M941 1320h110q47 0 47 -39v-127q0 -39 -47 -39h-110q-47 0 -47 39v127q0 39 47 39zM1162 1542h111q47 0 47 -39v-127q0 -39 -47 -39h-111q-47 0 -47 39v127q0 39 47 39zM1162 1763h111q47 0 47 -39v-127q0 -39 -47 -39h-111q-47 0 -47 39v127q0 39 47 39zM1162 1984h111
q47 0 47 -39v-126q0 -39 -47 -39h-111q-47 0 -47 39v126q0 39 47 39zM1162 435h111q47 0 47 -39v-127q0 -39 -47 -39h-111q-47 0 -47 39v127q0 39 47 39zM1162 656h111q47 0 47 -39v-127q0 -39 -47 -39h-111q-47 0 -47 39v127q0 39 47 39zM1162 1099h111q47 0 47 -39v-127
q0 -39 -47 -39h-111q-47 0 -47 39v127q0 39 47 39zM1162 877h111q47 0 47 -39v-126q0 -39 -47 -39h-111q-47 0 -47 39v126q0 39 47 39z" />
    <glyph glyph-name="ccedilla" unicode="&#xe7;" 
d="M1162 1763h111q47 0 47 -39v-127q0 -39 -47 -39h-111q-47 0 -47 39v127q0 39 47 39zM1162 1542h111q47 0 47 -39v-127q0 -39 -47 -39h-111q-47 0 -47 39v127q0 39 47 39zM1162 1099h111q47 0 47 -39v-127q0 -39 -47 -39h-111q-47 0 -47 39v127q0 39 47 39zM1162 877h111
q47 0 47 -39v-126q0 -39 -47 -39h-111q-47 0 -47 39v126q0 39 47 39zM1162 656h111q47 0 47 -39v-127q0 -39 -47 -39h-111q-47 0 -47 39v127q0 39 47 39zM941 1984h110q47 0 47 -39v-126q0 -39 -47 -39h-110q-47 0 -47 39v126q0 39 47 39zM941 1320h110q47 0 47 -39v-127
q0 -39 -47 -39h-110q-47 0 -47 39v127q0 39 47 39zM941 435h110q47 0 47 -39v-127q0 -39 -47 -39h-110q-47 0 -47 39v127q0 39 47 39zM720 1984h110q47 0 47 -39v-126q0 -39 -47 -39h-110q-47 0 -47 39v126q0 39 47 39zM720 1320h110q47 0 47 -39v-127q0 -39 -47 -39h-110
q-47 0 -47 39v127q0 39 47 39zM720 435h110q47 0 47 -39v-127q0 -39 -47 -39h-110q-47 0 -47 39v127q0 39 47 39zM498 1984h111q47 0 47 -39v-126q0 -39 -47 -39h-111q-47 0 -47 39v126q0 39 47 39zM498 435h111q47 0 47 -39v-127q0 -39 -47 -39h-111q-47 0 -47 39v127
q0 39 47 39zM277 1763h110q47 0 47 -39v-127q0 -39 -47 -39h-110q-47 0 -47 39v127q0 39 47 39zM277 656h110q47 0 47 -39v-127q0 -39 -47 -39h-110q-47 0 -47 39v127q0 39 47 39z" />
    <glyph glyph-name="egrave" unicode="&#xe8;" 
d="M277 435h110q47 0 47 -39v-127q0 -39 -47 -39h-110q-47 0 -47 39v127q0 39 47 39zM277 656h110q47 0 47 -39v-127q0 -39 -47 -39h-110q-47 0 -47 39v127q0 39 47 39zM277 877h110q47 0 47 -39v-126q0 -39 -47 -39h-110q-47 0 -47 39v126q0 39 47 39zM277 1099h110
q47 0 47 -39v-127q0 -39 -47 -39h-110q-47 0 -47 39v127q0 39 47 39zM277 1320h110q47 0 47 -39v-127q0 -39 -47 -39h-110q-47 0 -47 39v127q0 39 47 39zM277 1542h110q47 0 47 -39v-127q0 -39 -47 -39h-110q-47 0 -47 39v127q0 39 47 39zM277 1763h110q47 0 47 -39v-127
q0 -39 -47 -39h-110q-47 0 -47 39v127q0 39 47 39zM277 1984h110q47 0 47 -39v-126q0 -39 -47 -39h-110q-47 0 -47 39v126q0 39 47 39zM498 877h111q47 0 47 -39v-126q0 -39 -47 -39h-111q-47 0 -47 39v126q0 39 47 39zM720 1099h110q47 0 47 -39v-127q0 -39 -47 -39h-110
q-47 0 -47 39v127q0 39 47 39zM941 1320h110q47 0 47 -39v-127q0 -39 -47 -39h-110q-47 0 -47 39v127q0 39 47 39zM1162 435h111q47 0 47 -39v-127q0 -39 -47 -39h-111q-47 0 -47 39v127q0 39 47 39zM1162 656h111q47 0 47 -39v-127q0 -39 -47 -39h-111q-47 0 -47 39v127
q0 39 47 39zM1162 877h111q47 0 47 -39v-126q0 -39 -47 -39h-111q-47 0 -47 39v126q0 39 47 39zM1162 1099h111q47 0 47 -39v-127q0 -39 -47 -39h-111q-47 0 -47 39v127q0 39 47 39zM1162 1320h111q47 0 47 -39v-127q0 -39 -47 -39h-111q-47 0 -47 39v127q0 39 47 39z
M1162 1542h111q47 0 47 -39v-127q0 -39 -47 -39h-111q-47 0 -47 39v127q0 39 47 39zM1162 1763h111q47 0 47 -39v-127q0 -39 -47 -39h-111q-47 0 -47 39v127q0 39 47 39zM1162 1984h111q47 0 47 -39v-126q0 -39 -47 -39h-111q-47 0 -47 39v126q0 39 47 39z" />
    <glyph glyph-name="eacute" unicode="&#xe9;" 
d="M1162 1763h111q47 0 47 -39v-127q0 -39 -47 -39h-111q-47 0 -47 39v127q0 39 47 39zM1162 1542h111q47 0 47 -39v-127q0 -39 -47 -39h-111q-47 0 -47 39v127q0 39 47 39zM1162 1320h111q47 0 47 -39v-127q0 -39 -47 -39h-111q-47 0 -47 39v127q0 39 47 39zM1162 1099h111
q47 0 47 -39v-127q0 -39 -47 -39h-111q-47 0 -47 39v127q0 39 47 39zM1162 877h111q47 0 47 -39v-126q0 -39 -47 -39h-111q-47 0 -47 39v126q0 39 47 39zM1162 656h111q47 0 47 -39v-127q0 -39 -47 -39h-111q-47 0 -47 39v127q0 39 47 39zM1162 435h111q47 0 47 -39v-127
q0 -39 -47 -39h-111q-47 0 -47 39v127q0 39 47 39zM941 1320h110q47 0 47 -39v-127q0 -39 -47 -39h-110q-47 0 -47 39v127q0 39 47 39zM720 1099h110q47 0 47 -39v-127q0 -39 -47 -39h-110q-47 0 -47 39v127q0 39 47 39zM498 877h111q47 0 47 -39v-126q0 -39 -47 -39h-111
q-47 0 -47 39v126q0 39 47 39zM720 1984h110q47 0 47 -39v-126q0 -39 -47 -39h-110q-47 0 -47 39v126q0 39 47 39zM277 1763h110q47 0 47 -39v-127q0 -39 -47 -39h-110q-47 0 -47 39v127q0 39 47 39zM277 1542h110q47 0 47 -39v-127q0 -39 -47 -39h-110q-47 0 -47 39v127
q0 39 47 39zM277 1320h110q47 0 47 -39v-127q0 -39 -47 -39h-110q-47 0 -47 39v127q0 39 47 39zM277 1099h110q47 0 47 -39v-127q0 -39 -47 -39h-110q-47 0 -47 39v127q0 39 47 39zM277 877h110q47 0 47 -39v-126q0 -39 -47 -39h-110q-47 0 -47 39v126q0 39 47 39zM277 656
h110q47 0 47 -39v-127q0 -39 -47 -39h-110q-47 0 -47 39v127q0 39 47 39zM277 435h110q47 0 47 -39v-127q0 -39 -47 -39h-110q-47 0 -47 39v127q0 39 47 39z" />
    <glyph glyph-name="ecircumflex" unicode="&#xea;" 
d="M1162 1984h111q47 0 47 -39v-126q0 -39 -47 -39h-111q-47 0 -47 39v126q0 39 47 39zM1162 435h111q47 0 47 -39v-127q0 -39 -47 -39h-111q-47 0 -47 39v127q0 39 47 39zM1162 656h111q47 0 47 -39v-127q0 -39 -47 -39h-111q-47 0 -47 39v127q0 39 47 39zM941 1763h110
q47 0 47 -39v-127q0 -39 -47 -39h-110q-47 0 -47 39v127q0 39 47 39zM941 877h110q47 0 47 -39v-126q0 -39 -47 -39h-110q-47 0 -47 39v126q0 39 47 39zM720 1542h110q47 0 47 -39v-127q0 -39 -47 -39h-110q-47 0 -47 39v127q0 39 47 39zM720 1099h110q47 0 47 -39v-127
q0 -39 -47 -39h-110q-47 0 -47 39v127q0 39 47 39zM498 1320h111q47 0 47 -39v-127q0 -39 -47 -39h-111q-47 0 -47 39v127q0 39 47 39zM277 1984h110q47 0 47 -39v-126q0 -39 -47 -39h-110q-47 0 -47 39v126q0 39 47 39zM277 1763h110q47 0 47 -39v-127q0 -39 -47 -39h-110
q-47 0 -47 39v127q0 39 47 39zM277 1542h110q47 0 47 -39v-127q0 -39 -47 -39h-110q-47 0 -47 39v127q0 39 47 39zM277 1320h110q47 0 47 -39v-127q0 -39 -47 -39h-110q-47 0 -47 39v127q0 39 47 39zM277 1099h110q47 0 47 -39v-127q0 -39 -47 -39h-110q-47 0 -47 39v127
q0 39 47 39zM277 877h110q47 0 47 -39v-126q0 -39 -47 -39h-110q-47 0 -47 39v126q0 39 47 39zM277 656h110q47 0 47 -39v-127q0 -39 -47 -39h-110q-47 0 -47 39v127q0 39 47 39zM277 435h110q47 0 47 -39v-127q0 -39 -47 -39h-110q-47 0 -47 39v127q0 39 47 39z" />
    <glyph glyph-name="edieresis" unicode="&#xeb;" 
d="M1162 1984h111q47 0 47 -39v-126q0 -39 -47 -39h-111q-47 0 -47 39v126q0 39 47 39zM1162 1763h111q47 0 47 -39v-127q0 -39 -47 -39h-111q-47 0 -47 39v127q0 39 47 39zM1162 1542h111q47 0 47 -39v-127q0 -39 -47 -39h-111q-47 0 -47 39v127q0 39 47 39zM1162 1320h111
q47 0 47 -39v-127q0 -39 -47 -39h-111q-47 0 -47 39v127q0 39 47 39zM1162 1099h111q47 0 47 -39v-127q0 -39 -47 -39h-111q-47 0 -47 39v127q0 39 47 39zM1162 877h111q47 0 47 -39v-126q0 -39 -47 -39h-111q-47 0 -47 39v126q0 39 47 39zM1162 656h111q47 0 47 -39v-127
q0 -39 -47 -39h-111q-47 0 -47 39v127q0 39 47 39zM1162 435h111q47 0 47 -39v-127q0 -39 -47 -39h-111q-47 0 -47 39v127q0 39 47 39zM941 1984h110q47 0 47 -39v-126q0 -39 -47 -39h-110q-47 0 -47 39v126q0 39 47 39zM720 1984h110q47 0 47 -39v-126q0 -39 -47 -39h-110
q-47 0 -47 39v126q0 39 47 39zM498 1763h111q47 0 47 -39v-127q0 -39 -47 -39h-111q-47 0 -47 39v127q0 39 47 39zM277 1542h110q47 0 47 -39v-127q0 -39 -47 -39h-110q-47 0 -47 39v127q0 39 47 39zM277 1320h110q47 0 47 -39v-127q0 -39 -47 -39h-110q-47 0 -47 39v127
q0 39 47 39zM277 1099h110q47 0 47 -39v-127q0 -39 -47 -39h-110q-47 0 -47 39v127q0 39 47 39zM277 877h110q47 0 47 -39v-126q0 -39 -47 -39h-110q-47 0 -47 39v126q0 39 47 39zM277 656h110q47 0 47 -39v-127q0 -39 -47 -39h-110q-47 0 -47 39v127q0 39 47 39zM277 435
h110q47 0 47 -39v-127q0 -39 -47 -39h-110q-47 0 -47 39v127q0 39 47 39z" />
    <glyph glyph-name="igrave" unicode="&#xec;" 
d="M1384 1984h110q47 0 47 -39v-126q0 -39 -47 -39h-110q-47 0 -47 39v126q0 39 47 39zM1384 1763h110q47 0 47 -39v-127q0 -39 -47 -39h-110q-47 0 -47 39v127q0 39 47 39zM1384 1542h110q47 0 47 -39v-127q0 -39 -47 -39h-110q-47 0 -47 39v127q0 39 47 39zM1384 1320h110
q47 0 47 -39v-127q0 -39 -47 -39h-110q-47 0 -47 39v127q0 39 47 39zM1384 1099h110q47 0 47 -39v-127q0 -39 -47 -39h-110q-47 0 -47 39v127q0 39 47 39zM1384 877h110q47 0 47 -39v-126q0 -39 -47 -39h-110q-47 0 -47 39v126q0 39 47 39zM1384 656h110q47 0 47 -39v-127
q0 -39 -47 -39h-110q-47 0 -47 39v127q0 39 47 39zM1384 435h110q47 0 47 -39v-127q0 -39 -47 -39h-110q-47 0 -47 39v127q0 39 47 39zM1162 1763h111q47 0 47 -39v-127q0 -39 -47 -39h-111q-47 0 -47 39v127q0 39 47 39zM941 1542h110q47 0 47 -39v-127q0 -39 -47 -39h-110
q-47 0 -47 39v127q0 39 47 39zM720 1542h110q47 0 47 -39v-127q0 -39 -47 -39h-110q-47 0 -47 39v127q0 39 47 39zM498 1763h111q47 0 47 -39v-127q0 -39 -47 -39h-111q-47 0 -47 39v127q0 39 47 39zM277 1984h110q47 0 47 -39v-126q0 -39 -47 -39h-110q-47 0 -47 39v126
q0 39 47 39zM277 1763h110q47 0 47 -39v-127q0 -39 -47 -39h-110q-47 0 -47 39v127q0 39 47 39zM277 1542h110q47 0 47 -39v-127q0 -39 -47 -39h-110q-47 0 -47 39v127q0 39 47 39zM277 1320h110q47 0 47 -39v-127q0 -39 -47 -39h-110q-47 0 -47 39v127q0 39 47 39z
M277 1099h110q47 0 47 -39v-127q0 -39 -47 -39h-110q-47 0 -47 39v127q0 39 47 39zM277 877h110q47 0 47 -39v-126q0 -39 -47 -39h-110q-47 0 -47 39v126q0 39 47 39zM277 656h110q47 0 47 -39v-127q0 -39 -47 -39h-110q-47 0 -47 39v127q0 39 47 39zM277 435h110
q47 0 47 -39v-127q0 -39 -47 -39h-110q-47 0 -47 39v127q0 39 47 39z" />
    <glyph glyph-name="iacute" unicode="&#xed;" 
d="M1162 1985h111q47 0 47 -39v-127q0 -39 -47 -39h-111q-47 0 -47 39v127q0 39 47 39zM1162 1763h111q47 0 47 -39v-127q0 -39 -47 -39h-111q-47 0 -47 39v127q0 39 47 39zM1162 1542h111q47 0 47 -39v-127q0 -39 -47 -39h-111q-47 0 -47 39v127q0 39 47 39zM1162 1320h111
q47 0 47 -39v-126q0 -40 -47 -40h-111q-47 0 -47 40v126q0 39 47 39zM1162 1099h111q47 0 47 -39v-127q0 -39 -47 -39h-111q-47 0 -47 39v127q0 39 47 39zM1162 878h111q47 0 47 -40v-126q0 -39 -47 -39h-111q-47 0 -47 39v126q0 40 47 40zM1162 656h111q47 0 47 -39v-127
q0 -39 -47 -39h-111q-47 0 -47 39v127q0 39 47 39zM1162 435h111q47 0 47 -39v-127q0 -39 -47 -39h-111q-47 0 -47 39v127q0 39 47 39zM941 1099h111q47 0 47 -39v-127q0 -39 -47 -39h-111q-47 0 -47 39v127q0 39 47 39zM720 1099h110q47 0 47 -39v-127q0 -39 -47 -39h-110
q-47 0 -47 39v127q0 39 47 39zM498 1099h111q47 0 47 -39v-127q0 -39 -47 -39h-111q-47 0 -47 39v127q0 39 47 39zM277 1985h110q47 0 47 -39v-127q0 -39 -47 -39h-110q-47 0 -47 39v127q0 39 47 39zM277 1763h110q47 0 47 -39v-127q0 -39 -47 -39h-110q-47 0 -47 39v127
q0 39 47 39zM277 1542h110q47 0 47 -39v-127q0 -39 -47 -39h-110q-47 0 -47 39v127q0 39 47 39zM277 1320h110q47 0 47 -39v-126q0 -40 -47 -40h-110q-47 0 -47 40v126q0 39 47 39zM277 1099h110q47 0 47 -39v-127q0 -39 -47 -39h-110q-47 0 -47 39v127q0 39 47 39zM277 878
h110q47 0 47 -40v-126q0 -39 -47 -39h-110q-47 0 -47 39v126q0 40 47 40zM277 656h110q47 0 47 -39v-127q0 -39 -47 -39h-110q-47 0 -47 39v127q0 39 47 39zM277 435h110q47 0 47 -39v-127q0 -39 -47 -39h-110q-47 0 -47 39v127q0 39 47 39z" />
    <glyph glyph-name="icircumflex" unicode="&#xee;" 
d="M1162 1763h111q47 0 47 -39v-127q0 -39 -47 -39h-111q-47 0 -47 39v127q0 39 47 39zM1162 1542h111q47 0 47 -39v-127q0 -39 -47 -39h-111q-47 0 -47 39v127q0 39 47 39zM1162 1320h111q47 0 47 -39v-127q0 -39 -47 -39h-111q-47 0 -47 39v127q0 39 47 39zM1162 1099h111
q47 0 47 -39v-127q0 -39 -47 -39h-111q-47 0 -47 39v127q0 39 47 39zM1162 877h111q47 0 47 -39v-126q0 -39 -47 -39h-111q-47 0 -47 39v126q0 39 47 39zM1162 656h111q47 0 47 -39v-127q0 -39 -47 -39h-111q-47 0 -47 39v127q0 39 47 39zM941 1984h110q47 0 47 -39v-126
q0 -39 -47 -39h-110q-47 0 -47 39v126q0 39 47 39zM941 435h110q47 0 47 -39v-127q0 -39 -47 -39h-110q-47 0 -47 39v127q0 39 47 39zM720 1984h110q47 0 47 -39v-126q0 -39 -47 -39h-110q-47 0 -47 39v126q0 39 47 39zM720 435h110q47 0 47 -39v-127q0 -39 -47 -39h-110
q-47 0 -47 39v127q0 39 47 39zM498 1984h111q47 0 47 -39v-126q0 -39 -47 -39h-111q-47 0 -47 39v126q0 39 47 39zM498 435h111q47 0 47 -39v-127q0 -39 -47 -39h-111q-47 0 -47 39v127q0 39 47 39zM277 1763h110q47 0 47 -39v-127q0 -39 -47 -39h-110q-47 0 -47 39v127
q0 39 47 39zM277 1542h110q47 0 47 -39v-127q0 -39 -47 -39h-110q-47 0 -47 39v127q0 39 47 39zM277 1320h110q47 0 47 -39v-127q0 -39 -47 -39h-110q-47 0 -47 39v127q0 39 47 39zM277 1099h110q47 0 47 -39v-127q0 -39 -47 -39h-110q-47 0 -47 39v127q0 39 47 39zM277 877
h110q47 0 47 -39v-126q0 -39 -47 -39h-110q-47 0 -47 39v126q0 39 47 39zM277 656h110q47 0 47 -39v-127q0 -39 -47 -39h-110q-47 0 -47 39v127q0 39 47 39z" />
    <glyph glyph-name="idieresis" unicode="&#xef;" 
d="M1162 1984h111q47 0 47 -39v-126q0 -39 -47 -39h-111q-47 0 -47 39v126q0 39 47 39zM1162 1763h111q47 0 47 -39v-127q0 -39 -47 -39h-111q-47 0 -47 39v127q0 39 47 39zM1162 1542h111q47 0 47 -39v-127q0 -39 -47 -39h-111q-47 0 -47 39v127q0 39 47 39zM1162 1320h111
q47 0 47 -39v-127q0 -39 -47 -39h-111q-47 0 -47 39v127q0 39 47 39zM1162 1099h111q47 0 47 -39v-127q0 -39 -47 -39h-111q-47 0 -47 39v127q0 39 47 39zM1162 877h111q47 0 47 -39v-126q0 -39 -47 -39h-111q-47 0 -47 39v126q0 39 47 39zM1162 656h111q47 0 47 -39v-127
q0 -39 -47 -39h-111q-47 0 -47 39v127q0 39 47 39zM1162 435h111q47 0 47 -39v-127q0 -39 -47 -39h-111q-47 0 -47 39v127q0 39 47 39zM941 1984h110q47 0 47 -39v-126q0 -39 -47 -39h-110q-47 0 -47 39v126q0 39 47 39zM720 1984h110q47 0 47 -39v-126q0 -39 -47 -39h-110
q-47 0 -47 39v126q0 39 47 39zM498 1984h111q47 0 47 -39v-126q0 -39 -47 -39h-111q-47 0 -47 39v126q0 39 47 39zM277 1984h110q47 0 47 -39v-126q0 -39 -47 -39h-110q-47 0 -47 39v126q0 39 47 39zM277 1763h110q47 0 47 -39v-127q0 -39 -47 -39h-110q-47 0 -47 39v127
q0 39 47 39zM277 1542h110q47 0 47 -39v-127q0 -39 -47 -39h-110q-47 0 -47 39v127q0 39 47 39zM277 1320h110q47 0 47 -39v-127q0 -39 -47 -39h-110q-47 0 -47 39v127q0 39 47 39zM277 1099h110q47 0 47 -39v-127q0 -39 -47 -39h-110q-47 0 -47 39v127q0 39 47 39zM277 877
h110q47 0 47 -39v-126q0 -39 -47 -39h-110q-47 0 -47 39v126q0 39 47 39zM277 656h110q47 0 47 -39v-127q0 -39 -47 -39h-110q-47 0 -47 39v127q0 39 47 39zM277 435h110q47 0 47 -39v-127q0 -39 -47 -39h-110q-47 0 -47 39v127q0 39 47 39z" />
    <glyph glyph-name="ydieresis" unicode="&#xff;" 
d="M1162 1984h111q47 0 47 -39v-126q0 -39 -47 -39h-111q-47 0 -47 39v126q0 39 47 39zM1162 1763h111q47 0 47 -39v-127q0 -39 -47 -39h-111q-47 0 -47 39v127q0 39 47 39zM1162 1542h111q47 0 47 -39v-127q0 -39 -47 -39h-111q-47 0 -47 39v127q0 39 47 39zM1162 1320h111
q47 0 47 -39v-127q0 -39 -47 -39h-111q-47 0 -47 39v127q0 39 47 39zM1162 1099h111q47 0 47 -39v-127q0 -39 -47 -39h-111q-47 0 -47 39v127q0 39 47 39zM1162 877h111q47 0 47 -39v-126q0 -39 -47 -39h-111q-47 0 -47 39v126q0 39 47 39zM1162 656h111q47 0 47 -39v-127
q0 -39 -47 -39h-111q-47 0 -47 39v127q0 39 47 39zM1162 435h111q47 0 47 -39v-127q0 -39 -47 -39h-111q-47 0 -47 39v127q0 39 47 39zM941 1984h110q47 0 47 -39v-126q0 -39 -47 -39h-110q-47 0 -47 39v126q0 39 47 39zM941 1099h110q47 0 47 -39v-127q0 -39 -47 -39h-110
q-47 0 -47 39v127q0 39 47 39zM720 1984h110q47 0 47 -39v-126q0 -39 -47 -39h-110q-47 0 -47 39v126q0 39 47 39zM720 1099h110q47 0 47 -39v-127q0 -39 -47 -39h-110q-47 0 -47 39v127q0 39 47 39zM720 877h110q47 0 47 -39v-126q0 -39 -47 -39h-110q-47 0 -47 39v126
q0 39 47 39zM498 1984h111q47 0 47 -39v-126q0 -39 -47 -39h-111q-47 0 -47 39v126q0 39 47 39zM498 1099h111q47 0 47 -39v-127q0 -39 -47 -39h-111q-47 0 -47 39v127q0 39 47 39zM498 656h111q47 0 47 -39v-127q0 -39 -47 -39h-111q-47 0 -47 39v127q0 39 47 39zM277 1763
h110q47 0 47 -39v-127q0 -39 -47 -39h-110q-47 0 -47 39v127q0 39 47 39zM277 1542h110q47 0 47 -39v-127q0 -39 -47 -39h-110q-47 0 -47 39v127q0 39 47 39zM277 1320h110q47 0 47 -39v-127q0 -39 -47 -39h-110q-47 0 -47 39v127q0 39 47 39zM277 435h110q47 0 47 -39v-127
q0 -39 -47 -39h-110q-47 0 -47 39v127q0 39 47 39z" />
    <glyph glyph-name="udieresis" unicode="&#xfc;" 
d="M1162 1099h111q47 0 47 -39v-127q0 -39 -47 -39h-111q-47 0 -47 39v127q0 39 47 39zM1162 877h111q47 0 47 -39v-126q0 -39 -47 -39h-111q-47 0 -47 39v126q0 39 47 39zM1162 656h111q47 0 47 -39v-127q0 -39 -47 -39h-111q-47 0 -47 39v127q0 39 47 39zM941 1320h110
q47 0 47 -39v-127q0 -39 -47 -39h-110q-47 0 -47 39v127q0 39 47 39zM941 435h110q47 0 47 -39v-127q0 -39 -47 -39h-110q-47 0 -47 39v127q0 39 47 39zM720 1320h110q47 0 47 -39v-127q0 -39 -47 -39h-110q-47 0 -47 39v127q0 39 47 39zM720 435h110q47 0 47 -39v-127
q0 -39 -47 -39h-110q-47 0 -47 39v127q0 39 47 39zM498 1320h111q47 0 47 -39v-127q0 -39 -47 -39h-111q-47 0 -47 39v127q0 39 47 39zM498 435h111q47 0 47 -39v-127q0 -39 -47 -39h-111q-47 0 -47 39v127q0 39 47 39zM277 1984h110q47 0 47 -39v-126q0 -39 -47 -39h-110
q-47 0 -47 39v126q0 39 47 39zM277 1763h110q47 0 47 -39v-127q0 -39 -47 -39h-110q-47 0 -47 39v127q0 39 47 39zM277 1542h110q47 0 47 -39v-127q0 -39 -47 -39h-110q-47 0 -47 39v127q0 39 47 39zM277 1320h110q47 0 47 -39v-127q0 -39 -47 -39h-110q-47 0 -47 39v127
q0 39 47 39zM277 1099h110q47 0 47 -39v-127q0 -39 -47 -39h-110q-47 0 -47 39v127q0 39 47 39zM277 877h110q47 0 47 -39v-126q0 -39 -47 -39h-110q-47 0 -47 39v126q0 39 47 39zM277 656h110q47 0 47 -39v-127q0 -39 -47 -39h-110q-47 0 -47 39v127q0 39 47 39zM277 435
h110q47 0 47 -39v-127q0 -39 -47 -39h-110q-47 0 -47 39v127q0 39 47 39z" />
    <glyph glyph-name="ucircumflex" unicode="&#xfb;" 
d="M941 1099h110q47 0 47 -39v-127q0 -39 -47 -39h-110q-47 0 -47 39v127q0 39 47 39zM941 877h110q47 0 47 -39v-126q0 -39 -47 -39h-110q-47 0 -47 39v126q0 39 47 39zM941 656h110q47 0 47 -39v-127q0 -39 -47 -39h-110q-47 0 -47 39v127q0 39 47 39zM720 1320h110
q47 0 47 -39v-127q0 -39 -47 -39h-110q-47 0 -47 39v127q0 39 47 39zM720 435h110q47 0 47 -39v-127q0 -39 -47 -39h-110q-47 0 -47 39v127q0 39 47 39zM498 1320h111q47 0 47 -39v-127q0 -39 -47 -39h-111q-47 0 -47 39v127q0 39 47 39zM498 435h111q47 0 47 -39v-127
q0 -39 -47 -39h-111q-47 0 -47 39v127q0 39 47 39zM277 1984h110q47 0 47 -39v-126q0 -39 -47 -39h-110q-47 0 -47 39v126q0 39 47 39zM1384 1984h110q47 0 47 -39v-126q0 -39 -47 -39h-110q-47 0 -47 39v126q0 39 47 39zM277 1763h110q47 0 47 -39v-127q0 -39 -47 -39h-110
q-47 0 -47 39v127q0 39 47 39zM1384 1763h110q47 0 47 -39v-127q0 -39 -47 -39h-110q-47 0 -47 39v127q0 39 47 39zM277 1542h110q47 0 47 -39v-127q0 -39 -47 -39h-110q-47 0 -47 39v127q0 39 47 39zM1384 1542h110q47 0 47 -39v-127q0 -39 -47 -39h-110q-47 0 -47 39v127
q0 39 47 39zM277 1320h110q47 0 47 -39v-127q0 -39 -47 -39h-110q-47 0 -47 39v127q0 39 47 39zM1384 1320h110q47 0 47 -39v-127q0 -39 -47 -39h-110q-47 0 -47 39v127q0 39 47 39zM277 1099h110q47 0 47 -39v-127q0 -39 -47 -39h-110q-47 0 -47 39v127q0 39 47 39z
M1384 1099h110q47 0 47 -39v-127q0 -39 -47 -39h-110q-47 0 -47 39v127q0 39 47 39zM277 877h110q47 0 47 -39v-126q0 -39 -47 -39h-110q-47 0 -47 39v126q0 39 47 39zM1384 877h110q47 0 47 -39v-126q0 -39 -47 -39h-110q-47 0 -47 39v126q0 39 47 39zM277 656h110
q47 0 47 -39v-127q0 -39 -47 -39h-110q-47 0 -47 39v127q0 39 47 39zM1384 656h110q47 0 47 -39v-127q0 -39 -47 -39h-110q-47 0 -47 39v127q0 39 47 39zM277 435h110q47 0 47 -39v-127q0 -39 -47 -39h-110q-47 0 -47 39v127q0 39 47 39zM1384 435h110q47 0 47 -39v-127
q0 -39 -47 -39h-110q-47 0 -47 39v127q0 39 47 39z" />
    <glyph glyph-name="uacute" unicode="&#xfa;" 
d="M277 435h110q47 0 47 -39v-127q0 -39 -47 -39h-110q-47 0 -47 39v127q0 39 47 39zM277 656h110q47 0 47 -39v-127q0 -39 -47 -39h-110q-47 0 -47 39v127q0 39 47 39zM277 877h110q47 0 47 -39v-126q0 -39 -47 -39h-110q-47 0 -47 39v126q0 39 47 39zM277 1099h110
q47 0 47 -39v-127q0 -39 -47 -39h-110q-47 0 -47 39v127q0 39 47 39zM277 1320h110q47 0 47 -39v-127q0 -39 -47 -39h-110q-47 0 -47 39v127q0 39 47 39zM277 1542h110q47 0 47 -39v-127q0 -39 -47 -39h-110q-47 0 -47 39v127q0 39 47 39zM277 1763h110q47 0 47 -39v-127
q0 -39 -47 -39h-110q-47 0 -47 39v127q0 39 47 39zM277 1984h110q47 0 47 -39v-126q0 -39 -47 -39h-110q-47 0 -47 39v126q0 39 47 39zM55 1984h111q47 0 47 -39v-126q0 -39 -47 -39h-111q-47 0 -47 39v126q0 39 47 39zM498 435h111q47 0 47 -39v-127q0 -39 -47 -39h-111
q-47 0 -47 39v127q0 39 47 39zM498 1320h111q47 0 47 -39v-127q0 -39 -47 -39h-111q-47 0 -47 39v127q0 39 47 39zM720 435h110q47 0 47 -39v-127q0 -39 -47 -39h-110q-47 0 -47 39v127q0 39 47 39zM720 1320h110q47 0 47 -39v-127q0 -39 -47 -39h-110q-47 0 -47 39v127
q0 39 47 39zM941 435h110q47 0 47 -39v-127q0 -39 -47 -39h-110q-47 0 -47 39v127q0 39 47 39zM941 1320h110q47 0 47 -39v-127q0 -39 -47 -39h-110q-47 0 -47 39v127q0 39 47 39zM1162 656h111q47 0 47 -39v-127q0 -39 -47 -39h-111q-47 0 -47 39v127q0 39 47 39zM1162 877
h111q47 0 47 -39v-126q0 -39 -47 -39h-111q-47 0 -47 39v126q0 39 47 39zM1162 1099h111q47 0 47 -39v-127q0 -39 -47 -39h-111q-47 0 -47 39v127q0 39 47 39z" />
    <glyph glyph-name="ampersand" unicode="&#x26;" 
d="M1384 877h110q47 0 47 -39v-126q0 -39 -47 -39h-110q-47 0 -47 39v126q0 39 47 39zM1384 435h110q47 0 47 -39v-127q0 -39 -47 -39h-110q-47 0 -47 39v127q0 39 47 39zM1162 656h111q47 0 47 -39v-127q0 -39 -47 -39h-111q-47 0 -47 39v127q0 39 47 39zM941 1763h110
q47 0 47 -39v-127q0 -39 -47 -39h-110q-47 0 -47 39v127q0 39 47 39zM941 1542h110q47 0 47 -39v-127q0 -39 -47 -39h-110q-47 0 -47 39v127q0 39 47 39zM941 877h110q47 0 47 -39v-126q0 -39 -47 -39h-110q-47 0 -47 39v126q0 39 47 39zM941 435h110q47 0 47 -39v-127
q0 -39 -47 -39h-110q-47 0 -47 39v127q0 39 47 39zM720 1984h110q47 0 47 -39v-126q0 -39 -47 -39h-110q-47 0 -47 39v126q0 39 47 39zM720 1320h110q47 0 47 -39v-127q0 -39 -47 -39h-110q-47 0 -47 39v127q0 39 47 39zM720 1099h110q47 0 47 -39v-127q0 -39 -47 -39h-110
q-47 0 -47 39v127q0 39 47 39zM720 435h110q47 0 47 -39v-127q0 -39 -47 -39h-110q-47 0 -47 39v127q0 39 47 39zM498 1984h111q47 0 47 -39v-126q0 -39 -47 -39h-111q-47 0 -47 39v126q0 39 47 39zM498 1320h111q47 0 47 -39v-127q0 -39 -47 -39h-111q-47 0 -47 39v127
q0 39 47 39zM498 435h111q47 0 47 -39v-127q0 -39 -47 -39h-111q-47 0 -47 39v127q0 39 47 39zM277 1763h110q47 0 47 -39v-127q0 -39 -47 -39h-110q-47 0 -47 39v127q0 39 47 39zM277 1542h110q47 0 47 -39v-127q0 -39 -47 -39h-110q-47 0 -47 39v127q0 39 47 39zM277 1099
h110q47 0 47 -39v-127q0 -39 -47 -39h-110q-47 0 -47 39v127q0 39 47 39zM277 877h110q47 0 47 -39v-126q0 -39 -47 -39h-110q-47 0 -47 39v126q0 39 47 39zM277 656h110q47 0 47 -39v-127q0 -39 -47 -39h-110q-47 0 -47 39v127q0 39 47 39z" />
    <glyph glyph-name="bar" unicode="|" 
d="M720 1984h110q47 0 47 -39v-126q0 -39 -47 -39h-110q-47 0 -47 39v126q0 39 47 39zM720 1763h110q47 0 47 -39v-127q0 -39 -47 -39h-110q-47 0 -47 39v127q0 39 47 39zM720 1542h110q47 0 47 -39v-127q0 -39 -47 -39h-110q-47 0 -47 39v127q0 39 47 39zM720 1320h110
q47 0 47 -39v-127q0 -39 -47 -39h-110q-47 0 -47 39v127q0 39 47 39zM720 1099h110q47 0 47 -39v-127q0 -39 -47 -39h-110q-47 0 -47 39v127q0 39 47 39zM720 877h110q47 0 47 -39v-126q0 -39 -47 -39h-110q-47 0 -47 39v126q0 39 47 39zM720 656h110q47 0 47 -39v-127
q0 -39 -47 -39h-110q-47 0 -47 39v127q0 39 47 39zM720 435h110q47 0 47 -39v-127q0 -39 -47 -39h-110q-47 0 -47 39v127q0 39 47 39z" />
    <glyph glyph-name="question" unicode="?" 
d="M1162 1763h111q47 0 47 -39v-127q0 -39 -47 -39h-111q-47 0 -47 39v127q0 39 47 39zM1162 1542h111q47 0 47 -39v-127q0 -39 -47 -39h-111q-47 0 -47 39v127q0 39 47 39zM941 1984h110q47 0 47 -39v-126q0 -39 -47 -39h-110q-47 0 -47 39v126q0 39 47 39zM941 1320h110
q47 0 47 -39v-127q0 -39 -47 -39h-110q-47 0 -47 39v127q0 39 47 39zM720 1984h110q47 0 47 -39v-126q0 -39 -47 -39h-110q-47 0 -47 39v126q0 39 47 39zM720 1099h110q47 0 47 -39v-127q0 -39 -47 -39h-110q-47 0 -47 39v127q0 39 47 39zM720 877h110q47 0 47 -39v-126
q0 -39 -47 -39h-110q-47 0 -47 39v126q0 39 47 39zM720 435h110q47 0 47 -39v-127q0 -39 -47 -39h-110q-47 0 -47 39v127q0 39 47 39zM498 1984h111q47 0 47 -39v-126q0 -39 -47 -39h-111q-47 0 -47 39v126q0 39 47 39zM277 1763h110q47 0 47 -39v-127q0 -39 -47 -39h-110
q-47 0 -47 39v127q0 39 47 39zM277 1542h110q47 0 47 -39v-127q0 -39 -47 -39h-110q-47 0 -47 39v127q0 39 47 39z" />
    <glyph glyph-name="at" unicode="@" 
d="M1162 1763h111q47 0 47 -39v-127q0 -39 -47 -39h-111q-47 0 -47 39v127q0 39 47 39zM1162 1542h111q47 0 47 -39v-127q0 -39 -47 -39h-111q-47 0 -47 39v127q0 39 47 39zM1162 1320h111q47 0 47 -39v-127q0 -39 -47 -39h-111q-47 0 -47 39v127q0 39 47 39zM1162 1099h111
q47 0 47 -39v-127q0 -39 -47 -39h-111q-47 0 -47 39v127q0 39 47 39zM1162 877h111q47 0 47 -39v-126q0 -39 -47 -39h-111q-47 0 -47 39v126q0 39 47 39zM1162 435h111q47 0 47 -39v-127q0 -39 -47 -39h-111q-47 0 -47 39v127q0 39 47 39zM941 1984h110q47 0 47 -39v-126
q0 -39 -47 -39h-110q-47 0 -47 39v126q0 39 47 39zM941 1542h110q47 0 47 -39v-127q0 -39 -47 -39h-110q-47 0 -47 39v127q0 39 47 39zM720 1099h110q47 0 47 -39v-127q0 -39 -47 -39h-110q-47 0 -47 39v127q0 39 47 39zM941 877h110q47 0 47 -39v-126q0 -39 -47 -39h-110
q-47 0 -47 39v126q0 39 47 39zM941 435h110q47 0 47 -39v-127q0 -39 -47 -39h-110q-47 0 -47 39v127q0 39 47 39zM720 1984h110q47 0 47 -39v-126q0 -39 -47 -39h-110q-47 0 -47 39v126q0 39 47 39zM720 1320h110q47 0 47 -39v-127q0 -39 -47 -39h-110q-47 0 -47 39v127
q0 39 47 39zM720 435h110q47 0 47 -39v-127q0 -39 -47 -39h-110q-47 0 -47 39v127q0 39 47 39zM498 1984h111q47 0 47 -39v-126q0 -39 -47 -39h-111q-47 0 -47 39v126q0 39 47 39zM498 435h111q47 0 47 -39v-127q0 -39 -47 -39h-111q-47 0 -47 39v127q0 39 47 39zM277 1763
h110q47 0 47 -39v-127q0 -39 -47 -39h-110q-47 0 -47 39v127q0 39 47 39zM277 1542h110q47 0 47 -39v-127q0 -39 -47 -39h-110q-47 0 -47 39v127q0 39 47 39zM277 1320h110q47 0 47 -39v-127q0 -39 -47 -39h-110q-47 0 -47 39v127q0 39 47 39zM277 1099h110q47 0 47 -39
v-127q0 -39 -47 -39h-110q-47 0 -47 39v127q0 39 47 39zM277 877h110q47 0 47 -39v-126q0 -39 -47 -39h-110q-47 0 -47 39v126q0 39 47 39zM277 656h110q47 0 47 -39v-127q0 -39 -47 -39h-110q-47 0 -47 39v127q0 39 47 39z" />
    <glyph glyph-name="asterisk" unicode="*" 
d="M1162 1542h111q47 0 47 -39v-127q0 -39 -47 -39h-111q-47 0 -47 39v127q0 39 47 39zM1162 656h111q47 0 47 -39v-127q0 -39 -47 -39h-111q-47 0 -47 39v127q0 39 47 39zM941 1320h110q47 0 47 -39v-127q0 -39 -47 -39h-110q-47 0 -47 39v127q0 39 47 39zM941 877h110
q47 0 47 -39v-126q0 -39 -47 -39h-110q-47 0 -47 39v126q0 39 47 39zM720 1542h110q47 0 47 -39v-127q0 -39 -47 -39h-110q-47 0 -47 39v127q0 39 47 39zM720 1320h110q47 0 47 -39v-127q0 -39 -47 -39h-110q-47 0 -47 39v127q0 39 47 39zM720 1099h110q47 0 47 -39v-127
q0 -39 -47 -39h-110q-47 0 -47 39v127q0 39 47 39zM720 877h110q47 0 47 -39v-126q0 -39 -47 -39h-110q-47 0 -47 39v126q0 39 47 39zM720 656h110q47 0 47 -39v-127q0 -39 -47 -39h-110q-47 0 -47 39v127q0 39 47 39zM498 1320h111q47 0 47 -39v-127q0 -39 -47 -39h-111
q-47 0 -47 39v127q0 39 47 39zM498 877h111q47 0 47 -39v-126q0 -39 -47 -39h-111q-47 0 -47 39v126q0 39 47 39zM277 1542h110q47 0 47 -39v-127q0 -39 -47 -39h-110q-47 0 -47 39v127q0 39 47 39zM277 656h110q47 0 47 -39v-127q0 -39 -47 -39h-110q-47 0 -47 39v127
q0 39 47 39z" />
    <glyph glyph-name="asciicircum" unicode="^" 
d="M1162 1542h111q47 0 47 -39v-127q0 -39 -47 -39h-111q-47 0 -47 39v127q0 39 47 39zM941 1763h110q47 0 47 -39v-127q0 -39 -47 -39h-110q-47 0 -47 39v127q0 39 47 39zM720 1984h110q47 0 47 -39v-126q0 -39 -47 -39h-110q-47 0 -47 39v126q0 39 47 39zM498 1763h111
q47 0 47 -39v-127q0 -39 -47 -39h-111q-47 0 -47 39v127q0 39 47 39zM277 1542h110q47 0 47 -39v-127q0 -39 -47 -39h-110q-47 0 -47 39v127q0 39 47 39z" />
    <glyph glyph-name="grave" unicode="`" 
d="M720 1984h110q47 0 47 -39v-126q0 -39 -47 -39h-110q-47 0 -47 39v126q0 39 47 39zM941 1763h110q47 0 47 -39v-127q0 -39 -47 -39h-110q-47 0 -47 39v127q0 39 47 39zM1162 1542h111q47 0 47 -39v-127q0 -39 -47 -39h-111q-47 0 -47 39v127q0 39 47 39z" />
    <glyph glyph-name="quotesingle" unicode="'" 
d="M387 1542q47 0 47 -39v-127q0 -39 -47 -39h-110q-47 0 -47 39v127q0 39 47 39h110zM609 1763q47 0 47 -39v-127q0 -39 -47 -39h-111q-47 0 -47 39v127q0 39 47 39h111zM609 1984q47 0 47 -39v-126q0 -39 -47 -39h-111q-47 0 -47 39v126q0 39 47 39h111z" />
    <glyph glyph-name="FL00B8h" unicode="&#xb8;" 
d="M1162 1542h111q47 0 47 -39v-127q0 -39 -47 -39h-111q-47 0 -47 39v127q0 39 47 39zM1162 435h111q47 0 47 -39v-127q0 -39 -47 -39h-111q-47 0 -47 39v127q0 39 47 39zM941 1984h110q47 0 47 -39v-126q0 -39 -47 -39h-110q-47 0 -47 39v126q0 39 47 39zM941 1542h110
q47 0 47 -39v-127q0 -39 -47 -39h-110q-47 0 -47 39v127q0 39 47 39zM941 877h110q47 0 47 -39v-126q0 -39 -47 -39h-110q-47 0 -47 39v126q0 39 47 39zM941 435h110q47 0 47 -39v-127q0 -39 -47 -39h-110q-47 0 -47 39v127q0 39 47 39zM720 1542h110q47 0 47 -39v-127
q0 -39 -47 -39h-110q-47 0 -47 39v127q0 39 47 39zM720 877h110q47 0 47 -39v-126q0 -39 -47 -39h-110q-47 0 -47 39v126q0 39 47 39zM720 435h110q47 0 47 -39v-127q0 -39 -47 -39h-110q-47 0 -47 39v127q0 39 47 39zM498 1984h111q47 0 47 -39v-126q0 -39 -47 -39h-111
q-47 0 -47 39v126q0 39 47 39zM498 1542h111q47 0 47 -39v-127q0 -39 -47 -39h-111q-47 0 -47 39v127q0 39 47 39zM498 877h111q47 0 47 -39v-126q0 -39 -47 -39h-111q-47 0 -47 39v126q0 39 47 39zM498 435h111q47 0 47 -39v-127q0 -39 -47 -39h-111q-47 0 -47 39v127
q0 39 47 39zM277 1542h110q47 0 47 -39v-127q0 -39 -47 -39h-110q-47 0 -47 39v127q0 39 47 39zM277 1320h110q47 0 47 -39v-127q0 -39 -47 -39h-110q-47 0 -47 39v127q0 39 47 39zM277 1099h110q47 0 47 -39v-127q0 -39 -47 -39h-110q-47 0 -47 39v127q0 39 47 39zM277 877
h110q47 0 47 -39v-126q0 -39 -47 -39h-110q-47 0 -47 39v126q0 39 47 39zM277 656h110q47 0 47 -39v-127q0 -39 -47 -39h-110q-47 0 -47 39v127q0 39 47 39zM277 435h110q47 0 47 -39v-127q0 -39 -47 -39h-110q-47 0 -47 39v127q0 39 47 39z" />
    <glyph glyph-name="three" unicode="3" 
d="M1162 1984h111q47 0 47 -39v-126q0 -39 -47 -39h-111q-47 0 -47 39v126q0 39 47 39zM1162 1099h111q47 0 47 -39v-127q0 -39 -47 -39h-111q-47 0 -47 39v127q0 39 47 39zM1162 877h111q47 0 47 -39v-126q0 -39 -47 -39h-111q-47 0 -47 39v126q0 39 47 39zM1162 656h111
q47 0 47 -39v-127q0 -39 -47 -39h-111q-47 0 -47 39v127q0 39 47 39zM941 1984h110q47 0 47 -39v-126q0 -39 -47 -39h-110q-47 0 -47 39v126q0 39 47 39zM941 1763h110q47 0 47 -39v-127q0 -39 -47 -39h-110q-47 0 -47 39v127q0 39 47 39zM941 1320h110q47 0 47 -39v-127
q0 -39 -47 -39h-110q-47 0 -47 39v127q0 39 47 39zM941 435h110q47 0 47 -39v-127q0 -39 -47 -39h-110q-47 0 -47 39v127q0 39 47 39zM720 1984h110q47 0 47 -39v-126q0 -39 -47 -39h-110q-47 0 -47 39v126q0 39 47 39zM720 1542h110q47 0 47 -39v-127q0 -39 -47 -39h-110
q-47 0 -47 39v127q0 39 47 39zM720 1320h110q47 0 47 -39v-127q0 -39 -47 -39h-110q-47 0 -47 39v127q0 39 47 39zM720 435h110q47 0 47 -39v-127q0 -39 -47 -39h-110q-47 0 -47 39v127q0 39 47 39zM498 1984h111q47 0 47 -39v-126q0 -39 -47 -39h-111q-47 0 -47 39v126
q0 39 47 39zM498 1320h111q47 0 47 -39v-127q0 -39 -47 -39h-111q-47 0 -47 39v127q0 39 47 39zM498 435h111q47 0 47 -39v-127q0 -39 -47 -39h-111q-47 0 -47 39v127q0 39 47 39zM277 1984h110q47 0 47 -39v-126q0 -39 -47 -39h-110q-47 0 -47 39v126q0 39 47 39zM277 1763
h110q47 0 47 -39v-127q0 -39 -47 -39h-110q-47 0 -47 39v127q0 39 47 39zM277 656h110q47 0 47 -39v-127q0 -39 -47 -39h-110q-47 0 -47 39v127q0 39 47 39z" />
    <glyph glyph-name="one" unicode="1" 
d="M1162 435h111q47 0 47 -39v-127q0 -39 -47 -39h-111q-47 0 -47 39v127q0 39 47 39zM941 435h110q47 0 47 -39v-127q0 -39 -47 -39h-110q-47 0 -47 39v127q0 39 47 39zM720 1984h110q47 0 47 -39v-126q0 -39 -47 -39h-110q-47 0 -47 39v126q0 39 47 39zM720 1763h110
q47 0 47 -39v-127q0 -39 -47 -39h-110q-47 0 -47 39v127q0 39 47 39zM720 1542h110q47 0 47 -39v-127q0 -39 -47 -39h-110q-47 0 -47 39v127q0 39 47 39zM720 1320h110q47 0 47 -39v-127q0 -39 -47 -39h-110q-47 0 -47 39v127q0 39 47 39zM720 1099h110q47 0 47 -39v-127
q0 -39 -47 -39h-110q-47 0 -47 39v127q0 39 47 39zM720 877h110q47 0 47 -39v-126q0 -39 -47 -39h-110q-47 0 -47 39v126q0 39 47 39zM720 656h110q47 0 47 -39v-127q0 -39 -47 -39h-110q-47 0 -47 39v127q0 39 47 39zM720 435h110q47 0 47 -39v-127q0 -39 -47 -39h-110
q-47 0 -47 39v127q0 39 47 39zM498 1763h111q47 0 47 -39v-127q0 -39 -47 -39h-111q-47 0 -47 39v127q0 39 47 39zM498 435h111q47 0 47 -39v-127q0 -39 -47 -39h-111q-47 0 -47 39v127q0 39 47 39zM277 1542h110q47 0 47 -39v-127q0 -39 -47 -39h-110q-47 0 -47 39v127
q0 39 47 39zM277 435h110q47 0 47 -39v-127q0 -39 -47 -39h-110q-47 0 -47 39v127q0 39 47 39z" />
    <glyph glyph-name="two" unicode="2" 
d="M1162 1763h111q47 0 47 -39v-127q0 -39 -47 -39h-111q-47 0 -47 39v127q0 39 47 39zM1162 1542h111q47 0 47 -39v-127q0 -39 -47 -39h-111q-47 0 -47 39v127q0 39 47 39zM1162 656h111q47 0 47 -39v-127q0 -39 -47 -39h-111q-47 0 -47 39v127q0 39 47 39zM1162 1320h111
q47 0 47 -39v-127q0 -39 -47 -39h-111q-47 0 -47 39v127q0 39 47 39zM1162 435h111q47 0 47 -39v-127q0 -39 -47 -39h-111q-47 0 -47 39v127q0 39 47 39zM941 1984h110q47 0 47 -39v-126q0 -39 -47 -39h-110q-47 0 -47 39v126q0 39 47 39zM941 435h110q47 0 47 -39v-127
q0 -39 -47 -39h-110q-47 0 -47 39v127q0 39 47 39zM941 1099h110q47 0 47 -39v-127q0 -39 -47 -39h-110q-47 0 -47 39v127q0 39 47 39zM720 1984h110q47 0 47 -39v-126q0 -39 -47 -39h-110q-47 0 -47 39v126q0 39 47 39zM720 435h110q47 0 47 -39v-127q0 -39 -47 -39h-110
q-47 0 -47 39v127q0 39 47 39zM720 1099h110q47 0 47 -39v-127q0 -39 -47 -39h-110q-47 0 -47 39v127q0 39 47 39zM498 1984h111q47 0 47 -39v-126q0 -39 -47 -39h-111q-47 0 -47 39v126q0 39 47 39zM498 435h111q47 0 47 -39v-127q0 -39 -47 -39h-111q-47 0 -47 39v127
q0 39 47 39zM498 1099h111q47 0 47 -39v-127q0 -39 -47 -39h-111q-47 0 -47 39v127q0 39 47 39zM277 1763h110q47 0 47 -39v-127q0 -39 -47 -39h-110q-47 0 -47 39v127q0 39 47 39zM277 1542h110q47 0 47 -39v-127q0 -39 -47 -39h-110q-47 0 -47 39v127q0 39 47 39zM277 656
h110q47 0 47 -39v-127q0 -39 -47 -39h-110q-47 0 -47 39v127q0 39 47 39zM277 877h110q47 0 47 -39v-126q0 -39 -47 -39h-110q-47 0 -47 39v126q0 39 47 39zM277 435h110q47 0 47 -39v-127q0 -39 -47 -39h-110q-47 0 -47 39v127q0 39 47 39z" />
    <glyph glyph-name="Eth" unicode="&#xd0;" 
d="M277 435h110q47 0 47 -39v-127q0 -39 -47 -39h-110q-47 0 -47 39v127q0 39 47 39zM277 656h110q47 0 47 -39v-127q0 -39 -47 -39h-110q-47 0 -47 39v127q0 39 47 39zM277 877h110q47 0 47 -39v-126q0 -39 -47 -39h-110q-47 0 -47 39v126q0 39 47 39zM277 1099h110
q47 0 47 -39v-127q0 -39 -47 -39h-110q-47 0 -47 39v127q0 39 47 39zM277 1320h110q47 0 47 -39v-127q0 -39 -47 -39h-110q-47 0 -47 39v127q0 39 47 39zM277 1542h110q47 0 47 -39v-127q0 -39 -47 -39h-110q-47 0 -47 39v127q0 39 47 39zM277 1763h110q47 0 47 -39v-127
q0 -39 -47 -39h-110q-47 0 -47 39v127q0 39 47 39zM277 1984h110q47 0 47 -39v-126q0 -39 -47 -39h-110q-47 0 -47 39v126q0 39 47 39zM498 1099h111q47 0 47 -39v-127q0 -39 -47 -39h-111q-47 0 -47 39v127q0 39 47 39zM498 1984h111q47 0 47 -39v-126q0 -39 -47 -39h-111
q-47 0 -47 39v126q0 39 47 39zM720 1099h110q47 0 47 -39v-127q0 -39 -47 -39h-110q-47 0 -47 39v127q0 39 47 39zM720 1984h110q47 0 47 -39v-126q0 -39 -47 -39h-110q-47 0 -47 39v126q0 39 47 39zM941 1099h110q47 0 47 -39v-127q0 -39 -47 -39h-110q-47 0 -47 39v127
q0 39 47 39zM941 1984h110q47 0 47 -39v-126q0 -39 -47 -39h-110q-47 0 -47 39v126q0 39 47 39zM1162 1320h111q47 0 47 -39v-127q0 -39 -47 -39h-111q-47 0 -47 39v127q0 39 47 39zM1162 1542h111q47 0 47 -39v-127q0 -39 -47 -39h-111q-47 0 -47 39v127q0 39 47 39z
M1162 1763h111q47 0 47 -39v-127q0 -39 -47 -39h-111q-47 0 -47 39v127q0 39 47 39z" />
    </font>
</defs>
</svg>
