<?xml version="1.0" standalone="no"?>
<!DOCTYPE svg PUBLIC "-//W3C//DTD SVG 1.1//EN" "http://www.w3.org/Graphics/SVG/1.1/DTD/svg11.dtd" >
<svg xmlns="http://www.w3.org/2000/svg" xmlns:xlink="http://www.w3.org/1999/xlink" version="1.1">
<metadata>
Created by FontForge 20170910 at Fri Jan  1 01:00:00 1904
 By Jimmy Wärting
</metadata>
<defs>
<font id="Epson1" horiz-adv-x="1331" >
  <font-face 
    font-family="Epson1"
    font-weight="400"
    font-stretch="normal"
    units-per-em="2048"
    panose-1="2 11 5 0 0 0 0 0 0 0"
    ascent="1638"
    descent="-410"
    x-height="1466"
    cap-height="1839"
    bbox="23 0 1466 1839"
    underline-thickness="0"
    underline-position="0"
    unicode-range="U+0020-2219"
  />
<missing-glyph horiz-adv-x="1536" 
d="M256 0v1280h1024v-1280h-1024zM1248 32v1216h-960v-1216h960z" />
    <glyph glyph-name=".notdef" horiz-adv-x="1536" 
d="M256 0v1280h1024v-1280h-1024zM1248 32v1216h-960v-1216h960z" />
    <glyph glyph-name=".null" horiz-adv-x="0" 
 />
    <glyph glyph-name="nonmarkingreturn" horiz-adv-x="2048" 
 />
    <glyph glyph-name="space" unicode=" " 
 />
    <glyph glyph-name="one" unicode="1" 
d="M559 722q69 0 69 -70t-69 -70q-70 0 -70 70t70 70zM745 722q70 0 70 -70t-70 -70t-70 70t70 70zM931 722q70 0 70 -70t-70 -70t-70 70t70 70zM745 908q70 0 70 -70t-70 -70t-70 70t70 70zM745 1094q70 0 70 -70t-70 -70t-70 70t70 70zM745 1280q70 0 70 -70t-70 -70
t-70 70t70 70zM745 1466q70 0 70 -70t-70 -70t-70 70t70 70zM559 1652q69 0 69 -70q0 -69 -69 -69q-70 0 -70 69q0 70 70 70zM745 1652q70 0 70 -70q0 -69 -70 -69t-70 69q0 70 70 70zM745 1839q70 0 70 -70t-70 -70t-70 70t70 70z" />
    <glyph glyph-name="zero" unicode="0" 
d="M466 722q69 0 69 -70t-69 -70q-70 0 -70 70t70 70zM652 722q70 0 70 -70t-70 -70t-70 70t70 70zM838 722q70 0 70 -70t-70 -70t-70 70t70 70zM1024 722q70 0 70 -70t-70 -70t-70 70t70 70zM373 908q69 0 69 -70t-69 -70q-70 0 -70 70t70 70zM1210 908q70 0 70 -70
t-70 -70t-70 70t70 70zM279 1094q70 0 70 -70t-70 -70t-70 70t70 70zM559 1094q69 0 69 -70t-69 -70q-70 0 -70 70t70 70zM1210 1094q70 0 70 -70t-70 -70t-70 70t70 70zM279 1280q70 0 70 -70t-70 -70t-70 70t70 70zM745 1280q70 0 70 -70t-70 -70t-70 70t70 70zM1210 1280
q70 0 70 -70t-70 -70t-70 70t70 70zM279 1466q70 0 70 -70t-70 -70t-70 70t70 70zM931 1466q70 0 70 -70t-70 -70t-70 70t70 70zM1210 1466q70 0 70 -70t-70 -70t-70 70t70 70zM373 1652q69 0 69 -70q0 -69 -69 -69q-70 0 -70 69q0 70 70 70zM1117 1652q70 0 70 -70
q0 -69 -70 -69t-70 69q0 70 70 70zM466 1839q69 0 69 -70t-69 -70q-70 0 -70 70t70 70zM652 1839q70 0 70 -70t-70 -70t-70 70t70 70zM838 1839q70 0 70 -70t-70 -70t-70 70t70 70zM1024 1839q70 0 70 -70t-70 -70t-70 70t70 70z" />
    <glyph glyph-name="two" unicode="2" 
d="M279 722q70 0 70 -70t-70 -70t-70 70t70 70zM466 722q69 0 69 -70t-69 -70q-70 0 -70 70t70 70zM652 722q70 0 70 -70t-70 -70t-70 70t70 70zM838 722q70 0 70 -70t-70 -70t-70 70t70 70zM1024 722q70 0 70 -70t-70 -70t-70 70t70 70zM466 908q69 0 69 -70t-69 -70
q-70 0 -70 70t70 70zM652 1094q70 0 70 -70t-70 -70t-70 70t70 70zM838 1280q70 0 70 -70t-70 -70t-70 70t70 70zM1024 1466q70 0 70 -70t-70 -70t-70 70t70 70zM279 1652q70 0 70 -70q0 -69 -70 -69t-70 69q0 70 70 70zM1024 1652q70 0 70 -70q0 -69 -70 -69t-70 69
q0 70 70 70zM373 1839q69 0 69 -70t-69 -70q-70 0 -70 70t70 70zM559 1839q69 0 69 -70t-69 -70q-70 0 -70 70t70 70zM745 1839q70 0 70 -70t-70 -70t-70 70t70 70zM931 1839q70 0 70 -70t-70 -70t-70 70t70 70z" />
    <glyph glyph-name="three" unicode="3" 
d="M373 722q69 0 69 -70t-69 -70q-70 0 -70 70t70 70zM559 722q69 0 69 -70t-69 -70q-70 0 -70 70t70 70zM745 722q70 0 70 -70t-70 -70t-70 70t70 70zM931 722q70 0 70 -70t-70 -70t-70 70t70 70zM279 908q70 0 70 -70t-70 -70t-70 70t70 70zM1024 908q70 0 70 -70t-70 -70
t-70 70t70 70zM1024 1094q70 0 70 -70t-70 -70t-70 70t70 70zM838 1280q70 0 70 -70t-70 -70t-70 70t70 70zM652 1466q70 0 70 -70t-70 -70t-70 70t70 70zM838 1652q70 0 70 -70q0 -69 -70 -69t-70 69q0 70 70 70zM279 1839q70 0 70 -70t-70 -70t-70 70t70 70zM466 1839
q69 0 69 -70t-69 -70q-70 0 -70 70t70 70zM652 1839q70 0 70 -70t-70 -70t-70 70t70 70zM838 1839q70 0 70 -70t-70 -70t-70 70t70 70zM1024 1839q70 0 70 -70t-70 -70t-70 70t70 70z" />
    <glyph glyph-name="four" unicode="4" 
d="M838 1839q70 0 70 -70t-70 -70t-70 70t70 70zM652 1839q70 0 70 -70t-70 -70t-70 70t70 70zM838 1652q70 0 70 -70q0 -69 -70 -69t-70 69q0 70 70 70zM559 1652q69 0 69 -70q0 -69 -69 -69q-70 0 -70 69q0 70 70 70zM838 1466q70 0 70 -70t-70 -70t-70 70t70 70z
M466 1466q69 0 69 -70t-69 -70q-70 0 -70 70t70 70zM838 1280q70 0 70 -70t-70 -70t-70 70t70 70zM373 1280q69 0 69 -70t-69 -70q-70 0 -70 70t70 70zM1024 1094q70 0 70 -70t-70 -70t-70 70t70 70zM838 1094q70 0 70 -70t-70 -70t-70 70t70 70zM652 1094q70 0 70 -70
t-70 -70t-70 70t70 70zM466 1094q69 0 69 -70t-69 -70q-70 0 -70 70t70 70zM838 908q70 0 70 -70t-70 -70t-70 70t70 70zM838 722q70 0 70 -70t-70 -70t-70 70t70 70zM279 1094q70 0 70 -70t-70 -70t-70 70t70 70z" />
    <glyph glyph-name="five" unicode="5" 
d="M373 722q69 0 69 -70t-69 -70q-70 0 -70 70t70 70zM559 722q69 0 69 -70t-69 -70q-70 0 -70 70t70 70zM745 722q70 0 70 -70t-70 -70t-70 70t70 70zM931 722q70 0 70 -70t-70 -70t-70 70t70 70zM279 908q70 0 70 -70t-70 -70t-70 70t70 70zM1024 908q70 0 70 -70t-70 -70
t-70 70t70 70zM1024 1094q70 0 70 -70t-70 -70t-70 70t70 70zM1024 1280q70 0 70 -70t-70 -70t-70 70t70 70zM279 1466q70 0 70 -70t-70 -70t-70 70t70 70zM466 1466q69 0 69 -70t-69 -70q-70 0 -70 70t70 70zM652 1466q70 0 70 -70t-70 -70t-70 70t70 70zM838 1466
q70 0 70 -70t-70 -70t-70 70t70 70zM279 1652q70 0 70 -70q0 -69 -70 -69t-70 69q0 70 70 70zM279 1839q70 0 70 -70t-70 -70t-70 70t70 70zM466 1839q69 0 69 -70t-69 -70q-70 0 -70 70t70 70zM652 1839q70 0 70 -70t-70 -70t-70 70t70 70zM838 1839q70 0 70 -70t-70 -70
t-70 70t70 70zM1024 1839q70 0 70 -70t-70 -70t-70 70t70 70z" />
    <glyph glyph-name="six" unicode="6" 
d="M373 722q69 0 69 -70t-69 -70q-70 0 -70 70t70 70zM559 722q69 0 69 -70t-69 -70q-70 0 -70 70t70 70zM745 722q70 0 70 -70t-70 -70t-70 70t70 70zM931 722q70 0 70 -70t-70 -70t-70 70t70 70zM279 908q70 0 70 -70t-70 -70t-70 70t70 70zM1024 908q70 0 70 -70t-70 -70
t-70 70t70 70zM279 1094q70 0 70 -70t-70 -70t-70 70t70 70zM1024 1094q70 0 70 -70t-70 -70t-70 70t70 70zM373 1280q69 0 69 -70t-69 -70q-70 0 -70 70t70 70zM559 1280q69 0 69 -70t-69 -70q-70 0 -70 70t70 70zM745 1280q70 0 70 -70t-70 -70t-70 70t70 70zM931 1280
q70 0 70 -70t-70 -70t-70 70t70 70zM466 1466q69 0 69 -70t-69 -70q-70 0 -70 70t70 70zM559 1652q69 0 69 -70q0 -69 -69 -69q-70 0 -70 69q0 70 70 70zM652 1839q70 0 70 -70t-70 -70t-70 70t70 70z" />
    <glyph glyph-name="nine" unicode="9" 
d="M931 1699q-70 0 -70 70t70 70t70 -70t-70 -70zM745 1699q-70 0 -70 70t70 70t70 -70t-70 -70zM559 1699q-70 0 -70 70t70 70q69 0 69 -70t-69 -70zM373 1699q-70 0 -70 70t70 70q69 0 69 -70t-69 -70zM1024 1513q-70 0 -70 69q0 70 70 70t70 -70q0 -69 -70 -69zM279 1513
q-70 0 -70 69q0 70 70 70t70 -70q0 -69 -70 -69zM1024 1326q-70 0 -70 70t70 70t70 -70t-70 -70zM279 1326q-70 0 -70 70t70 70t70 -70t-70 -70zM931 1140q-70 0 -70 70t70 70t70 -70t-70 -70zM745 1140q-70 0 -70 70t70 70t70 -70t-70 -70zM559 1140q-70 0 -70 70t70 70
q69 0 69 -70t-69 -70zM373 1140q-70 0 -70 70t70 70q69 0 69 -70t-69 -70zM838 954q-70 0 -70 70t70 70t70 -70t-70 -70zM745 768q-70 0 -70 70t70 70t70 -70t-70 -70zM652 582q-70 0 -70 70t70 70t70 -70t-70 -70z" />
    <glyph glyph-name="seven" unicode="7" 
d="M466 722q69 0 69 -70t-69 -70q-70 0 -70 70t70 70zM559 908q69 0 69 -70t-69 -70q-70 0 -70 70t70 70zM652 1094q70 0 70 -70t-70 -70t-70 70t70 70zM745 1280q70 0 70 -70t-70 -70t-70 70t70 70zM838 1466q70 0 70 -70t-70 -70t-70 70t70 70zM931 1652q70 0 70 -70
q0 -69 -70 -69t-70 69q0 70 70 70zM279 1839q70 0 70 -70t-70 -70t-70 70t70 70zM466 1839q69 0 69 -70t-69 -70q-70 0 -70 70t70 70zM652 1839q70 0 70 -70t-70 -70t-70 70t70 70zM838 1839q70 0 70 -70t-70 -70t-70 70t70 70zM1024 1839q70 0 70 -70t-70 -70t-70 70t70 70
z" />
    <glyph glyph-name="exclam" unicode="!" 
d="M652 722q70 0 70 -70t-70 -70t-70 70t70 70zM838 722q70 0 70 -70t-70 -70t-70 70t70 70zM652 908q70 0 70 -70t-70 -70t-70 70t70 70zM838 908q70 0 70 -70t-70 -70t-70 70t70 70zM652 1280q70 0 70 -70t-70 -70t-70 70t70 70zM838 1280q70 0 70 -70t-70 -70t-70 70
t70 70zM652 1466q70 0 70 -70t-70 -70t-70 70t70 70zM838 1466q70 0 70 -70t-70 -70t-70 70t70 70zM652 1652q70 0 70 -70q0 -69 -70 -69t-70 69q0 70 70 70zM838 1652q70 0 70 -70q0 -69 -70 -69t-70 69q0 70 70 70zM652 1839q70 0 70 -70t-70 -70t-70 70t70 70zM838 1839
q70 0 70 -70t-70 -70t-70 70t70 70z" />
    <glyph glyph-name="period" unicode="." 
d="M838 908q70 0 70 -70t-70 -70t-70 70t70 70zM652 908q70 0 70 -70t-70 -70t-70 70t70 70zM838 722q70 0 70 -70t-70 -70t-70 70t70 70zM652 722q70 0 70 -70t-70 -70t-70 70t70 70z" />
    <glyph glyph-name="comma" unicode="," 
d="M652 722q70 0 70 -70t-70 -70t-70 70t70 70zM838 722q70 0 70 -70t-70 -70t-70 70t70 70zM838 535q70 0 70 -69q0 -70 -70 -70t-70 70q0 69 70 69zM745 349q70 0 70 -70t-70 -70t-70 70t70 70zM652 908q70 0 70 -70t-70 -70t-70 70t70 70zM838 908q70 0 70 -70t-70 -70
t-70 70t70 70z" />
    <glyph glyph-name="semicolon" unicode=";" 
d="M838 908q70 0 70 -70t-70 -70t-70 70t70 70zM838 1466q70 0 70 -70t-70 -70t-70 70t70 70zM652 908q70 0 70 -70t-70 -70t-70 70t70 70zM652 1466q70 0 70 -70t-70 -70t-70 70t70 70zM745 349q70 0 70 -70t-70 -70t-70 70t70 70zM838 535q70 0 70 -69q0 -70 -70 -70
t-70 70q0 69 70 69zM838 722q70 0 70 -70t-70 -70t-70 70t70 70zM838 1280q70 0 70 -70t-70 -70t-70 70t70 70zM652 722q70 0 70 -70t-70 -70t-70 70t70 70zM652 1280q70 0 70 -70t-70 -70t-70 70t70 70z" />
    <glyph glyph-name="colon" unicode=":" 
d="M652 1280q70 0 70 -70t-70 -70t-70 70t70 70zM652 722q70 0 70 -70t-70 -70t-70 70t70 70zM838 1280q70 0 70 -70t-70 -70t-70 70t70 70zM838 722q70 0 70 -70t-70 -70t-70 70t70 70zM652 1466q70 0 70 -70t-70 -70t-70 70t70 70zM652 908q70 0 70 -70t-70 -70t-70 70
t70 70zM838 1466q70 0 70 -70t-70 -70t-70 70t70 70zM838 908q70 0 70 -70t-70 -70t-70 70t70 70z" />
    <glyph glyph-name="quotedbl" unicode="&#x22;" 
d="M559 1466q69 0 69 -70t-69 -70q-70 0 -70 70t70 70zM931 1466q70 0 70 -70t-70 -70t-70 70t70 70zM559 1652q69 0 69 -70q0 -69 -69 -69q-70 0 -70 69q0 70 70 70zM931 1652q70 0 70 -70q0 -69 -70 -69t-70 69q0 70 70 70zM559 1839q69 0 69 -70t-69 -70q-70 0 -70 70
t70 70zM931 1839q70 0 70 -70t-70 -70t-70 70t70 70z" />
    <glyph glyph-name="equal" unicode="=" 
d="M279 1094q70 0 70 -70t-70 -70t-70 70t70 70zM466 1094q69 0 69 -70t-69 -70q-70 0 -70 70t70 70zM652 1094q70 0 70 -70t-70 -70t-70 70t70 70zM838 1094q70 0 70 -70t-70 -70t-70 70t70 70zM1024 1094q70 0 70 -70t-70 -70t-70 70t70 70zM279 1466q70 0 70 -70t-70 -70
t-70 70t70 70zM466 1466q69 0 69 -70t-69 -70q-70 0 -70 70t70 70zM652 1466q70 0 70 -70t-70 -70t-70 70t70 70zM838 1466q70 0 70 -70t-70 -70t-70 70t70 70zM1024 1466q70 0 70 -70t-70 -70t-70 70t70 70z" />
    <glyph glyph-name="hyphen" unicode="-" 
d="M1024 1280q70 0 70 -70t-70 -70t-70 70t70 70zM838 1280q70 0 70 -70t-70 -70t-70 70t70 70zM652 1280q70 0 70 -70t-70 -70t-70 70t70 70zM466 1280q69 0 69 -70t-69 -70q-70 0 -70 70t70 70zM279 1280q70 0 70 -70t-70 -70t-70 70t70 70z" />
    <glyph glyph-name="plus" unicode="+" 
d="M279 1280q70 0 70 -70t-70 -70t-70 70t70 70zM466 1280q69 0 69 -70t-69 -70q-70 0 -70 70t70 70zM652 1280q70 0 70 -70t-70 -70t-70 70t70 70zM652 1094q70 0 70 -70t-70 -70t-70 70t70 70zM652 908q70 0 70 -70t-70 -70t-70 70t70 70zM652 1466q70 0 70 -70t-70 -70
t-70 70t70 70zM652 1652q70 0 70 -70q0 -69 -70 -69t-70 69q0 70 70 70zM838 1280q70 0 70 -70t-70 -70t-70 70t70 70zM1024 1280q70 0 70 -70t-70 -70t-70 70t70 70z" />
    <glyph glyph-name="asterisk" unicode="*" 
d="M745 722q70 0 70 -70t-70 -70t-70 70t70 70zM279 908q70 0 70 -70t-70 -70t-70 70t70 70zM745 908q70 0 70 -70t-70 -70t-70 70t70 70zM1210 908q70 0 70 -70t-70 -70t-70 70t70 70zM466 1094q69 0 69 -70t-69 -70q-70 0 -70 70t70 70zM745 1094q70 0 70 -70t-70 -70
t-70 70t70 70zM1024 1094q70 0 70 -70t-70 -70t-70 70t70 70zM652 1280q70 0 70 -70t-70 -70t-70 70t70 70zM838 1280q70 0 70 -70t-70 -70t-70 70t70 70zM466 1466q69 0 69 -70t-69 -70q-70 0 -70 70t70 70zM745 1466q70 0 70 -70t-70 -70t-70 70t70 70zM1024 1466
q70 0 70 -70t-70 -70t-70 70t70 70zM279 1652q70 0 70 -70q0 -69 -70 -69t-70 69q0 70 70 70zM745 1652q70 0 70 -70q0 -69 -70 -69t-70 69q0 70 70 70zM1210 1652q70 0 70 -70q0 -69 -70 -69t-70 69q0 70 70 70zM745 1839q70 0 70 -70t-70 -70t-70 70t70 70z" />
    <glyph glyph-name="percent" unicode="%" 
d="M279 722q70 0 70 -70t-70 -70t-70 70t70 70zM745 722q70 0 70 -70t-70 -70t-70 70t70 70zM931 722q70 0 70 -70t-70 -70t-70 70t70 70zM373 908q69 0 69 -70t-69 -70q-70 0 -70 70t70 70zM745 908q70 0 70 -70t-70 -70t-70 70t70 70zM931 908q70 0 70 -70t-70 -70t-70 70
t70 70zM466 1094q69 0 69 -70t-69 -70q-70 0 -70 70t70 70zM559 1280q69 0 69 -70t-69 -70q-70 0 -70 70t70 70zM652 1466q70 0 70 -70t-70 -70t-70 70t70 70zM186 1652q70 0 70 -70q0 -69 -70 -69t-70 69q0 70 70 70zM373 1652q69 0 69 -70q0 -69 -69 -69q-70 0 -70 69
q0 70 70 70zM745 1652q70 0 70 -70q0 -69 -70 -69t-70 69q0 70 70 70zM186 1839q70 0 70 -70t-70 -70t-70 70t70 70zM373 1839q69 0 69 -70t-69 -70q-70 0 -70 70t70 70zM838 1839q70 0 70 -70t-70 -70t-70 70t70 70z" />
    <glyph glyph-name="parenleft" unicode="(" 
d="M838 722q70 0 70 -70t-70 -70t-70 70t70 70zM745 908q70 0 70 -70t-70 -70t-70 70t70 70zM652 1094q70 0 70 -70t-70 -70t-70 70t70 70zM652 1280q70 0 70 -70t-70 -70t-70 70t70 70zM652 1466q70 0 70 -70t-70 -70t-70 70t70 70zM745 1652q70 0 70 -70q0 -69 -70 -69
t-70 69q0 70 70 70zM838 1839q70 0 70 -70t-70 -70t-70 70t70 70z" />
    <glyph glyph-name="parenright" unicode=")" 
d="M652 722q70 0 70 -70t-70 -70t-70 70t70 70zM745 908q70 0 70 -70t-70 -70t-70 70t70 70zM838 1094q70 0 70 -70t-70 -70t-70 70t70 70zM838 1280q70 0 70 -70t-70 -70t-70 70t70 70zM838 1466q70 0 70 -70t-70 -70t-70 70t70 70zM745 1652q70 0 70 -70q0 -69 -70 -69
t-70 69q0 70 70 70zM652 1839q70 0 70 -70t-70 -70t-70 70t70 70z" />
    <glyph glyph-name="slash" unicode="/" 
d="M838 1839q70 0 70 -70t-70 -70t-70 70t70 70zM745 1652q70 0 70 -70q0 -69 -70 -69t-70 69q0 70 70 70zM652 1466q70 0 70 -70t-70 -70t-70 70t70 70zM559 1280q69 0 69 -70t-69 -70q-70 0 -70 70t70 70zM466 1094q69 0 69 -70t-69 -70q-70 0 -70 70t70 70zM373 908
q69 0 69 -70t-69 -70q-70 0 -70 70t70 70zM279 722q70 0 70 -70t-70 -70t-70 70t70 70z" />
    <glyph glyph-name="backslash" unicode="\" 
d="M279 1839q70 0 70 -70t-70 -70t-70 70t70 70zM373 1652q69 0 69 -70q0 -69 -69 -69q-70 0 -70 69q0 70 70 70zM466 1466q69 0 69 -70t-69 -70q-70 0 -70 70t70 70zM559 1280q69 0 69 -70t-69 -70q-70 0 -70 70t70 70zM652 1094q70 0 70 -70t-70 -70t-70 70t70 70z
M745 908q70 0 70 -70t-70 -70t-70 70t70 70zM838 722q70 0 70 -70t-70 -70t-70 70t70 70z" />
    <glyph glyph-name="bracketright" unicode="]" 
d="M559 722q69 0 69 -70t-69 -70q-70 0 -70 70t70 70zM745 722q70 0 70 -70t-70 -70t-70 70t70 70zM745 908q70 0 70 -70t-70 -70t-70 70t70 70zM745 1094q70 0 70 -70t-70 -70t-70 70t70 70zM745 1280q70 0 70 -70t-70 -70t-70 70t70 70zM745 1466q70 0 70 -70t-70 -70
t-70 70t70 70zM745 1652q70 0 70 -70q0 -69 -70 -69t-70 69q0 70 70 70zM559 1839q69 0 69 -70t-69 -70q-70 0 -70 70t70 70zM745 1839q70 0 70 -70t-70 -70t-70 70t70 70z" />
    <glyph glyph-name="bracketleft" unicode="[" 
d="M745 722q70 0 70 -70t-70 -70t-70 70t70 70zM559 722q69 0 69 -70t-69 -70q-70 0 -70 70t70 70zM559 908q69 0 69 -70t-69 -70q-70 0 -70 70t70 70zM559 1094q69 0 69 -70t-69 -70q-70 0 -70 70t70 70zM559 1280q69 0 69 -70t-69 -70q-70 0 -70 70t70 70zM559 1466
q69 0 69 -70t-69 -70q-70 0 -70 70t70 70zM559 1652q69 0 69 -70q0 -69 -69 -69q-70 0 -70 69q0 70 70 70zM745 1839q70 0 70 -70t-70 -70t-70 70t70 70zM559 1839q69 0 69 -70t-69 -70q-70 0 -70 70t70 70z" />
    <glyph glyph-name="bar" unicode="|" 
d="M745 1839q70 0 70 -70t-70 -70t-70 70t70 70zM745 1652q70 0 70 -70q0 -69 -70 -69t-70 69q0 70 70 70zM745 1466q70 0 70 -70t-70 -70t-70 70t70 70zM745 1280q70 0 70 -70t-70 -70t-70 70t70 70zM745 1094q70 0 70 -70t-70 -70t-70 70t70 70zM745 908q70 0 70 -70
t-70 -70t-70 70t70 70zM745 722q70 0 70 -70t-70 -70t-70 70t70 70z" />
    <glyph glyph-name="braceleft" unicode="{" 
d="M931 1839q70 0 70 -70t-70 -70t-70 70t70 70zM1117 1839q70 0 70 -70t-70 -70t-70 70t70 70zM838 1652q70 0 70 -70q0 -69 -70 -69t-70 69q0 70 70 70zM838 1466q70 0 70 -70t-70 -70t-70 70t70 70zM652 1280q70 0 70 -70t-70 -70t-70 70t70 70zM838 1094q70 0 70 -70
t-70 -70t-70 70t70 70zM838 908q70 0 70 -70t-70 -70t-70 70t70 70zM931 722q70 0 70 -70t-70 -70t-70 70t70 70zM1117 722q70 0 70 -70t-70 -70t-70 70t70 70z" />
    <glyph glyph-name="braceright" unicode="}" 
d="M838 1839q70 0 70 -70t-70 -70t-70 70t70 70zM652 1839q70 0 70 -70t-70 -70t-70 70t70 70zM931 1652q70 0 70 -70q0 -69 -70 -69t-70 69q0 70 70 70zM931 1466q70 0 70 -70t-70 -70t-70 70t70 70zM1117 1280q70 0 70 -70t-70 -70t-70 70t70 70zM931 1094q70 0 70 -70
t-70 -70t-70 70t70 70zM931 908q70 0 70 -70t-70 -70t-70 70t70 70zM838 722q70 0 70 -70t-70 -70t-70 70t70 70zM652 722q70 0 70 -70t-70 -70t-70 70t70 70z" />
    <glyph glyph-name="asciitilde" unicode="~" 
d="M279 1652q70 0 70 -70q0 -69 -70 -69t-70 69q0 70 70 70zM652 1652q70 0 70 -70q0 -69 -70 -69t-70 69q0 70 70 70zM838 1652q70 0 70 -70q0 -69 -70 -69t-70 69q0 70 70 70zM373 1839q69 0 69 -70t-69 -70q-70 0 -70 70t70 70zM559 1839q69 0 69 -70t-69 -70
q-70 0 -70 70t70 70zM931 1839q70 0 70 -70t-70 -70t-70 70t70 70z" />
    <glyph glyph-name="underscore" unicode="_" 
d="M93 349q70 0 70 -70t-70 -70t-70 70t70 70zM279 349q70 0 70 -70t-70 -70t-70 70t70 70zM466 349q69 0 69 -70t-69 -70q-70 0 -70 70t70 70zM652 349q70 0 70 -70t-70 -70t-70 70t70 70zM838 349q70 0 70 -70t-70 -70t-70 70t70 70zM1024 349q70 0 70 -70t-70 -70t-70 70
t70 70zM1210 349q70 0 70 -70t-70 -70t-70 70t70 70zM1396 349q70 0 70 -70t-70 -70t-70 70t70 70z" />
    <glyph glyph-name="asciicircum" unicode="^" 
d="M373 1466q69 0 69 -70t-69 -70q-70 0 -70 70t70 70zM1117 1466q70 0 70 -70t-70 -70t-70 70t70 70zM559 1652q69 0 69 -70q0 -69 -69 -69q-70 0 -70 69q0 70 70 70zM931 1652q70 0 70 -70q0 -69 -70 -69t-70 69q0 70 70 70zM745 1839q70 0 70 -70t-70 -70t-70 70t70 70z
" />
    <glyph glyph-name="quotesingle" unicode="'" 
d="M559 1280q69 0 69 -70t-69 -70q-70 0 -70 70t70 70zM652 1466q70 0 70 -70t-70 -70t-70 70t70 70zM559 1652q69 0 69 -70q0 -69 -69 -69q-70 0 -70 69q0 70 70 70zM745 1652q70 0 70 -70q0 -69 -70 -69t-70 69q0 70 70 70zM559 1839q69 0 69 -70t-69 -70q-70 0 -70 70
t70 70zM745 1839q70 0 70 -70t-70 -70t-70 70t70 70z" />
    <glyph glyph-name="grave" unicode="`" 
d="M745 1280q70 0 70 -70t-70 -70t-70 70t70 70zM652 1466q70 0 70 -70t-70 -70t-70 70t70 70zM745 1652q70 0 70 -70q0 -69 -70 -69t-70 69q0 70 70 70zM559 1652q69 0 69 -70q0 -69 -69 -69q-70 0 -70 69q0 70 70 70zM745 1839q70 0 70 -70t-70 -70t-70 70t70 70z
M559 1839q69 0 69 -70t-69 -70q-70 0 -70 70t70 70z" />
    <glyph glyph-name="question" unicode="?" 
d="M931 1839q70 0 70 -70t-70 -70t-70 70t70 70zM745 1839q70 0 70 -70t-70 -70t-70 70t70 70zM559 1839q69 0 69 -70t-69 -70q-70 0 -70 70t70 70zM1024 1652q70 0 70 -70q0 -69 -70 -69t-70 69q0 70 70 70zM466 1652q69 0 69 -70q0 -69 -69 -69q-70 0 -70 69q0 70 70 70z
M931 1466q70 0 70 -70t-70 -70t-70 70t70 70zM745 1280q70 0 70 -70t-70 -70t-70 70t70 70zM745 1094q70 0 70 -70t-70 -70t-70 70t70 70zM745 722q70 0 70 -70t-70 -70t-70 70t70 70z" />
    <glyph glyph-name="at" unicode="@" 
d="M373 722q69 0 69 -70t-69 -70q-70 0 -70 70t70 70zM559 722q69 0 69 -70t-69 -70q-70 0 -70 70t70 70zM745 722q70 0 70 -70t-70 -70t-70 70t70 70zM931 722q70 0 70 -70t-70 -70t-70 70t70 70zM279 908q70 0 70 -70t-70 -70t-70 70t70 70zM279 1094q70 0 70 -70t-70 -70
t-70 70t70 70zM652 1094q70 0 70 -70t-70 -70t-70 70t70 70zM838 1094q70 0 70 -70t-70 -70t-70 70t70 70zM1024 1094q70 0 70 -70t-70 -70t-70 70t70 70zM279 1280q70 0 70 -70t-70 -70t-70 70t70 70zM559 1280q69 0 69 -70t-69 -70q-70 0 -70 70t70 70zM1024 1280
q70 0 70 -70t-70 -70t-70 70t70 70zM279 1466q70 0 70 -70t-70 -70t-70 70t70 70zM559 1466q69 0 69 -70t-69 -70q-70 0 -70 70t70 70zM1024 1466q70 0 70 -70t-70 -70t-70 70t70 70zM279 1652q70 0 70 -70q0 -69 -70 -69t-70 69q0 70 70 70zM652 1652q70 0 70 -70
q0 -69 -70 -69t-70 69q0 70 70 70zM838 1652q70 0 70 -70q0 -69 -70 -69t-70 69q0 70 70 70zM1024 1652q70 0 70 -70q0 -69 -70 -69t-70 69q0 70 70 70zM373 1839q69 0 69 -70t-69 -70q-70 0 -70 70t70 70zM559 1839q69 0 69 -70t-69 -70q-70 0 -70 70t70 70zM745 1839
q70 0 70 -70t-70 -70t-70 70t70 70zM931 1839q70 0 70 -70t-70 -70t-70 70t70 70z" />
    <glyph glyph-name="ampersand" unicode="&#x26;" 
d="M373 722q69 0 69 -70t-69 -70q-70 0 -70 70t70 70zM559 722q69 0 69 -70t-69 -70q-70 0 -70 70t70 70zM745 722q70 0 70 -70t-70 -70t-70 70t70 70zM1024 722q70 0 70 -70t-70 -70t-70 70t70 70zM279 908q70 0 70 -70t-70 -70t-70 70t70 70zM838 908q70 0 70 -70t-70 -70
t-70 70t70 70zM279 1094q70 0 70 -70t-70 -70t-70 70t70 70zM745 1094q70 0 70 -70t-70 -70t-70 70t70 70zM931 1094q70 0 70 -70t-70 -70t-70 70t70 70zM373 1280q69 0 69 -70t-69 -70q-70 0 -70 70t70 70zM559 1280q69 0 69 -70t-69 -70q-70 0 -70 70t70 70zM1024 1280
q70 0 70 -70t-70 -70t-70 70t70 70zM373 1466q69 0 69 -70t-69 -70q-70 0 -70 70t70 70zM559 1466q69 0 69 -70t-69 -70q-70 0 -70 70t70 70zM1117 1466q70 0 70 -70t-70 -70t-70 70t70 70zM279 1652q70 0 70 -70q0 -69 -70 -69t-70 69q0 70 70 70zM652 1652q70 0 70 -70
q0 -69 -70 -69t-70 69q0 70 70 70zM373 1839q69 0 69 -70t-69 -70q-70 0 -70 70t70 70zM559 1839q69 0 69 -70t-69 -70q-70 0 -70 70t70 70z" />
    <glyph glyph-name="greater" unicode="&#x3e;" 
d="M466 722q69 0 69 -70t-69 -70q-70 0 -70 70t70 70zM559 908q69 0 69 -70t-69 -70q-70 0 -70 70t70 70zM652 1094q70 0 70 -70t-70 -70t-70 70t70 70zM745 1280q70 0 70 -70t-70 -70t-70 70t70 70zM652 1466q70 0 70 -70t-70 -70t-70 70t70 70zM559 1652q69 0 69 -70
q0 -69 -69 -69q-70 0 -70 69q0 70 70 70zM466 1839q69 0 69 -70t-69 -70q-70 0 -70 70t70 70z" />
    <glyph glyph-name="less" unicode="&#x3c;" 
d="M745 722q70 0 70 -70t-70 -70t-70 70t70 70zM652 908q70 0 70 -70t-70 -70t-70 70t70 70zM559 1094q69 0 69 -70t-69 -70q-70 0 -70 70t70 70zM466 1280q69 0 69 -70t-69 -70q-70 0 -70 70t70 70zM559 1466q69 0 69 -70t-69 -70q-70 0 -70 70t70 70zM652 1652
q70 0 70 -70q0 -69 -70 -69t-70 69q0 70 70 70zM745 1839q70 0 70 -70t-70 -70t-70 70t70 70z" />
    <glyph glyph-name="A" unicode="A" 
d="M279 722q70 0 70 -70t-70 -70t-70 70t70 70zM1024 722q70 0 70 -70t-70 -70t-70 70t70 70zM279 908q70 0 70 -70t-70 -70t-70 70t70 70zM1024 908q70 0 70 -70t-70 -70t-70 70t70 70zM279 1094q70 0 70 -70t-70 -70t-70 70t70 70zM466 1094q69 0 69 -70t-69 -70
q-70 0 -70 70t70 70zM652 1094q70 0 70 -70t-70 -70t-70 70t70 70zM838 1094q70 0 70 -70t-70 -70t-70 70t70 70zM1024 1094q70 0 70 -70t-70 -70t-70 70t70 70zM279 1280q70 0 70 -70t-70 -70t-70 70t70 70zM1024 1280q70 0 70 -70t-70 -70t-70 70t70 70zM373 1466
q69 0 69 -70t-69 -70q-70 0 -70 70t70 70zM931 1466q70 0 70 -70t-70 -70t-70 70t70 70zM466 1652q69 0 69 -70q0 -69 -69 -69q-70 0 -70 69q0 70 70 70zM838 1652q70 0 70 -70q0 -69 -70 -69t-70 69q0 70 70 70zM559 1839q69 0 69 -70t-69 -70q-70 0 -70 70t70 70z
M745 1839q70 0 70 -70t-70 -70t-70 70t70 70z" />
    <glyph glyph-name="Agrave" unicode="&#xc0;" 
d="M279 722q70 0 70 -70t-70 -70t-70 70t70 70zM1024 722q70 0 70 -70t-70 -70t-70 70t70 70zM279 908q70 0 70 -70t-70 -70t-70 70t70 70zM1024 908q70 0 70 -70t-70 -70t-70 70t70 70zM279 1094q70 0 70 -70t-70 -70t-70 70t70 70zM466 1094q69 0 69 -70t-69 -70
q-70 0 -70 70t70 70zM652 1094q70 0 70 -70t-70 -70t-70 70t70 70zM838 1094q70 0 70 -70t-70 -70t-70 70t70 70zM1024 1094q70 0 70 -70t-70 -70t-70 70t70 70zM279 1280q70 0 70 -70t-70 -70t-70 70t70 70zM1024 1280q70 0 70 -70t-70 -70t-70 70t70 70zM373 1466
q69 0 69 -70t-69 -70q-70 0 -70 70t70 70zM931 1466q70 0 70 -70t-70 -70t-70 70t70 70zM466 1652q69 0 69 -70q0 -69 -69 -69q-70 0 -70 69q0 70 70 70zM838 1652q70 0 70 -70q0 -69 -70 -69t-70 69q0 70 70 70zM559 1839q69 0 69 -70t-69 -70q-70 0 -70 70t70 70z
M745 1839q70 0 70 -70t-70 -70t-70 70t70 70z" />
    <glyph glyph-name="Agrave" unicode="&#x410;" 
d="M279 722q70 0 70 -70t-70 -70t-70 70t70 70zM1024 722q70 0 70 -70t-70 -70t-70 70t70 70zM279 908q70 0 70 -70t-70 -70t-70 70t70 70zM1024 908q70 0 70 -70t-70 -70t-70 70t70 70zM279 1094q70 0 70 -70t-70 -70t-70 70t70 70zM466 1094q69 0 69 -70t-69 -70
q-70 0 -70 70t70 70zM652 1094q70 0 70 -70t-70 -70t-70 70t70 70zM838 1094q70 0 70 -70t-70 -70t-70 70t70 70zM1024 1094q70 0 70 -70t-70 -70t-70 70t70 70zM279 1280q70 0 70 -70t-70 -70t-70 70t70 70zM1024 1280q70 0 70 -70t-70 -70t-70 70t70 70zM373 1466
q69 0 69 -70t-69 -70q-70 0 -70 70t70 70zM931 1466q70 0 70 -70t-70 -70t-70 70t70 70zM466 1652q69 0 69 -70q0 -69 -69 -69q-70 0 -70 69q0 70 70 70zM838 1652q70 0 70 -70q0 -69 -70 -69t-70 69q0 70 70 70zM559 1839q69 0 69 -70t-69 -70q-70 0 -70 70t70 70z
M745 1839q70 0 70 -70t-70 -70t-70 70t70 70z" />
    <glyph glyph-name="C" unicode="C" 
d="M373 722q69 0 69 -70t-69 -70q-70 0 -70 70t70 70zM559 722q69 0 69 -70t-69 -70q-70 0 -70 70t70 70zM745 722q70 0 70 -70t-70 -70t-70 70t70 70zM931 722q70 0 70 -70t-70 -70t-70 70t70 70zM279 908q70 0 70 -70t-70 -70t-70 70t70 70zM1024 908q70 0 70 -70t-70 -70
t-70 70t70 70zM279 1094q70 0 70 -70t-70 -70t-70 70t70 70zM279 1280q70 0 70 -70t-70 -70t-70 70t70 70zM279 1466q70 0 70 -70t-70 -70t-70 70t70 70zM279 1652q70 0 70 -70q0 -69 -70 -69t-70 69q0 70 70 70zM1024 1652q70 0 70 -70q0 -69 -70 -69t-70 69q0 70 70 70z
M373 1839q69 0 69 -70t-69 -70q-70 0 -70 70t70 70zM559 1839q69 0 69 -70t-69 -70q-70 0 -70 70t70 70zM745 1839q70 0 70 -70t-70 -70t-70 70t70 70zM931 1839q70 0 70 -70t-70 -70t-70 70t70 70z" />
    <glyph glyph-name="Ntilde" unicode="&#xd1;" 
d="M373 722q69 0 69 -70t-69 -70q-70 0 -70 70t70 70zM559 722q69 0 69 -70t-69 -70q-70 0 -70 70t70 70zM745 722q70 0 70 -70t-70 -70t-70 70t70 70zM931 722q70 0 70 -70t-70 -70t-70 70t70 70zM279 908q70 0 70 -70t-70 -70t-70 70t70 70zM1024 908q70 0 70 -70t-70 -70
t-70 70t70 70zM279 1094q70 0 70 -70t-70 -70t-70 70t70 70zM279 1280q70 0 70 -70t-70 -70t-70 70t70 70zM279 1466q70 0 70 -70t-70 -70t-70 70t70 70zM279 1652q70 0 70 -70q0 -69 -70 -69t-70 69q0 70 70 70zM1024 1652q70 0 70 -70q0 -69 -70 -69t-70 69q0 70 70 70z
M373 1839q69 0 69 -70t-69 -70q-70 0 -70 70t70 70zM559 1839q69 0 69 -70t-69 -70q-70 0 -70 70t70 70zM745 1839q70 0 70 -70t-70 -70t-70 70t70 70zM931 1839q70 0 70 -70t-70 -70t-70 70t70 70z" />
    <glyph glyph-name="Ntilde" unicode="&#x421;" 
d="M373 722q69 0 69 -70t-69 -70q-70 0 -70 70t70 70zM559 722q69 0 69 -70t-69 -70q-70 0 -70 70t70 70zM745 722q70 0 70 -70t-70 -70t-70 70t70 70zM931 722q70 0 70 -70t-70 -70t-70 70t70 70zM279 908q70 0 70 -70t-70 -70t-70 70t70 70zM1024 908q70 0 70 -70t-70 -70
t-70 70t70 70zM279 1094q70 0 70 -70t-70 -70t-70 70t70 70zM279 1280q70 0 70 -70t-70 -70t-70 70t70 70zM279 1466q70 0 70 -70t-70 -70t-70 70t70 70zM279 1652q70 0 70 -70q0 -69 -70 -69t-70 69q0 70 70 70zM1024 1652q70 0 70 -70q0 -69 -70 -69t-70 69q0 70 70 70z
M373 1839q69 0 69 -70t-69 -70q-70 0 -70 70t70 70zM559 1839q69 0 69 -70t-69 -70q-70 0 -70 70t70 70zM745 1839q70 0 70 -70t-70 -70t-70 70t70 70zM931 1839q70 0 70 -70t-70 -70t-70 70t70 70z" />
    <glyph glyph-name="ntilde" unicode="&#xf1;" 
d="M931 1466q70 0 70 -70t-70 -70t-70 70t70 70zM745 1466q70 0 70 -70t-70 -70t-70 70t70 70zM559 1466q69 0 69 -70t-69 -70q-70 0 -70 70t70 70zM373 1466q69 0 69 -70t-69 -70q-70 0 -70 70t70 70zM279 1280q70 0 70 -70t-70 -70t-70 70t70 70zM279 1094q70 0 70 -70
t-70 -70t-70 70t70 70zM279 908q70 0 70 -70t-70 -70t-70 70t70 70zM931 722q70 0 70 -70t-70 -70t-70 70t70 70zM745 722q70 0 70 -70t-70 -70t-70 70t70 70zM559 722q69 0 69 -70t-69 -70q-70 0 -70 70t70 70zM373 722q69 0 69 -70t-69 -70q-70 0 -70 70t70 70z" />
    <glyph glyph-name="ntilde" unicode="&#x441;" 
d="M931 1466q70 0 70 -70t-70 -70t-70 70t70 70zM745 1466q70 0 70 -70t-70 -70t-70 70t70 70zM559 1466q69 0 69 -70t-69 -70q-70 0 -70 70t70 70zM373 1466q69 0 69 -70t-69 -70q-70 0 -70 70t70 70zM279 1280q70 0 70 -70t-70 -70t-70 70t70 70zM279 1094q70 0 70 -70
t-70 -70t-70 70t70 70zM279 908q70 0 70 -70t-70 -70t-70 70t70 70zM931 722q70 0 70 -70t-70 -70t-70 70t70 70zM745 722q70 0 70 -70t-70 -70t-70 70t70 70zM559 722q69 0 69 -70t-69 -70q-70 0 -70 70t70 70zM373 722q69 0 69 -70t-69 -70q-70 0 -70 70t70 70z" />
    <glyph glyph-name="c" unicode="c" 
d="M931 1466q70 0 70 -70t-70 -70t-70 70t70 70zM745 1466q70 0 70 -70t-70 -70t-70 70t70 70zM559 1466q69 0 69 -70t-69 -70q-70 0 -70 70t70 70zM373 1466q69 0 69 -70t-69 -70q-70 0 -70 70t70 70zM279 1280q70 0 70 -70t-70 -70t-70 70t70 70zM279 1094q70 0 70 -70
t-70 -70t-70 70t70 70zM279 908q70 0 70 -70t-70 -70t-70 70t70 70zM931 722q70 0 70 -70t-70 -70t-70 70t70 70zM745 722q70 0 70 -70t-70 -70t-70 70t70 70zM559 722q69 0 69 -70t-69 -70q-70 0 -70 70t70 70zM373 722q69 0 69 -70t-69 -70q-70 0 -70 70t70 70z" />
    <glyph glyph-name="d" unicode="d" 
d="M373 722q69 0 69 -70t-69 -70q-70 0 -70 70t70 70zM559 722q69 0 69 -70t-69 -70q-70 0 -70 70t70 70zM745 722q70 0 70 -70t-70 -70t-70 70t70 70zM931 722q70 0 70 -70t-70 -70t-70 70t70 70zM279 908q70 0 70 -70t-70 -70t-70 70t70 70zM931 908q70 0 70 -70t-70 -70
t-70 70t70 70zM279 1094q70 0 70 -70t-70 -70t-70 70t70 70zM931 1094q70 0 70 -70t-70 -70t-70 70t70 70zM931 1466q70 0 70 -70t-70 -70t-70 70t70 70zM931 1652q70 0 70 -70q0 -69 -70 -69t-70 69q0 70 70 70zM931 1839q70 0 70 -70t-70 -70t-70 70t70 70zM279 1280
q70 0 70 -70t-70 -70t-70 70t70 70zM373 1466q69 0 69 -70t-69 -70q-70 0 -70 70t70 70zM559 1466q69 0 69 -70t-69 -70q-70 0 -70 70t70 70zM745 1466q70 0 70 -70t-70 -70t-70 70t70 70zM931 1280q70 0 70 -70t-70 -70t-70 70t70 70z" />
    <glyph glyph-name="b" unicode="b" 
d="M838 722q70 0 70 -70t-70 -70t-70 70t70 70zM652 722q70 0 70 -70t-70 -70t-70 70t70 70zM466 722q69 0 69 -70t-69 -70q-70 0 -70 70t70 70zM279 722q70 0 70 -70t-70 -70t-70 70t70 70zM931 908q70 0 70 -70t-70 -70t-70 70t70 70zM279 908q70 0 70 -70t-70 -70t-70 70
t70 70zM931 1094q70 0 70 -70t-70 -70t-70 70t70 70zM279 1094q70 0 70 -70t-70 -70t-70 70t70 70zM279 1466q70 0 70 -70t-70 -70t-70 70t70 70zM279 1652q70 0 70 -70q0 -69 -70 -69t-70 69q0 70 70 70zM279 1839q70 0 70 -70t-70 -70t-70 70t70 70zM931 1280q70 0 70 -70
t-70 -70t-70 70t70 70zM838 1466q70 0 70 -70t-70 -70t-70 70t70 70zM652 1466q70 0 70 -70t-70 -70t-70 70t70 70zM466 1466q69 0 69 -70t-69 -70q-70 0 -70 70t70 70zM279 1280q70 0 70 -70t-70 -70t-70 70t70 70z" />
    <glyph glyph-name="D" unicode="D" 
d="M279 1280q70 0 70 -70t-70 -70t-70 70t70 70zM466 1839q69 0 69 -70t-69 -70q-70 0 -70 70t70 70zM652 1839q70 0 70 -70t-70 -70t-70 70t70 70zM838 1839q70 0 70 -70t-70 -70t-70 70t70 70zM1024 1280q70 0 70 -70t-70 -70t-70 70t70 70zM1024 1466q70 0 70 -70
t-70 -70t-70 70t70 70zM1024 1652q70 0 70 -70q0 -69 -70 -69t-70 69q0 70 70 70zM279 1839q70 0 70 -70t-70 -70t-70 70t70 70zM279 1652q70 0 70 -70q0 -69 -70 -69t-70 69q0 70 70 70zM279 1466q70 0 70 -70t-70 -70t-70 70t70 70zM279 1094q70 0 70 -70t-70 -70t-70 70
t70 70zM1024 1094q70 0 70 -70t-70 -70t-70 70t70 70zM279 908q70 0 70 -70t-70 -70t-70 70t70 70zM1024 908q70 0 70 -70t-70 -70t-70 70t70 70zM279 722q70 0 70 -70t-70 -70t-70 70t70 70zM466 722q69 0 69 -70t-69 -70q-70 0 -70 70t70 70zM652 722q70 0 70 -70t-70 -70
t-70 70t70 70zM838 722q70 0 70 -70t-70 -70t-70 70t70 70z" />
    <glyph glyph-name="E" unicode="E" 
d="M1024 722q70 0 70 -70t-70 -70t-70 70t70 70zM652 722q70 0 70 -70t-70 -70t-70 70t70 70zM838 722q70 0 70 -70t-70 -70t-70 70t70 70zM466 722q69 0 69 -70t-69 -70q-70 0 -70 70t70 70zM279 722q70 0 70 -70t-70 -70t-70 70t70 70zM279 908q70 0 70 -70t-70 -70
t-70 70t70 70zM279 1094q70 0 70 -70t-70 -70t-70 70t70 70zM279 1466q70 0 70 -70t-70 -70t-70 70t70 70zM279 1652q70 0 70 -70q0 -69 -70 -69t-70 69q0 70 70 70zM279 1839q70 0 70 -70t-70 -70t-70 70t70 70zM838 1839q70 0 70 -70t-70 -70t-70 70t70 70zM1024 1839
q70 0 70 -70t-70 -70t-70 70t70 70zM652 1839q70 0 70 -70t-70 -70t-70 70t70 70zM466 1839q69 0 69 -70t-69 -70q-70 0 -70 70t70 70zM279 1280q70 0 70 -70t-70 -70t-70 70t70 70zM466 1280q69 0 69 -70t-69 -70q-70 0 -70 70t70 70zM652 1280q70 0 70 -70t-70 -70t-70 70
t70 70zM838 1280q70 0 70 -70t-70 -70t-70 70t70 70z" />
    <glyph glyph-name="F" unicode="F" 
d="M838 1280q70 0 70 -70t-70 -70t-70 70t70 70zM652 1280q70 0 70 -70t-70 -70t-70 70t70 70zM466 1280q69 0 69 -70t-69 -70q-70 0 -70 70t70 70zM279 1280q70 0 70 -70t-70 -70t-70 70t70 70zM466 1839q69 0 69 -70t-69 -70q-70 0 -70 70t70 70zM652 1839q70 0 70 -70
t-70 -70t-70 70t70 70zM1024 1839q70 0 70 -70t-70 -70t-70 70t70 70zM838 1839q70 0 70 -70t-70 -70t-70 70t70 70zM279 1839q70 0 70 -70t-70 -70t-70 70t70 70zM279 1652q70 0 70 -70q0 -69 -70 -69t-70 69q0 70 70 70zM279 1466q70 0 70 -70t-70 -70t-70 70t70 70z
M279 1094q70 0 70 -70t-70 -70t-70 70t70 70zM279 908q70 0 70 -70t-70 -70t-70 70t70 70zM279 722q70 0 70 -70t-70 -70t-70 70t70 70z" />
    <glyph glyph-name="G" unicode="G" 
d="M1024 1280q70 0 70 -70t-70 -70t-70 70t70 70zM838 1280q70 0 70 -70t-70 -70t-70 70t70 70zM652 1280q70 0 70 -70t-70 -70t-70 70t70 70zM279 1280q70 0 70 -70t-70 -70t-70 70t70 70zM559 1839q69 0 69 -70t-69 -70q-70 0 -70 70t70 70zM745 1839q70 0 70 -70t-70 -70
t-70 70t70 70zM931 1839q70 0 70 -70t-70 -70t-70 70t70 70zM373 1839q69 0 69 -70t-69 -70q-70 0 -70 70t70 70zM279 1652q70 0 70 -70q0 -69 -70 -69t-70 69q0 70 70 70zM1024 1652q70 0 70 -70q0 -69 -70 -69t-70 69q0 70 70 70zM279 1466q70 0 70 -70t-70 -70t-70 70
t70 70zM1024 1094q70 0 70 -70t-70 -70t-70 70t70 70zM279 1094q70 0 70 -70t-70 -70t-70 70t70 70zM1024 908q70 0 70 -70t-70 -70t-70 70t70 70zM279 908q70 0 70 -70t-70 -70t-70 70t70 70zM931 722q70 0 70 -70t-70 -70t-70 70t70 70zM745 722q70 0 70 -70t-70 -70
t-70 70t70 70zM559 722q69 0 69 -70t-69 -70q-70 0 -70 70t70 70zM373 722q69 0 69 -70t-69 -70q-70 0 -70 70t70 70z" />
    <glyph glyph-name="H" unicode="H" 
d="M279 722q70 0 70 -70t-70 -70t-70 70t70 70zM1024 722q70 0 70 -70t-70 -70t-70 70t70 70zM279 908q70 0 70 -70t-70 -70t-70 70t70 70zM1024 908q70 0 70 -70t-70 -70t-70 70t70 70zM279 1094q70 0 70 -70t-70 -70t-70 70t70 70zM1024 1094q70 0 70 -70t-70 -70t-70 70
t70 70zM279 1466q70 0 70 -70t-70 -70t-70 70t70 70zM1024 1466q70 0 70 -70t-70 -70t-70 70t70 70zM1024 1652q70 0 70 -70q0 -69 -70 -69t-70 69q0 70 70 70zM279 1652q70 0 70 -70q0 -69 -70 -69t-70 69q0 70 70 70zM279 1839q70 0 70 -70t-70 -70t-70 70t70 70z
M1024 1839q70 0 70 -70t-70 -70t-70 70t70 70zM279 1280q70 0 70 -70t-70 -70t-70 70t70 70zM466 1280q69 0 69 -70t-69 -70q-70 0 -70 70t70 70zM652 1280q70 0 70 -70t-70 -70t-70 70t70 70zM838 1280q70 0 70 -70t-70 -70t-70 70t70 70zM1024 1280q70 0 70 -70t-70 -70
t-70 70t70 70z" />
    <glyph glyph-name="Iacute" unicode="&#xcd;" 
d="M279 722q70 0 70 -70t-70 -70t-70 70t70 70zM1024 722q70 0 70 -70t-70 -70t-70 70t70 70zM279 908q70 0 70 -70t-70 -70t-70 70t70 70zM1024 908q70 0 70 -70t-70 -70t-70 70t70 70zM279 1094q70 0 70 -70t-70 -70t-70 70t70 70zM1024 1094q70 0 70 -70t-70 -70t-70 70
t70 70zM279 1466q70 0 70 -70t-70 -70t-70 70t70 70zM1024 1466q70 0 70 -70t-70 -70t-70 70t70 70zM1024 1652q70 0 70 -70q0 -69 -70 -69t-70 69q0 70 70 70zM279 1652q70 0 70 -70q0 -69 -70 -69t-70 69q0 70 70 70zM279 1839q70 0 70 -70t-70 -70t-70 70t70 70z
M1024 1839q70 0 70 -70t-70 -70t-70 70t70 70zM279 1280q70 0 70 -70t-70 -70t-70 70t70 70zM466 1280q69 0 69 -70t-69 -70q-70 0 -70 70t70 70zM652 1280q70 0 70 -70t-70 -70t-70 70t70 70zM838 1280q70 0 70 -70t-70 -70t-70 70t70 70zM1024 1280q70 0 70 -70t-70 -70
t-70 70t70 70z" />
    <glyph glyph-name="Iacute" unicode="&#x41d;" 
d="M279 722q70 0 70 -70t-70 -70t-70 70t70 70zM1024 722q70 0 70 -70t-70 -70t-70 70t70 70zM279 908q70 0 70 -70t-70 -70t-70 70t70 70zM1024 908q70 0 70 -70t-70 -70t-70 70t70 70zM279 1094q70 0 70 -70t-70 -70t-70 70t70 70zM1024 1094q70 0 70 -70t-70 -70t-70 70
t70 70zM279 1466q70 0 70 -70t-70 -70t-70 70t70 70zM1024 1466q70 0 70 -70t-70 -70t-70 70t70 70zM1024 1652q70 0 70 -70q0 -69 -70 -69t-70 69q0 70 70 70zM279 1652q70 0 70 -70q0 -69 -70 -69t-70 69q0 70 70 70zM279 1839q70 0 70 -70t-70 -70t-70 70t70 70z
M1024 1839q70 0 70 -70t-70 -70t-70 70t70 70zM279 1280q70 0 70 -70t-70 -70t-70 70t70 70zM466 1280q69 0 69 -70t-69 -70q-70 0 -70 70t70 70zM652 1280q70 0 70 -70t-70 -70t-70 70t70 70zM838 1280q70 0 70 -70t-70 -70t-70 70t70 70zM1024 1280q70 0 70 -70t-70 -70
t-70 70t70 70z" />
    <glyph glyph-name="Aring" unicode="&#xc5;" 
d="M838 1280q70 0 70 -70t-70 -70t-70 70t70 70zM652 1280q70 0 70 -70t-70 -70t-70 70t70 70zM466 1280q69 0 69 -70t-69 -70q-70 0 -70 70t70 70zM279 1280q70 0 70 -70t-70 -70t-70 70t70 70zM1024 1839q70 0 70 -70t-70 -70t-70 70t70 70zM838 1839q70 0 70 -70t-70 -70
t-70 70t70 70zM652 1839q70 0 70 -70t-70 -70t-70 70t70 70zM466 1839q69 0 69 -70t-69 -70q-70 0 -70 70t70 70zM279 1839q70 0 70 -70t-70 -70t-70 70t70 70zM279 1652q70 0 70 -70q0 -69 -70 -69t-70 69q0 70 70 70zM279 1466q70 0 70 -70t-70 -70t-70 70t70 70z
M279 1094q70 0 70 -70t-70 -70t-70 70t70 70zM279 908q70 0 70 -70t-70 -70t-70 70t70 70zM1024 722q70 0 70 -70t-70 -70t-70 70t70 70zM838 722q70 0 70 -70t-70 -70t-70 70t70 70zM652 722q70 0 70 -70t-70 -70t-70 70t70 70zM466 722q69 0 69 -70t-69 -70q-70 0 -70 70
t70 70zM279 722q70 0 70 -70t-70 -70t-70 70t70 70z" />
    <glyph glyph-name="Aring" unicode="&#x415;" 
d="M838 1280q70 0 70 -70t-70 -70t-70 70t70 70zM652 1280q70 0 70 -70t-70 -70t-70 70t70 70zM466 1280q69 0 69 -70t-69 -70q-70 0 -70 70t70 70zM279 1280q70 0 70 -70t-70 -70t-70 70t70 70zM1024 1839q70 0 70 -70t-70 -70t-70 70t70 70zM838 1839q70 0 70 -70t-70 -70
t-70 70t70 70zM652 1839q70 0 70 -70t-70 -70t-70 70t70 70zM466 1839q69 0 69 -70t-69 -70q-70 0 -70 70t70 70zM279 1839q70 0 70 -70t-70 -70t-70 70t70 70zM279 1652q70 0 70 -70q0 -69 -70 -69t-70 69q0 70 70 70zM279 1466q70 0 70 -70t-70 -70t-70 70t70 70z
M279 1094q70 0 70 -70t-70 -70t-70 70t70 70zM279 908q70 0 70 -70t-70 -70t-70 70t70 70zM1024 722q70 0 70 -70t-70 -70t-70 70t70 70zM838 722q70 0 70 -70t-70 -70t-70 70t70 70zM652 722q70 0 70 -70t-70 -70t-70 70t70 70zM466 722q69 0 69 -70t-69 -70q-70 0 -70 70
t70 70zM279 722q70 0 70 -70t-70 -70t-70 70t70 70z" />
    <glyph glyph-name="dieresis" unicode="&#xa8;" 
d="M279 722q70 0 70 -70t-70 -70t-70 70t70 70zM466 722q69 0 69 -70t-69 -70q-70 0 -70 70t70 70zM652 722q70 0 70 -70t-70 -70t-70 70t70 70zM838 722q70 0 70 -70t-70 -70t-70 70t70 70zM1024 722q70 0 70 -70t-70 -70t-70 70t70 70zM279 908q70 0 70 -70t-70 -70
t-70 70t70 70zM279 1094q70 0 70 -70t-70 -70t-70 70t70 70zM279 1466q70 0 70 -70t-70 -70t-70 70t70 70zM466 1839q69 0 69 -70t-69 -70q-70 0 -70 70t70 70zM466 1466q69 0 69 -70t-69 -70q-70 0 -70 70t70 70zM652 1466q70 0 70 -70t-70 -70t-70 70t70 70zM838 1839
q70 0 70 -70t-70 -70t-70 70t70 70zM838 1466q70 0 70 -70t-70 -70t-70 70t70 70zM1024 1466q70 0 70 -70t-70 -70t-70 70t70 70zM279 1280q70 0 70 -70t-70 -70t-70 70t70 70zM466 1094q69 0 69 -70t-69 -70q-70 0 -70 70t70 70zM652 1094q70 0 70 -70t-70 -70t-70 70
t70 70zM838 1094q70 0 70 -70t-70 -70t-70 70t70 70z" />
    <glyph glyph-name="dieresis" unicode="&#x401;" 
d="M279 722q70 0 70 -70t-70 -70t-70 70t70 70zM466 722q69 0 69 -70t-69 -70q-70 0 -70 70t70 70zM652 722q70 0 70 -70t-70 -70t-70 70t70 70zM838 722q70 0 70 -70t-70 -70t-70 70t70 70zM1024 722q70 0 70 -70t-70 -70t-70 70t70 70zM279 908q70 0 70 -70t-70 -70
t-70 70t70 70zM279 1094q70 0 70 -70t-70 -70t-70 70t70 70zM279 1466q70 0 70 -70t-70 -70t-70 70t70 70zM466 1839q69 0 69 -70t-69 -70q-70 0 -70 70t70 70zM466 1466q69 0 69 -70t-69 -70q-70 0 -70 70t70 70zM652 1466q70 0 70 -70t-70 -70t-70 70t70 70zM838 1839
q70 0 70 -70t-70 -70t-70 70t70 70zM838 1466q70 0 70 -70t-70 -70t-70 70t70 70zM1024 1466q70 0 70 -70t-70 -70t-70 70t70 70zM279 1280q70 0 70 -70t-70 -70t-70 70t70 70zM466 1094q69 0 69 -70t-69 -70q-70 0 -70 70t70 70zM652 1094q70 0 70 -70t-70 -70t-70 70
t70 70zM838 1094q70 0 70 -70t-70 -70t-70 70t70 70z" />
    <glyph glyph-name="cedilla" unicode="&#xb8;" 
d="M838 1094q70 0 70 -70t-70 -70t-70 70t70 70zM652 1094q70 0 70 -70t-70 -70t-70 70t70 70zM466 1094q69 0 69 -70t-69 -70q-70 0 -70 70t70 70zM279 1280q70 0 70 -70t-70 -70t-70 70t70 70zM1024 1280q70 0 70 -70t-70 -70t-70 70t70 70zM838 1466q70 0 70 -70t-70 -70
t-70 70t70 70zM838 1839q70 0 70 -70t-70 -70t-70 70t70 70zM652 1466q70 0 70 -70t-70 -70t-70 70t70 70zM466 1466q69 0 69 -70t-69 -70q-70 0 -70 70t70 70zM466 1839q69 0 69 -70t-69 -70q-70 0 -70 70t70 70zM279 1094q70 0 70 -70t-70 -70t-70 70t70 70zM279 908
q70 0 70 -70t-70 -70t-70 70t70 70zM1024 722q70 0 70 -70t-70 -70t-70 70t70 70zM838 722q70 0 70 -70t-70 -70t-70 70t70 70zM652 722q70 0 70 -70t-70 -70t-70 70t70 70zM466 722q69 0 69 -70t-69 -70q-70 0 -70 70t70 70z" />
    <glyph glyph-name="cedilla" unicode="&#x451;" 
d="M838 1094q70 0 70 -70t-70 -70t-70 70t70 70zM652 1094q70 0 70 -70t-70 -70t-70 70t70 70zM466 1094q69 0 69 -70t-69 -70q-70 0 -70 70t70 70zM279 1280q70 0 70 -70t-70 -70t-70 70t70 70zM1024 1280q70 0 70 -70t-70 -70t-70 70t70 70zM838 1466q70 0 70 -70t-70 -70
t-70 70t70 70zM838 1839q70 0 70 -70t-70 -70t-70 70t70 70zM652 1466q70 0 70 -70t-70 -70t-70 70t70 70zM466 1466q69 0 69 -70t-69 -70q-70 0 -70 70t70 70zM466 1839q69 0 69 -70t-69 -70q-70 0 -70 70t70 70zM279 1094q70 0 70 -70t-70 -70t-70 70t70 70zM279 908
q70 0 70 -70t-70 -70t-70 70t70 70zM1024 722q70 0 70 -70t-70 -70t-70 70t70 70zM838 722q70 0 70 -70t-70 -70t-70 70t70 70zM652 722q70 0 70 -70t-70 -70t-70 70t70 70zM466 722q69 0 69 -70t-69 -70q-70 0 -70 70t70 70z" />
    <glyph glyph-name="aring" unicode="&#xe5;" 
d="M466 722q69 0 69 -70t-69 -70q-70 0 -70 70t70 70zM652 722q70 0 70 -70t-70 -70t-70 70t70 70zM838 722q70 0 70 -70t-70 -70t-70 70t70 70zM1024 722q70 0 70 -70t-70 -70t-70 70t70 70zM279 908q70 0 70 -70t-70 -70t-70 70t70 70zM279 1094q70 0 70 -70t-70 -70
t-70 70t70 70zM466 1466q69 0 69 -70t-69 -70q-70 0 -70 70t70 70zM652 1466q70 0 70 -70t-70 -70t-70 70t70 70zM838 1466q70 0 70 -70t-70 -70t-70 70t70 70zM1024 1280q70 0 70 -70t-70 -70t-70 70t70 70zM279 1280q70 0 70 -70t-70 -70t-70 70t70 70zM466 1094
q69 0 69 -70t-69 -70q-70 0 -70 70t70 70zM652 1094q70 0 70 -70t-70 -70t-70 70t70 70zM838 1094q70 0 70 -70t-70 -70t-70 70t70 70z" />
    <glyph glyph-name="aring" unicode="&#x435;" 
d="M466 722q69 0 69 -70t-69 -70q-70 0 -70 70t70 70zM652 722q70 0 70 -70t-70 -70t-70 70t70 70zM838 722q70 0 70 -70t-70 -70t-70 70t70 70zM1024 722q70 0 70 -70t-70 -70t-70 70t70 70zM279 908q70 0 70 -70t-70 -70t-70 70t70 70zM279 1094q70 0 70 -70t-70 -70
t-70 70t70 70zM466 1466q69 0 69 -70t-69 -70q-70 0 -70 70t70 70zM652 1466q70 0 70 -70t-70 -70t-70 70t70 70zM838 1466q70 0 70 -70t-70 -70t-70 70t70 70zM1024 1280q70 0 70 -70t-70 -70t-70 70t70 70zM279 1280q70 0 70 -70t-70 -70t-70 70t70 70zM466 1094
q69 0 69 -70t-69 -70q-70 0 -70 70t70 70zM652 1094q70 0 70 -70t-70 -70t-70 70t70 70zM838 1094q70 0 70 -70t-70 -70t-70 70t70 70z" />
    <glyph glyph-name="e" unicode="e" 
d="M466 722q69 0 69 -70t-69 -70q-70 0 -70 70t70 70zM652 722q70 0 70 -70t-70 -70t-70 70t70 70zM838 722q70 0 70 -70t-70 -70t-70 70t70 70zM1024 722q70 0 70 -70t-70 -70t-70 70t70 70zM279 908q70 0 70 -70t-70 -70t-70 70t70 70zM279 1094q70 0 70 -70t-70 -70
t-70 70t70 70zM466 1466q69 0 69 -70t-69 -70q-70 0 -70 70t70 70zM652 1466q70 0 70 -70t-70 -70t-70 70t70 70zM838 1466q70 0 70 -70t-70 -70t-70 70t70 70zM1024 1280q70 0 70 -70t-70 -70t-70 70t70 70zM279 1280q70 0 70 -70t-70 -70t-70 70t70 70zM466 1094
q69 0 69 -70t-69 -70q-70 0 -70 70t70 70zM652 1094q70 0 70 -70t-70 -70t-70 70t70 70zM838 1094q70 0 70 -70t-70 -70t-70 70t70 70z" />
    <glyph glyph-name="J" unicode="J" 
d="M559 722q69 0 69 -70t-69 -70q-70 0 -70 70t70 70zM745 722q70 0 70 -70t-70 -70t-70 70t70 70zM931 722q70 0 70 -70t-70 -70t-70 70t70 70zM466 908q69 0 69 -70t-69 -70q-70 0 -70 70t70 70zM1024 908q70 0 70 -70t-70 -70t-70 70t70 70zM1024 1094q70 0 70 -70
t-70 -70t-70 70t70 70zM1024 1280q70 0 70 -70t-70 -70t-70 70t70 70zM1024 1466q70 0 70 -70t-70 -70t-70 70t70 70zM1024 1652q70 0 70 -70q0 -69 -70 -69t-70 69q0 70 70 70zM838 1839q70 0 70 -70t-70 -70t-70 70t70 70zM1024 1839q70 0 70 -70t-70 -70t-70 70t70 70z
M1210 1839q70 0 70 -70t-70 -70t-70 70t70 70z" />
    <glyph glyph-name="I" unicode="I" 
d="M1024 1839q70 0 70 -70t-70 -70t-70 70t70 70zM838 1839q70 0 70 -70t-70 -70t-70 70t70 70zM652 1839q70 0 70 -70t-70 -70t-70 70t70 70zM838 1652q70 0 70 -70q0 -69 -70 -69t-70 69q0 70 70 70zM838 1466q70 0 70 -70t-70 -70t-70 70t70 70zM838 1280q70 0 70 -70
t-70 -70t-70 70t70 70zM838 1094q70 0 70 -70t-70 -70t-70 70t70 70zM838 908q70 0 70 -70t-70 -70t-70 70t70 70zM838 722q70 0 70 -70t-70 -70t-70 70t70 70zM1024 722q70 0 70 -70t-70 -70t-70 70t70 70zM652 722q70 0 70 -70t-70 -70t-70 70t70 70z" />
    <glyph glyph-name="L" unicode="L" 
d="M559 722q69 0 69 -70t-69 -70q-70 0 -70 70t70 70zM745 722q70 0 70 -70t-70 -70t-70 70t70 70zM931 722q70 0 70 -70t-70 -70t-70 70t70 70zM1117 722q70 0 70 -70t-70 -70t-70 70t70 70zM373 722q69 0 69 -70t-69 -70q-70 0 -70 70t70 70zM373 908q69 0 69 -70t-69 -70
q-70 0 -70 70t70 70zM373 1094q69 0 69 -70t-69 -70q-70 0 -70 70t70 70zM373 1280q69 0 69 -70t-69 -70q-70 0 -70 70t70 70zM373 1466q69 0 69 -70t-69 -70q-70 0 -70 70t70 70zM373 1652q69 0 69 -70q0 -69 -69 -69q-70 0 -70 69q0 70 70 70zM373 1839q69 0 69 -70
t-69 -70q-70 0 -70 70t70 70z" />
    <glyph glyph-name="Egrave" unicode="&#xc8;" 
d="M279 722q70 0 70 -70t-70 -70t-70 70t70 70zM1024 722q70 0 70 -70t-70 -70t-70 70t70 70zM279 908q70 0 70 -70t-70 -70t-70 70t70 70zM466 908q69 0 69 -70t-69 -70q-70 0 -70 70t70 70zM1024 908q70 0 70 -70t-70 -70t-70 70t70 70zM279 1094q70 0 70 -70t-70 -70
t-70 70t70 70zM559 1094q69 0 69 -70t-69 -70q-70 0 -70 70t70 70zM1024 1094q70 0 70 -70t-70 -70t-70 70t70 70zM279 1280q70 0 70 -70t-70 -70t-70 70t70 70zM652 1280q70 0 70 -70t-70 -70t-70 70t70 70zM1024 1280q70 0 70 -70t-70 -70t-70 70t70 70zM279 1466
q70 0 70 -70t-70 -70t-70 70t70 70zM745 1466q70 0 70 -70t-70 -70t-70 70t70 70zM1024 1466q70 0 70 -70t-70 -70t-70 70t70 70zM279 1652q70 0 70 -70q0 -69 -70 -69t-70 69q0 70 70 70zM838 1652q70 0 70 -70q0 -69 -70 -69t-70 69q0 70 70 70zM1024 1652q70 0 70 -70
q0 -69 -70 -69t-70 69q0 70 70 70zM279 1839q70 0 70 -70t-70 -70t-70 70t70 70zM1024 1839q70 0 70 -70t-70 -70t-70 70t70 70z" />
    <glyph glyph-name="Egrave" unicode="&#x418;" 
d="M279 722q70 0 70 -70t-70 -70t-70 70t70 70zM1024 722q70 0 70 -70t-70 -70t-70 70t70 70zM279 908q70 0 70 -70t-70 -70t-70 70t70 70zM466 908q69 0 69 -70t-69 -70q-70 0 -70 70t70 70zM1024 908q70 0 70 -70t-70 -70t-70 70t70 70zM279 1094q70 0 70 -70t-70 -70
t-70 70t70 70zM559 1094q69 0 69 -70t-69 -70q-70 0 -70 70t70 70zM1024 1094q70 0 70 -70t-70 -70t-70 70t70 70zM279 1280q70 0 70 -70t-70 -70t-70 70t70 70zM652 1280q70 0 70 -70t-70 -70t-70 70t70 70zM1024 1280q70 0 70 -70t-70 -70t-70 70t70 70zM279 1466
q70 0 70 -70t-70 -70t-70 70t70 70zM745 1466q70 0 70 -70t-70 -70t-70 70t70 70zM1024 1466q70 0 70 -70t-70 -70t-70 70t70 70zM279 1652q70 0 70 -70q0 -69 -70 -69t-70 69q0 70 70 70zM838 1652q70 0 70 -70q0 -69 -70 -69t-70 69q0 70 70 70zM1024 1652q70 0 70 -70
q0 -69 -70 -69t-70 69q0 70 70 70zM279 1839q70 0 70 -70t-70 -70t-70 70t70 70zM1024 1839q70 0 70 -70t-70 -70t-70 70t70 70z" />
    <glyph glyph-name="N" unicode="N" 
d="M1024 722q70 0 70 -70t-70 -70t-70 70t70 70zM279 722q70 0 70 -70t-70 -70t-70 70t70 70zM1024 908q70 0 70 -70t-70 -70t-70 70t70 70zM838 908q70 0 70 -70t-70 -70t-70 70t70 70zM279 908q70 0 70 -70t-70 -70t-70 70t70 70zM1024 1094q70 0 70 -70t-70 -70t-70 70
t70 70zM745 1094q70 0 70 -70t-70 -70t-70 70t70 70zM279 1094q70 0 70 -70t-70 -70t-70 70t70 70zM1024 1280q70 0 70 -70t-70 -70t-70 70t70 70zM652 1280q70 0 70 -70t-70 -70t-70 70t70 70zM279 1280q70 0 70 -70t-70 -70t-70 70t70 70zM1024 1466q70 0 70 -70t-70 -70
t-70 70t70 70zM559 1466q69 0 69 -70t-69 -70q-70 0 -70 70t70 70zM279 1466q70 0 70 -70t-70 -70t-70 70t70 70zM1024 1652q70 0 70 -70q0 -69 -70 -69t-70 69q0 70 70 70zM466 1652q69 0 69 -70q0 -69 -69 -69q-70 0 -70 69q0 70 70 70zM279 1652q70 0 70 -70
q0 -69 -70 -69t-70 69q0 70 70 70zM1024 1839q70 0 70 -70t-70 -70t-70 70t70 70zM279 1839q70 0 70 -70t-70 -70t-70 70t70 70z" />
    <glyph glyph-name="onesuperior" unicode="&#xb9;" 
d="M559 1280q69 0 69 -70t-69 -70q-70 0 -70 70t70 70zM652 1466q70 0 70 -70t-70 -70t-70 70t70 70zM559 1652q69 0 69 -70q0 -69 -69 -69q-70 0 -70 69q0 70 70 70zM745 1652q70 0 70 -70q0 -69 -70 -69t-70 69q0 70 70 70zM559 1839q69 0 69 -70t-69 -70q-70 0 -70 70
t70 70zM745 1839q70 0 70 -70t-70 -70t-70 70t70 70z" />
    <glyph glyph-name="onesuperior" unicode="&#x2116;" 
d="M559 1280q69 0 69 -70t-69 -70q-70 0 -70 70t70 70zM652 1466q70 0 70 -70t-70 -70t-70 70t70 70zM559 1652q69 0 69 -70q0 -69 -69 -69q-70 0 -70 69q0 70 70 70zM745 1652q70 0 70 -70q0 -69 -70 -69t-70 69q0 70 70 70zM559 1839q69 0 69 -70t-69 -70q-70 0 -70 70
t70 70zM745 1839q70 0 70 -70t-70 -70t-70 70t70 70z" />
    <glyph glyph-name="Eacute" unicode="&#xc9;" 
d="M466 1839q69 0 69 -70t-69 -70q-70 0 -70 70t70 70zM652 1839q70 0 70 -70t-70 -70t-70 70t70 70zM838 1839q70 0 70 -70t-70 -70t-70 70t70 70zM1024 1466q70 0 70 -70t-70 -70t-70 70t70 70zM838 1466q70 0 70 -70t-70 -70t-70 70t70 70zM279 1466q70 0 70 -70t-70 -70
t-70 70t70 70zM1024 1280q70 0 70 -70t-70 -70t-70 70t70 70zM745 1280q70 0 70 -70t-70 -70t-70 70t70 70zM279 1280q70 0 70 -70t-70 -70t-70 70t70 70zM1024 1094q70 0 70 -70t-70 -70t-70 70t70 70zM559 1094q69 0 69 -70t-69 -70q-70 0 -70 70t70 70zM279 1094
q70 0 70 -70t-70 -70t-70 70t70 70zM1024 908q70 0 70 -70t-70 -70t-70 70t70 70zM466 908q69 0 69 -70t-69 -70q-70 0 -70 70t70 70zM279 908q70 0 70 -70t-70 -70t-70 70t70 70zM1024 722q70 0 70 -70t-70 -70t-70 70t70 70zM279 722q70 0 70 -70t-70 -70t-70 70t70 70z
" />
    <glyph glyph-name="Eacute" unicode="&#x419;" 
d="M466 1839q69 0 69 -70t-69 -70q-70 0 -70 70t70 70zM652 1839q70 0 70 -70t-70 -70t-70 70t70 70zM838 1839q70 0 70 -70t-70 -70t-70 70t70 70zM1024 1466q70 0 70 -70t-70 -70t-70 70t70 70zM838 1466q70 0 70 -70t-70 -70t-70 70t70 70zM279 1466q70 0 70 -70t-70 -70
t-70 70t70 70zM1024 1280q70 0 70 -70t-70 -70t-70 70t70 70zM745 1280q70 0 70 -70t-70 -70t-70 70t70 70zM279 1280q70 0 70 -70t-70 -70t-70 70t70 70zM1024 1094q70 0 70 -70t-70 -70t-70 70t70 70zM559 1094q69 0 69 -70t-69 -70q-70 0 -70 70t70 70zM279 1094
q70 0 70 -70t-70 -70t-70 70t70 70zM1024 908q70 0 70 -70t-70 -70t-70 70t70 70zM466 908q69 0 69 -70t-69 -70q-70 0 -70 70t70 70zM279 908q70 0 70 -70t-70 -70t-70 70t70 70zM1024 722q70 0 70 -70t-70 -70t-70 70t70 70zM279 722q70 0 70 -70t-70 -70t-70 70t70 70z
" />
    <glyph glyph-name="Ecircumflex" unicode="&#xca;" 
d="M279 722q70 0 70 -70t-70 -70t-70 70t70 70zM1024 722q70 0 70 -70t-70 -70t-70 70t70 70zM279 908q70 0 70 -70t-70 -70t-70 70t70 70zM838 908q70 0 70 -70t-70 -70t-70 70t70 70zM279 1094q70 0 70 -70t-70 -70t-70 70t70 70zM652 1094q70 0 70 -70t-70 -70t-70 70
t70 70zM279 1280q70 0 70 -70t-70 -70t-70 70t70 70zM466 1280q69 0 69 -70t-69 -70q-70 0 -70 70t70 70zM279 1466q70 0 70 -70t-70 -70t-70 70t70 70zM652 1466q70 0 70 -70t-70 -70t-70 70t70 70zM279 1652q70 0 70 -70q0 -69 -70 -69t-70 69q0 70 70 70zM838 1652
q70 0 70 -70q0 -69 -70 -69t-70 69q0 70 70 70zM279 1839q70 0 70 -70t-70 -70t-70 70t70 70zM1024 1839q70 0 70 -70t-70 -70t-70 70t70 70z" />
    <glyph glyph-name="Ecircumflex" unicode="&#x41a;" 
d="M279 722q70 0 70 -70t-70 -70t-70 70t70 70zM1024 722q70 0 70 -70t-70 -70t-70 70t70 70zM279 908q70 0 70 -70t-70 -70t-70 70t70 70zM838 908q70 0 70 -70t-70 -70t-70 70t70 70zM279 1094q70 0 70 -70t-70 -70t-70 70t70 70zM652 1094q70 0 70 -70t-70 -70t-70 70
t70 70zM279 1280q70 0 70 -70t-70 -70t-70 70t70 70zM466 1280q69 0 69 -70t-69 -70q-70 0 -70 70t70 70zM279 1466q70 0 70 -70t-70 -70t-70 70t70 70zM652 1466q70 0 70 -70t-70 -70t-70 70t70 70zM279 1652q70 0 70 -70q0 -69 -70 -69t-70 69q0 70 70 70zM838 1652
q70 0 70 -70q0 -69 -70 -69t-70 69q0 70 70 70zM279 1839q70 0 70 -70t-70 -70t-70 70t70 70zM1024 1839q70 0 70 -70t-70 -70t-70 70t70 70z" />
    <glyph glyph-name="K" unicode="K" 
d="M279 722q70 0 70 -70t-70 -70t-70 70t70 70zM1024 722q70 0 70 -70t-70 -70t-70 70t70 70zM279 908q70 0 70 -70t-70 -70t-70 70t70 70zM838 908q70 0 70 -70t-70 -70t-70 70t70 70zM279 1094q70 0 70 -70t-70 -70t-70 70t70 70zM652 1094q70 0 70 -70t-70 -70t-70 70
t70 70zM279 1280q70 0 70 -70t-70 -70t-70 70t70 70zM466 1280q69 0 69 -70t-69 -70q-70 0 -70 70t70 70zM279 1466q70 0 70 -70t-70 -70t-70 70t70 70zM652 1466q70 0 70 -70t-70 -70t-70 70t70 70zM279 1652q70 0 70 -70q0 -69 -70 -69t-70 69q0 70 70 70zM838 1652
q70 0 70 -70q0 -69 -70 -69t-70 69q0 70 70 70zM279 1839q70 0 70 -70t-70 -70t-70 70t70 70zM1024 1839q70 0 70 -70t-70 -70t-70 70t70 70z" />
    <glyph glyph-name="P" unicode="P" 
d="M279 1839q70 0 70 -70t-70 -70t-70 70t70 70zM466 1839q69 0 69 -70t-69 -70q-70 0 -70 70t70 70zM652 1839q70 0 70 -70t-70 -70t-70 70t70 70zM838 1839q70 0 70 -70t-70 -70t-70 70t70 70zM1024 1652q70 0 70 -70q0 -69 -70 -69t-70 69q0 70 70 70zM279 1652
q70 0 70 -70q0 -69 -70 -69t-70 69q0 70 70 70zM1024 1466q70 0 70 -70t-70 -70t-70 70t70 70zM279 1466q70 0 70 -70t-70 -70t-70 70t70 70zM279 1280q70 0 70 -70t-70 -70t-70 70t70 70zM1024 1280q70 0 70 -70t-70 -70t-70 70t70 70zM279 1094q70 0 70 -70t-70 -70
t-70 70t70 70zM466 1094q69 0 69 -70t-69 -70q-70 0 -70 70t70 70zM652 1094q70 0 70 -70t-70 -70t-70 70t70 70zM838 1094q70 0 70 -70t-70 -70t-70 70t70 70zM279 908q70 0 70 -70t-70 -70t-70 70t70 70zM279 722q70 0 70 -70t-70 -70t-70 70t70 70z" />
    <glyph glyph-name="Eth" unicode="&#xd0;" 
d="M279 1839q70 0 70 -70t-70 -70t-70 70t70 70zM466 1839q69 0 69 -70t-69 -70q-70 0 -70 70t70 70zM652 1839q70 0 70 -70t-70 -70t-70 70t70 70zM838 1839q70 0 70 -70t-70 -70t-70 70t70 70zM1024 1652q70 0 70 -70q0 -69 -70 -69t-70 69q0 70 70 70zM279 1652
q70 0 70 -70q0 -69 -70 -69t-70 69q0 70 70 70zM1024 1466q70 0 70 -70t-70 -70t-70 70t70 70zM279 1466q70 0 70 -70t-70 -70t-70 70t70 70zM279 1280q70 0 70 -70t-70 -70t-70 70t70 70zM1024 1280q70 0 70 -70t-70 -70t-70 70t70 70zM279 1094q70 0 70 -70t-70 -70
t-70 70t70 70zM466 1094q69 0 69 -70t-69 -70q-70 0 -70 70t70 70zM652 1094q70 0 70 -70t-70 -70t-70 70t70 70zM838 1094q70 0 70 -70t-70 -70t-70 70t70 70zM279 908q70 0 70 -70t-70 -70t-70 70t70 70zM279 722q70 0 70 -70t-70 -70t-70 70t70 70z" />
    <glyph glyph-name="Eth" unicode="&#x420;" 
d="M279 1839q70 0 70 -70t-70 -70t-70 70t70 70zM466 1839q69 0 69 -70t-69 -70q-70 0 -70 70t70 70zM652 1839q70 0 70 -70t-70 -70t-70 70t70 70zM838 1839q70 0 70 -70t-70 -70t-70 70t70 70zM1024 1652q70 0 70 -70q0 -69 -70 -69t-70 69q0 70 70 70zM279 1652
q70 0 70 -70q0 -69 -70 -69t-70 69q0 70 70 70zM1024 1466q70 0 70 -70t-70 -70t-70 70t70 70zM279 1466q70 0 70 -70t-70 -70t-70 70t70 70zM279 1280q70 0 70 -70t-70 -70t-70 70t70 70zM1024 1280q70 0 70 -70t-70 -70t-70 70t70 70zM279 1094q70 0 70 -70t-70 -70
t-70 70t70 70zM466 1094q69 0 69 -70t-69 -70q-70 0 -70 70t70 70zM652 1094q70 0 70 -70t-70 -70t-70 70t70 70zM838 1094q70 0 70 -70t-70 -70t-70 70t70 70zM279 908q70 0 70 -70t-70 -70t-70 70t70 70zM279 722q70 0 70 -70t-70 -70t-70 70t70 70z" />
    <glyph glyph-name="Icircumflex" unicode="&#xce;" 
d="M279 722q70 0 70 -70t-70 -70t-70 70t70 70zM466 722q69 0 69 -70t-69 -70q-70 0 -70 70t70 70zM652 722q70 0 70 -70t-70 -70t-70 70t70 70zM838 722q70 0 70 -70t-70 -70t-70 70t70 70zM186 908q70 0 70 -70t-70 -70t-70 70t70 70zM931 908q70 0 70 -70t-70 -70t-70 70
t70 70zM186 1094q70 0 70 -70t-70 -70t-70 70t70 70zM931 1094q70 0 70 -70t-70 -70t-70 70t70 70zM931 1280q70 0 70 -70t-70 -70t-70 70t70 70zM186 1280q70 0 70 -70t-70 -70t-70 70t70 70zM186 1466q70 0 70 -70t-70 -70t-70 70t70 70zM931 1466q70 0 70 -70t-70 -70
t-70 70t70 70zM186 1652q70 0 70 -70q0 -69 -70 -69t-70 69q0 70 70 70zM931 1652q70 0 70 -70q0 -69 -70 -69t-70 69q0 70 70 70zM838 1839q70 0 70 -70t-70 -70t-70 70t70 70zM652 1839q70 0 70 -70t-70 -70t-70 70t70 70zM466 1839q69 0 69 -70t-69 -70q-70 0 -70 70
t70 70zM279 1839q70 0 70 -70t-70 -70t-70 70t70 70z" />
    <glyph glyph-name="Icircumflex" unicode="&#x41e;" 
d="M279 722q70 0 70 -70t-70 -70t-70 70t70 70zM466 722q69 0 69 -70t-69 -70q-70 0 -70 70t70 70zM652 722q70 0 70 -70t-70 -70t-70 70t70 70zM838 722q70 0 70 -70t-70 -70t-70 70t70 70zM186 908q70 0 70 -70t-70 -70t-70 70t70 70zM931 908q70 0 70 -70t-70 -70t-70 70
t70 70zM186 1094q70 0 70 -70t-70 -70t-70 70t70 70zM931 1094q70 0 70 -70t-70 -70t-70 70t70 70zM931 1280q70 0 70 -70t-70 -70t-70 70t70 70zM186 1280q70 0 70 -70t-70 -70t-70 70t70 70zM186 1466q70 0 70 -70t-70 -70t-70 70t70 70zM931 1466q70 0 70 -70t-70 -70
t-70 70t70 70zM186 1652q70 0 70 -70q0 -69 -70 -69t-70 69q0 70 70 70zM931 1652q70 0 70 -70q0 -69 -70 -69t-70 69q0 70 70 70zM838 1839q70 0 70 -70t-70 -70t-70 70t70 70zM652 1839q70 0 70 -70t-70 -70t-70 70t70 70zM466 1839q69 0 69 -70t-69 -70q-70 0 -70 70
t70 70zM279 1839q70 0 70 -70t-70 -70t-70 70t70 70z" />
    <glyph glyph-name="O" unicode="O" 
d="M279 722q70 0 70 -70t-70 -70t-70 70t70 70zM466 722q69 0 69 -70t-69 -70q-70 0 -70 70t70 70zM652 722q70 0 70 -70t-70 -70t-70 70t70 70zM838 722q70 0 70 -70t-70 -70t-70 70t70 70zM186 908q70 0 70 -70t-70 -70t-70 70t70 70zM931 908q70 0 70 -70t-70 -70t-70 70
t70 70zM186 1094q70 0 70 -70t-70 -70t-70 70t70 70zM931 1094q70 0 70 -70t-70 -70t-70 70t70 70zM931 1280q70 0 70 -70t-70 -70t-70 70t70 70zM186 1280q70 0 70 -70t-70 -70t-70 70t70 70zM186 1466q70 0 70 -70t-70 -70t-70 70t70 70zM931 1466q70 0 70 -70t-70 -70
t-70 70t70 70zM186 1652q70 0 70 -70q0 -69 -70 -69t-70 69q0 70 70 70zM931 1652q70 0 70 -70q0 -69 -70 -69t-70 69q0 70 70 70zM838 1839q70 0 70 -70t-70 -70t-70 70t70 70zM652 1839q70 0 70 -70t-70 -70t-70 70t70 70zM466 1839q69 0 69 -70t-69 -70q-70 0 -70 70
t70 70zM279 1839q70 0 70 -70t-70 -70t-70 70t70 70z" />
    <glyph glyph-name="S" unicode="S" 
d="M279 722q70 0 70 -70t-70 -70t-70 70t70 70zM466 722q69 0 69 -70t-69 -70q-70 0 -70 70t70 70zM652 722q70 0 70 -70t-70 -70t-70 70t70 70zM838 722q70 0 70 -70t-70 -70t-70 70t70 70zM186 908q70 0 70 -70t-70 -70t-70 70t70 70zM931 908q70 0 70 -70t-70 -70t-70 70
t70 70zM931 1094q70 0 70 -70t-70 -70t-70 70t70 70zM279 1280q70 0 70 -70t-70 -70t-70 70t70 70zM466 1280q69 0 69 -70t-69 -70q-70 0 -70 70t70 70zM652 1280q70 0 70 -70t-70 -70t-70 70t70 70zM838 1280q70 0 70 -70t-70 -70t-70 70t70 70zM186 1466q70 0 70 -70
t-70 -70t-70 70t70 70zM186 1652q70 0 70 -70q0 -69 -70 -69t-70 69q0 70 70 70zM931 1652q70 0 70 -70q0 -69 -70 -69t-70 69q0 70 70 70zM838 1839q70 0 70 -70t-70 -70t-70 70t70 70zM652 1839q70 0 70 -70t-70 -70t-70 70t70 70zM466 1839q69 0 69 -70t-69 -70
q-70 0 -70 70t70 70zM279 1839q70 0 70 -70t-70 -70t-70 70t70 70z" />
    <glyph glyph-name="Q" unicode="Q" 
d="M279 1839q70 0 70 -70t-70 -70t-70 70t70 70zM466 1839q69 0 69 -70t-69 -70q-70 0 -70 70t70 70zM652 1839q-70 0 -70 -70t70 -70t70 70t-70 70zM838 1839q70 0 70 -70t-70 -70t-70 70t70 70zM931 1652q70 0 70 -70q0 -69 -70 -69t-70 69q0 70 70 70zM186 1652
q70 0 70 -70q0 -69 -70 -69t-70 69q0 70 70 70zM186 1466q70 0 70 -70t-70 -70t-70 70t70 70zM931 1466q-70 0 -70 -70t70 -70t70 70t-70 70zM186 1280q-70 0 -70 -70t70 -70t70 70t-70 70zM931 1280q70 0 70 -70t-70 -70t-70 70t70 70zM186 1094q-70 0 -70 -70t70 -70
t70 70t-70 70zM931 1094q70 0 70 -70t-70 -70t-70 70t70 70zM931 908q-70 0 -70 -70t70 -70t70 70t-70 70zM186 908q70 0 70 -70t-70 -70t-70 70t70 70zM559 908q-70 0 -70 -70t70 -70q69 0 69 70t-69 70zM838 722q70 0 70 -70t-70 -70t-70 70t70 70zM652 722q-70 0 -70 -70
t70 -70t70 70t-70 70zM745 535q70 0 70 -69q0 -70 -70 -70t-70 70q0 69 70 69zM466 722q69 0 69 -70t-69 -70q-70 0 -70 70t70 70zM279 722q-70 0 -70 -70t70 -70t70 70t-70 70z" />
    <glyph glyph-name="M" unicode="M" 
d="M279 722q70 0 70 -70t-70 -70t-70 70t70 70zM1024 722q70 0 70 -70t-70 -70t-70 70t70 70zM279 908q70 0 70 -70t-70 -70t-70 70t70 70zM1024 908q70 0 70 -70t-70 -70t-70 70t70 70zM279 1094q70 0 70 -70t-70 -70t-70 70t70 70zM1024 1094q70 0 70 -70t-70 -70t-70 70
t70 70zM279 1280q70 0 70 -70t-70 -70t-70 70t70 70zM652 1280q70 0 70 -70t-70 -70t-70 70t70 70zM1024 1280q70 0 70 -70t-70 -70t-70 70t70 70zM279 1466q70 0 70 -70t-70 -70t-70 70t70 70zM559 1466q69 0 69 -70t-69 -70q-70 0 -70 70t70 70zM745 1466q70 0 70 -70
t-70 -70t-70 70t70 70zM1024 1466q70 0 70 -70t-70 -70t-70 70t70 70zM279 1652q70 0 70 -70q0 -69 -70 -69t-70 69q0 70 70 70zM466 1652q69 0 69 -70q0 -69 -69 -69q-70 0 -70 69q0 70 70 70zM838 1652q70 0 70 -70q0 -69 -70 -69t-70 69q0 70 70 70zM1024 1652
q70 0 70 -70q0 -69 -70 -69t-70 69q0 70 70 70zM279 1839q70 0 70 -70t-70 -70t-70 70t70 70zM1024 1839q70 0 70 -70t-70 -70t-70 70t70 70z" />
    <glyph glyph-name="Igrave" unicode="&#xcc;" 
d="M279 722q70 0 70 -70t-70 -70t-70 70t70 70zM1024 722q70 0 70 -70t-70 -70t-70 70t70 70zM279 908q70 0 70 -70t-70 -70t-70 70t70 70zM1024 908q70 0 70 -70t-70 -70t-70 70t70 70zM279 1094q70 0 70 -70t-70 -70t-70 70t70 70zM1024 1094q70 0 70 -70t-70 -70t-70 70
t70 70zM279 1280q70 0 70 -70t-70 -70t-70 70t70 70zM652 1280q70 0 70 -70t-70 -70t-70 70t70 70zM1024 1280q70 0 70 -70t-70 -70t-70 70t70 70zM279 1466q70 0 70 -70t-70 -70t-70 70t70 70zM559 1466q69 0 69 -70t-69 -70q-70 0 -70 70t70 70zM745 1466q70 0 70 -70
t-70 -70t-70 70t70 70zM1024 1466q70 0 70 -70t-70 -70t-70 70t70 70zM279 1652q70 0 70 -70q0 -69 -70 -69t-70 69q0 70 70 70zM466 1652q69 0 69 -70q0 -69 -69 -69q-70 0 -70 69q0 70 70 70zM838 1652q70 0 70 -70q0 -69 -70 -69t-70 69q0 70 70 70zM1024 1652
q70 0 70 -70q0 -69 -70 -69t-70 69q0 70 70 70zM279 1839q70 0 70 -70t-70 -70t-70 70t70 70zM1024 1839q70 0 70 -70t-70 -70t-70 70t70 70z" />
    <glyph glyph-name="Igrave" unicode="&#x41c;" 
d="M279 722q70 0 70 -70t-70 -70t-70 70t70 70zM1024 722q70 0 70 -70t-70 -70t-70 70t70 70zM279 908q70 0 70 -70t-70 -70t-70 70t70 70zM1024 908q70 0 70 -70t-70 -70t-70 70t70 70zM279 1094q70 0 70 -70t-70 -70t-70 70t70 70zM1024 1094q70 0 70 -70t-70 -70t-70 70
t70 70zM279 1280q70 0 70 -70t-70 -70t-70 70t70 70zM652 1280q70 0 70 -70t-70 -70t-70 70t70 70zM1024 1280q70 0 70 -70t-70 -70t-70 70t70 70zM279 1466q70 0 70 -70t-70 -70t-70 70t70 70zM559 1466q69 0 69 -70t-69 -70q-70 0 -70 70t70 70zM745 1466q70 0 70 -70
t-70 -70t-70 70t70 70zM1024 1466q70 0 70 -70t-70 -70t-70 70t70 70zM279 1652q70 0 70 -70q0 -69 -70 -69t-70 69q0 70 70 70zM466 1652q69 0 69 -70q0 -69 -69 -69q-70 0 -70 69q0 70 70 70zM838 1652q70 0 70 -70q0 -69 -70 -69t-70 69q0 70 70 70zM1024 1652
q70 0 70 -70q0 -69 -70 -69t-70 69q0 70 70 70zM279 1839q70 0 70 -70t-70 -70t-70 70t70 70zM1024 1839q70 0 70 -70t-70 -70t-70 70t70 70z" />
    <glyph glyph-name="Ograve" unicode="&#xd2;" 
d="M838 1839q70 0 70 -70t-70 -70t-70 70t70 70zM652 1839q70 0 70 -70t-70 -70t-70 70t70 70zM466 1839q69 0 69 -70t-69 -70q-70 0 -70 70t70 70zM1024 1839q70 0 70 -70t-70 -70t-70 70t70 70zM1210 1839q70 0 70 -70t-70 -70t-70 70t70 70zM838 1652q70 0 70 -70
q0 -69 -70 -69t-70 69q0 70 70 70zM838 1466q70 0 70 -70t-70 -70t-70 70t70 70zM838 1280q70 0 70 -70t-70 -70t-70 70t70 70zM838 1094q70 0 70 -70t-70 -70t-70 70t70 70zM838 908q70 0 70 -70t-70 -70t-70 70t70 70zM838 722q70 0 70 -70t-70 -70t-70 70t70 70z" />
    <glyph glyph-name="Ograve" unicode="&#x422;" 
d="M838 1839q70 0 70 -70t-70 -70t-70 70t70 70zM652 1839q70 0 70 -70t-70 -70t-70 70t70 70zM466 1839q69 0 69 -70t-69 -70q-70 0 -70 70t70 70zM1024 1839q70 0 70 -70t-70 -70t-70 70t70 70zM1210 1839q70 0 70 -70t-70 -70t-70 70t70 70zM838 1652q70 0 70 -70
q0 -69 -70 -69t-70 69q0 70 70 70zM838 1466q70 0 70 -70t-70 -70t-70 70t70 70zM838 1280q70 0 70 -70t-70 -70t-70 70t70 70zM838 1094q70 0 70 -70t-70 -70t-70 70t70 70zM838 908q70 0 70 -70t-70 -70t-70 70t70 70zM838 722q70 0 70 -70t-70 -70t-70 70t70 70z" />
    <glyph glyph-name="T" unicode="T" 
d="M838 1839q70 0 70 -70t-70 -70t-70 70t70 70zM652 1839q70 0 70 -70t-70 -70t-70 70t70 70zM466 1839q69 0 69 -70t-69 -70q-70 0 -70 70t70 70zM1024 1839q70 0 70 -70t-70 -70t-70 70t70 70zM1210 1839q70 0 70 -70t-70 -70t-70 70t70 70zM838 1652q70 0 70 -70
q0 -69 -70 -69t-70 69q0 70 70 70zM838 1466q70 0 70 -70t-70 -70t-70 70t70 70zM838 1280q70 0 70 -70t-70 -70t-70 70t70 70zM838 1094q70 0 70 -70t-70 -70t-70 70t70 70zM838 908q70 0 70 -70t-70 -70t-70 70t70 70zM838 722q70 0 70 -70t-70 -70t-70 70t70 70z" />
    <glyph glyph-name="U" unicode="U" 
d="M373 722q69 0 69 -70t-69 -70q-70 0 -70 70t70 70zM559 722q69 0 69 -70t-69 -70q-70 0 -70 70t70 70zM745 722q70 0 70 -70t-70 -70t-70 70t70 70zM931 722q70 0 70 -70t-70 -70t-70 70t70 70zM279 908q70 0 70 -70t-70 -70t-70 70t70 70zM1024 908q70 0 70 -70t-70 -70
t-70 70t70 70zM279 1094q70 0 70 -70t-70 -70t-70 70t70 70zM1024 1094q70 0 70 -70t-70 -70t-70 70t70 70zM279 1280q70 0 70 -70t-70 -70t-70 70t70 70zM1024 1280q70 0 70 -70t-70 -70t-70 70t70 70zM279 1466q70 0 70 -70t-70 -70t-70 70t70 70zM1024 1466q70 0 70 -70
t-70 -70t-70 70t70 70zM279 1652q70 0 70 -70q0 -69 -70 -69t-70 69q0 70 70 70zM1024 1652q70 0 70 -70q0 -69 -70 -69t-70 69q0 70 70 70zM279 1839q70 0 70 -70t-70 -70t-70 70t70 70zM1024 1839q70 0 70 -70t-70 -70t-70 70t70 70z" />
    <glyph glyph-name="Z" unicode="Z" 
d="M279 722q70 0 70 -70t-70 -70t-70 70t70 70zM466 722q69 0 69 -70t-69 -70q-70 0 -70 70t70 70zM652 722q70 0 70 -70t-70 -70t-70 70t70 70zM838 722q70 0 70 -70t-70 -70t-70 70t70 70zM1024 722q70 0 70 -70t-70 -70t-70 70t70 70zM373 908q69 0 69 -70t-69 -70
q-70 0 -70 70t70 70zM466 1094q69 0 69 -70t-69 -70q-70 0 -70 70t70 70zM652 1280q70 0 70 -70t-70 -70t-70 70t70 70zM745 1466q70 0 70 -70t-70 -70t-70 70t70 70zM838 1652q70 0 70 -70q0 -69 -70 -69t-70 69q0 70 70 70zM279 1839q70 0 70 -70t-70 -70t-70 70t70 70z
M466 1839q69 0 69 -70t-69 -70q-70 0 -70 70t70 70zM652 1839q70 0 70 -70t-70 -70t-70 70t70 70zM838 1839q70 0 70 -70t-70 -70t-70 70t70 70zM1024 1839q70 0 70 -70t-70 -70t-70 70t70 70z" />
    <glyph glyph-name="W" unicode="W" 
d="M373 722q69 0 69 -70t-69 -70q-70 0 -70 70t70 70zM931 722q70 0 70 -70t-70 -70t-70 70t70 70zM279 908q70 0 70 -70t-70 -70t-70 70t70 70zM466 908q69 0 69 -70t-69 -70q-70 0 -70 70t70 70zM838 908q70 0 70 -70t-70 -70t-70 70t70 70zM1024 908q70 0 70 -70t-70 -70
t-70 70t70 70zM279 1094q70 0 70 -70t-70 -70t-70 70t70 70zM559 1094q69 0 69 -70t-69 -70q-70 0 -70 70t70 70zM745 1094q70 0 70 -70t-70 -70t-70 70t70 70zM1024 1094q70 0 70 -70t-70 -70t-70 70t70 70zM279 1280q70 0 70 -70t-70 -70t-70 70t70 70zM652 1280
q70 0 70 -70t-70 -70t-70 70t70 70zM1024 1280q70 0 70 -70t-70 -70t-70 70t70 70zM279 1466q70 0 70 -70t-70 -70t-70 70t70 70zM1024 1466q70 0 70 -70t-70 -70t-70 70t70 70zM279 1652q70 0 70 -70q0 -69 -70 -69t-70 69q0 70 70 70zM1024 1652q70 0 70 -70
q0 -69 -70 -69t-70 69q0 70 70 70zM279 1839q70 0 70 -70t-70 -70t-70 70t70 70zM1024 1839q70 0 70 -70t-70 -70t-70 70t70 70z" />
    <glyph glyph-name="V" unicode="V" 
d="M652 722q70 0 70 -70t-70 -70t-70 70t70 70zM559 908q69 0 69 -70t-69 -70q-70 0 -70 70t70 70zM745 908q70 0 70 -70t-70 -70t-70 70t70 70zM466 1094q69 0 69 -70t-69 -70q-70 0 -70 70t70 70zM838 1094q70 0 70 -70t-70 -70t-70 70t70 70zM373 1280q69 0 69 -70
t-69 -70q-70 0 -70 70t70 70zM931 1280q70 0 70 -70t-70 -70t-70 70t70 70zM279 1466q70 0 70 -70t-70 -70t-70 70t70 70zM1024 1466q70 0 70 -70t-70 -70t-70 70t70 70zM279 1652q70 0 70 -70q0 -69 -70 -69t-70 69q0 70 70 70zM1024 1652q70 0 70 -70q0 -69 -70 -69
t-70 69q0 70 70 70zM279 1839q70 0 70 -70t-70 -70t-70 70t70 70zM1024 1839q70 0 70 -70t-70 -70t-70 70t70 70z" />
    <glyph glyph-name="R" unicode="R" 
d="M279 722q70 0 70 -70t-70 -70t-70 70t70 70zM1024 722q70 0 70 -70t-70 -70t-70 70t70 70zM279 908q70 0 70 -70t-70 -70t-70 70t70 70zM931 908q70 0 70 -70t-70 -70t-70 70t70 70zM279 1094q70 0 70 -70t-70 -70t-70 70t70 70zM838 1094q70 0 70 -70t-70 -70t-70 70
t70 70zM279 1280q70 0 70 -70t-70 -70t-70 70t70 70zM466 1280q69 0 69 -70t-69 -70q-70 0 -70 70t70 70zM652 1280q70 0 70 -70t-70 -70t-70 70t70 70zM838 1280q70 0 70 -70t-70 -70t-70 70t70 70zM279 1466q70 0 70 -70t-70 -70t-70 70t70 70zM1024 1466q70 0 70 -70
t-70 -70t-70 70t70 70zM279 1652q70 0 70 -70q0 -69 -70 -69t-70 69q0 70 70 70zM1024 1652q70 0 70 -70q0 -69 -70 -69t-70 69q0 70 70 70zM279 1839q70 0 70 -70t-70 -70t-70 70t70 70zM466 1839q69 0 69 -70t-69 -70q-70 0 -70 70t70 70zM652 1839q70 0 70 -70t-70 -70
t-70 70t70 70zM838 1839q70 0 70 -70t-70 -70t-70 70t70 70z" />
    <glyph glyph-name="germandbls" unicode="&#xdf;" 
d="M1024 722q70 0 70 -70t-70 -70t-70 70t70 70zM279 722q70 0 70 -70t-70 -70t-70 70t70 70zM1024 908q70 0 70 -70t-70 -70t-70 70t70 70zM373 908q69 0 69 -70t-69 -70q-70 0 -70 70t70 70zM1024 1094q70 0 70 -70t-70 -70t-70 70t70 70zM466 1094q69 0 69 -70t-69 -70
q-70 0 -70 70t70 70zM1024 1280q70 0 70 -70t-70 -70t-70 70t70 70zM838 1280q70 0 70 -70t-70 -70t-70 70t70 70zM652 1280q70 0 70 -70t-70 -70t-70 70t70 70zM466 1280q69 0 69 -70t-69 -70q-70 0 -70 70t70 70zM1024 1466q70 0 70 -70t-70 -70t-70 70t70 70zM279 1466
q70 0 70 -70t-70 -70t-70 70t70 70zM1024 1652q70 0 70 -70q0 -69 -70 -69t-70 69q0 70 70 70zM279 1652q70 0 70 -70q0 -69 -70 -69t-70 69q0 70 70 70zM1024 1839q70 0 70 -70t-70 -70t-70 70t70 70zM838 1839q70 0 70 -70t-70 -70t-70 70t70 70zM652 1839q70 0 70 -70
t-70 -70t-70 70t70 70zM466 1839q69 0 69 -70t-69 -70q-70 0 -70 70t70 70z" />
    <glyph glyph-name="germandbls" unicode="&#x42f;" 
d="M1024 722q70 0 70 -70t-70 -70t-70 70t70 70zM279 722q70 0 70 -70t-70 -70t-70 70t70 70zM1024 908q70 0 70 -70t-70 -70t-70 70t70 70zM373 908q69 0 69 -70t-69 -70q-70 0 -70 70t70 70zM1024 1094q70 0 70 -70t-70 -70t-70 70t70 70zM466 1094q69 0 69 -70t-69 -70
q-70 0 -70 70t70 70zM1024 1280q70 0 70 -70t-70 -70t-70 70t70 70zM838 1280q70 0 70 -70t-70 -70t-70 70t70 70zM652 1280q70 0 70 -70t-70 -70t-70 70t70 70zM466 1280q69 0 69 -70t-69 -70q-70 0 -70 70t70 70zM1024 1466q70 0 70 -70t-70 -70t-70 70t70 70zM279 1466
q70 0 70 -70t-70 -70t-70 70t70 70zM1024 1652q70 0 70 -70q0 -69 -70 -69t-70 69q0 70 70 70zM279 1652q70 0 70 -70q0 -69 -70 -69t-70 69q0 70 70 70zM1024 1839q70 0 70 -70t-70 -70t-70 70t70 70zM838 1839q70 0 70 -70t-70 -70t-70 70t70 70zM652 1839q70 0 70 -70
t-70 -70t-70 70t70 70zM466 1839q69 0 69 -70t-69 -70q-70 0 -70 70t70 70z" />
    <glyph glyph-name="Otilde" unicode="&#xd5;" 
d="M279 722q70 0 70 -70t-70 -70t-70 70t70 70zM1024 722q70 0 70 -70t-70 -70t-70 70t70 70zM373 908q69 0 69 -70t-69 -70q-70 0 -70 70t70 70zM931 908q70 0 70 -70t-70 -70t-70 70t70 70zM466 1094q69 0 69 -70t-69 -70q-70 0 -70 70t70 70zM838 1094q70 0 70 -70
t-70 -70t-70 70t70 70zM652 1280q70 0 70 -70t-70 -70t-70 70t70 70zM466 1466q69 0 69 -70t-69 -70q-70 0 -70 70t70 70zM838 1466q70 0 70 -70t-70 -70t-70 70t70 70zM373 1652q69 0 69 -70q0 -69 -69 -69q-70 0 -70 69q0 70 70 70zM931 1652q70 0 70 -70q0 -69 -70 -69
t-70 69q0 70 70 70zM279 1839q70 0 70 -70t-70 -70t-70 70t70 70zM1024 1839q70 0 70 -70t-70 -70t-70 70t70 70z" />
    <glyph glyph-name="Otilde" unicode="&#x425;" 
d="M279 722q70 0 70 -70t-70 -70t-70 70t70 70zM1024 722q70 0 70 -70t-70 -70t-70 70t70 70zM373 908q69 0 69 -70t-69 -70q-70 0 -70 70t70 70zM931 908q70 0 70 -70t-70 -70t-70 70t70 70zM466 1094q69 0 69 -70t-69 -70q-70 0 -70 70t70 70zM838 1094q70 0 70 -70
t-70 -70t-70 70t70 70zM652 1280q70 0 70 -70t-70 -70t-70 70t70 70zM466 1466q69 0 69 -70t-69 -70q-70 0 -70 70t70 70zM838 1466q70 0 70 -70t-70 -70t-70 70t70 70zM373 1652q69 0 69 -70q0 -69 -69 -69q-70 0 -70 69q0 70 70 70zM931 1652q70 0 70 -70q0 -69 -70 -69
t-70 69q0 70 70 70zM279 1839q70 0 70 -70t-70 -70t-70 70t70 70zM1024 1839q70 0 70 -70t-70 -70t-70 70t70 70z" />
    <glyph glyph-name="X" unicode="X" 
d="M279 722q70 0 70 -70t-70 -70t-70 70t70 70zM1024 722q70 0 70 -70t-70 -70t-70 70t70 70zM373 908q69 0 69 -70t-69 -70q-70 0 -70 70t70 70zM931 908q70 0 70 -70t-70 -70t-70 70t70 70zM466 1094q69 0 69 -70t-69 -70q-70 0 -70 70t70 70zM838 1094q70 0 70 -70
t-70 -70t-70 70t70 70zM652 1280q70 0 70 -70t-70 -70t-70 70t70 70zM466 1466q69 0 69 -70t-69 -70q-70 0 -70 70t70 70zM838 1466q70 0 70 -70t-70 -70t-70 70t70 70zM373 1652q69 0 69 -70q0 -69 -69 -69q-70 0 -70 69q0 70 70 70zM931 1652q70 0 70 -70q0 -69 -70 -69
t-70 69q0 70 70 70zM279 1839q70 0 70 -70t-70 -70t-70 70t70 70zM1024 1839q70 0 70 -70t-70 -70t-70 70t70 70z" />
    <glyph glyph-name="Y" unicode="Y" 
d="M1024 1839q70 0 70 -70t-70 -70t-70 70t70 70zM279 1839q70 0 70 -70t-70 -70t-70 70t70 70zM931 1652q70 0 70 -70q0 -69 -70 -69t-70 69q0 70 70 70zM373 1652q69 0 69 -70q0 -69 -69 -69q-70 0 -70 69q0 70 70 70zM838 1466q70 0 70 -70t-70 -70t-70 70t70 70z
M466 1466q69 0 69 -70t-69 -70q-70 0 -70 70t70 70zM745 1280q70 0 70 -70t-70 -70t-70 70t70 70zM559 1280q69 0 69 -70t-69 -70q-70 0 -70 70t70 70zM652 1094q70 0 70 -70t-70 -70t-70 70t70 70zM652 908q70 0 70 -70t-70 -70t-70 70t70 70zM652 722q70 0 70 -70t-70 -70
t-70 70t70 70z" />
    <glyph glyph-name="Oacute" unicode="&#xd3;" 
d="M466 722q69 0 69 -70t-69 -70q-70 0 -70 70t70 70zM279 722q70 0 70 -70t-70 -70t-70 70t70 70zM559 908q69 0 69 -70t-69 -70q-70 0 -70 70t70 70zM652 1094q70 0 70 -70t-70 -70t-70 70t70 70zM559 1280q69 0 69 -70t-69 -70q-70 0 -70 70t70 70zM745 1280q70 0 70 -70
t-70 -70t-70 70t70 70zM466 1466q69 0 69 -70t-69 -70q-70 0 -70 70t70 70zM838 1466q70 0 70 -70t-70 -70t-70 70t70 70zM373 1652q69 0 69 -70q0 -69 -69 -69q-70 0 -70 69q0 70 70 70zM931 1652q70 0 70 -70q0 -69 -70 -69t-70 69q0 70 70 70zM279 1839q70 0 70 -70
t-70 -70t-70 70t70 70zM1024 1839q70 0 70 -70t-70 -70t-70 70t70 70z" />
    <glyph glyph-name="Oacute" unicode="&#x423;" 
d="M466 722q69 0 69 -70t-69 -70q-70 0 -70 70t70 70zM279 722q70 0 70 -70t-70 -70t-70 70t70 70zM559 908q69 0 69 -70t-69 -70q-70 0 -70 70t70 70zM652 1094q70 0 70 -70t-70 -70t-70 70t70 70zM559 1280q69 0 69 -70t-69 -70q-70 0 -70 70t70 70zM745 1280q70 0 70 -70
t-70 -70t-70 70t70 70zM466 1466q69 0 69 -70t-69 -70q-70 0 -70 70t70 70zM838 1466q70 0 70 -70t-70 -70t-70 70t70 70zM373 1652q69 0 69 -70q0 -69 -69 -69q-70 0 -70 69q0 70 70 70zM931 1652q70 0 70 -70q0 -69 -70 -69t-70 69q0 70 70 70zM279 1839q70 0 70 -70
t-70 -70t-70 70t70 70zM1024 1839q70 0 70 -70t-70 -70t-70 70t70 70z" />
    <glyph glyph-name="Aacute" unicode="&#xc1;" 
d="M838 1839q70 0 70 -70t-70 -70t-70 70t70 70zM1024 1839q70 0 70 -70t-70 -70t-70 70t70 70zM652 1839q70 0 70 -70t-70 -70t-70 70t70 70zM466 1839q69 0 69 -70t-69 -70q-70 0 -70 70t70 70zM279 1839q70 0 70 -70t-70 -70t-70 70t70 70zM373 1652q69 0 69 -70
q0 -69 -69 -69q-70 0 -70 69q0 70 70 70zM373 1466q69 0 69 -70t-69 -70q-70 0 -70 70t70 70zM931 1280q70 0 70 -70t-70 -70t-70 70t70 70zM745 1280q70 0 70 -70t-70 -70t-70 70t70 70zM559 1280q69 0 69 -70t-69 -70q-70 0 -70 70t70 70zM373 1280q69 0 69 -70t-69 -70
q-70 0 -70 70t70 70zM1024 1094q70 0 70 -70t-70 -70t-70 70t70 70zM373 1094q69 0 69 -70t-69 -70q-70 0 -70 70t70 70zM1024 908q70 0 70 -70t-70 -70t-70 70t70 70zM373 908q69 0 69 -70t-69 -70q-70 0 -70 70t70 70zM838 722q70 0 70 -70t-70 -70t-70 70t70 70zM652 722
q70 0 70 -70t-70 -70t-70 70t70 70zM466 722q69 0 69 -70t-69 -70q-70 0 -70 70t70 70zM279 722q70 0 70 -70t-70 -70t-70 70t70 70z" />
    <glyph glyph-name="Aacute" unicode="&#x411;" 
d="M838 1839q70 0 70 -70t-70 -70t-70 70t70 70zM1024 1839q70 0 70 -70t-70 -70t-70 70t70 70zM652 1839q70 0 70 -70t-70 -70t-70 70t70 70zM466 1839q69 0 69 -70t-69 -70q-70 0 -70 70t70 70zM279 1839q70 0 70 -70t-70 -70t-70 70t70 70zM373 1652q69 0 69 -70
q0 -69 -69 -69q-70 0 -70 69q0 70 70 70zM373 1466q69 0 69 -70t-69 -70q-70 0 -70 70t70 70zM931 1280q70 0 70 -70t-70 -70t-70 70t70 70zM745 1280q70 0 70 -70t-70 -70t-70 70t70 70zM559 1280q69 0 69 -70t-69 -70q-70 0 -70 70t70 70zM373 1280q69 0 69 -70t-69 -70
q-70 0 -70 70t70 70zM1024 1094q70 0 70 -70t-70 -70t-70 70t70 70zM373 1094q69 0 69 -70t-69 -70q-70 0 -70 70t70 70zM1024 908q70 0 70 -70t-70 -70t-70 70t70 70zM373 908q69 0 69 -70t-69 -70q-70 0 -70 70t70 70zM838 722q70 0 70 -70t-70 -70t-70 70t70 70zM652 722
q70 0 70 -70t-70 -70t-70 70t70 70zM466 722q69 0 69 -70t-69 -70q-70 0 -70 70t70 70zM279 722q70 0 70 -70t-70 -70t-70 70t70 70z" />
    <glyph glyph-name="B" unicode="B" 
d="M279 722q70 0 70 -70t-70 -70t-70 70t70 70zM466 722q69 0 69 -70t-69 -70q-70 0 -70 70t70 70zM652 722q70 0 70 -70t-70 -70t-70 70t70 70zM838 722q70 0 70 -70t-70 -70t-70 70t70 70zM373 908q69 0 69 -70t-69 -70q-70 0 -70 70t70 70zM1024 908q70 0 70 -70t-70 -70
t-70 70t70 70zM373 1094q69 0 69 -70t-69 -70q-70 0 -70 70t70 70zM1024 1094q70 0 70 -70t-70 -70t-70 70t70 70zM1024 1466q70 0 70 -70t-70 -70t-70 70t70 70zM1024 1652q70 0 70 -70q0 -69 -70 -69t-70 69q0 70 70 70zM373 1280q69 0 69 -70t-69 -70q-70 0 -70 70t70 70
zM559 1280q69 0 69 -70t-69 -70q-70 0 -70 70t70 70zM745 1280q70 0 70 -70t-70 -70t-70 70t70 70zM931 1280q70 0 70 -70t-70 -70t-70 70t70 70zM373 1466q69 0 69 -70t-69 -70q-70 0 -70 70t70 70zM373 1652q69 0 69 -70q0 -69 -69 -69q-70 0 -70 69q0 70 70 70zM279 1839
q70 0 70 -70t-70 -70t-70 70t70 70zM466 1839q69 0 69 -70t-69 -70q-70 0 -70 70t70 70zM652 1839q70 0 70 -70t-70 -70t-70 70t70 70zM838 1839q70 0 70 -70t-70 -70t-70 70t70 70z" />
    <glyph glyph-name="Acircumflex" unicode="&#xc2;" 
d="M279 722q70 0 70 -70t-70 -70t-70 70t70 70zM466 722q69 0 69 -70t-69 -70q-70 0 -70 70t70 70zM652 722q70 0 70 -70t-70 -70t-70 70t70 70zM838 722q70 0 70 -70t-70 -70t-70 70t70 70zM373 908q69 0 69 -70t-69 -70q-70 0 -70 70t70 70zM1024 908q70 0 70 -70t-70 -70
t-70 70t70 70zM373 1094q69 0 69 -70t-69 -70q-70 0 -70 70t70 70zM1024 1094q70 0 70 -70t-70 -70t-70 70t70 70zM1024 1466q70 0 70 -70t-70 -70t-70 70t70 70zM1024 1652q70 0 70 -70q0 -69 -70 -69t-70 69q0 70 70 70zM373 1280q69 0 69 -70t-69 -70q-70 0 -70 70t70 70
zM559 1280q69 0 69 -70t-69 -70q-70 0 -70 70t70 70zM745 1280q70 0 70 -70t-70 -70t-70 70t70 70zM931 1280q70 0 70 -70t-70 -70t-70 70t70 70zM373 1466q69 0 69 -70t-69 -70q-70 0 -70 70t70 70zM373 1652q69 0 69 -70q0 -69 -69 -69q-70 0 -70 69q0 70 70 70zM279 1839
q70 0 70 -70t-70 -70t-70 70t70 70zM466 1839q69 0 69 -70t-69 -70q-70 0 -70 70t70 70zM652 1839q70 0 70 -70t-70 -70t-70 70t70 70zM838 1839q70 0 70 -70t-70 -70t-70 70t70 70z" />
    <glyph glyph-name="Acircumflex" unicode="&#x412;" 
d="M279 722q70 0 70 -70t-70 -70t-70 70t70 70zM466 722q69 0 69 -70t-69 -70q-70 0 -70 70t70 70zM652 722q70 0 70 -70t-70 -70t-70 70t70 70zM838 722q70 0 70 -70t-70 -70t-70 70t70 70zM373 908q69 0 69 -70t-69 -70q-70 0 -70 70t70 70zM1024 908q70 0 70 -70t-70 -70
t-70 70t70 70zM373 1094q69 0 69 -70t-69 -70q-70 0 -70 70t70 70zM1024 1094q70 0 70 -70t-70 -70t-70 70t70 70zM1024 1466q70 0 70 -70t-70 -70t-70 70t70 70zM1024 1652q70 0 70 -70q0 -69 -70 -69t-70 69q0 70 70 70zM373 1280q69 0 69 -70t-69 -70q-70 0 -70 70t70 70
zM559 1280q69 0 69 -70t-69 -70q-70 0 -70 70t70 70zM745 1280q70 0 70 -70t-70 -70t-70 70t70 70zM931 1280q70 0 70 -70t-70 -70t-70 70t70 70zM373 1466q69 0 69 -70t-69 -70q-70 0 -70 70t70 70zM373 1652q69 0 69 -70q0 -69 -69 -69q-70 0 -70 69q0 70 70 70zM279 1839
q70 0 70 -70t-70 -70t-70 70t70 70zM466 1839q69 0 69 -70t-69 -70q-70 0 -70 70t70 70zM652 1839q70 0 70 -70t-70 -70t-70 70t70 70zM838 1839q70 0 70 -70t-70 -70t-70 70t70 70z" />
    <glyph glyph-name="Atilde" unicode="&#xc3;" 
d="M838 1839q70 0 70 -70t-70 -70t-70 70t70 70zM652 1839q70 0 70 -70t-70 -70t-70 70t70 70zM466 1839q69 0 69 -70t-69 -70q-70 0 -70 70t70 70zM279 1839q70 0 70 -70t-70 -70t-70 70t70 70zM373 1652q69 0 69 -70q0 -69 -69 -69q-70 0 -70 69q0 70 70 70zM373 1466
q69 0 69 -70t-69 -70q-70 0 -70 70t70 70zM373 1280q69 0 69 -70t-69 -70q-70 0 -70 70t70 70zM1024 1652q70 0 70 -70q0 -69 -70 -69t-70 69q0 70 70 70zM1024 1839q70 0 70 -70t-70 -70t-70 70t70 70zM373 1094q69 0 69 -70t-69 -70q-70 0 -70 70t70 70zM373 908
q69 0 69 -70t-69 -70q-70 0 -70 70t70 70zM373 722q69 0 69 -70t-69 -70q-70 0 -70 70t70 70z" />
    <glyph glyph-name="Atilde" unicode="&#x413;" 
d="M838 1839q70 0 70 -70t-70 -70t-70 70t70 70zM652 1839q70 0 70 -70t-70 -70t-70 70t70 70zM466 1839q69 0 69 -70t-69 -70q-70 0 -70 70t70 70zM279 1839q70 0 70 -70t-70 -70t-70 70t70 70zM373 1652q69 0 69 -70q0 -69 -69 -69q-70 0 -70 69q0 70 70 70zM373 1466
q69 0 69 -70t-69 -70q-70 0 -70 70t70 70zM373 1280q69 0 69 -70t-69 -70q-70 0 -70 70t70 70zM1024 1652q70 0 70 -70q0 -69 -70 -69t-70 69q0 70 70 70zM1024 1839q70 0 70 -70t-70 -70t-70 70t70 70zM373 1094q69 0 69 -70t-69 -70q-70 0 -70 70t70 70zM373 908
q69 0 69 -70t-69 -70q-70 0 -70 70t70 70zM373 722q69 0 69 -70t-69 -70q-70 0 -70 70t70 70z" />
    <glyph glyph-name="Ocircumflex" unicode="&#xd4;" 
d="M652 722q70 0 70 -70t-70 -70t-70 70t70 70zM652 908q70 0 70 -70t-70 -70t-70 70t70 70zM373 1094q69 0 69 -70t-69 -70q-70 0 -70 70t70 70zM559 1094q69 0 69 -70t-69 -70q-70 0 -70 70t70 70zM745 1094q70 0 70 -70t-70 -70t-70 70t70 70zM931 1094q70 0 70 -70
t-70 -70t-70 70t70 70zM279 1280q70 0 70 -70t-70 -70t-70 70t70 70zM652 1280q70 0 70 -70t-70 -70t-70 70t70 70zM1024 1280q70 0 70 -70t-70 -70t-70 70t70 70zM279 1466q70 0 70 -70t-70 -70t-70 70t70 70zM652 1466q70 0 70 -70t-70 -70t-70 70t70 70zM1024 1466
q70 0 70 -70t-70 -70t-70 70t70 70zM279 1652q70 0 70 -70q0 -69 -70 -69t-70 69q0 70 70 70zM652 1652q70 0 70 -70q0 -69 -70 -69t-70 69q0 70 70 70zM1024 1652q70 0 70 -70q0 -69 -70 -69t-70 69q0 70 70 70zM373 1839q69 0 69 -70t-69 -70q-70 0 -70 70t70 70z
M559 1839q69 0 69 -70t-69 -70q-70 0 -70 70t70 70zM745 1839q70 0 70 -70t-70 -70t-70 70t70 70zM931 1839q70 0 70 -70t-70 -70t-70 70t70 70z" />
    <glyph glyph-name="Ocircumflex" unicode="&#x424;" 
d="M652 722q70 0 70 -70t-70 -70t-70 70t70 70zM652 908q70 0 70 -70t-70 -70t-70 70t70 70zM373 1094q69 0 69 -70t-69 -70q-70 0 -70 70t70 70zM559 1094q69 0 69 -70t-69 -70q-70 0 -70 70t70 70zM745 1094q70 0 70 -70t-70 -70t-70 70t70 70zM931 1094q70 0 70 -70
t-70 -70t-70 70t70 70zM279 1280q70 0 70 -70t-70 -70t-70 70t70 70zM652 1280q70 0 70 -70t-70 -70t-70 70t70 70zM1024 1280q70 0 70 -70t-70 -70t-70 70t70 70zM279 1466q70 0 70 -70t-70 -70t-70 70t70 70zM652 1466q70 0 70 -70t-70 -70t-70 70t70 70zM1024 1466
q70 0 70 -70t-70 -70t-70 70t70 70zM279 1652q70 0 70 -70q0 -69 -70 -69t-70 69q0 70 70 70zM652 1652q70 0 70 -70q0 -69 -70 -69t-70 69q0 70 70 70zM1024 1652q70 0 70 -70q0 -69 -70 -69t-70 69q0 70 70 70zM373 1839q69 0 69 -70t-69 -70q-70 0 -70 70t70 70z
M559 1839q69 0 69 -70t-69 -70q-70 0 -70 70t70 70zM745 1839q70 0 70 -70t-70 -70t-70 70t70 70zM931 1839q70 0 70 -70t-70 -70t-70 70t70 70z" />
    <glyph glyph-name="Oslash" unicode="&#xd8;" 
d="M1024 1839q70 0 70 -70t-70 -70t-70 70t70 70zM652 1839q70 0 70 -70t-70 -70t-70 70t70 70zM279 1839q70 0 70 -70t-70 -70t-70 70t70 70zM1024 1652q70 0 70 -70q0 -69 -70 -69t-70 69q0 70 70 70zM652 1652q70 0 70 -70q0 -69 -70 -69t-70 69q0 70 70 70zM279 1652
q70 0 70 -70q0 -69 -70 -69t-70 69q0 70 70 70zM1024 1466q70 0 70 -70t-70 -70t-70 70t70 70zM652 1466q70 0 70 -70t-70 -70t-70 70t70 70zM279 1466q70 0 70 -70t-70 -70t-70 70t70 70zM1024 1280q70 0 70 -70t-70 -70t-70 70t70 70zM652 1280q70 0 70 -70t-70 -70
t-70 70t70 70zM279 1280q70 0 70 -70t-70 -70t-70 70t70 70zM652 1094q70 0 70 -70t-70 -70t-70 70t70 70zM1024 1094q70 0 70 -70t-70 -70t-70 70t70 70zM279 1094q70 0 70 -70t-70 -70t-70 70t70 70zM652 908q70 0 70 -70t-70 -70t-70 70t70 70zM279 908q70 0 70 -70
t-70 -70t-70 70t70 70zM1024 908q70 0 70 -70t-70 -70t-70 70t70 70zM652 722q70 0 70 -70t-70 -70t-70 70t70 70zM466 722q69 0 69 -70t-69 -70q-70 0 -70 70t70 70zM279 722q70 0 70 -70t-70 -70t-70 70t70 70zM838 722q70 0 70 -70t-70 -70t-70 70t70 70zM1024 722
q70 0 70 -70t-70 -70t-70 70t70 70z" />
    <glyph glyph-name="Oslash" unicode="&#x428;" 
d="M1024 1839q70 0 70 -70t-70 -70t-70 70t70 70zM652 1839q70 0 70 -70t-70 -70t-70 70t70 70zM279 1839q70 0 70 -70t-70 -70t-70 70t70 70zM1024 1652q70 0 70 -70q0 -69 -70 -69t-70 69q0 70 70 70zM652 1652q70 0 70 -70q0 -69 -70 -69t-70 69q0 70 70 70zM279 1652
q70 0 70 -70q0 -69 -70 -69t-70 69q0 70 70 70zM1024 1466q70 0 70 -70t-70 -70t-70 70t70 70zM652 1466q70 0 70 -70t-70 -70t-70 70t70 70zM279 1466q70 0 70 -70t-70 -70t-70 70t70 70zM1024 1280q70 0 70 -70t-70 -70t-70 70t70 70zM652 1280q70 0 70 -70t-70 -70
t-70 70t70 70zM279 1280q70 0 70 -70t-70 -70t-70 70t70 70zM652 1094q70 0 70 -70t-70 -70t-70 70t70 70zM1024 1094q70 0 70 -70t-70 -70t-70 70t70 70zM279 1094q70 0 70 -70t-70 -70t-70 70t70 70zM652 908q70 0 70 -70t-70 -70t-70 70t70 70zM279 908q70 0 70 -70
t-70 -70t-70 70t70 70zM1024 908q70 0 70 -70t-70 -70t-70 70t70 70zM652 722q70 0 70 -70t-70 -70t-70 70t70 70zM466 722q69 0 69 -70t-69 -70q-70 0 -70 70t70 70zM279 722q70 0 70 -70t-70 -70t-70 70t70 70zM838 722q70 0 70 -70t-70 -70t-70 70t70 70zM1024 722
q70 0 70 -70t-70 -70t-70 70t70 70z" />
    <glyph glyph-name="Ugrave" unicode="&#xd9;" 
d="M1024 722q70 0 70 -70t-70 -70t-70 70t70 70zM1210 722q70 0 70 -70t-70 -70t-70 70t70 70zM1210 535q70 0 70 -69q0 -70 -70 -70t-70 70q0 69 70 69zM838 722q70 0 70 -70t-70 -70t-70 70t70 70zM279 722q70 0 70 -70t-70 -70t-70 70t70 70zM466 722q69 0 69 -70
t-69 -70q-70 0 -70 70t70 70zM652 722q70 0 70 -70t-70 -70t-70 70t70 70zM1024 908q70 0 70 -70t-70 -70t-70 70t70 70zM279 908q70 0 70 -70t-70 -70t-70 70t70 70zM652 908q70 0 70 -70t-70 -70t-70 70t70 70zM279 1094q70 0 70 -70t-70 -70t-70 70t70 70zM1024 1094
q70 0 70 -70t-70 -70t-70 70t70 70zM652 1094q70 0 70 -70t-70 -70t-70 70t70 70zM279 1280q70 0 70 -70t-70 -70t-70 70t70 70zM652 1280q70 0 70 -70t-70 -70t-70 70t70 70zM1024 1280q70 0 70 -70t-70 -70t-70 70t70 70zM279 1466q70 0 70 -70t-70 -70t-70 70t70 70z
M652 1466q70 0 70 -70t-70 -70t-70 70t70 70zM1024 1466q70 0 70 -70t-70 -70t-70 70t70 70zM279 1652q70 0 70 -70q0 -69 -70 -69t-70 69q0 70 70 70zM652 1652q70 0 70 -70q0 -69 -70 -69t-70 69q0 70 70 70zM1024 1652q70 0 70 -70q0 -69 -70 -69t-70 69q0 70 70 70z
M279 1839q70 0 70 -70t-70 -70t-70 70t70 70zM652 1839q70 0 70 -70t-70 -70t-70 70t70 70zM1024 1839q70 0 70 -70t-70 -70t-70 70t70 70z" />
    <glyph glyph-name="Ugrave" unicode="&#x429;" 
d="M1024 722q70 0 70 -70t-70 -70t-70 70t70 70zM1210 722q70 0 70 -70t-70 -70t-70 70t70 70zM1210 535q70 0 70 -69q0 -70 -70 -70t-70 70q0 69 70 69zM838 722q70 0 70 -70t-70 -70t-70 70t70 70zM279 722q70 0 70 -70t-70 -70t-70 70t70 70zM466 722q69 0 69 -70
t-69 -70q-70 0 -70 70t70 70zM652 722q70 0 70 -70t-70 -70t-70 70t70 70zM1024 908q70 0 70 -70t-70 -70t-70 70t70 70zM279 908q70 0 70 -70t-70 -70t-70 70t70 70zM652 908q70 0 70 -70t-70 -70t-70 70t70 70zM279 1094q70 0 70 -70t-70 -70t-70 70t70 70zM1024 1094
q70 0 70 -70t-70 -70t-70 70t70 70zM652 1094q70 0 70 -70t-70 -70t-70 70t70 70zM279 1280q70 0 70 -70t-70 -70t-70 70t70 70zM652 1280q70 0 70 -70t-70 -70t-70 70t70 70zM1024 1280q70 0 70 -70t-70 -70t-70 70t70 70zM279 1466q70 0 70 -70t-70 -70t-70 70t70 70z
M652 1466q70 0 70 -70t-70 -70t-70 70t70 70zM1024 1466q70 0 70 -70t-70 -70t-70 70t70 70zM279 1652q70 0 70 -70q0 -69 -70 -69t-70 69q0 70 70 70zM652 1652q70 0 70 -70q0 -69 -70 -69t-70 69q0 70 70 70zM1024 1652q70 0 70 -70q0 -69 -70 -69t-70 69q0 70 70 70z
M279 1839q70 0 70 -70t-70 -70t-70 70t70 70zM652 1839q70 0 70 -70t-70 -70t-70 70t70 70zM1024 1839q70 0 70 -70t-70 -70t-70 70t70 70z" />
    <glyph glyph-name="ugrave" unicode="&#xf9;" 
d="M1024 1466q70 0 70 -70t-70 -70t-70 70t70 70zM652 1466q70 0 70 -70t-70 -70t-70 70t70 70zM279 1466q70 0 70 -70t-70 -70t-70 70t70 70zM1024 1280q70 0 70 -70t-70 -70t-70 70t70 70zM652 1280q70 0 70 -70t-70 -70t-70 70t70 70zM279 1280q70 0 70 -70t-70 -70
t-70 70t70 70zM652 1094q70 0 70 -70t-70 -70t-70 70t70 70zM1024 1094q70 0 70 -70t-70 -70t-70 70t70 70zM279 1094q70 0 70 -70t-70 -70t-70 70t70 70zM652 908q70 0 70 -70t-70 -70t-70 70t70 70zM279 908q70 0 70 -70t-70 -70t-70 70t70 70zM1024 908q70 0 70 -70
t-70 -70t-70 70t70 70zM652 722q70 0 70 -70t-70 -70t-70 70t70 70zM466 722q69 0 69 -70t-69 -70q-70 0 -70 70t70 70zM279 722q70 0 70 -70t-70 -70t-70 70t70 70zM838 722q70 0 70 -70t-70 -70t-70 70t70 70zM1210 535q70 0 70 -69q0 -70 -70 -70t-70 70q0 69 70 69z
M1210 722q70 0 70 -70t-70 -70t-70 70t70 70zM1024 722q70 0 70 -70t-70 -70t-70 70t70 70z" />
    <glyph glyph-name="ugrave" unicode="&#x449;" 
d="M1024 1466q70 0 70 -70t-70 -70t-70 70t70 70zM652 1466q70 0 70 -70t-70 -70t-70 70t70 70zM279 1466q70 0 70 -70t-70 -70t-70 70t70 70zM1024 1280q70 0 70 -70t-70 -70t-70 70t70 70zM652 1280q70 0 70 -70t-70 -70t-70 70t70 70zM279 1280q70 0 70 -70t-70 -70
t-70 70t70 70zM652 1094q70 0 70 -70t-70 -70t-70 70t70 70zM1024 1094q70 0 70 -70t-70 -70t-70 70t70 70zM279 1094q70 0 70 -70t-70 -70t-70 70t70 70zM652 908q70 0 70 -70t-70 -70t-70 70t70 70zM279 908q70 0 70 -70t-70 -70t-70 70t70 70zM1024 908q70 0 70 -70
t-70 -70t-70 70t70 70zM652 722q70 0 70 -70t-70 -70t-70 70t70 70zM466 722q69 0 69 -70t-69 -70q-70 0 -70 70t70 70zM279 722q70 0 70 -70t-70 -70t-70 70t70 70zM838 722q70 0 70 -70t-70 -70t-70 70t70 70zM1210 535q70 0 70 -69q0 -70 -70 -70t-70 70q0 69 70 69z
M1210 722q70 0 70 -70t-70 -70t-70 70t70 70zM1024 722q70 0 70 -70t-70 -70t-70 70t70 70z" />
    <glyph glyph-name="oslash" unicode="&#xf8;" 
d="M1024 722q70 0 70 -70t-70 -70t-70 70t70 70zM838 722q70 0 70 -70t-70 -70t-70 70t70 70zM279 722q70 0 70 -70t-70 -70t-70 70t70 70zM466 722q69 0 69 -70t-69 -70q-70 0 -70 70t70 70zM652 722q70 0 70 -70t-70 -70t-70 70t70 70zM1024 908q70 0 70 -70t-70 -70
t-70 70t70 70zM279 908q70 0 70 -70t-70 -70t-70 70t70 70zM652 908q70 0 70 -70t-70 -70t-70 70t70 70zM279 1094q70 0 70 -70t-70 -70t-70 70t70 70zM1024 1094q70 0 70 -70t-70 -70t-70 70t70 70zM652 1094q70 0 70 -70t-70 -70t-70 70t70 70zM279 1280q70 0 70 -70
t-70 -70t-70 70t70 70zM652 1280q70 0 70 -70t-70 -70t-70 70t70 70zM1024 1280q70 0 70 -70t-70 -70t-70 70t70 70zM279 1466q70 0 70 -70t-70 -70t-70 70t70 70zM652 1466q70 0 70 -70t-70 -70t-70 70t70 70zM1024 1466q70 0 70 -70t-70 -70t-70 70t70 70z" />
    <glyph glyph-name="oslash" unicode="&#x448;" 
d="M1024 722q70 0 70 -70t-70 -70t-70 70t70 70zM838 722q70 0 70 -70t-70 -70t-70 70t70 70zM279 722q70 0 70 -70t-70 -70t-70 70t70 70zM466 722q69 0 69 -70t-69 -70q-70 0 -70 70t70 70zM652 722q70 0 70 -70t-70 -70t-70 70t70 70zM1024 908q70 0 70 -70t-70 -70
t-70 70t70 70zM279 908q70 0 70 -70t-70 -70t-70 70t70 70zM652 908q70 0 70 -70t-70 -70t-70 70t70 70zM279 1094q70 0 70 -70t-70 -70t-70 70t70 70zM1024 1094q70 0 70 -70t-70 -70t-70 70t70 70zM652 1094q70 0 70 -70t-70 -70t-70 70t70 70zM279 1280q70 0 70 -70
t-70 -70t-70 70t70 70zM652 1280q70 0 70 -70t-70 -70t-70 70t70 70zM1024 1280q70 0 70 -70t-70 -70t-70 70t70 70zM279 1466q70 0 70 -70t-70 -70t-70 70t70 70zM652 1466q70 0 70 -70t-70 -70t-70 70t70 70zM1024 1466q70 0 70 -70t-70 -70t-70 70t70 70z" />
    <glyph glyph-name="Yacute" unicode="&#xdd;" 
d="M279 722q70 0 70 -70t-70 -70t-70 70t70 70zM466 722q69 0 69 -70t-69 -70q-70 0 -70 70t70 70zM652 722q70 0 70 -70t-70 -70t-70 70t70 70zM838 722q70 0 70 -70t-70 -70t-70 70t70 70zM931 908q70 0 70 -70t-70 -70t-70 70t70 70zM1024 1094q70 0 70 -70t-70 -70
t-70 70t70 70zM279 1280q70 0 70 -70t-70 -70t-70 70t70 70zM466 1280q69 0 69 -70t-69 -70q-70 0 -70 70t70 70zM652 1280q70 0 70 -70t-70 -70t-70 70t70 70zM838 1280q70 0 70 -70t-70 -70t-70 70t70 70zM1024 1280q70 0 70 -70t-70 -70t-70 70t70 70zM1024 1466
q70 0 70 -70t-70 -70t-70 70t70 70zM931 1652q70 0 70 -70q0 -69 -70 -69t-70 69q0 70 70 70zM279 1839q70 0 70 -70t-70 -70t-70 70t70 70zM466 1839q69 0 69 -70t-69 -70q-70 0 -70 70t70 70zM652 1839q70 0 70 -70t-70 -70t-70 70t70 70zM838 1839q70 0 70 -70t-70 -70
t-70 70t70 70z" />
    <glyph glyph-name="Yacute" unicode="&#x42d;" 
d="M279 722q70 0 70 -70t-70 -70t-70 70t70 70zM466 722q69 0 69 -70t-69 -70q-70 0 -70 70t70 70zM652 722q70 0 70 -70t-70 -70t-70 70t70 70zM838 722q70 0 70 -70t-70 -70t-70 70t70 70zM931 908q70 0 70 -70t-70 -70t-70 70t70 70zM1024 1094q70 0 70 -70t-70 -70
t-70 70t70 70zM279 1280q70 0 70 -70t-70 -70t-70 70t70 70zM466 1280q69 0 69 -70t-69 -70q-70 0 -70 70t70 70zM652 1280q70 0 70 -70t-70 -70t-70 70t70 70zM838 1280q70 0 70 -70t-70 -70t-70 70t70 70zM1024 1280q70 0 70 -70t-70 -70t-70 70t70 70zM1024 1466
q70 0 70 -70t-70 -70t-70 70t70 70zM931 1652q70 0 70 -70q0 -69 -70 -69t-70 69q0 70 70 70zM279 1839q70 0 70 -70t-70 -70t-70 70t70 70zM466 1839q69 0 69 -70t-69 -70q-70 0 -70 70t70 70zM652 1839q70 0 70 -70t-70 -70t-70 70t70 70zM838 1839q70 0 70 -70t-70 -70
t-70 70t70 70z" />
    <glyph glyph-name="Ccedilla" unicode="&#xc7;" 
d="M838 1839q70 0 70 -70t-70 -70t-70 70t70 70zM652 1839q70 0 70 -70t-70 -70t-70 70t70 70zM466 1839q69 0 69 -70t-69 -70q-70 0 -70 70t70 70zM279 1839q70 0 70 -70t-70 -70t-70 70t70 70zM1024 1652q70 0 70 -70q0 -69 -70 -69t-70 69q0 70 70 70zM1024 1466
q70 0 70 -70t-70 -70t-70 70t70 70zM838 1280q70 0 70 -70t-70 -70t-70 70t70 70zM652 1280q70 0 70 -70t-70 -70t-70 70t70 70zM466 1280q69 0 69 -70t-69 -70q-70 0 -70 70t70 70zM1024 1094q70 0 70 -70t-70 -70t-70 70t70 70zM1024 908q70 0 70 -70t-70 -70t-70 70
t70 70zM838 722q70 0 70 -70t-70 -70t-70 70t70 70zM652 722q70 0 70 -70t-70 -70t-70 70t70 70zM466 722q69 0 69 -70t-69 -70q-70 0 -70 70t70 70zM279 722q70 0 70 -70t-70 -70t-70 70t70 70z" />
    <glyph glyph-name="Ccedilla" unicode="&#x417;" 
d="M838 1839q70 0 70 -70t-70 -70t-70 70t70 70zM652 1839q70 0 70 -70t-70 -70t-70 70t70 70zM466 1839q69 0 69 -70t-69 -70q-70 0 -70 70t70 70zM279 1839q70 0 70 -70t-70 -70t-70 70t70 70zM1024 1652q70 0 70 -70q0 -69 -70 -69t-70 69q0 70 70 70zM1024 1466
q70 0 70 -70t-70 -70t-70 70t70 70zM838 1280q70 0 70 -70t-70 -70t-70 70t70 70zM652 1280q70 0 70 -70t-70 -70t-70 70t70 70zM466 1280q69 0 69 -70t-69 -70q-70 0 -70 70t70 70zM1024 1094q70 0 70 -70t-70 -70t-70 70t70 70zM1024 908q70 0 70 -70t-70 -70t-70 70
t70 70zM838 722q70 0 70 -70t-70 -70t-70 70t70 70zM652 722q70 0 70 -70t-70 -70t-70 70t70 70zM466 722q69 0 69 -70t-69 -70q-70 0 -70 70t70 70zM279 722q70 0 70 -70t-70 -70t-70 70t70 70z" />
    <glyph glyph-name="AE" unicode="&#xc6;" 
d="M279 722q70 0 70 -70t-70 -70t-70 70t70 70zM652 722q70 0 70 -70t-70 -70t-70 70t70 70zM1024 722q70 0 70 -70t-70 -70t-70 70t70 70zM373 908q69 0 69 -70t-69 -70q-70 0 -70 70t70 70zM652 908q70 0 70 -70t-70 -70t-70 70t70 70zM931 908q70 0 70 -70t-70 -70
t-70 70t70 70zM466 1094q69 0 69 -70t-69 -70q-70 0 -70 70t70 70zM652 1094q70 0 70 -70t-70 -70t-70 70t70 70zM838 1094q70 0 70 -70t-70 -70t-70 70t70 70zM559 1280q69 0 69 -70t-69 -70q-70 0 -70 70t70 70zM745 1280q70 0 70 -70t-70 -70t-70 70t70 70zM466 1466
q69 0 69 -70t-69 -70q-70 0 -70 70t70 70zM652 1466q70 0 70 -70t-70 -70t-70 70t70 70zM838 1466q70 0 70 -70t-70 -70t-70 70t70 70zM373 1652q69 0 69 -70q0 -69 -69 -69q-70 0 -70 69q0 70 70 70zM652 1652q70 0 70 -70q0 -69 -70 -69t-70 69q0 70 70 70zM931 1652
q70 0 70 -70q0 -69 -70 -69t-70 69q0 70 70 70zM279 1839q70 0 70 -70t-70 -70t-70 70t70 70zM652 1839q70 0 70 -70t-70 -70t-70 70t70 70zM1024 1839q70 0 70 -70t-70 -70t-70 70t70 70z" />
    <glyph glyph-name="AE" unicode="&#x416;" 
d="M279 722q70 0 70 -70t-70 -70t-70 70t70 70zM652 722q70 0 70 -70t-70 -70t-70 70t70 70zM1024 722q70 0 70 -70t-70 -70t-70 70t70 70zM373 908q69 0 69 -70t-69 -70q-70 0 -70 70t70 70zM652 908q70 0 70 -70t-70 -70t-70 70t70 70zM931 908q70 0 70 -70t-70 -70
t-70 70t70 70zM466 1094q69 0 69 -70t-69 -70q-70 0 -70 70t70 70zM652 1094q70 0 70 -70t-70 -70t-70 70t70 70zM838 1094q70 0 70 -70t-70 -70t-70 70t70 70zM559 1280q69 0 69 -70t-69 -70q-70 0 -70 70t70 70zM745 1280q70 0 70 -70t-70 -70t-70 70t70 70zM466 1466
q69 0 69 -70t-69 -70q-70 0 -70 70t70 70zM652 1466q70 0 70 -70t-70 -70t-70 70t70 70zM838 1466q70 0 70 -70t-70 -70t-70 70t70 70zM373 1652q69 0 69 -70q0 -69 -69 -69q-70 0 -70 69q0 70 70 70zM652 1652q70 0 70 -70q0 -69 -70 -69t-70 69q0 70 70 70zM931 1652
q70 0 70 -70q0 -69 -70 -69t-70 69q0 70 70 70zM279 1839q70 0 70 -70t-70 -70t-70 70t70 70zM652 1839q70 0 70 -70t-70 -70t-70 70t70 70zM1024 1839q70 0 70 -70t-70 -70t-70 70t70 70z" />
    <glyph glyph-name="Thorn" unicode="&#xde;" 
d="M279 722q70 0 70 -70t-70 -70t-70 70t70 70zM652 722q70 0 70 -70t-70 -70t-70 70t70 70zM838 722q70 0 70 -70t-70 -70t-70 70t70 70zM1024 722q70 0 70 -70t-70 -70t-70 70t70 70zM279 908q70 0 70 -70t-70 -70t-70 70t70 70zM559 908q69 0 69 -70t-69 -70
q-70 0 -70 70t70 70zM1117 908q70 0 70 -70t-70 -70t-70 70t70 70zM279 1094q70 0 70 -70t-70 -70t-70 70t70 70zM559 1094q69 0 69 -70t-69 -70q-70 0 -70 70t70 70zM1117 1094q70 0 70 -70t-70 -70t-70 70t70 70zM279 1280q70 0 70 -70t-70 -70t-70 70t70 70zM466 1280
q69 0 69 -70t-69 -70q-70 0 -70 70t70 70zM1117 1280q70 0 70 -70t-70 -70t-70 70t70 70zM279 1466q70 0 70 -70t-70 -70t-70 70t70 70zM559 1466q69 0 69 -70t-69 -70q-70 0 -70 70t70 70zM1117 1466q70 0 70 -70t-70 -70t-70 70t70 70zM1117 1652q70 0 70 -70
q0 -69 -70 -69t-70 69q0 70 70 70zM279 1652q70 0 70 -70q0 -69 -70 -69t-70 69q0 70 70 70zM559 1652q69 0 69 -70q0 -69 -69 -69q-70 0 -70 69q0 70 70 70zM1024 1839q70 0 70 -70t-70 -70t-70 70t70 70zM279 1839q70 0 70 -70t-70 -70t-70 70t70 70zM652 1839
q70 0 70 -70t-70 -70t-70 70t70 70zM838 1839q70 0 70 -70t-70 -70t-70 70t70 70z" />
    <glyph glyph-name="Thorn" unicode="&#x42e;" 
d="M279 722q70 0 70 -70t-70 -70t-70 70t70 70zM652 722q70 0 70 -70t-70 -70t-70 70t70 70zM838 722q70 0 70 -70t-70 -70t-70 70t70 70zM1024 722q70 0 70 -70t-70 -70t-70 70t70 70zM279 908q70 0 70 -70t-70 -70t-70 70t70 70zM559 908q69 0 69 -70t-69 -70
q-70 0 -70 70t70 70zM1117 908q70 0 70 -70t-70 -70t-70 70t70 70zM279 1094q70 0 70 -70t-70 -70t-70 70t70 70zM559 1094q69 0 69 -70t-69 -70q-70 0 -70 70t70 70zM1117 1094q70 0 70 -70t-70 -70t-70 70t70 70zM279 1280q70 0 70 -70t-70 -70t-70 70t70 70zM466 1280
q69 0 69 -70t-69 -70q-70 0 -70 70t70 70zM1117 1280q70 0 70 -70t-70 -70t-70 70t70 70zM279 1466q70 0 70 -70t-70 -70t-70 70t70 70zM559 1466q69 0 69 -70t-69 -70q-70 0 -70 70t70 70zM1117 1466q70 0 70 -70t-70 -70t-70 70t70 70zM1117 1652q70 0 70 -70
q0 -69 -70 -69t-70 69q0 70 70 70zM279 1652q70 0 70 -70q0 -69 -70 -69t-70 69q0 70 70 70zM559 1652q69 0 69 -70q0 -69 -69 -69q-70 0 -70 69q0 70 70 70zM1024 1839q70 0 70 -70t-70 -70t-70 70t70 70zM279 1839q70 0 70 -70t-70 -70t-70 70t70 70zM652 1839
q70 0 70 -70t-70 -70t-70 70t70 70zM838 1839q70 0 70 -70t-70 -70t-70 70t70 70z" />
    <glyph glyph-name="Udieresis" unicode="&#xdc;" 
d="M279 722q70 0 70 -70t-70 -70t-70 70t70 70zM466 722q69 0 69 -70t-69 -70q-70 0 -70 70t70 70zM652 722q70 0 70 -70t-70 -70t-70 70t70 70zM838 722q70 0 70 -70t-70 -70t-70 70t70 70zM279 908q70 0 70 -70t-70 -70t-70 70t70 70zM1024 908q70 0 70 -70t-70 -70
t-70 70t70 70zM279 1094q70 0 70 -70t-70 -70t-70 70t70 70zM1024 1094q70 0 70 -70t-70 -70t-70 70t70 70zM279 1280q70 0 70 -70t-70 -70t-70 70t70 70zM279 1466q70 0 70 -70t-70 -70t-70 70t70 70zM466 1280q69 0 69 -70t-69 -70q-70 0 -70 70t70 70zM652 1280
q70 0 70 -70t-70 -70t-70 70t70 70zM838 1280q70 0 70 -70t-70 -70t-70 70t70 70zM279 1652q70 0 70 -70q0 -69 -70 -69t-70 69q0 70 70 70zM279 1839q70 0 70 -70t-70 -70t-70 70t70 70z" />
    <glyph glyph-name="Udieresis" unicode="&#x42c;" 
d="M279 722q70 0 70 -70t-70 -70t-70 70t70 70zM466 722q69 0 69 -70t-69 -70q-70 0 -70 70t70 70zM652 722q70 0 70 -70t-70 -70t-70 70t70 70zM838 722q70 0 70 -70t-70 -70t-70 70t70 70zM279 908q70 0 70 -70t-70 -70t-70 70t70 70zM1024 908q70 0 70 -70t-70 -70
t-70 70t70 70zM279 1094q70 0 70 -70t-70 -70t-70 70t70 70zM1024 1094q70 0 70 -70t-70 -70t-70 70t70 70zM279 1280q70 0 70 -70t-70 -70t-70 70t70 70zM279 1466q70 0 70 -70t-70 -70t-70 70t70 70zM466 1280q69 0 69 -70t-69 -70q-70 0 -70 70t70 70zM652 1280
q70 0 70 -70t-70 -70t-70 70t70 70zM838 1280q70 0 70 -70t-70 -70t-70 70t70 70zM279 1652q70 0 70 -70q0 -69 -70 -69t-70 69q0 70 70 70zM279 1839q70 0 70 -70t-70 -70t-70 70t70 70z" />
    <glyph glyph-name="Uacute" unicode="&#xda;" 
d="M466 1839q69 0 69 -70t-69 -70q-70 0 -70 70t70 70zM279 1839q70 0 70 -70t-70 -70t-70 70t70 70zM466 1652q69 0 69 -70q0 -69 -69 -69q-70 0 -70 69q0 70 70 70zM838 1280q70 0 70 -70t-70 -70t-70 70t70 70zM652 1280q70 0 70 -70t-70 -70t-70 70t70 70zM466 1466
q69 0 69 -70t-69 -70q-70 0 -70 70t70 70zM466 1280q69 0 69 -70t-69 -70q-70 0 -70 70t70 70zM1024 1094q70 0 70 -70t-70 -70t-70 70t70 70zM466 1094q69 0 69 -70t-69 -70q-70 0 -70 70t70 70zM1024 908q70 0 70 -70t-70 -70t-70 70t70 70zM466 908q69 0 69 -70t-69 -70
q-70 0 -70 70t70 70zM838 722q70 0 70 -70t-70 -70t-70 70t70 70zM652 722q70 0 70 -70t-70 -70t-70 70t70 70zM466 722q69 0 69 -70t-69 -70q-70 0 -70 70t70 70z" />
    <glyph glyph-name="Uacute" unicode="&#x42a;" 
d="M466 1839q69 0 69 -70t-69 -70q-70 0 -70 70t70 70zM279 1839q70 0 70 -70t-70 -70t-70 70t70 70zM466 1652q69 0 69 -70q0 -69 -69 -69q-70 0 -70 69q0 70 70 70zM838 1280q70 0 70 -70t-70 -70t-70 70t70 70zM652 1280q70 0 70 -70t-70 -70t-70 70t70 70zM466 1466
q69 0 69 -70t-69 -70q-70 0 -70 70t70 70zM466 1280q69 0 69 -70t-69 -70q-70 0 -70 70t70 70zM1024 1094q70 0 70 -70t-70 -70t-70 70t70 70zM466 1094q69 0 69 -70t-69 -70q-70 0 -70 70t70 70zM1024 908q70 0 70 -70t-70 -70t-70 70t70 70zM466 908q69 0 69 -70t-69 -70
q-70 0 -70 70t70 70zM838 722q70 0 70 -70t-70 -70t-70 70t70 70zM652 722q70 0 70 -70t-70 -70t-70 70t70 70zM466 722q69 0 69 -70t-69 -70q-70 0 -70 70t70 70z" />
    <glyph glyph-name="Ucircumflex" unicode="&#xdb;" 
d="M279 722q70 0 70 -70t-70 -70q-69 0 -69 70t69 70zM466 722q69 0 69 -70t-69 -70q-70 0 -70 70t70 70zM652 722q69 0 69 -70t-69 -70q-70 0 -70 70t70 70zM1024 722q70 0 70 -70t-70 -70t-70 70t70 70zM279 908q70 0 70 -70t-70 -70q-69 0 -69 70t69 70zM745 908
q70 0 70 -70t-70 -70t-70 70t70 70zM1024 908q70 0 70 -70t-70 -70t-70 70t70 70zM279 1094q70 0 70 -70t-70 -70q-69 0 -69 70t69 70zM745 1094q70 0 70 -70t-70 -70t-70 70t70 70zM1024 1094q70 0 70 -70t-70 -70t-70 70t70 70zM279 1280q70 0 70 -70t-70 -70
q-69 0 -69 70t69 70zM466 1280q69 0 69 -70t-69 -70q-70 0 -70 70t70 70zM652 1280q69 0 69 -70t-69 -70q-70 0 -70 70t70 70zM1024 1280q70 0 70 -70t-70 -70t-70 70t70 70zM279 1466q70 0 70 -70q0 -69 -70 -69q-69 0 -69 69q0 70 69 70zM1024 1466q70 0 70 -70
q0 -69 -70 -69t-70 69q0 70 70 70zM279 1652q70 0 70 -70q0 -69 -70 -69q-69 0 -69 69q0 70 69 70zM1024 1652q70 0 70 -70q0 -69 -70 -69t-70 69q0 70 70 70zM279 1839q70 0 70 -70t-70 -70q-69 0 -69 70t69 70zM1024 1839q70 0 70 -70t-70 -70t-70 70t70 70z" />
    <glyph glyph-name="Ucircumflex" unicode="&#x42b;" 
d="M279 722q70 0 70 -70t-70 -70q-69 0 -69 70t69 70zM466 722q69 0 69 -70t-69 -70q-70 0 -70 70t70 70zM652 722q69 0 69 -70t-69 -70q-70 0 -70 70t70 70zM1024 722q70 0 70 -70t-70 -70t-70 70t70 70zM279 908q70 0 70 -70t-70 -70q-69 0 -69 70t69 70zM745 908
q70 0 70 -70t-70 -70t-70 70t70 70zM1024 908q70 0 70 -70t-70 -70t-70 70t70 70zM279 1094q70 0 70 -70t-70 -70q-69 0 -69 70t69 70zM745 1094q70 0 70 -70t-70 -70t-70 70t70 70zM1024 1094q70 0 70 -70t-70 -70t-70 70t70 70zM279 1280q70 0 70 -70t-70 -70
q-69 0 -69 70t69 70zM466 1280q69 0 69 -70t-69 -70q-70 0 -70 70t70 70zM652 1280q69 0 69 -70t-69 -70q-70 0 -70 70t70 70zM1024 1280q70 0 70 -70t-70 -70t-70 70t70 70zM279 1466q70 0 70 -70q0 -69 -70 -69q-69 0 -69 69q0 70 69 70zM1024 1466q70 0 70 -70
q0 -69 -70 -69t-70 69q0 70 70 70zM279 1652q70 0 70 -70q0 -69 -70 -69q-69 0 -69 69q0 70 69 70zM1024 1652q70 0 70 -70q0 -69 -70 -69t-70 69q0 70 70 70zM279 1839q70 0 70 -70t-70 -70q-69 0 -69 70t69 70zM1024 1839q70 0 70 -70t-70 -70t-70 70t70 70z" />
    <glyph glyph-name="Adieresis" unicode="&#xc4;" 
d="M279 722q70 0 70 -70t-70 -70t-70 70t70 70zM279 535q70 0 70 -69q0 -70 -70 -70t-70 70q0 69 70 69zM466 722q69 0 69 -70t-69 -70q-70 0 -70 70t70 70zM652 722q70 0 70 -70t-70 -70t-70 70t70 70zM838 722q70 0 70 -70t-70 -70t-70 70t70 70zM1024 722q70 0 70 -70
t-70 -70t-70 70t70 70zM1024 535q70 0 70 -69q0 -70 -70 -70t-70 70q0 69 70 69zM373 908q69 0 69 -70t-69 -70q-70 0 -70 70t70 70zM931 908q70 0 70 -70t-70 -70t-70 70t70 70zM373 1094q69 0 69 -70t-69 -70q-70 0 -70 70t70 70zM931 1094q70 0 70 -70t-70 -70t-70 70
t70 70zM373 1280q69 0 69 -70t-69 -70q-70 0 -70 70t70 70zM931 1280q70 0 70 -70t-70 -70t-70 70t70 70zM373 1466q69 0 69 -70t-69 -70q-70 0 -70 70t70 70zM931 1466q70 0 70 -70t-70 -70t-70 70t70 70zM466 1652q69 0 69 -70q0 -69 -69 -69q-70 0 -70 69q0 70 70 70z
M931 1652q70 0 70 -70q0 -69 -70 -69t-70 69q0 70 70 70zM559 1839q69 0 69 -70t-69 -70q-70 0 -70 70t70 70zM745 1839q70 0 70 -70t-70 -70t-70 70t70 70zM931 1839q70 0 70 -70t-70 -70t-70 70t70 70z" />
    <glyph glyph-name="Adieresis" unicode="&#x414;" 
d="M279 722q70 0 70 -70t-70 -70t-70 70t70 70zM279 535q70 0 70 -69q0 -70 -70 -70t-70 70q0 69 70 69zM466 722q69 0 69 -70t-69 -70q-70 0 -70 70t70 70zM652 722q70 0 70 -70t-70 -70t-70 70t70 70zM838 722q70 0 70 -70t-70 -70t-70 70t70 70zM1024 722q70 0 70 -70
t-70 -70t-70 70t70 70zM1024 535q70 0 70 -69q0 -70 -70 -70t-70 70q0 69 70 69zM373 908q69 0 69 -70t-69 -70q-70 0 -70 70t70 70zM931 908q70 0 70 -70t-70 -70t-70 70t70 70zM373 1094q69 0 69 -70t-69 -70q-70 0 -70 70t70 70zM931 1094q70 0 70 -70t-70 -70t-70 70
t70 70zM373 1280q69 0 69 -70t-69 -70q-70 0 -70 70t70 70zM931 1280q70 0 70 -70t-70 -70t-70 70t70 70zM373 1466q69 0 69 -70t-69 -70q-70 0 -70 70t70 70zM931 1466q70 0 70 -70t-70 -70t-70 70t70 70zM466 1652q69 0 69 -70q0 -69 -69 -69q-70 0 -70 69q0 70 70 70z
M931 1652q70 0 70 -70q0 -69 -70 -69t-70 69q0 70 70 70zM559 1839q69 0 69 -70t-69 -70q-70 0 -70 70t70 70zM745 1839q70 0 70 -70t-70 -70t-70 70t70 70zM931 1839q70 0 70 -70t-70 -70t-70 70t70 70z" />
    <glyph glyph-name="Idieresis" unicode="&#xcf;" 
d="M279 722q70 0 70 -70t-70 -70t-70 70t70 70zM1024 722q70 0 70 -70t-70 -70t-70 70t70 70zM279 908q70 0 70 -70t-70 -70t-70 70t70 70zM1024 908q70 0 70 -70t-70 -70t-70 70t70 70zM279 1094q70 0 70 -70t-70 -70t-70 70t70 70zM1024 1094q70 0 70 -70t-70 -70t-70 70
t70 70zM279 1280q70 0 70 -70t-70 -70t-70 70t70 70zM1024 1280q70 0 70 -70t-70 -70t-70 70t70 70zM279 1466q70 0 70 -70t-70 -70t-70 70t70 70zM1024 1466q70 0 70 -70t-70 -70t-70 70t70 70zM279 1652q70 0 70 -70q0 -69 -70 -69t-70 69q0 70 70 70zM1024 1652
q70 0 70 -70q0 -69 -70 -69t-70 69q0 70 70 70zM279 1839q70 0 70 -70t-70 -70t-70 70t70 70zM466 1839q69 0 69 -70t-69 -70q-70 0 -70 70t70 70zM652 1839q70 0 70 -70t-70 -70t-70 70t70 70zM838 1839q70 0 70 -70t-70 -70t-70 70t70 70zM1024 1839q70 0 70 -70t-70 -70
t-70 70t70 70z" />
    <glyph glyph-name="Idieresis" unicode="&#x41f;" 
d="M279 722q70 0 70 -70t-70 -70t-70 70t70 70zM1024 722q70 0 70 -70t-70 -70t-70 70t70 70zM279 908q70 0 70 -70t-70 -70t-70 70t70 70zM1024 908q70 0 70 -70t-70 -70t-70 70t70 70zM279 1094q70 0 70 -70t-70 -70t-70 70t70 70zM1024 1094q70 0 70 -70t-70 -70t-70 70
t70 70zM279 1280q70 0 70 -70t-70 -70t-70 70t70 70zM1024 1280q70 0 70 -70t-70 -70t-70 70t70 70zM279 1466q70 0 70 -70t-70 -70t-70 70t70 70zM1024 1466q70 0 70 -70t-70 -70t-70 70t70 70zM279 1652q70 0 70 -70q0 -69 -70 -69t-70 69q0 70 70 70zM1024 1652
q70 0 70 -70q0 -69 -70 -69t-70 69q0 70 70 70zM279 1839q70 0 70 -70t-70 -70t-70 70t70 70zM466 1839q69 0 69 -70t-69 -70q-70 0 -70 70t70 70zM652 1839q70 0 70 -70t-70 -70t-70 70t70 70zM838 1839q70 0 70 -70t-70 -70t-70 70t70 70zM1024 1839q70 0 70 -70t-70 -70
t-70 70t70 70z" />
    <glyph glyph-name="Edieresis" unicode="&#xcb;" 
d="M1024 1839q70 0 70 -70t-70 -70t-70 70t70 70zM838 1839q70 0 70 -70t-70 -70t-70 70t70 70zM1024 1652q70 0 70 -70q0 -69 -70 -69t-70 69q0 70 70 70zM745 1652q70 0 70 -70q0 -69 -70 -69t-70 69q0 70 70 70zM1024 1466q70 0 70 -70t-70 -70t-70 70t70 70zM652 1466
q70 0 70 -70t-70 -70t-70 70t70 70zM1024 1280q70 0 70 -70t-70 -70t-70 70t70 70zM559 1280q70 0 70 -70t-70 -70t-70 70t70 70zM1024 1094q70 0 70 -70t-70 -70t-70 70t70 70zM466 1094q70 0 70 -70t-70 -70t-70 70t70 70zM1024 908q70 0 70 -70t-70 -70t-70 70t70 70z
M373 908q69 0 69 -70t-69 -70q-70 0 -70 70t70 70zM1024 722q70 0 70 -70t-70 -70t-70 70t70 70zM279 722q70 0 70 -70t-70 -70t-70 70t70 70z" />
    <glyph glyph-name="Edieresis" unicode="&#x41b;" 
d="M1024 1839q70 0 70 -70t-70 -70t-70 70t70 70zM838 1839q70 0 70 -70t-70 -70t-70 70t70 70zM1024 1652q70 0 70 -70q0 -69 -70 -69t-70 69q0 70 70 70zM745 1652q70 0 70 -70q0 -69 -70 -69t-70 69q0 70 70 70zM1024 1466q70 0 70 -70t-70 -70t-70 70t70 70zM652 1466
q70 0 70 -70t-70 -70t-70 70t70 70zM1024 1280q70 0 70 -70t-70 -70t-70 70t70 70zM559 1280q70 0 70 -70t-70 -70t-70 70t70 70zM1024 1094q70 0 70 -70t-70 -70t-70 70t70 70zM466 1094q70 0 70 -70t-70 -70t-70 70t70 70zM1024 908q70 0 70 -70t-70 -70t-70 70t70 70z
M373 908q69 0 69 -70t-69 -70q-70 0 -70 70t70 70zM1024 722q70 0 70 -70t-70 -70t-70 70t70 70zM279 722q70 0 70 -70t-70 -70t-70 70t70 70z" />
    <glyph glyph-name="Odieresis" unicode="&#xd6;" 
d="M279 722q70 0 70 -70t-70 -70t-70 70t70 70zM466 722q69 0 69 -70t-69 -70q-70 0 -70 70t70 70zM652 722q70 0 70 -70t-70 -70t-70 70t70 70zM838 722q70 0 70 -70t-70 -70t-70 70t70 70zM1024 722q70 0 70 -70t-70 -70t-70 70t70 70zM1117 535q70 0 70 -69
q0 -70 -70 -70t-70 70q0 69 70 69zM1210 722q70 0 70 -70t-70 -70t-70 70t70 70zM279 908q70 0 70 -70t-70 -70t-70 70t70 70zM1024 908q70 0 70 -70t-70 -70t-70 70t70 70zM279 1094q70 0 70 -70t-70 -70t-70 70t70 70zM1024 1094q70 0 70 -70t-70 -70t-70 70t70 70z
M279 1280q70 0 70 -70t-70 -70t-70 70t70 70zM1024 1280q70 0 70 -70t-70 -70t-70 70t70 70zM279 1466q70 0 70 -70t-70 -70t-70 70t70 70zM1024 1466q70 0 70 -70t-70 -70t-70 70t70 70zM279 1652q70 0 70 -70q0 -69 -70 -69t-70 69q0 70 70 70zM1024 1652q70 0 70 -70
q0 -69 -70 -69t-70 69q0 70 70 70zM279 1839q70 0 70 -70t-70 -70t-70 70t70 70zM1024 1839q70 0 70 -70t-70 -70t-70 70t70 70z" />
    <glyph glyph-name="Odieresis" unicode="&#x426;" 
d="M279 722q70 0 70 -70t-70 -70t-70 70t70 70zM466 722q69 0 69 -70t-69 -70q-70 0 -70 70t70 70zM652 722q70 0 70 -70t-70 -70t-70 70t70 70zM838 722q70 0 70 -70t-70 -70t-70 70t70 70zM1024 722q70 0 70 -70t-70 -70t-70 70t70 70zM1117 535q70 0 70 -69
q0 -70 -70 -70t-70 70q0 69 70 69zM1210 722q70 0 70 -70t-70 -70t-70 70t70 70zM279 908q70 0 70 -70t-70 -70t-70 70t70 70zM1024 908q70 0 70 -70t-70 -70t-70 70t70 70zM279 1094q70 0 70 -70t-70 -70t-70 70t70 70zM1024 1094q70 0 70 -70t-70 -70t-70 70t70 70z
M279 1280q70 0 70 -70t-70 -70t-70 70t70 70zM1024 1280q70 0 70 -70t-70 -70t-70 70t70 70zM279 1466q70 0 70 -70t-70 -70t-70 70t70 70zM1024 1466q70 0 70 -70t-70 -70t-70 70t70 70zM279 1652q70 0 70 -70q0 -69 -70 -69t-70 69q0 70 70 70zM1024 1652q70 0 70 -70
q0 -69 -70 -69t-70 69q0 70 70 70zM279 1839q70 0 70 -70t-70 -70t-70 70t70 70zM1024 1839q70 0 70 -70t-70 -70t-70 70t70 70z" />
    <glyph glyph-name="multiply" unicode="&#xd7;" 
d="M1024 1839q70 0 70 -70t-70 -70t-70 70t70 70zM279 1839q70 0 70 -70t-70 -70t-70 70t70 70zM1024 1652q70 0 70 -70q0 -69 -70 -69t-70 69q0 70 70 70zM279 1652q70 0 70 -70q0 -69 -70 -69t-70 69q0 70 70 70zM1024 1466q70 0 70 -70t-70 -70t-70 70t70 70zM279 1466
q70 0 70 -70t-70 -70t-70 70t70 70zM1024 1280q70 0 70 -70t-70 -70t-70 70t70 70zM279 1280q70 0 70 -70t-70 -70t-70 70t70 70zM279 1094q70 0 70 -70t-70 -70t-70 70t70 70zM466 1094q70 0 70 -70t-70 -70t-70 70t70 70zM652 1094q70 0 70 -70t-70 -70t-70 70t70 70z
M838 1094q70 0 70 -70t-70 -70t-70 70t70 70zM1024 1094q70 0 70 -70t-70 -70t-70 70t70 70zM1024 908q70 0 70 -70t-70 -70t-70 70t70 70zM1024 722q70 0 70 -70t-70 -70t-70 70t70 70z" />
    <glyph glyph-name="multiply" unicode="&#x427;" 
d="M1024 1839q70 0 70 -70t-70 -70t-70 70t70 70zM279 1839q70 0 70 -70t-70 -70t-70 70t70 70zM1024 1652q70 0 70 -70q0 -69 -70 -69t-70 69q0 70 70 70zM279 1652q70 0 70 -70q0 -69 -70 -69t-70 69q0 70 70 70zM1024 1466q70 0 70 -70t-70 -70t-70 70t70 70zM279 1466
q70 0 70 -70t-70 -70t-70 70t70 70zM1024 1280q70 0 70 -70t-70 -70t-70 70t70 70zM279 1280q70 0 70 -70t-70 -70t-70 70t70 70zM279 1094q70 0 70 -70t-70 -70t-70 70t70 70zM466 1094q70 0 70 -70t-70 -70t-70 70t70 70zM652 1094q70 0 70 -70t-70 -70t-70 70t70 70z
M838 1094q70 0 70 -70t-70 -70t-70 70t70 70zM1024 1094q70 0 70 -70t-70 -70t-70 70t70 70zM1024 908q70 0 70 -70t-70 -70t-70 70t70 70zM1024 722q70 0 70 -70t-70 -70t-70 70t70 70z" />
    <glyph glyph-name="agrave" unicode="&#xe0;" 
d="M373 722q69 0 69 -70t-69 -70q-70 0 -70 70t70 70zM559 722q69 0 69 -70t-69 -70q-70 0 -70 70t70 70zM745 722q70 0 70 -70t-70 -70t-70 70t70 70zM1024 722q70 0 70 -70t-70 -70t-70 70t70 70zM279 908q70 0 70 -70t-70 -70t-70 70t70 70zM931 908q70 0 70 -70t-70 -70
t-70 70t70 70zM373 1094q69 0 69 -70t-69 -70q-70 0 -70 70t70 70zM559 1094q69 0 69 -70t-69 -70q-70 0 -70 70t70 70zM745 1094q70 0 70 -70t-70 -70t-70 70t70 70zM1024 1094q70 0 70 -70t-70 -70t-70 70t70 70zM1024 1280q70 0 70 -70t-70 -70t-70 70t70 70zM373 1466
q69 0 69 -70t-69 -70q-70 0 -70 70t70 70zM559 1466q69 0 69 -70t-69 -70q-70 0 -70 70t70 70zM745 1466q70 0 70 -70t-70 -70t-70 70t70 70zM931 1466q70 0 70 -70t-70 -70t-70 70t70 70z" />
    <glyph glyph-name="agrave" unicode="&#x430;" 
d="M373 722q69 0 69 -70t-69 -70q-70 0 -70 70t70 70zM559 722q69 0 69 -70t-69 -70q-70 0 -70 70t70 70zM745 722q70 0 70 -70t-70 -70t-70 70t70 70zM1024 722q70 0 70 -70t-70 -70t-70 70t70 70zM279 908q70 0 70 -70t-70 -70t-70 70t70 70zM931 908q70 0 70 -70t-70 -70
t-70 70t70 70zM373 1094q69 0 69 -70t-69 -70q-70 0 -70 70t70 70zM559 1094q69 0 69 -70t-69 -70q-70 0 -70 70t70 70zM745 1094q70 0 70 -70t-70 -70t-70 70t70 70zM1024 1094q70 0 70 -70t-70 -70t-70 70t70 70zM1024 1280q70 0 70 -70t-70 -70t-70 70t70 70zM373 1466
q69 0 69 -70t-69 -70q-70 0 -70 70t70 70zM559 1466q69 0 69 -70t-69 -70q-70 0 -70 70t70 70zM745 1466q70 0 70 -70t-70 -70t-70 70t70 70zM931 1466q70 0 70 -70t-70 -70t-70 70t70 70z" />
    <glyph glyph-name="a" unicode="a" 
d="M373 722q69 0 69 -70t-69 -70q-70 0 -70 70t70 70zM559 722q69 0 69 -70t-69 -70q-70 0 -70 70t70 70zM745 722q70 0 70 -70t-70 -70t-70 70t70 70zM1024 722q70 0 70 -70t-70 -70t-70 70t70 70zM279 908q70 0 70 -70t-70 -70t-70 70t70 70zM931 908q70 0 70 -70t-70 -70
t-70 70t70 70zM373 1094q69 0 69 -70t-69 -70q-70 0 -70 70t70 70zM559 1094q69 0 69 -70t-69 -70q-70 0 -70 70t70 70zM745 1094q70 0 70 -70t-70 -70t-70 70t70 70zM1024 1094q70 0 70 -70t-70 -70t-70 70t70 70zM1024 1280q70 0 70 -70t-70 -70t-70 70t70 70zM373 1466
q69 0 69 -70t-69 -70q-70 0 -70 70t70 70zM559 1466q69 0 69 -70t-69 -70q-70 0 -70 70t70 70zM745 1466q70 0 70 -70t-70 -70t-70 70t70 70zM931 1466q70 0 70 -70t-70 -70t-70 70t70 70z" />
    <glyph glyph-name="r" unicode="r" 
d="M279 722q70 0 70 -70t-70 -70t-70 70t70 70zM279 908q70 0 70 -70t-70 -70t-70 70t70 70zM279 1094q70 0 70 -70t-70 -70t-70 70t70 70zM279 1280q70 0 70 -70t-70 -70t-70 70t70 70zM466 1280q69 0 69 -70t-69 -70q-70 0 -70 70t70 70zM838 1280q70 0 70 -70t-70 -70
t-70 70t70 70zM279 1466q70 0 70 -70t-70 -70t-70 70t70 70zM559 1466q69 0 69 -70t-69 -70q-70 0 -70 70t70 70zM745 1466q70 0 70 -70t-70 -70t-70 70t70 70z" />
    <glyph glyph-name="eight" unicode="8" 
d="M373 722q69 0 69 -70t-69 -70q-70 0 -70 70t70 70zM559 722q69 0 69 -70t-69 -70q-70 0 -70 70t70 70zM745 722q70 0 70 -70t-70 -70t-70 70t70 70zM931 722q70 0 70 -70t-70 -70t-70 70t70 70zM280 908q69 0 69 -70t-69 -70q-70 0 -70 70t70 70zM1024 908q70 0 70 -70
t-70 -70t-70 70t70 70zM280 1094q69 0 69 -70t-69 -70q-70 0 -70 70t70 70zM1024 1094q70 0 70 -70t-70 -70t-70 70t70 70zM373 1280q69 0 69 -70t-69 -70q-70 0 -70 70t70 70zM559 1280q69 0 69 -70t-69 -70q-70 0 -70 70t70 70zM745 1280q70 0 70 -70t-70 -70t-70 70
t70 70zM931 1280q70 0 70 -70t-70 -70t-70 70t70 70zM280 1466q69 0 69 -70q0 -69 -69 -69q-70 0 -70 69q0 70 70 70zM1024 1466q70 0 70 -70q0 -69 -70 -69t-70 69q0 70 70 70zM280 1652q69 0 69 -70q0 -69 -69 -69q-70 0 -70 69q0 70 70 70zM1024 1652q70 0 70 -70
q0 -69 -70 -69t-70 69q0 70 70 70zM373 1839q69 0 69 -70t-69 -70q-70 0 -70 70t70 70zM559 1839q69 0 69 -70t-69 -70q-70 0 -70 70t70 70zM745 1839q70 0 70 -70t-70 -70t-70 70t70 70zM931 1839q70 0 70 -70t-70 -70t-70 70t70 70z" />
    <glyph glyph-name="t" unicode="t" 
d="M559 722q69 0 69 -70t-69 -70q-70 0 -70 70t70 70zM745 722q70 0 70 -70t-70 -70t-70 70t70 70zM931 722q70 0 70 -70t-70 -70t-70 70t70 70zM466 908q69 0 69 -70t-69 -70q-70 0 -70 70t70 70zM1024 908q70 0 70 -70t-70 -70t-70 70t70 70zM466 1094q69 0 69 -70
t-69 -70q-70 0 -70 70t70 70zM466 1280q69 0 69 -70t-69 -70q-70 0 -70 70t70 70zM279 1652q70 0 70 -70q0 -69 -70 -69t-70 69q0 70 70 70zM466 1466q69 0 69 -70t-69 -70q-70 0 -70 70t70 70zM652 1652q70 0 70 -70q0 -69 -70 -69t-70 69q0 70 70 70zM466 1652
q69 0 69 -70q0 -69 -69 -69q-70 0 -70 69q0 70 70 70zM466 1838q69 0 69 -69q0 -70 -69 -70q-70 0 -70 70q0 69 70 69z" />
    <glyph glyph-name="s" unicode="s" 
d="M373 722q69 0 69 -70t-69 -70q-70 0 -70 70t70 70zM559 722q69 0 69 -70t-69 -70q-70 0 -70 70t70 70zM745 722q70 0 70 -70t-70 -70t-70 70t70 70zM931 722q70 0 70 -70t-70 -70t-70 70t70 70zM1024 908q70 0 70 -70t-70 -70t-70 70t70 70zM373 1094q69 0 69 -70
t-69 -70q-70 0 -70 70t70 70zM559 1094q69 0 69 -70t-69 -70q-70 0 -70 70t70 70zM745 1094q70 0 70 -70t-70 -70t-70 70t70 70zM931 1094q70 0 70 -70t-70 -70t-70 70t70 70zM279 1280q70 0 70 -70t-70 -70t-70 70t70 70zM373 1466q69 0 69 -70t-69 -70q-70 0 -70 70t70 70
zM559 1466q69 0 69 -70t-69 -70q-70 0 -70 70t70 70zM745 1466q70 0 70 -70t-70 -70t-70 70t70 70zM931 1466q70 0 70 -70t-70 -70t-70 70t70 70z" />
    <glyph glyph-name="p" unicode="p" 
d="M373 722q69 0 69 -70t-69 -70q-70 0 -70 70t70 70zM373 535q69 0 69 -69q0 -70 -69 -70q-70 0 -70 70q0 69 70 69zM559 908q69 0 69 -70t-69 -70q-70 0 -70 70t70 70zM745 908q70 0 70 -70t-70 -70t-70 70t70 70zM931 908q70 0 70 -70t-70 -70t-70 70t70 70zM373 908
q69 0 69 -70t-69 -70q-70 0 -70 70t70 70zM373 1094q69 0 69 -70t-69 -70q-70 0 -70 70t70 70zM1024 1094q70 0 70 -70t-70 -70t-70 70t70 70zM1024 1280q70 0 70 -70t-70 -70t-70 70t70 70zM373 1280q69 0 69 -70t-69 -70q-70 0 -70 70t70 70zM373 1466q69 0 69 -70
t-69 -70q-70 0 -70 70t70 70zM559 1466q69 0 69 -70t-69 -70q-70 0 -70 70t70 70zM745 1466q70 0 70 -70t-70 -70t-70 70t70 70zM931 1466q70 0 70 -70t-70 -70t-70 70t70 70z" />
    <glyph glyph-name="eth" unicode="&#xf0;" 
d="M373 722q69 0 69 -70t-69 -70q-70 0 -70 70t70 70zM373 535q69 0 69 -69q0 -70 -69 -70q-70 0 -70 70q0 69 70 69zM559 908q69 0 69 -70t-69 -70q-70 0 -70 70t70 70zM745 908q70 0 70 -70t-70 -70t-70 70t70 70zM931 908q70 0 70 -70t-70 -70t-70 70t70 70zM373 908
q69 0 69 -70t-69 -70q-70 0 -70 70t70 70zM373 1094q69 0 69 -70t-69 -70q-70 0 -70 70t70 70zM1024 1094q70 0 70 -70t-70 -70t-70 70t70 70zM1024 1280q70 0 70 -70t-70 -70t-70 70t70 70zM373 1280q69 0 69 -70t-69 -70q-70 0 -70 70t70 70zM373 1466q69 0 69 -70
t-69 -70q-70 0 -70 70t70 70zM559 1466q69 0 69 -70t-69 -70q-70 0 -70 70t70 70zM745 1466q70 0 70 -70t-70 -70t-70 70t70 70zM931 1466q70 0 70 -70t-70 -70t-70 70t70 70z" />
    <glyph glyph-name="eth" unicode="&#x440;" 
d="M373 722q69 0 69 -70t-69 -70q-70 0 -70 70t70 70zM373 535q69 0 69 -69q0 -70 -69 -70q-70 0 -70 70q0 69 70 69zM559 908q69 0 69 -70t-69 -70q-70 0 -70 70t70 70zM745 908q70 0 70 -70t-70 -70t-70 70t70 70zM931 908q70 0 70 -70t-70 -70t-70 70t70 70zM373 908
q69 0 69 -70t-69 -70q-70 0 -70 70t70 70zM373 1094q69 0 69 -70t-69 -70q-70 0 -70 70t70 70zM1024 1094q70 0 70 -70t-70 -70t-70 70t70 70zM1024 1280q70 0 70 -70t-70 -70t-70 70t70 70zM373 1280q69 0 69 -70t-69 -70q-70 0 -70 70t70 70zM373 1466q69 0 69 -70
t-69 -70q-70 0 -70 70t70 70zM559 1466q69 0 69 -70t-69 -70q-70 0 -70 70t70 70zM745 1466q70 0 70 -70t-70 -70t-70 70t70 70zM931 1466q70 0 70 -70t-70 -70t-70 70t70 70z" />
    <glyph glyph-name="q" unicode="q" 
d="M1024 722q70 0 70 -70t-70 -70t-70 70t70 70zM1024 535q70 0 70 -69q0 -70 -70 -70t-70 70q0 69 70 69zM838 908q70 0 70 -70t-70 -70t-70 70t70 70zM652 908q70 0 70 -70t-70 -70t-70 70t70 70zM466 908q70 0 70 -70t-70 -70t-70 70t70 70zM1024 908q70 0 70 -70
t-70 -70t-70 70t70 70zM1024 1094q70 0 70 -70t-70 -70t-70 70t70 70zM373 1094q69 0 69 -70t-69 -70q-70 0 -70 70t70 70zM373 1280q69 0 69 -70t-69 -70q-70 0 -70 70t70 70zM1024 1280q70 0 70 -70t-70 -70t-70 70t70 70zM1024 1466q70 0 70 -70t-70 -70t-70 70t70 70z
M838 1466q70 0 70 -70t-70 -70t-70 70t70 70zM652 1466q70 0 70 -70t-70 -70t-70 70t70 70zM466 1466q70 0 70 -70t-70 -70t-70 70t70 70z" />
    <glyph glyph-name="g" unicode="g" 
d="M466 1466q70 0 70 -70t-70 -70t-70 70t70 70zM652 1466q70 0 70 -70t-70 -70t-70 70t70 70zM838 1466q70 0 70 -70t-70 -70t-70 70t70 70zM1117 1466q70 0 70 -70t-70 -70t-70 70t70 70zM1024 1280q70 0 70 -70t-70 -70t-70 70t70 70zM373 1280q69 0 69 -70t-69 -70
q-70 0 -70 70t70 70zM373 1094q69 0 69 -70t-69 -70q-70 0 -70 70t70 70zM1024 1094q70 0 70 -70t-70 -70t-70 70t70 70zM1024 908q70 0 70 -70t-70 -70t-70 70t70 70zM466 908q70 0 70 -70t-70 -70t-70 70t70 70zM652 908q70 0 70 -70t-70 -70t-70 70t70 70zM838 908
q70 0 70 -70t-70 -70t-70 70t70 70zM838 535q70 0 70 -69q0 -70 -70 -70t-70 70q0 69 70 69zM652 535q70 0 70 -69q0 -70 -70 -70t-70 70q0 69 70 69zM466 535q69 0 69 -69q0 -70 -69 -70q-70 0 -70 70q0 69 70 69zM1024 722q70 0 70 -70t-70 -70t-70 70t70 70z" />
    <glyph glyph-name="atilde" unicode="&#xe3;" 
d="M279 722q70 0 70 -70t-70 -70t-70 70t70 70zM279 908q70 0 70 -70t-70 -70t-70 70t70 70zM279 1094q70 0 70 -70t-70 -70t-70 70t70 70zM279 1280q70 0 70 -70t-70 -70t-70 70t70 70zM279 1466q70 0 70 -70t-70 -70t-70 70t70 70zM466 1466q69 0 69 -70t-69 -70
q-70 0 -70 70t70 70zM652 1466q70 0 70 -70t-70 -70t-70 70t70 70zM838 1466q70 0 70 -70t-70 -70t-70 70t70 70z" />
    <glyph glyph-name="atilde" unicode="&#x433;" 
d="M279 722q70 0 70 -70t-70 -70t-70 70t70 70zM279 908q70 0 70 -70t-70 -70t-70 70t70 70zM279 1094q70 0 70 -70t-70 -70t-70 70t70 70zM279 1280q70 0 70 -70t-70 -70t-70 70t70 70zM279 1466q70 0 70 -70t-70 -70t-70 70t70 70zM466 1466q69 0 69 -70t-69 -70
q-70 0 -70 70t70 70zM652 1466q70 0 70 -70t-70 -70t-70 70t70 70zM838 1466q70 0 70 -70t-70 -70t-70 70t70 70z" />
    <glyph glyph-name="adieresis" unicode="&#xe4;" 
d="M279 722q70 0 70 -70t-70 -70t-70 70t70 70zM279 535q70 0 70 -69q0 -70 -70 -70t-70 70q0 69 70 69zM466 722q69 0 69 -70t-69 -70q-70 0 -70 70t70 70zM652 722q70 0 70 -70t-70 -70t-70 70t70 70zM838 722q70 0 70 -70t-70 -70t-70 70t70 70zM1024 722q70 0 70 -70
t-70 -70t-70 70t70 70zM1024 535q70 0 70 -69q0 -70 -70 -70t-70 70q0 69 70 69zM373 908q69 0 69 -70t-69 -70q-70 0 -70 70t70 70zM931 908q70 0 70 -70t-70 -70t-70 70t70 70zM373 1094q69 0 69 -70t-69 -70q-70 0 -70 70t70 70zM931 1094q70 0 70 -70t-70 -70t-70 70
t70 70zM466 1280q69 0 69 -70t-69 -70q-70 0 -70 70t70 70zM931 1280q70 0 70 -70t-70 -70t-70 70t70 70zM559 1466q69 0 69 -70t-69 -70q-70 0 -70 70t70 70zM745 1466q70 0 70 -70t-70 -70t-70 70t70 70zM931 1466q70 0 70 -70t-70 -70t-70 70t70 70z" />
    <glyph glyph-name="adieresis" unicode="&#x434;" 
d="M279 722q70 0 70 -70t-70 -70t-70 70t70 70zM279 535q70 0 70 -69q0 -70 -70 -70t-70 70q0 69 70 69zM466 722q69 0 69 -70t-69 -70q-70 0 -70 70t70 70zM652 722q70 0 70 -70t-70 -70t-70 70t70 70zM838 722q70 0 70 -70t-70 -70t-70 70t70 70zM1024 722q70 0 70 -70
t-70 -70t-70 70t70 70zM1024 535q70 0 70 -69q0 -70 -70 -70t-70 70q0 69 70 69zM373 908q69 0 69 -70t-69 -70q-70 0 -70 70t70 70zM931 908q70 0 70 -70t-70 -70t-70 70t70 70zM373 1094q69 0 69 -70t-69 -70q-70 0 -70 70t70 70zM931 1094q70 0 70 -70t-70 -70t-70 70
t70 70zM466 1280q69 0 69 -70t-69 -70q-70 0 -70 70t70 70zM931 1280q70 0 70 -70t-70 -70t-70 70t70 70zM559 1466q69 0 69 -70t-69 -70q-70 0 -70 70t70 70zM745 1466q70 0 70 -70t-70 -70t-70 70t70 70zM931 1466q70 0 70 -70t-70 -70t-70 70t70 70z" />
    <glyph glyph-name="aacute" unicode="&#xe1;" 
d="M279 722q70 0 70 -70t-70 -70t-70 70t70 70zM466 722q69 0 69 -70t-69 -70q-70 0 -70 70t70 70zM652 722q70 0 70 -70t-70 -70t-70 70t70 70zM838 722q70 0 70 -70t-70 -70t-70 70t70 70zM279 908q70 0 70 -70t-70 -70t-70 70t70 70zM931 908q70 0 70 -70t-70 -70t-70 70
t70 70zM279 1094q70 0 70 -70t-70 -70t-70 70t70 70zM466 1094q69 0 69 -70t-69 -70q-70 0 -70 70t70 70zM652 1094q70 0 70 -70t-70 -70t-70 70t70 70zM838 1094q70 0 70 -70t-70 -70t-70 70t70 70zM279 1280q70 0 70 -70t-70 -70t-70 70t70 70zM279 1466q70 0 70 -70
t-70 -70t-70 70t70 70zM466 1466q69 0 69 -70t-69 -70q-70 0 -70 70t70 70zM652 1466q70 0 70 -70t-70 -70t-70 70t70 70zM838 1466q70 0 70 -70t-70 -70t-70 70t70 70z" />
    <glyph glyph-name="aacute" unicode="&#x431;" 
d="M279 722q70 0 70 -70t-70 -70t-70 70t70 70zM466 722q69 0 69 -70t-69 -70q-70 0 -70 70t70 70zM652 722q70 0 70 -70t-70 -70t-70 70t70 70zM838 722q70 0 70 -70t-70 -70t-70 70t70 70zM279 908q70 0 70 -70t-70 -70t-70 70t70 70zM931 908q70 0 70 -70t-70 -70t-70 70
t70 70zM279 1094q70 0 70 -70t-70 -70t-70 70t70 70zM466 1094q69 0 69 -70t-69 -70q-70 0 -70 70t70 70zM652 1094q70 0 70 -70t-70 -70t-70 70t70 70zM838 1094q70 0 70 -70t-70 -70t-70 70t70 70zM279 1280q70 0 70 -70t-70 -70t-70 70t70 70zM279 1466q70 0 70 -70
t-70 -70t-70 70t70 70zM466 1466q69 0 69 -70t-69 -70q-70 0 -70 70t70 70zM652 1466q70 0 70 -70t-70 -70t-70 70t70 70zM838 1466q70 0 70 -70t-70 -70t-70 70t70 70z" />
    <glyph glyph-name="acircumflex" unicode="&#xe2;" 
d="M838 1466q70 0 70 -70t-70 -70t-70 70t70 70zM652 1466q70 0 70 -70t-70 -70t-70 70t70 70zM466 1466q69 0 69 -70t-69 -70q-70 0 -70 70t70 70zM279 1466q70 0 70 -70t-70 -70t-70 70t70 70zM279 1280q70 0 70 -70t-70 -70t-70 70t70 70zM838 1094q70 0 70 -70t-70 -70
t-70 70t70 70zM652 1094q70 0 70 -70t-70 -70t-70 70t70 70zM466 1094q69 0 69 -70t-69 -70q-70 0 -70 70t70 70zM279 1094q70 0 70 -70t-70 -70t-70 70t70 70zM931 908q70 0 70 -70t-70 -70t-70 70t70 70zM931 1280q70 0 70 -70t-70 -70t-70 70t70 70zM279 908q70 0 70 -70
t-70 -70t-70 70t70 70zM838 722q70 0 70 -70t-70 -70t-70 70t70 70zM652 722q70 0 70 -70t-70 -70t-70 70t70 70zM466 722q69 0 69 -70t-69 -70q-70 0 -70 70t70 70zM279 722q70 0 70 -70t-70 -70t-70 70t70 70z" />
    <glyph glyph-name="acircumflex" unicode="&#x432;" 
d="M838 1466q70 0 70 -70t-70 -70t-70 70t70 70zM652 1466q70 0 70 -70t-70 -70t-70 70t70 70zM466 1466q69 0 69 -70t-69 -70q-70 0 -70 70t70 70zM279 1466q70 0 70 -70t-70 -70t-70 70t70 70zM279 1280q70 0 70 -70t-70 -70t-70 70t70 70zM838 1094q70 0 70 -70t-70 -70
t-70 70t70 70zM652 1094q70 0 70 -70t-70 -70t-70 70t70 70zM466 1094q69 0 69 -70t-69 -70q-70 0 -70 70t70 70zM279 1094q70 0 70 -70t-70 -70t-70 70t70 70zM931 908q70 0 70 -70t-70 -70t-70 70t70 70zM931 1280q70 0 70 -70t-70 -70t-70 70t70 70zM279 908q70 0 70 -70
t-70 -70t-70 70t70 70zM838 722q70 0 70 -70t-70 -70t-70 70t70 70zM652 722q70 0 70 -70t-70 -70t-70 70t70 70zM466 722q69 0 69 -70t-69 -70q-70 0 -70 70t70 70zM279 722q70 0 70 -70t-70 -70t-70 70t70 70z" />
    <glyph glyph-name="ae" unicode="&#xe6;" 
d="M279 722q70 0 70 -70t-70 -70t-70 70t70 70zM652 722q70 0 70 -70t-70 -70t-70 70t70 70zM1024 722q70 0 70 -70t-70 -70t-70 70t70 70zM373 908q69 0 69 -70t-69 -70q-70 0 -70 70t70 70zM652 908q70 0 70 -70t-70 -70t-70 70t70 70zM931 908q70 0 70 -70t-70 -70
t-70 70t70 70zM466 1094q69 0 69 -70t-69 -70q-70 0 -70 70t70 70zM652 1094q70 0 70 -70t-70 -70t-70 70t70 70zM838 1094q70 0 70 -70t-70 -70t-70 70t70 70zM373 1280q69 0 69 -70t-69 -70q-70 0 -70 70t70 70zM652 1280q70 0 70 -70t-70 -70t-70 70t70 70zM931 1280
q70 0 70 -70t-70 -70t-70 70t70 70zM279 1466q70 0 70 -70t-70 -70t-70 70t70 70zM652 1466q70 0 70 -70t-70 -70t-70 70t70 70zM1024 1466q70 0 70 -70t-70 -70t-70 70t70 70z" />
    <glyph glyph-name="ae" unicode="&#x436;" 
d="M279 722q70 0 70 -70t-70 -70t-70 70t70 70zM652 722q70 0 70 -70t-70 -70t-70 70t70 70zM1024 722q70 0 70 -70t-70 -70t-70 70t70 70zM373 908q69 0 69 -70t-69 -70q-70 0 -70 70t70 70zM652 908q70 0 70 -70t-70 -70t-70 70t70 70zM931 908q70 0 70 -70t-70 -70
t-70 70t70 70zM466 1094q69 0 69 -70t-69 -70q-70 0 -70 70t70 70zM652 1094q70 0 70 -70t-70 -70t-70 70t70 70zM838 1094q70 0 70 -70t-70 -70t-70 70t70 70zM373 1280q69 0 69 -70t-69 -70q-70 0 -70 70t70 70zM652 1280q70 0 70 -70t-70 -70t-70 70t70 70zM931 1280
q70 0 70 -70t-70 -70t-70 70t70 70zM279 1466q70 0 70 -70t-70 -70t-70 70t70 70zM652 1466q70 0 70 -70t-70 -70t-70 70t70 70zM1024 1466q70 0 70 -70t-70 -70t-70 70t70 70z" />
    <glyph glyph-name="ccedilla" unicode="&#xe7;" 
d="M373 722q69 0 69 -70t-69 -70q-70 0 -70 70t70 70zM559 722q69 0 69 -70t-69 -70q-70 0 -70 70t70 70zM745 722q70 0 70 -70t-70 -70t-70 70t70 70zM931 722q70 0 70 -70t-70 -70t-70 70t70 70zM1024 908q70 0 70 -70t-70 -70t-70 70t70 70zM559 1094q69 0 69 -70
t-69 -70q-70 0 -70 70t70 70zM745 1094q70 0 70 -70t-70 -70t-70 70t70 70zM931 1094q70 0 70 -70t-70 -70t-70 70t70 70zM1024 1280q70 0 70 -70t-70 -70t-70 70t70 70zM373 1466q69 0 69 -70t-69 -70q-70 0 -70 70t70 70zM559 1466q69 0 69 -70t-69 -70q-70 0 -70 70
t70 70zM745 1466q70 0 70 -70t-70 -70t-70 70t70 70zM931 1466q70 0 70 -70t-70 -70t-70 70t70 70z" />
    <glyph glyph-name="ccedilla" unicode="&#x437;" 
d="M373 722q69 0 69 -70t-69 -70q-70 0 -70 70t70 70zM559 722q69 0 69 -70t-69 -70q-70 0 -70 70t70 70zM745 722q70 0 70 -70t-70 -70t-70 70t70 70zM931 722q70 0 70 -70t-70 -70t-70 70t70 70zM1024 908q70 0 70 -70t-70 -70t-70 70t70 70zM559 1094q69 0 69 -70
t-69 -70q-70 0 -70 70t70 70zM745 1094q70 0 70 -70t-70 -70t-70 70t70 70zM931 1094q70 0 70 -70t-70 -70t-70 70t70 70zM1024 1280q70 0 70 -70t-70 -70t-70 70t70 70zM373 1466q69 0 69 -70t-69 -70q-70 0 -70 70t70 70zM559 1466q69 0 69 -70t-69 -70q-70 0 -70 70
t70 70zM745 1466q70 0 70 -70t-70 -70t-70 70t70 70zM931 1466q70 0 70 -70t-70 -70t-70 70t70 70z" />
    <glyph glyph-name="h" unicode="h" 
d="M279 722q70 0 70 -70t-70 -70t-70 70t70 70zM1024 722q70 0 70 -70t-70 -70t-70 70t70 70zM279 908q70 0 70 -70t-70 -70t-70 70t70 70zM1024 908q70 0 70 -70t-70 -70t-70 70t70 70zM279 1094q70 0 70 -70t-70 -70t-70 70t70 70zM1024 1094q70 0 70 -70t-70 -70t-70 70
t70 70zM279 1280q70 0 70 -70t-70 -70t-70 70t70 70zM466 1280q69 0 69 -70t-69 -70q-70 0 -70 70t70 70zM652 1280q70 0 70 -70t-70 -70t-70 70t70 70zM838 1280q70 0 70 -70t-70 -70t-70 70t70 70zM279 1466q70 0 70 -70t-70 -70t-70 70t70 70zM279 1652q70 0 70 -70
q0 -69 -70 -69t-70 69q0 70 70 70zM279 1839q70 0 70 -70t-70 -70t-70 70t70 70z" />
    <glyph glyph-name="k" unicode="k" 
d="M279 1839q70 0 70 -70t-70 -70t-70 70t70 70zM279 1652q70 0 70 -70q0 -69 -70 -69t-70 69q0 70 70 70zM279 1466q70 0 70 -70t-70 -70t-70 70t70 70zM838 1466q70 0 70 -70t-70 -70t-70 70t70 70zM838 721q70 0 70 -69q0 -70 -70 -70t-70 70q0 69 70 69zM652 1280
q70 0 70 -70t-70 -70t-70 70t70 70zM652 908q70 0 70 -70t-70 -70t-70 70t70 70zM466 1094q69 0 69 -70t-69 -70q-70 0 -70 70t70 70zM279 1280q70 0 70 -70t-70 -70t-70 70t70 70zM279 1094q70 0 70 -70t-70 -70t-70 70t70 70zM279 908q70 0 70 -70t-70 -70t-70 70t70 70z
M279 722q70 0 70 -70t-70 -70t-70 70t70 70z" />
    <glyph glyph-name="ecircumflex" unicode="&#xea;" 
d="M279 722q70 0 70 -70t-70 -70t-70 70t70 70zM279 908q70 0 70 -70t-70 -70t-70 70t70 70zM279 1094q70 0 70 -70t-70 -70t-70 70t70 70zM279 1280q70 0 70 -70t-70 -70t-70 70t70 70zM466 1094q69 0 69 -70t-69 -70q-70 0 -70 70t70 70zM652 908q70 0 70 -70t-70 -70
t-70 70t70 70zM652 1280q70 0 70 -70t-70 -70t-70 70t70 70zM838 721q70 0 70 -69q0 -70 -70 -70t-70 70q0 69 70 69zM838 1466q70 0 70 -70t-70 -70t-70 70t70 70zM279 1466q70 0 70 -70t-70 -70t-70 70t70 70z" />
    <glyph glyph-name="ecircumflex" unicode="&#x43a;" 
d="M279 722q70 0 70 -70t-70 -70t-70 70t70 70zM279 908q70 0 70 -70t-70 -70t-70 70t70 70zM279 1094q70 0 70 -70t-70 -70t-70 70t70 70zM279 1280q70 0 70 -70t-70 -70t-70 70t70 70zM466 1094q69 0 69 -70t-69 -70q-70 0 -70 70t70 70zM652 908q70 0 70 -70t-70 -70
t-70 70t70 70zM652 1280q70 0 70 -70t-70 -70t-70 70t70 70zM838 721q70 0 70 -69q0 -70 -70 -70t-70 70q0 69 70 69zM838 1466q70 0 70 -70t-70 -70t-70 70t70 70zM279 1466q70 0 70 -70t-70 -70t-70 70t70 70z" />
    <glyph glyph-name="j" unicode="j" 
d="M1024 722q70 0 70 -70t-70 -70t-70 70t70 70zM931 535q70 0 70 -69q0 -70 -70 -70t-70 70q0 69 70 69zM745 535q70 0 70 -69q0 -70 -70 -70t-70 70q0 69 70 69zM559 535q69 0 69 -69q0 -70 -69 -70q-70 0 -70 70q0 69 70 69zM466 722q69 0 69 -70t-69 -70q-70 0 -70 70
t70 70zM1024 908q70 0 70 -70t-70 -70t-70 70t70 70zM1024 1094q70 0 70 -70t-70 -70t-70 70t70 70zM1024 1280q70 0 70 -70t-70 -70t-70 70t70 70zM1024 1466q70 0 70 -70t-70 -70t-70 70t70 70zM1024 1839q70 0 70 -70t-70 -70t-70 70t70 70z" />
    <glyph glyph-name="f" unicode="f" 
d="M465 396q-69 0 -69 70t69 70q70 0 70 -70t-70 -70zM465 582q-69 0 -69 70t69 70q70 0 70 -70t-70 -70zM465 768q-69 0 -69 70t69 70q70 0 70 -70t-70 -70zM465 954q-69 0 -69 70t69 70q70 0 70 -70t-70 -70zM279 954q-70 0 -70 70t70 70t70 -70t-70 -70zM651 954
q-69 0 -69 70t69 70q70 0 70 -70t-70 -70zM465 1140q-69 0 -69 70t69 70q70 0 70 -70t-70 -70zM465 1326q-69 0 -69 70t69 70q70 0 70 -70t-70 -70zM931 1699q-70 0 -70 70q0 69 70 69t70 -69q0 -70 -70 -70zM745 1699q-70 0 -70 70q0 69 70 69t70 -69q0 -70 -70 -70z
M558 1699q-69 0 -69 70q0 69 69 69q70 0 70 -69q0 -70 -70 -70zM465 1513q-69 0 -69 69q0 70 69 70q70 0 70 -70q0 -69 -70 -69z" />
    <glyph glyph-name="eacute" unicode="&#xe9;" 
d="M279 722q70 0 70 -70t-70 -70t-70 70t70 70zM1024 722q70 0 70 -70t-70 -70t-70 70t70 70zM279 908q70 0 70 -70t-70 -70t-70 70t70 70zM466 908q69 0 69 -70t-69 -70q-70 0 -70 70t70 70zM1024 908q70 0 70 -70t-70 -70t-70 70t70 70zM279 1094q70 0 70 -70t-70 -70
t-70 70t70 70zM652 1094q70 0 70 -70t-70 -70t-70 70t70 70zM1024 1094q70 0 70 -70t-70 -70t-70 70t70 70zM279 1280q70 0 70 -70t-70 -70t-70 70t70 70zM838 1280q70 0 70 -70t-70 -70t-70 70t70 70zM1024 1280q70 0 70 -70t-70 -70t-70 70t70 70zM279 1466q70 0 70 -70
t-70 -70t-70 70t70 70zM1024 1466q70 0 70 -70t-70 -70t-70 70t70 70zM559 1839q69 0 69 -70t-69 -70q-70 0 -70 70t70 70zM652 1652q70 0 70 -70t-70 -70t-70 70t70 70zM745 1839q70 0 70 -70t-70 -70t-70 70t70 70z" />
    <glyph glyph-name="eacute" unicode="&#x439;" 
d="M279 722q70 0 70 -70t-70 -70t-70 70t70 70zM1024 722q70 0 70 -70t-70 -70t-70 70t70 70zM279 908q70 0 70 -70t-70 -70t-70 70t70 70zM466 908q69 0 69 -70t-69 -70q-70 0 -70 70t70 70zM1024 908q70 0 70 -70t-70 -70t-70 70t70 70zM279 1094q70 0 70 -70t-70 -70
t-70 70t70 70zM652 1094q70 0 70 -70t-70 -70t-70 70t70 70zM1024 1094q70 0 70 -70t-70 -70t-70 70t70 70zM279 1280q70 0 70 -70t-70 -70t-70 70t70 70zM838 1280q70 0 70 -70t-70 -70t-70 70t70 70zM1024 1280q70 0 70 -70t-70 -70t-70 70t70 70zM279 1466q70 0 70 -70
t-70 -70t-70 70t70 70zM1024 1466q70 0 70 -70t-70 -70t-70 70t70 70zM559 1839q69 0 69 -70t-69 -70q-70 0 -70 70t70 70zM652 1652q70 0 70 -70t-70 -70t-70 70t70 70zM745 1839q70 0 70 -70t-70 -70t-70 70t70 70z" />
    <glyph glyph-name="egrave" unicode="&#xe8;" 
d="M1024 1466q70 0 70 -70t-70 -70t-70 70t70 70zM279 1466q70 0 70 -70t-70 -70t-70 70t70 70zM1024 1280q70 0 70 -70t-70 -70t-70 70t70 70zM838 1280q70 0 70 -70t-70 -70t-70 70t70 70zM279 1280q70 0 70 -70t-70 -70t-70 70t70 70zM1024 1094q70 0 70 -70t-70 -70
t-70 70t70 70zM652 1094q70 0 70 -70t-70 -70t-70 70t70 70zM279 1094q70 0 70 -70t-70 -70t-70 70t70 70zM1024 908q70 0 70 -70t-70 -70t-70 70t70 70zM466 908q69 0 69 -70t-69 -70q-70 0 -70 70t70 70zM279 908q70 0 70 -70t-70 -70t-70 70t70 70zM1024 722q70 0 70 -70
t-70 -70t-70 70t70 70zM279 722q70 0 70 -70t-70 -70t-70 70t70 70z" />
    <glyph glyph-name="egrave" unicode="&#x438;" 
d="M1024 1466q70 0 70 -70t-70 -70t-70 70t70 70zM279 1466q70 0 70 -70t-70 -70t-70 70t70 70zM1024 1280q70 0 70 -70t-70 -70t-70 70t70 70zM838 1280q70 0 70 -70t-70 -70t-70 70t70 70zM279 1280q70 0 70 -70t-70 -70t-70 70t70 70zM1024 1094q70 0 70 -70t-70 -70
t-70 70t70 70zM652 1094q70 0 70 -70t-70 -70t-70 70t70 70zM279 1094q70 0 70 -70t-70 -70t-70 70t70 70zM1024 908q70 0 70 -70t-70 -70t-70 70t70 70zM466 908q69 0 69 -70t-69 -70q-70 0 -70 70t70 70zM279 908q70 0 70 -70t-70 -70t-70 70t70 70zM1024 722q70 0 70 -70
t-70 -70t-70 70t70 70zM279 722q70 0 70 -70t-70 -70t-70 70t70 70z" />
    <glyph glyph-name="edieresis" unicode="&#xeb;" 
d="M279 722q70 0 70 -70t-70 -70t-70 70t70 70zM1024 722q70 0 70 -70t-70 -70t-70 70t70 70zM373 908q69 0 69 -70t-69 -70q-70 0 -70 70t70 70zM1024 908q70 0 70 -70t-70 -70t-70 70t70 70zM466 1094q69 0 69 -70t-69 -70q-70 0 -70 70t70 70zM1024 1094q70 0 70 -70
t-70 -70t-70 70t70 70zM559 1280q69 0 69 -70t-69 -70q-70 0 -70 70t70 70zM1024 1280q70 0 70 -70t-70 -70t-70 70t70 70zM1024 1466q70 0 70 -70t-70 -70t-70 70t70 70zM838 1466q69 0 69 -70t-69 -70q-70 0 -70 70t70 70zM652 1466q69 0 69 -70t-69 -70q-70 0 -70 70
t70 70z" />
    <glyph glyph-name="edieresis" unicode="&#x43b;" 
d="M279 722q70 0 70 -70t-70 -70t-70 70t70 70zM1024 722q70 0 70 -70t-70 -70t-70 70t70 70zM373 908q69 0 69 -70t-69 -70q-70 0 -70 70t70 70zM1024 908q70 0 70 -70t-70 -70t-70 70t70 70zM466 1094q69 0 69 -70t-69 -70q-70 0 -70 70t70 70zM1024 1094q70 0 70 -70
t-70 -70t-70 70t70 70zM559 1280q69 0 69 -70t-69 -70q-70 0 -70 70t70 70zM1024 1280q70 0 70 -70t-70 -70t-70 70t70 70zM1024 1466q70 0 70 -70t-70 -70t-70 70t70 70zM838 1466q69 0 69 -70t-69 -70q-70 0 -70 70t70 70zM652 1466q69 0 69 -70t-69 -70q-70 0 -70 70
t70 70z" />
    <glyph glyph-name="idieresis" unicode="&#xef;" 
d="M279 1466q70 0 70 -70t-70 -70t-70 70t70 70zM838 1466q69 0 69 -70t-69 -70q-70 0 -70 70t70 70zM652 1466q69 0 69 -70t-69 -70q-70 0 -70 70t70 70zM466 1466q69 0 69 -70t-69 -70q-70 0 -70 70t70 70zM1024 1466q70 0 70 -70t-70 -70t-70 70t70 70zM1024 1280
q70 0 70 -70t-70 -70t-70 70t70 70zM279 1280q70 0 70 -70t-70 -70q-69 0 -69 70t69 70zM1024 1094q70 0 70 -70t-70 -70t-70 70t70 70zM279 1094q70 0 70 -70t-70 -70q-69 0 -69 70t69 70zM1024 908q70 0 70 -70t-70 -70t-70 70t70 70zM279 908q70 0 70 -70t-70 -70
q-69 0 -69 70t69 70zM1024 722q70 0 70 -70t-70 -70t-70 70t70 70zM279 722q70 0 70 -70t-70 -70t-70 70t70 70z" />
    <glyph glyph-name="idieresis" unicode="&#x43f;" 
d="M279 1466q70 0 70 -70t-70 -70t-70 70t70 70zM838 1466q69 0 69 -70t-69 -70q-70 0 -70 70t70 70zM652 1466q69 0 69 -70t-69 -70q-70 0 -70 70t70 70zM466 1466q69 0 69 -70t-69 -70q-70 0 -70 70t70 70zM1024 1466q70 0 70 -70t-70 -70t-70 70t70 70zM1024 1280
q70 0 70 -70t-70 -70t-70 70t70 70zM279 1280q70 0 70 -70t-70 -70q-69 0 -69 70t69 70zM1024 1094q70 0 70 -70t-70 -70t-70 70t70 70zM279 1094q70 0 70 -70t-70 -70q-69 0 -69 70t69 70zM1024 908q70 0 70 -70t-70 -70t-70 70t70 70zM279 908q70 0 70 -70t-70 -70
q-69 0 -69 70t69 70zM1024 722q70 0 70 -70t-70 -70t-70 70t70 70zM279 722q70 0 70 -70t-70 -70t-70 70t70 70z" />
    <glyph glyph-name="igrave" unicode="&#xec;" 
d="M279 722q70 0 70 -70t-70 -70t-70 70t70 70zM1024 722q70 0 70 -70t-70 -70t-70 70t70 70zM279 908q70 0 70 -70t-70 -70q-69 0 -69 70t69 70zM1024 908q70 0 70 -70t-70 -70t-70 70t70 70zM279 1094q70 0 70 -70t-70 -70q-69 0 -69 70t69 70zM1024 1094q70 0 70 -70
t-70 -70t-70 70t70 70zM279 1280q70 0 70 -70t-70 -70q-69 0 -69 70t69 70zM1024 1280q70 0 70 -70t-70 -70t-70 70t70 70zM1024 1466q70 0 70 -70t-70 -70t-70 70t70 70zM466 1280q69 0 69 -70t-69 -70q-70 0 -70 70t70 70zM652 1094q69 0 69 -70t-69 -70q-70 0 -70 70
t70 70zM838 1280q69 0 69 -70t-69 -70q-70 0 -70 70t70 70zM279 1466q70 0 70 -70t-70 -70t-70 70t70 70z" />
    <glyph glyph-name="igrave" unicode="&#x43c;" 
d="M279 722q70 0 70 -70t-70 -70t-70 70t70 70zM1024 722q70 0 70 -70t-70 -70t-70 70t70 70zM279 908q70 0 70 -70t-70 -70q-69 0 -69 70t69 70zM1024 908q70 0 70 -70t-70 -70t-70 70t70 70zM279 1094q70 0 70 -70t-70 -70q-69 0 -69 70t69 70zM1024 1094q70 0 70 -70
t-70 -70t-70 70t70 70zM279 1280q70 0 70 -70t-70 -70q-69 0 -69 70t69 70zM1024 1280q70 0 70 -70t-70 -70t-70 70t70 70zM1024 1466q70 0 70 -70t-70 -70t-70 70t70 70zM466 1280q69 0 69 -70t-69 -70q-70 0 -70 70t70 70zM652 1094q69 0 69 -70t-69 -70q-70 0 -70 70
t70 70zM838 1280q69 0 69 -70t-69 -70q-70 0 -70 70t70 70zM279 1466q70 0 70 -70t-70 -70t-70 70t70 70z" />
    <glyph glyph-name="iacute" unicode="&#xed;" 
d="M279 1466q70 0 70 -70t-70 -70t-70 70t70 70zM838 1094q69 0 69 -70t-69 -70q-70 0 -70 70t70 70zM652 1094q69 0 69 -70t-69 -70q-70 0 -70 70t70 70zM466 1094q69 0 69 -70t-69 -70q-70 0 -70 70t70 70zM1024 1466q70 0 70 -70t-70 -70t-70 70t70 70zM1024 1280
q70 0 70 -70t-70 -70t-70 70t70 70zM279 1280q70 0 70 -70t-70 -70q-69 0 -69 70t69 70zM1024 1094q70 0 70 -70t-70 -70t-70 70t70 70zM279 1094q70 0 70 -70t-70 -70q-69 0 -69 70t69 70zM1024 908q70 0 70 -70t-70 -70t-70 70t70 70zM279 908q70 0 70 -70t-70 -70
q-69 0 -69 70t69 70zM1024 722q70 0 70 -70t-70 -70t-70 70t70 70zM279 722q70 0 70 -70t-70 -70t-70 70t70 70z" />
    <glyph glyph-name="iacute" unicode="&#x43d;" 
d="M279 1466q70 0 70 -70t-70 -70t-70 70t70 70zM838 1094q69 0 69 -70t-69 -70q-70 0 -70 70t70 70zM652 1094q69 0 69 -70t-69 -70q-70 0 -70 70t70 70zM466 1094q69 0 69 -70t-69 -70q-70 0 -70 70t70 70zM1024 1466q70 0 70 -70t-70 -70t-70 70t70 70zM1024 1280
q70 0 70 -70t-70 -70t-70 70t70 70zM279 1280q70 0 70 -70t-70 -70q-69 0 -69 70t69 70zM1024 1094q70 0 70 -70t-70 -70t-70 70t70 70zM279 1094q70 0 70 -70t-70 -70q-69 0 -69 70t69 70zM1024 908q70 0 70 -70t-70 -70t-70 70t70 70zM279 908q70 0 70 -70t-70 -70
q-69 0 -69 70t69 70zM1024 722q70 0 70 -70t-70 -70t-70 70t70 70zM279 722q70 0 70 -70t-70 -70t-70 70t70 70z" />
    <glyph glyph-name="icircumflex" unicode="&#xee;" 
d="M931 722q70 0 70 -70t-70 -70t-70 70t70 70zM745 722q70 0 70 -70t-70 -70t-70 70t70 70zM559 722q69 0 69 -70t-69 -70q-70 0 -70 70t70 70zM373 722q69 0 69 -70t-69 -70q-70 0 -70 70t70 70zM279 908q70 0 70 -70t-70 -70q-69 0 -69 70t69 70zM1024 908q70 0 70 -70
t-70 -70t-70 70t70 70zM279 1094q70 0 70 -70t-70 -70q-69 0 -69 70t69 70zM1024 1094q70 0 70 -70t-70 -70t-70 70t70 70zM279 1280q70 0 70 -70t-70 -70q-69 0 -69 70t69 70zM1024 1280q70 0 70 -70t-70 -70t-70 70t70 70zM931 1466q70 0 70 -70t-70 -70t-70 70t70 70z
M745 1466q70 0 70 -70t-70 -70t-70 70t70 70zM559 1466q69 0 69 -70t-69 -70q-70 0 -70 70t70 70zM373 1466q69 0 69 -70t-69 -70q-70 0 -70 70t70 70z" />
    <glyph glyph-name="icircumflex" unicode="&#x43e;" 
d="M931 722q70 0 70 -70t-70 -70t-70 70t70 70zM745 722q70 0 70 -70t-70 -70t-70 70t70 70zM559 722q69 0 69 -70t-69 -70q-70 0 -70 70t70 70zM373 722q69 0 69 -70t-69 -70q-70 0 -70 70t70 70zM279 908q70 0 70 -70t-70 -70q-69 0 -69 70t69 70zM1024 908q70 0 70 -70
t-70 -70t-70 70t70 70zM279 1094q70 0 70 -70t-70 -70q-69 0 -69 70t69 70zM1024 1094q70 0 70 -70t-70 -70t-70 70t70 70zM279 1280q70 0 70 -70t-70 -70q-69 0 -69 70t69 70zM1024 1280q70 0 70 -70t-70 -70t-70 70t70 70zM931 1466q70 0 70 -70t-70 -70t-70 70t70 70z
M745 1466q70 0 70 -70t-70 -70t-70 70t70 70zM559 1466q69 0 69 -70t-69 -70q-70 0 -70 70t70 70zM373 1466q69 0 69 -70t-69 -70q-70 0 -70 70t70 70z" />
    <glyph glyph-name="o" unicode="o" 
d="M931 722q70 0 70 -70t-70 -70t-70 70t70 70zM745 722q70 0 70 -70t-70 -70t-70 70t70 70zM559 722q69 0 69 -70t-69 -70q-70 0 -70 70t70 70zM373 722q69 0 69 -70t-69 -70q-70 0 -70 70t70 70zM279 908q70 0 70 -70t-70 -70q-69 0 -69 70t69 70zM1024 908q70 0 70 -70
t-70 -70t-70 70t70 70zM279 1094q70 0 70 -70t-70 -70q-69 0 -69 70t69 70zM1024 1094q70 0 70 -70t-70 -70t-70 70t70 70zM279 1280q70 0 70 -70t-70 -70q-69 0 -69 70t69 70zM1024 1280q70 0 70 -70t-70 -70t-70 70t70 70zM931 1466q70 0 70 -70t-70 -70t-70 70t70 70z
M745 1466q70 0 70 -70t-70 -70t-70 70t70 70zM559 1466q69 0 69 -70t-69 -70q-70 0 -70 70t70 70zM373 1466q69 0 69 -70t-69 -70q-70 0 -70 70t70 70z" />
    <glyph glyph-name="m" unicode="m" 
d="M466 1466q69 0 69 -70t-69 -70q-70 0 -70 70t70 70zM838 1466q69 0 69 -70t-69 -70q-70 0 -70 70t70 70zM1024 1280q70 0 70 -70t-70 -70t-70 70t70 70zM652 1280q69 0 69 -70t-69 -70q-70 0 -70 70t70 70zM279 1280q70 0 70 -70t-70 -70q-69 0 -69 70t69 70zM1024 1094
q70 0 70 -70t-70 -70t-70 70t70 70zM652 1094q69 0 69 -70t-69 -70q-70 0 -70 70t70 70zM279 1094q70 0 70 -70t-70 -70q-69 0 -69 70t69 70zM1024 908q70 0 70 -70t-70 -70t-70 70t70 70zM652 908q69 0 69 -70t-69 -70q-70 0 -70 70t70 70zM279 908q70 0 70 -70t-70 -70
q-69 0 -69 70t69 70zM279 722q70 0 70 -70t-70 -70t-70 70t70 70zM1024 722q70 0 70 -70t-70 -70t-70 70t70 70zM652 722q69 0 69 -70t-69 -70q-70 0 -70 70t70 70z" />
    <glyph glyph-name="n" unicode="n" 
d="M1024 722q70 0 70 -70t-70 -70t-70 70t70 70zM279 722q70 0 70 -70t-70 -70t-70 70t70 70zM279 908q70 0 70 -70t-70 -70q-69 0 -69 70t69 70zM1024 908q70 0 70 -70t-70 -70t-70 70t70 70zM279 1094q70 0 70 -70t-70 -70q-69 0 -69 70t69 70zM1024 1094q70 0 70 -70
t-70 -70t-70 70t70 70zM279 1280q70 0 70 -70t-70 -70q-69 0 -69 70t69 70zM1024 1280q70 0 70 -70t-70 -70t-70 70t70 70zM745 1466q70 0 70 -70t-70 -70t-70 70t70 70zM931 1466q70 0 70 -70t-70 -70t-70 70t70 70zM559 1466q69 0 69 -70t-69 -70q-70 0 -70 70t70 70z
M466 1280q69 0 69 -70t-69 -70q-70 0 -70 70t70 70zM279 1466q70 0 70 -70t-70 -70t-70 70t70 70z" />
    <glyph glyph-name="l" unicode="l" 
d="M279 1466q70 0 70 -70t-70 -70t-70 70t70 70zM279 1652q70 0 70 -70q0 -69 -70 -69t-70 69q0 70 70 70zM279 1838q70 0 70 -69q0 -70 -70 -70t-70 70q0 69 70 69zM279 1280q70 0 70 -70t-70 -70q-69 0 -69 70t69 70zM279 1094q70 0 70 -70t-70 -70q-69 0 -69 70t69 70z
M279 908q70 0 70 -70t-70 -70q-69 0 -69 70t69 70zM373 722q69 0 69 -70t-69 -70q-70 0 -70 70t70 70zM559 722q69 0 69 -70t-69 -70q-70 0 -70 70t70 70z" />
    <glyph glyph-name="z" unicode="z" 
d="M279 722q70 0 70 -70t-70 -70t-70 70t70 70zM466 722q69 0 69 -70t-69 -70q-70 0 -70 70t70 70zM652 722q70 0 70 -70t-70 -70t-70 70t70 70zM838 722q70 0 70 -70t-70 -70t-70 70t70 70zM1024 722q70 0 70 -70t-70 -70t-70 70t70 70zM466 908q69 0 69 -70t-69 -70
q-70 0 -70 70t70 70zM652 1094q70 0 70 -70t-70 -70t-70 70t70 70zM838 1280q70 0 70 -70t-70 -70t-70 70t70 70zM279 1466q70 0 70 -70t-70 -70t-70 70t70 70zM466 1466q69 0 69 -70t-69 -70q-70 0 -70 70t70 70zM652 1466q70 0 70 -70t-70 -70t-70 70t70 70zM838 1466
q70 0 70 -70t-70 -70t-70 70t70 70zM1024 1466q70 0 70 -70t-70 -70t-70 70t70 70z" />
    <glyph glyph-name="ucircumflex" unicode="&#xfb;" 
d="M279 722q70 0 70 -70t-70 -70t-70 70t70 70zM466 722q69 0 69 -70t-69 -70q-70 0 -70 70t70 70zM652 722q70 0 70 -70t-70 -70t-70 70t70 70zM838 722q70 0 70 -70t-70 -70t-70 70t70 70zM1117 722q70 0 70 -70t-70 -70t-70 70t70 70zM279 908q70 0 70 -70t-70 -70
t-70 70t70 70zM931 908q70 0 70 -70t-70 -70t-70 70t70 70zM1117 908q70 0 70 -70t-70 -70t-70 70t70 70zM279 1094q70 0 70 -70t-70 -70t-70 70t70 70zM466 1094q69 0 69 -70t-69 -70q-70 0 -70 70t70 70zM652 1094q70 0 70 -70t-70 -70t-70 70t70 70zM838 1094
q70 0 70 -70t-70 -70t-70 70t70 70zM1117 1094q70 0 70 -70t-70 -70t-70 70t70 70zM279 1280q70 0 70 -70t-70 -70t-70 70t70 70zM1117 1280q70 0 70 -70t-70 -70t-70 70t70 70zM279 1466q70 0 70 -70t-70 -70t-70 70t70 70zM1117 1466q70 0 70 -70t-70 -70t-70 70t70 70z
" />
    <glyph glyph-name="ucircumflex" unicode="&#x44b;" 
d="M279 722q70 0 70 -70t-70 -70t-70 70t70 70zM466 722q69 0 69 -70t-69 -70q-70 0 -70 70t70 70zM652 722q70 0 70 -70t-70 -70t-70 70t70 70zM838 722q70 0 70 -70t-70 -70t-70 70t70 70zM1117 722q70 0 70 -70t-70 -70t-70 70t70 70zM279 908q70 0 70 -70t-70 -70
t-70 70t70 70zM931 908q70 0 70 -70t-70 -70t-70 70t70 70zM1117 908q70 0 70 -70t-70 -70t-70 70t70 70zM279 1094q70 0 70 -70t-70 -70t-70 70t70 70zM466 1094q69 0 69 -70t-69 -70q-70 0 -70 70t70 70zM652 1094q70 0 70 -70t-70 -70t-70 70t70 70zM838 1094
q70 0 70 -70t-70 -70t-70 70t70 70zM1117 1094q70 0 70 -70t-70 -70t-70 70t70 70zM279 1280q70 0 70 -70t-70 -70t-70 70t70 70zM1117 1280q70 0 70 -70t-70 -70t-70 70t70 70zM279 1466q70 0 70 -70t-70 -70t-70 70t70 70zM1117 1466q70 0 70 -70t-70 -70t-70 70t70 70z
" />
    <glyph glyph-name="uacute" unicode="&#xfa;" 
d="M466 1466q70 0 70 -70t-70 -70t-70 70t70 70zM279 1466q70 0 70 -70t-70 -70t-70 70t70 70zM466 1280q70 0 70 -70t-70 -70t-70 70t70 70zM1024 1094q70 0 70 -70t-70 -70t-70 70t70 70zM838 1094q70 0 70 -70t-70 -70t-70 70t70 70zM652 1094q70 0 70 -70t-70 -70
t-70 70t70 70zM466 1094q70 0 70 -70t-70 -70t-70 70t70 70zM1117 908q70 0 70 -70t-70 -70t-70 70t70 70zM466 908q70 0 70 -70t-70 -70t-70 70t70 70zM1024 722q70 0 70 -70t-70 -70t-70 70t70 70zM838 722q70 0 70 -70t-70 -70t-70 70t70 70zM652 722q70 0 70 -70
t-70 -70t-70 70t70 70zM466 722q70 0 70 -70t-70 -70t-70 70t70 70z" />
    <glyph glyph-name="uacute" unicode="&#x44a;" 
d="M466 1466q70 0 70 -70t-70 -70t-70 70t70 70zM279 1466q70 0 70 -70t-70 -70t-70 70t70 70zM466 1280q70 0 70 -70t-70 -70t-70 70t70 70zM1024 1094q70 0 70 -70t-70 -70t-70 70t70 70zM838 1094q70 0 70 -70t-70 -70t-70 70t70 70zM652 1094q70 0 70 -70t-70 -70
t-70 70t70 70zM466 1094q70 0 70 -70t-70 -70t-70 70t70 70zM1117 908q70 0 70 -70t-70 -70t-70 70t70 70zM466 908q70 0 70 -70t-70 -70t-70 70t70 70zM1024 722q70 0 70 -70t-70 -70t-70 70t70 70zM838 722q70 0 70 -70t-70 -70t-70 70t70 70zM652 722q70 0 70 -70
t-70 -70t-70 70t70 70zM466 722q70 0 70 -70t-70 -70t-70 70t70 70z" />
    <glyph glyph-name="udieresis" unicode="&#xfc;" 
d="M466 722q70 0 70 -70t-70 -70t-70 70t70 70zM652 722q70 0 70 -70t-70 -70t-70 70t70 70zM838 722q70 0 70 -70t-70 -70t-70 70t70 70zM1024 722q70 0 70 -70t-70 -70t-70 70t70 70zM466 908q70 0 70 -70t-70 -70t-70 70t70 70zM1117 908q70 0 70 -70t-70 -70t-70 70
t70 70zM466 1094q70 0 70 -70t-70 -70t-70 70t70 70zM652 1094q70 0 70 -70t-70 -70t-70 70t70 70zM838 1094q70 0 70 -70t-70 -70t-70 70t70 70zM1024 1094q70 0 70 -70t-70 -70t-70 70t70 70zM466 1280q70 0 70 -70t-70 -70t-70 70t70 70zM466 1466q70 0 70 -70t-70 -70
t-70 70t70 70z" />
    <glyph glyph-name="udieresis" unicode="&#x44c;" 
d="M466 722q70 0 70 -70t-70 -70t-70 70t70 70zM652 722q70 0 70 -70t-70 -70t-70 70t70 70zM838 722q70 0 70 -70t-70 -70t-70 70t70 70zM1024 722q70 0 70 -70t-70 -70t-70 70t70 70zM466 908q70 0 70 -70t-70 -70t-70 70t70 70zM1117 908q70 0 70 -70t-70 -70t-70 70
t70 70zM466 1094q70 0 70 -70t-70 -70t-70 70t70 70zM652 1094q70 0 70 -70t-70 -70t-70 70t70 70zM838 1094q70 0 70 -70t-70 -70t-70 70t70 70zM1024 1094q70 0 70 -70t-70 -70t-70 70t70 70zM466 1280q70 0 70 -70t-70 -70t-70 70t70 70zM466 1466q70 0 70 -70t-70 -70
t-70 70t70 70z" />
    <glyph glyph-name="oacute" unicode="&#xf3;" 
d="M1024 722q70 0 70 -70t-70 -70t-70 70t70 70zM931 535q70 0 70 -69q0 -70 -70 -70t-70 70q0 69 70 69zM745 535q70 0 70 -69q0 -70 -70 -70t-70 70q0 69 70 69zM559 535q69 0 69 -69q0 -70 -69 -70q-70 0 -70 70q0 69 70 69zM373 535q69 0 69 -69q0 -70 -69 -70
q-70 0 -70 70q0 69 70 69zM466 908q69 0 69 -70t-69 -70q-70 0 -70 70t70 70zM652 908q70 0 70 -70t-70 -70t-70 70t70 70zM838 908q70 0 70 -70t-70 -70t-70 70t70 70zM1024 908q70 0 70 -70t-70 -70t-70 70t70 70zM279 1094q70 0 70 -70t-70 -70t-70 70t70 70zM1024 1094
q70 0 70 -70t-70 -70t-70 70t70 70zM279 1280q70 0 70 -70t-70 -70t-70 70t70 70zM1024 1280q70 0 70 -70t-70 -70t-70 70t70 70zM279 1466q70 0 70 -70t-70 -70t-70 70t70 70zM1024 1466q70 0 70 -70t-70 -70t-70 70t70 70z" />
    <glyph glyph-name="oacute" unicode="&#x443;" 
d="M1024 722q70 0 70 -70t-70 -70t-70 70t70 70zM931 535q70 0 70 -69q0 -70 -70 -70t-70 70q0 69 70 69zM745 535q70 0 70 -69q0 -70 -70 -70t-70 70q0 69 70 69zM559 535q69 0 69 -69q0 -70 -69 -70q-70 0 -70 70q0 69 70 69zM373 535q69 0 69 -69q0 -70 -69 -70
q-70 0 -70 70q0 69 70 69zM466 908q69 0 69 -70t-69 -70q-70 0 -70 70t70 70zM652 908q70 0 70 -70t-70 -70t-70 70t70 70zM838 908q70 0 70 -70t-70 -70t-70 70t70 70zM1024 908q70 0 70 -70t-70 -70t-70 70t70 70zM279 1094q70 0 70 -70t-70 -70t-70 70t70 70zM1024 1094
q70 0 70 -70t-70 -70t-70 70t70 70zM279 1280q70 0 70 -70t-70 -70t-70 70t70 70zM1024 1280q70 0 70 -70t-70 -70t-70 70t70 70zM279 1466q70 0 70 -70t-70 -70t-70 70t70 70zM1024 1466q70 0 70 -70t-70 -70t-70 70t70 70z" />
    <glyph glyph-name="y" unicode="y" 
d="M1024 722q70 0 70 -70t-70 -70t-70 70t70 70zM931 535q70 0 70 -69q0 -70 -70 -70t-70 70q0 69 70 69zM745 535q70 0 70 -69q0 -70 -70 -70t-70 70q0 69 70 69zM559 535q69 0 69 -69q0 -70 -69 -70q-70 0 -70 70q0 69 70 69zM373 535q69 0 69 -69q0 -70 -69 -70
q-70 0 -70 70q0 69 70 69zM466 908q69 0 69 -70t-69 -70q-70 0 -70 70t70 70zM652 908q70 0 70 -70t-70 -70t-70 70t70 70zM838 908q70 0 70 -70t-70 -70t-70 70t70 70zM1024 908q70 0 70 -70t-70 -70t-70 70t70 70zM279 1094q70 0 70 -70t-70 -70t-70 70t70 70zM1024 1094
q70 0 70 -70t-70 -70t-70 70t70 70zM279 1280q70 0 70 -70t-70 -70t-70 70t70 70zM1024 1280q70 0 70 -70t-70 -70t-70 70t70 70zM279 1466q70 0 70 -70t-70 -70t-70 70t70 70zM1024 1466q70 0 70 -70t-70 -70t-70 70t70 70z" />
    <glyph glyph-name="x" unicode="x" 
d="M279 722q70 0 70 -70t-70 -70t-70 70t70 70zM1024 722q70 0 70 -70t-70 -70t-70 70t70 70zM466 908q69 0 69 -70t-69 -70q-70 0 -70 70t70 70zM838 908q70 0 70 -70t-70 -70t-70 70t70 70zM652 1094q70 0 70 -70t-70 -70t-70 70t70 70zM466 1280q69 0 69 -70t-69 -70
q-70 0 -70 70t70 70zM838 1280q70 0 70 -70t-70 -70t-70 70t70 70zM279 1466q70 0 70 -70t-70 -70t-70 70t70 70zM1024 1466q70 0 70 -70t-70 -70t-70 70t70 70z" />
    <glyph glyph-name="otilde" unicode="&#xf5;" 
d="M279 722q70 0 70 -70t-70 -70t-70 70t70 70zM1024 722q70 0 70 -70t-70 -70t-70 70t70 70zM466 908q69 0 69 -70t-69 -70q-70 0 -70 70t70 70zM838 908q70 0 70 -70t-70 -70t-70 70t70 70zM652 1094q70 0 70 -70t-70 -70t-70 70t70 70zM466 1280q69 0 69 -70t-69 -70
q-70 0 -70 70t70 70zM838 1280q70 0 70 -70t-70 -70t-70 70t70 70zM279 1466q70 0 70 -70t-70 -70t-70 70t70 70zM1024 1466q70 0 70 -70t-70 -70t-70 70t70 70z" />
    <glyph glyph-name="otilde" unicode="&#x445;" 
d="M279 722q70 0 70 -70t-70 -70t-70 70t70 70zM1024 722q70 0 70 -70t-70 -70t-70 70t70 70zM466 908q69 0 69 -70t-69 -70q-70 0 -70 70t70 70zM838 908q70 0 70 -70t-70 -70t-70 70t70 70zM652 1094q70 0 70 -70t-70 -70t-70 70t70 70zM466 1280q69 0 69 -70t-69 -70
q-70 0 -70 70t70 70zM838 1280q70 0 70 -70t-70 -70t-70 70t70 70zM279 1466q70 0 70 -70t-70 -70t-70 70t70 70zM1024 1466q70 0 70 -70t-70 -70t-70 70t70 70z" />
    <glyph glyph-name="ydieresis" unicode="&#xff;" 
d="M373 722q69 0 69 -70t-69 -70q-70 0 -70 70t70 70zM1024 722q70 0 70 -70t-70 -70t-70 70t70 70zM466 908q69 0 69 -70t-69 -70q-70 0 -70 70t70 70zM1024 908q70 0 70 -70t-70 -70t-70 70t70 70zM466 1094q69 0 69 -70t-69 -70q-70 0 -70 70t70 70zM652 1094
q70 0 70 -70t-70 -70t-70 70t70 70zM838 1094q70 0 70 -70t-70 -70t-70 70t70 70zM1024 1094q70 0 70 -70t-70 -70t-70 70t70 70zM373 1280q69 0 69 -70t-69 -70q-70 0 -70 70t70 70zM1024 1280q70 0 70 -70t-70 -70t-70 70t70 70zM466 1466q69 0 69 -70t-69 -70
q-70 0 -70 70t70 70zM652 1466q70 0 70 -70t-70 -70t-70 70t70 70zM838 1466q70 0 70 -70t-70 -70t-70 70t70 70zM1024 1466q70 0 70 -70t-70 -70t-70 70t70 70z" />
    <glyph glyph-name="ydieresis" unicode="&#x44f;" 
d="M373 722q69 0 69 -70t-69 -70q-70 0 -70 70t70 70zM1024 722q70 0 70 -70t-70 -70t-70 70t70 70zM466 908q69 0 69 -70t-69 -70q-70 0 -70 70t70 70zM1024 908q70 0 70 -70t-70 -70t-70 70t70 70zM466 1094q69 0 69 -70t-69 -70q-70 0 -70 70t70 70zM652 1094
q70 0 70 -70t-70 -70t-70 70t70 70zM838 1094q70 0 70 -70t-70 -70t-70 70t70 70zM1024 1094q70 0 70 -70t-70 -70t-70 70t70 70zM373 1280q69 0 69 -70t-69 -70q-70 0 -70 70t70 70zM1024 1280q70 0 70 -70t-70 -70t-70 70t70 70zM466 1466q69 0 69 -70t-69 -70
q-70 0 -70 70t70 70zM652 1466q70 0 70 -70t-70 -70t-70 70t70 70zM838 1466q70 0 70 -70t-70 -70t-70 70t70 70zM1024 1466q70 0 70 -70t-70 -70t-70 70t70 70z" />
    <glyph glyph-name="yacute" unicode="&#xfd;" 
d="M373 722q69 0 69 -70t-69 -70q-70 0 -70 70t70 70zM559 722q69 0 69 -70t-69 -70q-70 0 -70 70t70 70zM745 722q70 0 70 -70t-70 -70t-70 70t70 70zM931 722q70 0 70 -70t-70 -70t-70 70t70 70zM1024 908q70 0 70 -70t-70 -70t-70 70t70 70zM466 1094q69 0 69 -70
t-69 -70q-70 0 -70 70t70 70zM652 1094q70 0 70 -70t-70 -70t-70 70t70 70zM838 1094q70 0 70 -70t-70 -70t-70 70t70 70zM1024 1094q70 0 70 -70t-70 -70t-70 70t70 70zM1024 1280q70 0 70 -70t-70 -70t-70 70t70 70zM373 1466q69 0 69 -70t-69 -70q-70 0 -70 70t70 70z
M559 1466q69 0 69 -70t-69 -70q-70 0 -70 70t70 70zM745 1466q70 0 70 -70t-70 -70t-70 70t70 70zM931 1466q70 0 70 -70t-70 -70t-70 70t70 70z" />
    <glyph glyph-name="yacute" unicode="&#x44d;" 
d="M373 722q69 0 69 -70t-69 -70q-70 0 -70 70t70 70zM559 722q69 0 69 -70t-69 -70q-70 0 -70 70t70 70zM745 722q70 0 70 -70t-70 -70t-70 70t70 70zM931 722q70 0 70 -70t-70 -70t-70 70t70 70zM1024 908q70 0 70 -70t-70 -70t-70 70t70 70zM466 1094q69 0 69 -70
t-69 -70q-70 0 -70 70t70 70zM652 1094q70 0 70 -70t-70 -70t-70 70t70 70zM838 1094q70 0 70 -70t-70 -70t-70 70t70 70zM1024 1094q70 0 70 -70t-70 -70t-70 70t70 70zM1024 1280q70 0 70 -70t-70 -70t-70 70t70 70zM373 1466q69 0 69 -70t-69 -70q-70 0 -70 70t70 70z
M559 1466q69 0 69 -70t-69 -70q-70 0 -70 70t70 70zM745 1466q70 0 70 -70t-70 -70t-70 70t70 70zM931 1466q70 0 70 -70t-70 -70t-70 70t70 70z" />
    <glyph glyph-name="thorn" unicode="&#xfe;" 
d="M279 722q70 0 70 -70t-70 -70t-70 70t70 70zM652 722q70 0 70 -70t-70 -70t-70 70t70 70zM838 722q70 0 70 -70t-70 -70t-70 70t70 70zM279 908q70 0 70 -70t-70 -70t-70 70t70 70zM559 908q69 0 69 -70t-69 -70q-70 0 -70 70t70 70zM1024 908q70 0 70 -70t-70 -70
t-70 70t70 70zM279 1094q70 0 70 -70t-70 -70t-70 70t70 70zM466 1094q69 0 69 -70t-69 -70q-70 0 -70 70t70 70zM1024 1094q70 0 70 -70t-70 -70t-70 70t70 70zM279 1280q70 0 70 -70t-70 -70t-70 70t70 70zM559 1280q69 0 69 -70t-69 -70q-70 0 -70 70t70 70zM1024 1280
q70 0 70 -70t-70 -70t-70 70t70 70zM279 1466q70 0 70 -70t-70 -70t-70 70t70 70zM652 1466q70 0 70 -70t-70 -70t-70 70t70 70zM838 1466q70 0 70 -70t-70 -70t-70 70t70 70z" />
    <glyph glyph-name="thorn" unicode="&#x44e;" 
d="M279 722q70 0 70 -70t-70 -70t-70 70t70 70zM652 722q70 0 70 -70t-70 -70t-70 70t70 70zM838 722q70 0 70 -70t-70 -70t-70 70t70 70zM279 908q70 0 70 -70t-70 -70t-70 70t70 70zM559 908q69 0 69 -70t-69 -70q-70 0 -70 70t70 70zM1024 908q70 0 70 -70t-70 -70
t-70 70t70 70zM279 1094q70 0 70 -70t-70 -70t-70 70t70 70zM466 1094q69 0 69 -70t-69 -70q-70 0 -70 70t70 70zM1024 1094q70 0 70 -70t-70 -70t-70 70t70 70zM279 1280q70 0 70 -70t-70 -70t-70 70t70 70zM559 1280q69 0 69 -70t-69 -70q-70 0 -70 70t70 70zM1024 1280
q70 0 70 -70t-70 -70t-70 70t70 70zM279 1466q70 0 70 -70t-70 -70t-70 70t70 70zM652 1466q70 0 70 -70t-70 -70t-70 70t70 70zM838 1466q70 0 70 -70t-70 -70t-70 70t70 70z" />
    <glyph glyph-name="u" unicode="u" 
d="M373 722q69 0 69 -70t-69 -70q-70 0 -70 70t70 70zM559 722q69 0 69 -70t-69 -70q-70 0 -70 70t70 70zM745 722q70 0 70 -70t-70 -70t-70 70t70 70zM1024 722q70 0 70 -70t-70 -70t-70 70t70 70zM279 908q70 0 70 -70t-70 -70t-70 70t70 70zM838 908q70 0 70 -70t-70 -70
t-70 70t70 70zM279 1094q70 0 70 -70t-70 -70t-70 70t70 70zM838 1094q70 0 70 -70t-70 -70t-70 70t70 70zM279 1280q70 0 70 -70t-70 -70t-70 70t70 70zM838 1280q70 0 70 -70t-70 -70t-70 70t70 70zM279 1466q70 0 70 -70t-70 -70t-70 70t70 70zM838 1466q70 0 70 -70
t-70 -70t-70 70t70 70z" />
    <glyph glyph-name="v" unicode="v" 
d="M1024 1466q70 0 70 -70t-70 -70t-70 70t70 70zM279 1466q70 0 70 -70t-70 -70t-70 70t70 70zM373 1280q69 0 69 -70t-69 -70q-70 0 -70 70t70 70zM931 1280q70 0 70 -70t-70 -70t-70 70t70 70zM466 1094q70 0 70 -70t-70 -70t-70 70t70 70zM838 1094q70 0 70 -70t-70 -70
t-70 70t70 70zM559 908q70 0 70 -70t-70 -70t-70 70t70 70zM745 908q70 0 70 -70t-70 -70t-70 70t70 70zM652 722q70 0 70 -70t-70 -70t-70 70t70 70z" />
    <glyph glyph-name="w" unicode="w" 
d="M466 722q69 0 69 -70t-69 -70q-70 0 -70 70t70 70zM838 722q70 0 70 -70t-70 -70t-70 70t70 70zM279 908q70 0 70 -70t-70 -70t-70 70t70 70zM652 908q70 0 70 -70t-70 -70t-70 70t70 70zM1024 908q70 0 70 -70t-70 -70t-70 70t70 70zM279 1094q70 0 70 -70t-70 -70
t-70 70t70 70zM652 1094q70 0 70 -70t-70 -70t-70 70t70 70zM1024 1094q70 0 70 -70t-70 -70t-70 70t70 70zM279 1280q70 0 70 -70t-70 -70t-70 70t70 70zM652 1280q70 0 70 -70t-70 -70t-70 70t70 70zM1024 1280q70 0 70 -70t-70 -70t-70 70t70 70zM279 1466q70 0 70 -70
t-70 -70t-70 70t70 70zM652 1466q70 0 70 -70t-70 -70t-70 70t70 70zM1024 1466q70 0 70 -70t-70 -70t-70 70t70 70z" />
    <glyph glyph-name="ocircumflex" unicode="&#xf4;" 
d="M373 1466q69 0 69 -70t-69 -70q-70 0 -70 70t70 70zM559 1466q70 0 70 -70t-70 -70t-70 70t70 70zM745 1466q70 0 70 -70t-70 -70t-70 70t70 70zM931 1466q70 0 70 -70t-70 -70t-70 70t70 70zM1024 1280q70 0 70 -70t-70 -70t-70 70t70 70zM652 1280q70 0 70 -70t-70 -70
t-70 70t70 70zM279 1280q70 0 70 -70t-70 -70t-70 70t70 70zM1024 1094q70 0 70 -70t-70 -70t-70 70t70 70zM652 1094q70 0 70 -70t-70 -70t-70 70t70 70zM652 721q70 0 70 -69q0 -70 -70 -70t-70 70q0 69 70 69zM279 1094q70 0 70 -70t-70 -70t-70 70t70 70zM652 535
q70 0 70 -69q0 -70 -70 -70t-70 70q0 69 70 69zM931 908q70 0 70 -70t-70 -70t-70 70t70 70zM745 908q70 0 70 -70t-70 -70t-70 70t70 70zM559 908q70 0 70 -70t-70 -70t-70 70t70 70zM373 908q69 0 69 -70t-69 -70q-70 0 -70 70t70 70z" />
    <glyph glyph-name="ocircumflex" unicode="&#x444;" 
d="M373 1466q69 0 69 -70t-69 -70q-70 0 -70 70t70 70zM559 1466q70 0 70 -70t-70 -70t-70 70t70 70zM745 1466q70 0 70 -70t-70 -70t-70 70t70 70zM931 1466q70 0 70 -70t-70 -70t-70 70t70 70zM1024 1280q70 0 70 -70t-70 -70t-70 70t70 70zM652 1280q70 0 70 -70t-70 -70
t-70 70t70 70zM279 1280q70 0 70 -70t-70 -70t-70 70t70 70zM1024 1094q70 0 70 -70t-70 -70t-70 70t70 70zM652 1094q70 0 70 -70t-70 -70t-70 70t70 70zM652 721q70 0 70 -69q0 -70 -70 -70t-70 70q0 69 70 69zM279 1094q70 0 70 -70t-70 -70t-70 70t70 70zM652 535
q70 0 70 -69q0 -70 -70 -70t-70 70q0 69 70 69zM931 908q70 0 70 -70t-70 -70t-70 70t70 70zM745 908q70 0 70 -70t-70 -70t-70 70t70 70zM559 908q70 0 70 -70t-70 -70t-70 70t70 70zM373 908q69 0 69 -70t-69 -70q-70 0 -70 70t70 70z" />
    <glyph glyph-name="divide" unicode="&#xf7;" 
d="M1024 722q70 0 70 -70t-70 -70t-70 70t70 70zM1024 908q70 0 70 -70t-70 -70t-70 70t70 70zM279 1094q70 0 70 -70t-70 -70t-70 70t70 70zM466 1094q69 0 69 -70t-69 -70q-70 0 -70 70t70 70zM652 1094q70 0 70 -70t-70 -70t-70 70t70 70zM838 1094q70 0 70 -70t-70 -70
t-70 70t70 70zM1024 1094q70 0 70 -70t-70 -70t-70 70t70 70zM279 1280q70 0 70 -70t-70 -70t-70 70t70 70zM1024 1280q70 0 70 -70t-70 -70t-70 70t70 70zM279 1466q70 0 70 -70t-70 -70t-70 70t70 70zM1024 1466q70 0 70 -70t-70 -70t-70 70t70 70z" />
    <glyph glyph-name="divide" unicode="&#x447;" 
d="M1024 722q70 0 70 -70t-70 -70t-70 70t70 70zM1024 908q70 0 70 -70t-70 -70t-70 70t70 70zM279 1094q70 0 70 -70t-70 -70t-70 70t70 70zM466 1094q69 0 69 -70t-69 -70q-70 0 -70 70t70 70zM652 1094q70 0 70 -70t-70 -70t-70 70t70 70zM838 1094q70 0 70 -70t-70 -70
t-70 70t70 70zM1024 1094q70 0 70 -70t-70 -70t-70 70t70 70zM279 1280q70 0 70 -70t-70 -70t-70 70t70 70zM1024 1280q70 0 70 -70t-70 -70t-70 70t70 70zM279 1466q70 0 70 -70t-70 -70t-70 70t70 70zM1024 1466q70 0 70 -70t-70 -70t-70 70t70 70z" />
    <glyph glyph-name="odieresis" unicode="&#xf6;" 
d="M1024 1466q70 0 70 -70t-70 -70t-70 70t70 70zM279 1466q70 0 70 -70t-70 -70t-70 70t70 70zM1024 1280q70 0 70 -70t-70 -70t-70 70t70 70zM279 1280q70 0 70 -70t-70 -70t-70 70t70 70zM1024 1094q70 0 70 -70t-70 -70t-70 70t70 70zM838 721q70 0 70 -69
q0 -70 -70 -70t-70 70q0 69 70 69zM652 721q70 0 70 -69q0 -70 -70 -70t-70 70q0 69 70 69zM466 721q69 0 69 -69q0 -70 -69 -70q-70 0 -70 70q0 69 70 69zM279 1094q70 0 70 -70t-70 -70t-70 70t70 70zM279 908q70 0 70 -70t-70 -70t-70 70t70 70zM279 721q70 0 70 -69
q0 -70 -70 -70t-70 70q0 69 70 69zM1024 908q70 0 70 -70t-70 -70t-70 70t70 70zM1024 722q70 0 70 -70t-70 -70t-70 70t70 70zM1210 722q70 0 70 -70t-70 -70t-70 70t70 70zM1210 535q70 0 70 -69q0 -70 -70 -70t-70 70q0 69 70 69z" />
    <glyph glyph-name="odieresis" unicode="&#x446;" 
d="M1024 1466q70 0 70 -70t-70 -70t-70 70t70 70zM279 1466q70 0 70 -70t-70 -70t-70 70t70 70zM1024 1280q70 0 70 -70t-70 -70t-70 70t70 70zM279 1280q70 0 70 -70t-70 -70t-70 70t70 70zM1024 1094q70 0 70 -70t-70 -70t-70 70t70 70zM838 721q70 0 70 -69
q0 -70 -70 -70t-70 70q0 69 70 69zM652 721q70 0 70 -69q0 -70 -70 -70t-70 70q0 69 70 69zM466 721q69 0 69 -69q0 -70 -69 -70q-70 0 -70 70q0 69 70 69zM279 1094q70 0 70 -70t-70 -70t-70 70t70 70zM279 908q70 0 70 -70t-70 -70t-70 70t70 70zM279 721q70 0 70 -69
q0 -70 -70 -70t-70 70q0 69 70 69zM1024 908q70 0 70 -70t-70 -70t-70 70t70 70zM1024 722q70 0 70 -70t-70 -70t-70 70t70 70zM1210 722q70 0 70 -70t-70 -70t-70 70t70 70zM1210 535q70 0 70 -69q0 -70 -70 -70t-70 70q0 69 70 69z" />
    <glyph glyph-name="quotedblleft" unicode="&#x201c;" 
d="M745 1839q70 0 70 -70t-70 -70t-70 70t70 70zM466 1839q69 0 69 -70t-69 -70q-70 0 -70 70t70 70zM745 1652q70 0 70 -70q0 -69 -70 -69t-70 69q0 70 70 70zM466 1652q69 0 69 -70q0 -69 -69 -69q-70 0 -70 69q0 70 70 70zM838 1466q70 0 70 -70t-70 -70t-70 70t70 70z
M559 1466q70 0 70 -70t-70 -70t-70 70t70 70z" />
    <glyph glyph-name="quotedblright" unicode="&#x201d;" 
d="M373 1466q69 0 69 -70t-69 -70q-70 0 -70 70t70 70zM652 1466q70 0 70 -70t-70 -70t-70 70t70 70zM466 1652q69 0 69 -70q0 -69 -69 -69q-70 0 -70 69q0 70 70 70zM745 1652q70 0 70 -70q0 -69 -70 -69t-70 69q0 70 70 70zM466 1839q69 0 69 -70t-69 -70q-70 0 -70 70
t70 70zM745 1839q70 0 70 -70t-70 -70t-70 70t70 70z" />
    <glyph glyph-name="ograve" unicode="&#xf2;" 
d="M652 722q70 0 70 -70t-70 -70t-70 70t70 70zM652 908q70 0 70 -70t-70 -70t-70 70t70 70zM652 1094q70 0 70 -70t-70 -70t-70 70t70 70zM652 1280q70 0 70 -70t-70 -70t-70 70t70 70zM279 1466q70 0 70 -70t-70 -70t-70 70t70 70zM466 1466q69 0 69 -70t-69 -70
q-70 0 -70 70t70 70zM652 1466q70 0 70 -70t-70 -70t-70 70t70 70zM838 1466q70 0 70 -70t-70 -70t-70 70t70 70zM1024 1466q70 0 70 -70t-70 -70t-70 70t70 70z" />
    <glyph glyph-name="ograve" unicode="&#x442;" 
d="M652 722q70 0 70 -70t-70 -70t-70 70t70 70zM652 908q70 0 70 -70t-70 -70t-70 70t70 70zM652 1094q70 0 70 -70t-70 -70t-70 70t70 70zM652 1280q70 0 70 -70t-70 -70t-70 70t70 70zM279 1466q70 0 70 -70t-70 -70t-70 70t70 70zM466 1466q69 0 69 -70t-69 -70
q-70 0 -70 70t70 70zM652 1466q70 0 70 -70t-70 -70t-70 70t70 70zM838 1466q70 0 70 -70t-70 -70t-70 70t70 70zM1024 1466q70 0 70 -70t-70 -70t-70 70t70 70z" />
    <glyph glyph-name="i" unicode="i" 
d="M745 722q70 0 70 -70t-70 -70t-70 70t70 70zM931 722q70 0 70 -70t-70 -70t-70 70t70 70zM652 908q70 0 70 -70t-70 -70t-70 70t70 70zM652 1094q70 0 70 -70t-70 -70t-70 70t70 70zM652 1280q70 0 70 -70t-70 -70t-70 70t70 70zM652 1466q70 0 70 -70t-70 -70t-70 70
t70 70zM652 1839q70 0 70 -70t-70 -70t-70 70t70 70z" />
    <glyph glyph-name="tilde" unicode="&#x2dc;" 
d="M373 1466q69 0 69 -70t-69 -70q-70 0 -70 70t70 70zM1117 1466q70 0 70 -70t-70 -70t-70 70t70 70zM559 1652q69 0 69 -70q0 -69 -69 -69q-70 0 -70 69q0 70 70 70zM931 1652q70 0 70 -70q0 -69 -70 -69t-70 69q0 70 70 70zM745 1839q70 0 70 -70t-70 -70t-70 70t70 70z
" />
    <glyph glyph-name="circumflex" unicode="&#x2c6;" 
d="M373 1466q69 0 69 -70t-69 -70q-70 0 -70 70t70 70zM1117 1466q70 0 70 -70t-70 -70t-70 70t70 70zM559 1652q69 0 69 -70q0 -69 -69 -69q-70 0 -70 69q0 70 70 70zM931 1652q70 0 70 -70q0 -69 -70 -69t-70 69q0 70 70 70zM745 1839q70 0 70 -70t-70 -70t-70 70t70 70z
" />
    <glyph glyph-name="_extra2" horiz-adv-x="1460" 
d="M745 1839q70 0 70 -70t-70 -70t-70 70t70 70zM745 1652q70 0 70 -70q0 -69 -70 -69t-70 69q0 70 70 70zM745 1466q70 0 70 -70t-70 -70t-70 70t70 70zM745 1280q70 0 70 -70t-70 -70t-70 70t70 70zM745 1094q70 0 70 -70t-70 -70t-70 70t70 70zM745 908q70 0 70 -70
t-70 -70t-70 70t70 70zM745 722q70 0 70 -70t-70 -70t-70 70t70 70z" />
    <glyph glyph-name="_extra3" horiz-adv-x="1460" 
d="M745 1839q70 0 70 -70t-70 -70t-70 70t70 70zM745 1652q70 0 70 -70q0 -69 -70 -69t-70 69q0 70 70 70zM745 1466q70 0 70 -70t-70 -70t-70 70t70 70zM745 1280q70 0 70 -70t-70 -70t-70 70t70 70zM745 1094q70 0 70 -70t-70 -70t-70 70t70 70zM745 908q70 0 70 -70
t-70 -70t-70 70t70 70zM745 722q70 0 70 -70t-70 -70t-70 70t70 70z" />
    <glyph glyph-name="_extra4" horiz-adv-x="1460" 
d="M745 1839q70 0 70 -70t-70 -70t-70 70t70 70zM745 1652q70 0 70 -70q0 -69 -70 -69t-70 69q0 70 70 70zM745 1466q70 0 70 -70t-70 -70t-70 70t70 70zM745 1280q70 0 70 -70t-70 -70t-70 70t70 70zM745 1094q70 0 70 -70t-70 -70t-70 70t70 70zM745 908q70 0 70 -70
t-70 -70t-70 70t70 70zM745 722q70 0 70 -70t-70 -70t-70 70t70 70z" />
    <glyph glyph-name="guillemotleft" unicode="&#xab;" 
d="M745 1839q70 0 70 -70t-70 -70t-70 70t70 70zM466 1839q69 0 69 -70t-69 -70q-70 0 -70 70t70 70zM745 1652q70 0 70 -70q0 -69 -70 -69t-70 69q0 70 70 70zM466 1652q69 0 69 -70q0 -69 -69 -69q-70 0 -70 69q0 70 70 70zM838 1466q70 0 70 -70t-70 -70t-70 70t70 70z
M559 1466q70 0 70 -70t-70 -70t-70 70t70 70z" />
    <glyph glyph-name="guillemotright" unicode="&#xbb;" 
d="M373 1466q69 0 69 -70t-69 -70q-70 0 -70 70t70 70zM652 1466q70 0 70 -70t-70 -70t-70 70t70 70zM466 1652q69 0 69 -70q0 -69 -69 -69q-70 0 -70 69q0 70 70 70zM745 1652q70 0 70 -70q0 -69 -70 -69t-70 69q0 70 70 70zM466 1839q69 0 69 -70t-69 -70q-70 0 -70 70
t70 70zM745 1839q70 0 70 -70t-70 -70t-70 70t70 70z" />
    <glyph glyph-name="acute" unicode="&#xb4;" 
d="M559 1280q69 0 69 -70t-69 -70q-70 0 -70 70t70 70zM652 1466q70 0 70 -70t-70 -70t-70 70t70 70zM559 1652q69 0 69 -70q0 -69 -69 -69q-70 0 -70 69q0 70 70 70zM745 1652q70 0 70 -70q0 -69 -70 -69t-70 69q0 70 70 70zM559 1839q69 0 69 -70t-69 -70q-70 0 -70 70
t70 70zM745 1839q70 0 70 -70t-70 -70t-70 70t70 70z" />
    <glyph glyph-name="acute" unicode="&#x491;" 
d="M559 1280q69 0 69 -70t-69 -70q-70 0 -70 70t70 70zM652 1466q70 0 70 -70t-70 -70t-70 70t70 70zM559 1652q69 0 69 -70q0 -69 -69 -69q-70 0 -70 69q0 70 70 70zM745 1652q70 0 70 -70q0 -69 -70 -69t-70 69q0 70 70 70zM559 1839q69 0 69 -70t-69 -70q-70 0 -70 70
t70 70zM745 1839q70 0 70 -70t-70 -70t-70 70t70 70z" />
    <glyph glyph-name="quoteright" unicode="&#x2019;" 
d="M559 1280q69 0 69 -70t-69 -70q-70 0 -70 70t70 70zM652 1466q70 0 70 -70t-70 -70t-70 70t70 70zM559 1652q69 0 69 -70q0 -69 -69 -69q-70 0 -70 69q0 70 70 70zM745 1652q70 0 70 -70q0 -69 -70 -69t-70 69q0 70 70 70zM559 1839q69 0 69 -70t-69 -70q-70 0 -70 70
t70 70zM745 1839q70 0 70 -70t-70 -70t-70 70t70 70z" />
    <glyph glyph-name="quoteleft" unicode="&#x2018;" 
d="M559 1280q69 0 69 -70t-69 -70q-70 0 -70 70t70 70zM652 1466q70 0 70 -70t-70 -70t-70 70t70 70zM559 1652q69 0 69 -70q0 -69 -69 -69q-70 0 -70 69q0 70 70 70zM745 1652q70 0 70 -70q0 -69 -70 -69t-70 69q0 70 70 70zM559 1839q69 0 69 -70t-69 -70q-70 0 -70 70
t70 70zM745 1839q70 0 70 -70t-70 -70t-70 70t70 70z" />
    <glyph glyph-name="bullet" unicode="&#x2022;" 
d="M838 908q70 0 70 -70t-70 -70t-70 70t70 70zM652 908q70 0 70 -70t-70 -70t-70 70t70 70zM838 722q70 0 70 -70t-70 -70t-70 70t70 70zM652 722q70 0 70 -70t-70 -70t-70 70t70 70z" />
    <glyph glyph-name="emdash" unicode="&#x2013;" 
d="M1024 1280q70 0 70 -70t-70 -70t-70 70t70 70zM838 1280q70 0 70 -70t-70 -70t-70 70t70 70zM652 1280q70 0 70 -70t-70 -70t-70 70t70 70zM466 1280q69 0 69 -70t-69 -70q-70 0 -70 70t70 70zM279 1280q70 0 70 -70t-70 -70t-70 70t70 70z" />
    <glyph glyph-name="endash" unicode="&#x2014;" 
d="M1024 1280q70 0 70 -70t-70 -70t-70 70t70 70zM838 1280q70 0 70 -70t-70 -70t-70 70t70 70zM652 1280q70 0 70 -70t-70 -70t-70 70t70 70zM466 1280q69 0 69 -70t-69 -70q-70 0 -70 70t70 70zM279 1280q70 0 70 -70t-70 -70t-70 70t70 70z" />
    <glyph glyph-name="guilsinglright" unicode="&#x203a;" 
d="M466 722q69 0 69 -70t-69 -70q-70 0 -70 70t70 70zM559 908q69 0 69 -70t-69 -70q-70 0 -70 70t70 70zM652 1094q70 0 70 -70t-70 -70t-70 70t70 70zM745 1280q70 0 70 -70t-70 -70t-70 70t70 70zM652 1466q70 0 70 -70t-70 -70t-70 70t70 70zM559 1652q69 0 69 -70
q0 -69 -69 -69q-70 0 -70 69q0 70 70 70zM466 1839q69 0 69 -70t-69 -70q-70 0 -70 70t70 70z" />
    <glyph glyph-name="guilsinglleft" unicode="&#x2039;" 
d="M745 722q70 0 70 -70t-70 -70t-70 70t70 70zM652 908q70 0 70 -70t-70 -70t-70 70t70 70zM559 1094q69 0 69 -70t-69 -70q-70 0 -70 70t70 70zM466 1280q69 0 69 -70t-69 -70q-70 0 -70 70t70 70zM559 1466q69 0 69 -70t-69 -70q-70 0 -70 70t70 70zM652 1652
q70 0 70 -70q0 -69 -70 -69t-70 69q0 70 70 70zM745 1839q70 0 70 -70t-70 -70t-70 70t70 70z" />
    <glyph glyph-name="_extra5" horiz-adv-x="1460" 
d="M745 1839q70 0 70 -70t-70 -70t-70 70t70 70zM745 1652q70 0 70 -70q0 -69 -70 -69t-70 69q0 70 70 70zM745 1466q70 0 70 -70t-70 -70t-70 70t70 70zM745 1280q70 0 70 -70t-70 -70t-70 70t70 70zM745 1094q70 0 70 -70t-70 -70t-70 70t70 70zM745 908q70 0 70 -70
t-70 -70t-70 70t70 70zM745 722q70 0 70 -70t-70 -70t-70 70t70 70z" />
    <glyph glyph-name="_extra6" horiz-adv-x="1460" 
d="M745 1839q70 0 70 -70t-70 -70t-70 70t70 70zM745 1652q70 0 70 -70q0 -69 -70 -69t-70 69q0 70 70 70zM745 1466q70 0 70 -70t-70 -70t-70 70t70 70zM745 1280q70 0 70 -70t-70 -70t-70 70t70 70zM745 1094q70 0 70 -70t-70 -70t-70 70t70 70zM745 908q70 0 70 -70
t-70 -70t-70 70t70 70zM745 722q70 0 70 -70t-70 -70t-70 70t70 70z" />
    <glyph glyph-name="_extra7" horiz-adv-x="1460" 
d="M745 1839q70 0 70 -70t-70 -70t-70 70t70 70zM745 1652q70 0 70 -70q0 -69 -70 -69t-70 69q0 70 70 70zM745 1466q70 0 70 -70t-70 -70t-70 70t70 70zM745 1280q70 0 70 -70t-70 -70t-70 70t70 70zM745 1094q70 0 70 -70t-70 -70t-70 70t70 70zM745 908q70 0 70 -70
t-70 -70t-70 70t70 70zM745 722q70 0 70 -70t-70 -70t-70 70t70 70z" />
    <glyph glyph-name="_extra8" horiz-adv-x="1460" 
d="M745 1839q70 0 70 -70t-70 -70t-70 70t70 70zM745 1652q70 0 70 -70q0 -69 -70 -69t-70 69q0 70 70 70zM745 1466q70 0 70 -70t-70 -70t-70 70t70 70zM745 1280q70 0 70 -70t-70 -70t-70 70t70 70zM745 1094q70 0 70 -70t-70 -70t-70 70t70 70zM745 908q70 0 70 -70
t-70 -70t-70 70t70 70zM745 722q70 0 70 -70t-70 -70t-70 70t70 70z" />
    <glyph glyph-name="_extra9" horiz-adv-x="1460" 
d="M745 1839q70 0 70 -70t-70 -70t-70 70t70 70zM745 1652q70 0 70 -70q0 -69 -70 -69t-70 69q0 70 70 70zM745 1466q70 0 70 -70t-70 -70t-70 70t70 70zM745 1280q70 0 70 -70t-70 -70t-70 70t70 70zM745 1094q70 0 70 -70t-70 -70t-70 70t70 70zM745 908q70 0 70 -70
t-70 -70t-70 70t70 70zM745 722q70 0 70 -70t-70 -70t-70 70t70 70z" />
    <glyph glyph-name="currency" unicode="&#xa4;" 
d="M745 722q70 0 70 -70t-70 -70t-70 70t70 70zM279 908q70 0 70 -70t-70 -70t-70 70t70 70zM745 908q70 0 70 -70t-70 -70t-70 70t70 70zM1210 908q70 0 70 -70t-70 -70t-70 70t70 70zM466 1094q69 0 69 -70t-69 -70q-70 0 -70 70t70 70zM745 1094q70 0 70 -70t-70 -70
t-70 70t70 70zM1024 1094q70 0 70 -70t-70 -70t-70 70t70 70zM652 1280q70 0 70 -70t-70 -70t-70 70t70 70zM838 1280q70 0 70 -70t-70 -70t-70 70t70 70zM466 1466q69 0 69 -70t-69 -70q-70 0 -70 70t70 70zM745 1466q70 0 70 -70t-70 -70t-70 70t70 70zM1024 1466
q70 0 70 -70t-70 -70t-70 70t70 70zM279 1652q70 0 70 -70q0 -69 -70 -69t-70 69q0 70 70 70zM745 1652q70 0 70 -70q0 -69 -70 -69t-70 69q0 70 70 70zM1210 1652q70 0 70 -70q0 -69 -70 -69t-70 69q0 70 70 70zM745 1839q70 0 70 -70t-70 -70t-70 70t70 70z" />
    <glyph glyph-name="quotesinglbase" unicode="&#x201a;" 
d="M652 722q70 0 70 -70t-70 -70t-70 70t70 70zM838 722q70 0 70 -70t-70 -70t-70 70t70 70zM838 535q70 0 70 -69q0 -70 -70 -70t-70 70q0 69 70 69zM745 349q70 0 70 -70t-70 -70t-70 70t70 70zM652 908q70 0 70 -70t-70 -70t-70 70t70 70zM838 908q70 0 70 -70t-70 -70
t-70 70t70 70z" />
    <glyph glyph-name="dotoperator" unicode="&#xb7;" horiz-adv-x="1460" 
d="M838 908q70 0 70 -70t-70 -70t-70 70t70 70zM652 908q70 0 70 -70t-70 -70t-70 70t70 70zM838 722q70 0 70 -70t-70 -70t-70 70t70 70zM652 722q70 0 70 -70t-70 -70t-70 70t70 70z" />
    <glyph glyph-name="numbersign" unicode="#" 
d="M466 722q69 0 69 -70t-69 -70q-70 0 -70 70t70 70zM838 722q70 0 70 -70t-70 -70t-70 70t70 70zM279 908q70 0 70 -70t-70 -70t-70 70t70 70zM466 908q69 0 69 -70t-69 -70q-70 0 -70 70t70 70zM652 908q70 0 70 -70t-70 -70t-70 70t70 70zM838 908q70 0 70 -70t-70 -70
t-70 70t70 70zM1024 908q70 0 70 -70t-70 -70t-70 70t70 70zM466 1094q69 0 69 -70t-69 -70q-70 0 -70 70t70 70zM838 1094q70 0 70 -70t-70 -70t-70 70t70 70zM279 1280q70 0 70 -70t-70 -70t-70 70t70 70zM466 1280q69 0 69 -70t-69 -70q-70 0 -70 70t70 70zM652 1280
q70 0 70 -70t-70 -70t-70 70t70 70zM838 1280q70 0 70 -70t-70 -70t-70 70t70 70zM1024 1280q70 0 70 -70t-70 -70t-70 70t70 70zM466 1466q69 0 69 -70t-69 -70q-70 0 -70 70t70 70zM838 1466q70 0 70 -70t-70 -70t-70 70t70 70z" />
    <glyph glyph-name="dollar" unicode="$" 
d="M373 722q69 0 69 -70t-69 -70q-70 0 -70 70t70 70zM559 722q69 0 69 -70t-69 -70q-70 0 -70 70t70 70zM745 722q70 0 70 -70t-70 -70t-70 70t70 70zM931 722q70 0 70 -70t-70 -70t-70 70t70 70zM652 908q70 0 70 -70t-70 -70t-70 70t70 70zM652 535q70 0 70 -69
q0 -70 -70 -70t-70 70q0 69 70 69zM1024 908q70 0 70 -70t-70 -70t-70 70t70 70zM373 1094q69 0 69 -70t-69 -70q-70 0 -70 70t70 70zM559 1094q69 0 69 -70t-69 -70q-70 0 -70 70t70 70zM745 1094q70 0 70 -70t-70 -70t-70 70t70 70zM931 1094q70 0 70 -70t-70 -70t-70 70
t70 70zM279 1280q70 0 70 -70t-70 -70t-70 70t70 70zM652 1280q70 0 70 -70t-70 -70t-70 70t70 70zM373 1466q69 0 69 -70t-69 -70q-70 0 -70 70t70 70zM559 1466q69 0 69 -70t-69 -70q-70 0 -70 70t70 70zM745 1466q70 0 70 -70t-70 -70t-70 70t70 70zM931 1466
q70 0 70 -70t-70 -70t-70 70t70 70zM652 1652q70 0 70 -70q0 -69 -70 -69t-70 69q0 70 70 70z" />
    <glyph glyph-name="periodcentered" unicode="&#x2219;" 
d="M838 908q70 0 70 -70t-70 -70t-70 70t70 70zM652 908q70 0 70 -70t-70 -70t-70 70t70 70zM838 722q70 0 70 -70t-70 -70t-70 70t70 70zM652 722q70 0 70 -70t-70 -70t-70 70t70 70z" />
    <glyph glyph-name="DEL" horiz-adv-x="0" 
 />
    <glyph glyph-name="u0080" 
d="M745 1839q70 0 70 -70t-70 -70t-70 70t70 70zM745 1652q70 0 70 -70q0 -69 -70 -69t-70 69q0 70 70 70zM745 1466q70 0 70 -70t-70 -70t-70 70t70 70zM745 1280q70 0 70 -70t-70 -70t-70 70t70 70zM745 1094q70 0 70 -70t-70 -70t-70 70t70 70zM745 908q70 0 70 -70
t-70 -70t-70 70t70 70zM745 722q70 0 70 -70t-70 -70t-70 70t70 70z" />
    <glyph glyph-name="u0080" unicode="&#x402;" 
d="M745 1839q70 0 70 -70t-70 -70t-70 70t70 70zM745 1652q70 0 70 -70q0 -69 -70 -69t-70 69q0 70 70 70zM745 1466q70 0 70 -70t-70 -70t-70 70t70 70zM745 1280q70 0 70 -70t-70 -70t-70 70t70 70zM745 1094q70 0 70 -70t-70 -70t-70 70t70 70zM745 908q70 0 70 -70
t-70 -70t-70 70t70 70zM745 722q70 0 70 -70t-70 -70t-70 70t70 70z" />
    <glyph glyph-name="u0081" 
d="M745 1839q70 0 70 -70t-70 -70t-70 70t70 70zM745 1652q70 0 70 -70q0 -69 -70 -69t-70 69q0 70 70 70zM745 1466q70 0 70 -70t-70 -70t-70 70t70 70zM745 1280q70 0 70 -70t-70 -70t-70 70t70 70zM745 1094q70 0 70 -70t-70 -70t-70 70t70 70zM745 908q70 0 70 -70
t-70 -70t-70 70t70 70zM745 722q70 0 70 -70t-70 -70t-70 70t70 70z" />
    <glyph glyph-name="u0081" unicode="&#x403;" 
d="M745 1839q70 0 70 -70t-70 -70t-70 70t70 70zM745 1652q70 0 70 -70q0 -69 -70 -69t-70 69q0 70 70 70zM745 1466q70 0 70 -70t-70 -70t-70 70t70 70zM745 1280q70 0 70 -70t-70 -70t-70 70t70 70zM745 1094q70 0 70 -70t-70 -70t-70 70t70 70zM745 908q70 0 70 -70
t-70 -70t-70 70t70 70zM745 722q70 0 70 -70t-70 -70t-70 70t70 70z" />
    <glyph glyph-name="dagger" unicode="&#x2020;" 
d="M745 1839q70 0 70 -70t-70 -70t-70 70t70 70zM745 1652q70 0 70 -70q0 -69 -70 -69t-70 69q0 70 70 70zM745 1466q70 0 70 -70t-70 -70t-70 70t70 70zM745 1280q70 0 70 -70t-70 -70t-70 70t70 70zM745 1094q70 0 70 -70t-70 -70t-70 70t70 70zM745 908q70 0 70 -70
t-70 -70t-70 70t70 70zM745 722q70 0 70 -70t-70 -70t-70 70t70 70z" />
    <glyph glyph-name="daggerdbl" unicode="&#x2021;" 
d="M745 1839q70 0 70 -70t-70 -70t-70 70t70 70zM745 1652q70 0 70 -70q0 -69 -70 -69t-70 69q0 70 70 70zM745 1466q70 0 70 -70t-70 -70t-70 70t70 70zM745 1280q70 0 70 -70t-70 -70t-70 70t70 70zM745 1094q70 0 70 -70t-70 -70t-70 70t70 70zM745 908q70 0 70 -70
t-70 -70t-70 70t70 70zM745 722q70 0 70 -70t-70 -70t-70 70t70 70z" />
    <glyph glyph-name="u008D" 
d="M745 1839q70 0 70 -70t-70 -70t-70 70t70 70zM745 1652q70 0 70 -70q0 -69 -70 -69t-70 69q0 70 70 70zM745 1466q70 0 70 -70t-70 -70t-70 70t70 70zM745 1280q70 0 70 -70t-70 -70t-70 70t70 70zM745 1094q70 0 70 -70t-70 -70t-70 70t70 70zM745 908q70 0 70 -70
t-70 -70t-70 70t70 70zM745 722q70 0 70 -70t-70 -70t-70 70t70 70z" />
    <glyph glyph-name="u008D" unicode="&#x40c;" 
d="M745 1839q70 0 70 -70t-70 -70t-70 70t70 70zM745 1652q70 0 70 -70q0 -69 -70 -69t-70 69q0 70 70 70zM745 1466q70 0 70 -70t-70 -70t-70 70t70 70zM745 1280q70 0 70 -70t-70 -70t-70 70t70 70zM745 1094q70 0 70 -70t-70 -70t-70 70t70 70zM745 908q70 0 70 -70
t-70 -70t-70 70t70 70zM745 722q70 0 70 -70t-70 -70t-70 70t70 70z" />
    <glyph glyph-name="u008E" 
d="M745 1839q70 0 70 -70t-70 -70t-70 70t70 70zM745 1652q70 0 70 -70q0 -69 -70 -69t-70 69q0 70 70 70zM745 1466q70 0 70 -70t-70 -70t-70 70t70 70zM745 1280q70 0 70 -70t-70 -70t-70 70t70 70zM745 1094q70 0 70 -70t-70 -70t-70 70t70 70zM745 908q70 0 70 -70
t-70 -70t-70 70t70 70zM745 722q70 0 70 -70t-70 -70t-70 70t70 70z" />
    <glyph glyph-name="u008E" unicode="&#x40b;" 
d="M745 1839q70 0 70 -70t-70 -70t-70 70t70 70zM745 1652q70 0 70 -70q0 -69 -70 -69t-70 69q0 70 70 70zM745 1466q70 0 70 -70t-70 -70t-70 70t70 70zM745 1280q70 0 70 -70t-70 -70t-70 70t70 70zM745 1094q70 0 70 -70t-70 -70t-70 70t70 70zM745 908q70 0 70 -70
t-70 -70t-70 70t70 70zM745 722q70 0 70 -70t-70 -70t-70 70t70 70z" />
    <glyph glyph-name="u008F" 
d="M745 1839q70 0 70 -70t-70 -70t-70 70t70 70zM745 1652q70 0 70 -70q0 -69 -70 -69t-70 69q0 70 70 70zM745 1466q70 0 70 -70t-70 -70t-70 70t70 70zM745 1280q70 0 70 -70t-70 -70t-70 70t70 70zM745 1094q70 0 70 -70t-70 -70t-70 70t70 70zM745 908q70 0 70 -70
t-70 -70t-70 70t70 70zM745 722q70 0 70 -70t-70 -70t-70 70t70 70z" />
    <glyph glyph-name="u008F" unicode="&#x40f;" 
d="M745 1839q70 0 70 -70t-70 -70t-70 70t70 70zM745 1652q70 0 70 -70q0 -69 -70 -69t-70 69q0 70 70 70zM745 1466q70 0 70 -70t-70 -70t-70 70t70 70zM745 1280q70 0 70 -70t-70 -70t-70 70t70 70zM745 1094q70 0 70 -70t-70 -70t-70 70t70 70zM745 908q70 0 70 -70
t-70 -70t-70 70t70 70zM745 722q70 0 70 -70t-70 -70t-70 70t70 70z" />
    <glyph glyph-name="u0090" 
d="M745 1839q70 0 70 -70t-70 -70t-70 70t70 70zM745 1652q70 0 70 -70q0 -69 -70 -69t-70 69q0 70 70 70zM745 1466q70 0 70 -70t-70 -70t-70 70t70 70zM745 1280q70 0 70 -70t-70 -70t-70 70t70 70zM745 1094q70 0 70 -70t-70 -70t-70 70t70 70zM745 908q70 0 70 -70
t-70 -70t-70 70t70 70zM745 722q70 0 70 -70t-70 -70t-70 70t70 70z" />
    <glyph glyph-name="u0090" unicode="&#x452;" 
d="M745 1839q70 0 70 -70t-70 -70t-70 70t70 70zM745 1652q70 0 70 -70q0 -69 -70 -69t-70 69q0 70 70 70zM745 1466q70 0 70 -70t-70 -70t-70 70t70 70zM745 1280q70 0 70 -70t-70 -70t-70 70t70 70zM745 1094q70 0 70 -70t-70 -70t-70 70t70 70zM745 908q70 0 70 -70
t-70 -70t-70 70t70 70zM745 722q70 0 70 -70t-70 -70t-70 70t70 70z" />
    <glyph glyph-name="u009D" 
d="M745 1839q70 0 70 -70t-70 -70t-70 70t70 70zM745 1652q70 0 70 -70q0 -69 -70 -69t-70 69q0 70 70 70zM745 1466q70 0 70 -70t-70 -70t-70 70t70 70zM745 1280q70 0 70 -70t-70 -70t-70 70t70 70zM745 1094q70 0 70 -70t-70 -70t-70 70t70 70zM745 908q70 0 70 -70
t-70 -70t-70 70t70 70zM745 722q70 0 70 -70t-70 -70t-70 70t70 70z" />
    <glyph glyph-name="u009D" unicode="&#x45c;" 
d="M745 1839q70 0 70 -70t-70 -70t-70 70t70 70zM745 1652q70 0 70 -70q0 -69 -70 -69t-70 69q0 70 70 70zM745 1466q70 0 70 -70t-70 -70t-70 70t70 70zM745 1280q70 0 70 -70t-70 -70t-70 70t70 70zM745 1094q70 0 70 -70t-70 -70t-70 70t70 70zM745 908q70 0 70 -70
t-70 -70t-70 70t70 70zM745 722q70 0 70 -70t-70 -70t-70 70t70 70z" />
    <glyph glyph-name="u009E" 
d="M745 1839q70 0 70 -70t-70 -70t-70 70t70 70zM745 1652q70 0 70 -70q0 -69 -70 -69t-70 69q0 70 70 70zM745 1466q70 0 70 -70t-70 -70t-70 70t70 70zM745 1280q70 0 70 -70t-70 -70t-70 70t70 70zM745 1094q70 0 70 -70t-70 -70t-70 70t70 70zM745 908q70 0 70 -70
t-70 -70t-70 70t70 70zM745 722q70 0 70 -70t-70 -70t-70 70t70 70z" />
    <glyph glyph-name="u009E" unicode="&#x45b;" 
d="M745 1839q70 0 70 -70t-70 -70t-70 70t70 70zM745 1652q70 0 70 -70q0 -69 -70 -69t-70 69q0 70 70 70zM745 1466q70 0 70 -70t-70 -70t-70 70t70 70zM745 1280q70 0 70 -70t-70 -70t-70 70t70 70zM745 1094q70 0 70 -70t-70 -70t-70 70t70 70zM745 908q70 0 70 -70
t-70 -70t-70 70t70 70zM745 722q70 0 70 -70t-70 -70t-70 70t70 70z" />
    <glyph glyph-name="nonbreakingspace" unicode="&#xa0;" 
d="M559 1280q69 0 69 -70t-69 -70q-70 0 -70 70t70 70zM652 1466q70 0 70 -70t-70 -70t-70 70t70 70zM559 1652q69 0 69 -70q0 -69 -69 -69q-70 0 -70 69q0 70 70 70zM745 1652q70 0 70 -70q0 -69 -70 -69t-70 69q0 70 70 70zM559 1839q69 0 69 -70t-69 -70q-70 0 -70 70
t70 70zM745 1839q70 0 70 -70t-70 -70t-70 70t70 70z" />
    <glyph glyph-name="exclamdown" unicode="&#xa1;" 
d="M559 1280q69 0 69 -70t-69 -70q-70 0 -70 70t70 70zM652 1466q70 0 70 -70t-70 -70t-70 70t70 70zM559 1652q69 0 69 -70q0 -69 -69 -69q-70 0 -70 69q0 70 70 70zM745 1652q70 0 70 -70q0 -69 -70 -69t-70 69q0 70 70 70zM559 1839q69 0 69 -70t-69 -70q-70 0 -70 70
t70 70zM745 1839q70 0 70 -70t-70 -70t-70 70t70 70z" />
    <glyph glyph-name="exclamdown" unicode="&#x40e;" 
d="M559 1280q69 0 69 -70t-69 -70q-70 0 -70 70t70 70zM652 1466q70 0 70 -70t-70 -70t-70 70t70 70zM559 1652q69 0 69 -70q0 -69 -69 -69q-70 0 -70 69q0 70 70 70zM745 1652q70 0 70 -70q0 -69 -70 -69t-70 69q0 70 70 70zM559 1839q69 0 69 -70t-69 -70q-70 0 -70 70
t70 70zM745 1839q70 0 70 -70t-70 -70t-70 70t70 70z" />
    <glyph glyph-name="cent" unicode="&#xa2;" 
d="M373 722q69 0 69 -70t-69 -70q-70 0 -70 70t70 70zM559 722q69 0 69 -70t-69 -70q-70 0 -70 70t70 70zM745 722q70 0 70 -70t-70 -70t-70 70t70 70zM931 722q70 0 70 -70t-70 -70t-70 70t70 70zM652 908q70 0 70 -70t-70 -70t-70 70t70 70zM652 535q70 0 70 -69
q0 -70 -70 -70t-70 70q0 69 70 69zM1024 908q70 0 70 -70t-70 -70t-70 70t70 70zM373 1094q69 0 69 -70t-69 -70q-70 0 -70 70t70 70zM559 1094q69 0 69 -70t-69 -70q-70 0 -70 70t70 70zM745 1094q70 0 70 -70t-70 -70t-70 70t70 70zM931 1094q70 0 70 -70t-70 -70t-70 70
t70 70zM279 1280q70 0 70 -70t-70 -70t-70 70t70 70zM652 1280q70 0 70 -70t-70 -70t-70 70t70 70zM373 1466q69 0 69 -70t-69 -70q-70 0 -70 70t70 70zM559 1466q69 0 69 -70t-69 -70q-70 0 -70 70t70 70zM745 1466q70 0 70 -70t-70 -70t-70 70t70 70zM931 1466
q70 0 70 -70t-70 -70t-70 70t70 70zM652 1652q70 0 70 -70q0 -69 -70 -69t-70 69q0 70 70 70z" />
    <glyph glyph-name="cent" unicode="&#x45e;" 
d="M373 722q69 0 69 -70t-69 -70q-70 0 -70 70t70 70zM559 722q69 0 69 -70t-69 -70q-70 0 -70 70t70 70zM745 722q70 0 70 -70t-70 -70t-70 70t70 70zM931 722q70 0 70 -70t-70 -70t-70 70t70 70zM652 908q70 0 70 -70t-70 -70t-70 70t70 70zM652 535q70 0 70 -69
q0 -70 -70 -70t-70 70q0 69 70 69zM1024 908q70 0 70 -70t-70 -70t-70 70t70 70zM373 1094q69 0 69 -70t-69 -70q-70 0 -70 70t70 70zM559 1094q69 0 69 -70t-69 -70q-70 0 -70 70t70 70zM745 1094q70 0 70 -70t-70 -70t-70 70t70 70zM931 1094q70 0 70 -70t-70 -70t-70 70
t70 70zM279 1280q70 0 70 -70t-70 -70t-70 70t70 70zM652 1280q70 0 70 -70t-70 -70t-70 70t70 70zM373 1466q69 0 69 -70t-69 -70q-70 0 -70 70t70 70zM559 1466q69 0 69 -70t-69 -70q-70 0 -70 70t70 70zM745 1466q70 0 70 -70t-70 -70t-70 70t70 70zM931 1466
q70 0 70 -70t-70 -70t-70 70t70 70zM652 1652q70 0 70 -70q0 -69 -70 -69t-70 69q0 70 70 70z" />
    <glyph glyph-name="sterling" unicode="&#xa3;" 
d="M373 722q69 0 69 -70t-69 -70q-70 0 -70 70t70 70zM559 722q69 0 69 -70t-69 -70q-70 0 -70 70t70 70zM745 722q70 0 70 -70t-70 -70t-70 70t70 70zM931 722q70 0 70 -70t-70 -70t-70 70t70 70zM652 908q70 0 70 -70t-70 -70t-70 70t70 70zM652 535q70 0 70 -69
q0 -70 -70 -70t-70 70q0 69 70 69zM1024 908q70 0 70 -70t-70 -70t-70 70t70 70zM373 1094q69 0 69 -70t-69 -70q-70 0 -70 70t70 70zM559 1094q69 0 69 -70t-69 -70q-70 0 -70 70t70 70zM745 1094q70 0 70 -70t-70 -70t-70 70t70 70zM931 1094q70 0 70 -70t-70 -70t-70 70
t70 70zM279 1280q70 0 70 -70t-70 -70t-70 70t70 70zM652 1280q70 0 70 -70t-70 -70t-70 70t70 70zM373 1466q69 0 69 -70t-69 -70q-70 0 -70 70t70 70zM559 1466q69 0 69 -70t-69 -70q-70 0 -70 70t70 70zM745 1466q70 0 70 -70t-70 -70t-70 70t70 70zM931 1466
q70 0 70 -70t-70 -70t-70 70t70 70zM652 1652q70 0 70 -70q0 -69 -70 -69t-70 69q0 70 70 70z" />
    <glyph glyph-name="sterling" unicode="&#x408;" 
d="M373 722q69 0 69 -70t-69 -70q-70 0 -70 70t70 70zM559 722q69 0 69 -70t-69 -70q-70 0 -70 70t70 70zM745 722q70 0 70 -70t-70 -70t-70 70t70 70zM931 722q70 0 70 -70t-70 -70t-70 70t70 70zM652 908q70 0 70 -70t-70 -70t-70 70t70 70zM652 535q70 0 70 -69
q0 -70 -70 -70t-70 70q0 69 70 69zM1024 908q70 0 70 -70t-70 -70t-70 70t70 70zM373 1094q69 0 69 -70t-69 -70q-70 0 -70 70t70 70zM559 1094q69 0 69 -70t-69 -70q-70 0 -70 70t70 70zM745 1094q70 0 70 -70t-70 -70t-70 70t70 70zM931 1094q70 0 70 -70t-70 -70t-70 70
t70 70zM279 1280q70 0 70 -70t-70 -70t-70 70t70 70zM652 1280q70 0 70 -70t-70 -70t-70 70t70 70zM373 1466q69 0 69 -70t-69 -70q-70 0 -70 70t70 70zM559 1466q69 0 69 -70t-69 -70q-70 0 -70 70t70 70zM745 1466q70 0 70 -70t-70 -70t-70 70t70 70zM931 1466
q70 0 70 -70t-70 -70t-70 70t70 70zM652 1652q70 0 70 -70q0 -69 -70 -69t-70 69q0 70 70 70z" />
    <glyph glyph-name="yen" unicode="&#xa5;" 
d="M373 722q69 0 69 -70t-69 -70q-70 0 -70 70t70 70zM559 722q69 0 69 -70t-69 -70q-70 0 -70 70t70 70zM745 722q70 0 70 -70t-70 -70t-70 70t70 70zM931 722q70 0 70 -70t-70 -70t-70 70t70 70zM652 908q70 0 70 -70t-70 -70t-70 70t70 70zM652 535q70 0 70 -69
q0 -70 -70 -70t-70 70q0 69 70 69zM1024 908q70 0 70 -70t-70 -70t-70 70t70 70zM373 1094q69 0 69 -70t-69 -70q-70 0 -70 70t70 70zM559 1094q69 0 69 -70t-69 -70q-70 0 -70 70t70 70zM745 1094q70 0 70 -70t-70 -70t-70 70t70 70zM931 1094q70 0 70 -70t-70 -70t-70 70
t70 70zM279 1280q70 0 70 -70t-70 -70t-70 70t70 70zM652 1280q70 0 70 -70t-70 -70t-70 70t70 70zM373 1466q69 0 69 -70t-69 -70q-70 0 -70 70t70 70zM559 1466q69 0 69 -70t-69 -70q-70 0 -70 70t70 70zM745 1466q70 0 70 -70t-70 -70t-70 70t70 70zM931 1466
q70 0 70 -70t-70 -70t-70 70t70 70zM652 1652q70 0 70 -70q0 -69 -70 -69t-70 69q0 70 70 70z" />
    <glyph glyph-name="yen" unicode="&#x490;" 
d="M373 722q69 0 69 -70t-69 -70q-70 0 -70 70t70 70zM559 722q69 0 69 -70t-69 -70q-70 0 -70 70t70 70zM745 722q70 0 70 -70t-70 -70t-70 70t70 70zM931 722q70 0 70 -70t-70 -70t-70 70t70 70zM652 908q70 0 70 -70t-70 -70t-70 70t70 70zM652 535q70 0 70 -69
q0 -70 -70 -70t-70 70q0 69 70 69zM1024 908q70 0 70 -70t-70 -70t-70 70t70 70zM373 1094q69 0 69 -70t-69 -70q-70 0 -70 70t70 70zM559 1094q69 0 69 -70t-69 -70q-70 0 -70 70t70 70zM745 1094q70 0 70 -70t-70 -70t-70 70t70 70zM931 1094q70 0 70 -70t-70 -70t-70 70
t70 70zM279 1280q70 0 70 -70t-70 -70t-70 70t70 70zM652 1280q70 0 70 -70t-70 -70t-70 70t70 70zM373 1466q69 0 69 -70t-69 -70q-70 0 -70 70t70 70zM559 1466q69 0 69 -70t-69 -70q-70 0 -70 70t70 70zM745 1466q70 0 70 -70t-70 -70t-70 70t70 70zM931 1466
q70 0 70 -70t-70 -70t-70 70t70 70zM652 1652q70 0 70 -70q0 -69 -70 -69t-70 69q0 70 70 70z" />
    <glyph glyph-name="Ydieresis" unicode="&#x178;" 
d="M1024 1839q70 0 70 -70t-70 -70t-70 70t70 70zM279 1839q70 0 70 -70t-70 -70t-70 70t70 70zM931 1652q70 0 70 -70q0 -69 -70 -69t-70 69q0 70 70 70zM373 1652q69 0 69 -70q0 -69 -69 -69q-70 0 -70 69q0 70 70 70zM838 1466q70 0 70 -70t-70 -70t-70 70t70 70z
M466 1466q69 0 69 -70t-69 -70q-70 0 -70 70t70 70zM745 1280q70 0 70 -70t-70 -70t-70 70t70 70zM559 1280q69 0 69 -70t-69 -70q-70 0 -70 70t70 70zM652 1094q70 0 70 -70t-70 -70t-70 70t70 70zM652 908q70 0 70 -70t-70 -70t-70 70t70 70zM652 722q70 0 70 -70t-70 -70
t-70 70t70 70z" />
    <glyph glyph-name="paragraph" unicode="&#xb6;" 
d="M1024 722q70 0 70 -70t-70 -70t-70 70t70 70zM1024 535q70 0 70 -69q0 -70 -70 -70t-70 70q0 69 70 69zM838 908q70 0 70 -70t-70 -70t-70 70t70 70zM652 908q70 0 70 -70t-70 -70t-70 70t70 70zM466 908q70 0 70 -70t-70 -70t-70 70t70 70zM1024 908q70 0 70 -70
t-70 -70t-70 70t70 70zM1024 1094q70 0 70 -70t-70 -70t-70 70t70 70zM373 1094q69 0 69 -70t-69 -70q-70 0 -70 70t70 70zM373 1280q69 0 69 -70t-69 -70q-70 0 -70 70t70 70zM1024 1280q70 0 70 -70t-70 -70t-70 70t70 70zM1024 1466q70 0 70 -70t-70 -70t-70 70t70 70z
M838 1466q70 0 70 -70t-70 -70t-70 70t70 70zM652 1466q70 0 70 -70t-70 -70t-70 70t70 70zM466 1466q70 0 70 -70t-70 -70t-70 70t70 70z" />
    <glyph glyph-name="ordmasculine" unicode="&#xba;" 
d="M838 908q70 0 70 -70t-70 -70t-70 70t70 70zM652 908q70 0 70 -70t-70 -70t-70 70t70 70zM838 722q70 0 70 -70t-70 -70t-70 70t70 70zM652 722q70 0 70 -70t-70 -70t-70 70t70 70z" />
    <glyph glyph-name="ordmasculine" unicode="&#x454;" 
d="M838 908q70 0 70 -70t-70 -70t-70 70t70 70zM652 908q70 0 70 -70t-70 -70t-70 70t70 70zM838 722q70 0 70 -70t-70 -70t-70 70t70 70zM652 722q70 0 70 -70t-70 -70t-70 70t70 70z" />
    <glyph glyph-name="ordfeminine" unicode="&#xaa;" 
d="M838 908q70 0 70 -70t-70 -70t-70 70t70 70zM652 908q70 0 70 -70t-70 -70t-70 70t70 70zM838 722q70 0 70 -70t-70 -70t-70 70t70 70zM652 722q70 0 70 -70t-70 -70t-70 70t70 70z" />
    <glyph glyph-name="ordfeminine" unicode="&#x404;" 
d="M838 908q70 0 70 -70t-70 -70t-70 70t70 70zM652 908q70 0 70 -70t-70 -70t-70 70t70 70zM838 722q70 0 70 -70t-70 -70t-70 70t70 70zM652 722q70 0 70 -70t-70 -70t-70 70t70 70z" />
    <glyph glyph-name="logicalnot" unicode="&#xac;" 
d="M838 908q70 0 70 -70t-70 -70t-70 70t70 70zM652 908q70 0 70 -70t-70 -70t-70 70t70 70zM838 722q70 0 70 -70t-70 -70t-70 70t70 70zM652 722q70 0 70 -70t-70 -70t-70 70t70 70z" />
    <glyph glyph-name="softhyphen" unicode="&#xad;" 
d="M838 908q70 0 70 -70t-70 -70t-70 70t70 70zM652 908q70 0 70 -70t-70 -70t-70 70t70 70zM838 722q70 0 70 -70t-70 -70t-70 70t70 70zM652 722q70 0 70 -70t-70 -70t-70 70t70 70z" />
    <glyph glyph-name="registered" unicode="&#xae;" 
d="M838 908q70 0 70 -70t-70 -70t-70 70t70 70zM652 908q70 0 70 -70t-70 -70t-70 70t70 70zM838 722q70 0 70 -70t-70 -70t-70 70t70 70zM652 722q70 0 70 -70t-70 -70t-70 70t70 70z" />
    <glyph glyph-name="macron" unicode="&#xaf;" 
d="M838 908q70 0 70 -70t-70 -70t-70 70t70 70zM652 908q70 0 70 -70t-70 -70t-70 70t70 70zM838 722q70 0 70 -70t-70 -70t-70 70t70 70zM652 722q70 0 70 -70t-70 -70t-70 70t70 70z" />
    <glyph glyph-name="macron" unicode="&#x407;" 
d="M838 908q70 0 70 -70t-70 -70t-70 70t70 70zM652 908q70 0 70 -70t-70 -70t-70 70t70 70zM838 722q70 0 70 -70t-70 -70t-70 70t70 70zM652 722q70 0 70 -70t-70 -70t-70 70t70 70z" />
    <glyph glyph-name="oe" unicode="&#x153;" 
d="M838 908q70 0 70 -70t-70 -70t-70 70t70 70zM652 908q70 0 70 -70t-70 -70t-70 70t70 70zM838 722q70 0 70 -70t-70 -70t-70 70t70 70zM652 722q70 0 70 -70t-70 -70t-70 70t70 70z" />
    <glyph glyph-name="OE" unicode="&#x152;" 
d="M838 908q70 0 70 -70t-70 -70t-70 70t70 70zM652 908q70 0 70 -70t-70 -70t-70 70t70 70zM838 722q70 0 70 -70t-70 -70t-70 70t70 70zM652 722q70 0 70 -70t-70 -70t-70 70t70 70z" />
    <glyph glyph-name="florin" unicode="&#x192;" 
d="M838 908q70 0 70 -70t-70 -70t-70 70t70 70zM652 908q70 0 70 -70t-70 -70t-70 70t70 70zM838 722q70 0 70 -70t-70 -70t-70 70t70 70zM652 722q70 0 70 -70t-70 -70t-70 70t70 70z" />
    <glyph glyph-name="quotedblbase" unicode="&#x201e;" 
d="M838 908q70 0 70 -70t-70 -70t-70 70t70 70zM652 908q70 0 70 -70t-70 -70t-70 70t70 70zM838 722q70 0 70 -70t-70 -70t-70 70t70 70zM652 722q70 0 70 -70t-70 -70t-70 70t70 70z" />
    <glyph glyph-name="ellipsis" unicode="&#x2026;" 
d="M838 908q70 0 70 -70t-70 -70t-70 70t70 70zM652 908q70 0 70 -70t-70 -70t-70 70t70 70zM838 722q70 0 70 -70t-70 -70t-70 70t70 70zM652 722q70 0 70 -70t-70 -70t-70 70t70 70z" />
    <glyph glyph-name="perthousand" unicode="&#x2030;" 
d="M838 908q70 0 70 -70t-70 -70t-70 70t70 70zM652 908q70 0 70 -70t-70 -70t-70 70t70 70zM838 722q70 0 70 -70t-70 -70t-70 70t70 70zM652 722q70 0 70 -70t-70 -70t-70 70t70 70z" />
    <glyph glyph-name="Scaron" unicode="&#x160;" 
d="M838 908q70 0 70 -70t-70 -70t-70 70t70 70zM652 908q70 0 70 -70t-70 -70t-70 70t70 70zM838 722q70 0 70 -70t-70 -70t-70 70t70 70zM652 722q70 0 70 -70t-70 -70t-70 70t70 70z" />
    <glyph glyph-name="brokenbar" unicode="&#xa6;" 
d="M838 908q70 0 70 -70t-70 -70t-70 70t70 70zM652 908q70 0 70 -70t-70 -70t-70 70t70 70zM838 722q70 0 70 -70t-70 -70t-70 70t70 70zM652 722q70 0 70 -70t-70 -70t-70 70t70 70z" />
    <glyph glyph-name="section" unicode="&#xa7;" 
d="M838 908q70 0 70 -70t-70 -70t-70 70t70 70zM652 908q70 0 70 -70t-70 -70t-70 70t70 70zM838 722q70 0 70 -70t-70 -70t-70 70t70 70zM652 722q70 0 70 -70t-70 -70t-70 70t70 70z" />
    <glyph glyph-name="copyright" unicode="&#xa9;" 
d="M838 908q70 0 70 -70t-70 -70t-70 70t70 70zM652 908q70 0 70 -70t-70 -70t-70 70t70 70zM838 722q70 0 70 -70t-70 -70t-70 70t70 70zM652 722q70 0 70 -70t-70 -70t-70 70t70 70z" />
    <glyph glyph-name="degree" unicode="&#xb0;" 
d="M838 908q70 0 70 -70t-70 -70t-70 70t70 70zM652 908q70 0 70 -70t-70 -70t-70 70t70 70zM838 722q70 0 70 -70t-70 -70t-70 70t70 70zM652 722q70 0 70 -70t-70 -70t-70 70t70 70z" />
    <glyph glyph-name="plusminus" unicode="&#xb1;" 
d="M838 908q70 0 70 -70t-70 -70t-70 70t70 70zM652 908q70 0 70 -70t-70 -70t-70 70t70 70zM838 722q70 0 70 -70t-70 -70t-70 70t70 70zM652 722q70 0 70 -70t-70 -70t-70 70t70 70z" />
    <glyph glyph-name="twosuperior" unicode="&#xb2;" 
d="M838 908q70 0 70 -70t-70 -70t-70 70t70 70zM652 908q70 0 70 -70t-70 -70t-70 70t70 70zM838 722q70 0 70 -70t-70 -70t-70 70t70 70zM652 722q70 0 70 -70t-70 -70t-70 70t70 70z" />
    <glyph glyph-name="twosuperior" unicode="&#x406;" 
d="M838 908q70 0 70 -70t-70 -70t-70 70t70 70zM652 908q70 0 70 -70t-70 -70t-70 70t70 70zM838 722q70 0 70 -70t-70 -70t-70 70t70 70zM652 722q70 0 70 -70t-70 -70t-70 70t70 70z" />
    <glyph glyph-name="threesuperior" unicode="&#xb3;" 
d="M838 908q70 0 70 -70t-70 -70t-70 70t70 70zM652 908q70 0 70 -70t-70 -70t-70 70t70 70zM838 722q70 0 70 -70t-70 -70t-70 70t70 70zM652 722q70 0 70 -70t-70 -70t-70 70t70 70z" />
    <glyph glyph-name="threesuperior" unicode="&#x456;" 
d="M838 908q70 0 70 -70t-70 -70t-70 70t70 70zM652 908q70 0 70 -70t-70 -70t-70 70t70 70zM838 722q70 0 70 -70t-70 -70t-70 70t70 70zM652 722q70 0 70 -70t-70 -70t-70 70t70 70z" />
    <glyph glyph-name="mu" unicode="&#xb5;" 
d="M838 908q70 0 70 -70t-70 -70t-70 70t70 70zM652 908q70 0 70 -70t-70 -70t-70 70t70 70zM838 722q70 0 70 -70t-70 -70t-70 70t70 70zM652 722q70 0 70 -70t-70 -70t-70 70t70 70z" />
    <glyph glyph-name="onequarter" unicode="&#xbc;" 
d="M838 908q70 0 70 -70t-70 -70t-70 70t70 70zM652 908q70 0 70 -70t-70 -70t-70 70t70 70zM838 722q70 0 70 -70t-70 -70t-70 70t70 70zM652 722q70 0 70 -70t-70 -70t-70 70t70 70z" />
    <glyph glyph-name="onequarter" unicode="&#x458;" 
d="M838 908q70 0 70 -70t-70 -70t-70 70t70 70zM652 908q70 0 70 -70t-70 -70t-70 70t70 70zM838 722q70 0 70 -70t-70 -70t-70 70t70 70zM652 722q70 0 70 -70t-70 -70t-70 70t70 70z" />
    <glyph glyph-name="onehalf" unicode="&#xbd;" 
d="M838 908q70 0 70 -70t-70 -70t-70 70t70 70zM652 908q70 0 70 -70t-70 -70t-70 70t70 70zM838 722q70 0 70 -70t-70 -70t-70 70t70 70zM652 722q70 0 70 -70t-70 -70t-70 70t70 70z" />
    <glyph glyph-name="onehalf" unicode="&#x405;" 
d="M838 908q70 0 70 -70t-70 -70t-70 70t70 70zM652 908q70 0 70 -70t-70 -70t-70 70t70 70zM838 722q70 0 70 -70t-70 -70t-70 70t70 70zM652 722q70 0 70 -70t-70 -70t-70 70t70 70z" />
    <glyph glyph-name="threequarters" unicode="&#xbe;" 
d="M838 908q70 0 70 -70t-70 -70t-70 70t70 70zM652 908q70 0 70 -70t-70 -70t-70 70t70 70zM838 722q70 0 70 -70t-70 -70t-70 70t70 70zM652 722q70 0 70 -70t-70 -70t-70 70t70 70z" />
    <glyph glyph-name="threequarters" unicode="&#x455;" 
d="M838 908q70 0 70 -70t-70 -70t-70 70t70 70zM652 908q70 0 70 -70t-70 -70t-70 70t70 70zM838 722q70 0 70 -70t-70 -70t-70 70t70 70zM652 722q70 0 70 -70t-70 -70t-70 70t70 70z" />
    <glyph glyph-name="questiondown" unicode="&#xbf;" 
d="M838 908q70 0 70 -70t-70 -70t-70 70t70 70zM652 908q70 0 70 -70t-70 -70t-70 70t70 70zM838 722q70 0 70 -70t-70 -70t-70 70t70 70zM652 722q70 0 70 -70t-70 -70t-70 70t70 70z" />
    <glyph glyph-name="questiondown" unicode="&#x457;" 
d="M838 908q70 0 70 -70t-70 -70t-70 70t70 70zM652 908q70 0 70 -70t-70 -70t-70 70t70 70zM838 722q70 0 70 -70t-70 -70t-70 70t70 70zM652 722q70 0 70 -70t-70 -70t-70 70t70 70z" />
  </font>
</defs>
</svg>
