<?xml version="1.0" standalone="no"?>
<!DOCTYPE svg PUBLIC "-//W3C//DTD SVG 1.1//EN" "http://www.w3.org/Graphics/SVG/1.1/DTD/svg11.dtd" >
<svg xmlns="http://www.w3.org/2000/svg" xmlns:xlink="http://www.w3.org/1999/xlink" version="1.1">
<metadata>
Created by FontForge 20170910 at Sun Jun 18 17:45:37 2000
 By Jimmy Wärting
Copyright (c) by ASCON, 2000. All rights reserved.
</metadata>
<defs>
<font id="GOST-2.304-81typeB" horiz-adv-x="478" >
  <font-face 
    font-family="GOST type B"
    font-weight="400"
    font-stretch="normal"
    units-per-em="1000"
    panose-1="2 1 4 4 2 4 4 6 3 3"
    ascent="800"
    descent="-200"
    x-height="478"
    cap-height="684"
    bbox="-68 -205 1367 889"
    underline-thickness="68"
    underline-position="-137"
    unicode-range="U+0020-2219"
  />
<missing-glyph horiz-adv-x="500" 
d="M31 0h438v889h-438v-889zM438 31h-376v827h376v-827z" />
    <glyph glyph-name=".notdef" horiz-adv-x="500" 
d="M31 0h438v889h-438v-889zM438 31h-376v827h376v-827z" />
    <glyph glyph-name=".null" horiz-adv-x="0" 
 />
    <glyph glyph-name="nonmarkingreturn" horiz-adv-x="410" 
 />
    <glyph glyph-name="space" unicode=" " horiz-adv-x="410" 
 />
    <glyph glyph-name="space" unicode="&#xa0;" horiz-adv-x="410" 
 />
    <glyph glyph-name="exclam" unicode="!" horiz-adv-x="205" 
d="M137 171v478q0 17 -10.5 26t-23.5 9q-15 0 -25 -9.5t-10 -25.5v-478q0 -17 10.5 -25.5t24.5 -8.5q15 0 24.5 8.5t9.5 25.5zM68 34q0 -16 10.5 -25t24.5 -9q15 0 24.5 8.5t9.5 25.5t-10.5 25.5t-23.5 8.5q-15 0 -25 -9t-10 -25z" />
    <glyph glyph-name="quotedbl" unicode="&#x22;" horiz-adv-x="342" 
d="M272 641q1 5 1 9q0 15 -10.5 24.5t-24.5 9.5q-27 0 -33 -26l-34 -137q-1 -5 -1 -9q0 -15 10.5 -24.5t24.5 -9.5q27 0 33 26zM135 641l2 9q0 15 -10.5 24.5t-25.5 9.5q-27 0 -33 -26l-34 -137q-1 -5 -1 -9q0 -15 10.5 -24.5t24.5 -9.5q27 0 33 26z" />
    <glyph glyph-name="numbersign" unicode="#" horiz-adv-x="677" 
d="M220 442l-43 -203h-69q-16 0 -25 -10t-9 -24t9 -24t25 -10h55l-28 -131q-1 -2 -1 -9q0 -15 10 -23.5t24 -8.5q12 0 21.5 6.5t12.5 20.5l31 145h140l-28 -131q-1 -1 -1 -8q0 -15 11 -24t25 -9q26 0 32 26l32 146h69q16 0 25 10t9 24q0 15 -8.5 24.5t-25.5 9.5h-54l43 203
h68q16 0 25 10t9 24q0 15 -8.5 24.5t-25.5 9.5h-53l28 132q1 2 1 8q0 15 -10.5 24.5t-24.5 9.5q-26 0 -33 -27l-31 -147h-141l28 133v8q0 15 -10 24t-24 9q-12 0 -21.5 -7t-11.5 -21l-32 -146h-70q-16 0 -25 -10.5t-9 -23.5q0 -15 9.5 -24.5t24.5 -9.5h55zM432 442l-44 -203
h-141l43 203h142z" />
    <glyph glyph-name="dollar" unicode="$" horiz-adv-x="547" 
d="M241 682q-38 -3 -69 -15.5t-53 -32t-34 -44.5t-12 -53v-5q0 -30 12 -51.5t35 -44.5l121 -87v-281q-30 4 -58.5 16t-58.5 32q-11 6 -19 6q-15 0 -24.5 -11t-9.5 -25q0 -18 16 -28q39 -25 77.5 -40.5t76.5 -19.5v-101q0 -16 10 -25t24 -9q15 0 24.5 8.5t9.5 25.5v103
q23 3 50 12.5t50 21.5q36 19 54 54.5t18 78.5q0 42 -17.5 79.5t-51.5 59.5l-103 76v231q60 -9 109 -43q8 -7 20 -7q14 0 24 11t10 25q0 7 -3.5 14.5t-11.5 12.5q-66 48 -148 55v102q0 17 -10.5 25.5t-23.5 8.5q-15 0 -24.5 -9t-9.5 -25v-101zM241 433l-82 61q-20 14 -20 38
q0 18 11 35t31 28q27 14 60 19v-181zM309 298l65 -48q20 -13 30.5 -36t10.5 -48q0 -23 -9.5 -42.5t-28.5 -29.5q-35 -18 -68 -24v228z" />
    <glyph glyph-name="percent" unicode="%" horiz-adv-x="1025" 
d="M957 157q0 75 -49 118q-44 39 -108 39q-65 0 -108 -39q-49 -43 -49 -118t49 -118q43 -39 108 -39q64 0 108 39q49 43 49 118zM746 630q7 10 7 19q0 15 -11 25t-25 10q-19 0 -28 -16l-410 -615q-6 -9 -6 -19q0 -14 11 -24.5t24 -10.5q18 0 28 16zM383 526q0 76 -49 119
q-44 39 -108 39q-65 0 -108 -40q-50 -44 -50 -118t50 -118q43 -39 108 -39q64 0 108 39q49 43 49 118zM889 157q0 -42 -28 -67q-25 -22 -61 -22t-62 23q-27 25 -27 66q0 43 28 67q23 22 61 22q36 0 62.5 -23.5t26.5 -65.5zM314 526q0 -42 -28 -67q-23 -22 -60 -22
q-36 0 -62 23q-27 25 -27 66q0 43 28 67q23 22 61 22q36 0 62 -23.5t26 -65.5z" />
    <glyph glyph-name="ampersand" unicode="&#x26;" horiz-adv-x="615" 
d="M272 461l77 64q12 10 12 26q0 20 -19.5 40t-45.5 25q-2 1 -10 1q-13 0 -25 -5.5t-21.5 -14t-15 -20t-5.5 -23.5q0 -15 9 -28zM417 133l-159 229l-70 -59q-24 -20 -34 -46.5t-10 -52.5q0 -57 42 -100q43 -43 100 -43q22 0 45 8.5t43 25.5zM219 418l-47 68q-21 31 -21 63
q0 53 41 94q43 41 96 41h8q6 0 12 -1q49 -9 84 -51q32 -41 32 -87q0 -22 -7.5 -40t-24.5 -32l-81 -68l157 -224l36 35q10 10 23 10q14 0 24.5 -10.5t10.5 -24.5q0 -13 -11 -24l-45 -42l50 -71q7 -10 7 -20q0 -14 -11 -24.5t-25 -10.5q-15 0 -27 15l-44 63l-36 -34
q-32 -26 -65 -38t-67 -12q-85 0 -148 65q-63 64 -63 149q0 38 16 76t49 70z" />
    <glyph glyph-name="quotesingle" unicode="'" horiz-adv-x="205" 
d="M145 641q1 5 1 9q0 15 -10.5 24.5t-24.5 9.5q-13 0 -22.5 -6.5t-11.5 -21.5l-35 -144q0 -15 11 -24.5t25 -9.5q28 0 33 27z" />
    <glyph glyph-name="parenleft" unicode="(" horiz-adv-x="308" 
d="M237 -57q-95 169 -95 362q0 94 23.5 186t71.5 176q4 8 4 17q0 15 -11 24.5t-24 9.5q-19 0 -30 -18q-102 -185 -102 -395q0 -103 25.5 -203.5t76.5 -191.5q10 -18 29 -18q14 0 25 9.5t11 23.5q0 10 -4 18z" />
    <glyph glyph-name="parenright" unicode=")" horiz-adv-x="308" 
d="M129 -90q51 91 76.5 190.5t25.5 204.5q0 102 -26.5 203t-75.5 192q-11 18 -29 18q-15 0 -25.5 -9.5t-10.5 -23.5q0 -10 4 -18q95 -168 95 -362q0 -94 -24.5 -187t-70.5 -175q-4 -8 -4 -18q0 -14 10.5 -23.5t24.5 -9.5q19 0 30 18z" />
    <glyph glyph-name="asterisk" unicode="*" horiz-adv-x="444" 
d="M293 513h59q16 0 25 10t9 24q0 15 -8.5 24.5t-25.5 9.5h-59l33 49q6 10 6 19q0 15 -11 25t-24 10q-19 0 -28 -16l-40 -59l-40 59q-10 16 -27 16q-14 0 -25 -10t-11 -24q0 -10 6 -20l33 -49h-59q-16 0 -25 -10.5t-9 -23.5q0 -15 9 -24.5t25 -9.5h59l-33 -50q-6 -9 -6 -19
q0 -14 11 -24.5t24 -10.5q18 0 28 16l40 60l40 -60q10 -16 27 -16q14 0 25 10.5t11 24.5q0 4 -1.5 9.5t-4.5 9.5z" />
    <glyph glyph-name="plus" unicode="+" 
d="M275 205h102q17 0 25.5 10.5t8.5 23.5q0 15 -8.5 24.5t-25.5 9.5h-102v103q0 16 -10.5 25t-23.5 9q-15 0 -25 -9t-10 -25v-103h-102q-17 0 -25.5 -10t-8.5 -24t9 -24t25 -10h102v-102q0 -17 10.5 -26t24.5 -9q15 0 24.5 8.5t9.5 26.5v102z" />
    <glyph glyph-name="comma" unicode="," horiz-adv-x="205" 
d="M140 34v34q0 17 -10 26t-24 9t-24 -9.5t-10 -25.5v-28l-34 -134q-1 -5 -1 -9q0 -15 10.5 -24.5t24.5 -9.5q28 0 33 26l34 137z" />
    <glyph glyph-name="hyphen" unicode="-" 
d="M376 205q16 0 25 10.5t9 23.5q0 15 -8.5 24.5t-25.5 9.5h-273q-17 0 -26 -10t-9 -24t9.5 -24t25.5 -10h273z" />
    <glyph glyph-name="period" unicode="." horiz-adv-x="205" 
d="M68 34q0 -14 10 -24t25 -10q14 0 24 10t10 24q0 15 -10 24.5t-24 9.5q-15 0 -25 -9.5t-10 -24.5z" />
    <glyph glyph-name="slash" unicode="/" horiz-adv-x="615" 
d="M511 842q2 8 2 13q0 14 -11 24t-25 10q-9 0 -18 -6t-13 -16l-376 -957q-2 -8 -2 -13q0 -15 11 -24.5t25 -9.5q9 0 18 6t13 16z" />
    <glyph glyph-name="zero" unicode="0" 
d="M410 150v383q0 63 -44 107t-106 44h-41q-62 0 -107 -45q-44 -44 -44 -106v-383q0 -63 44 -107q44 -43 107 -43h41q63 0 106 43q44 44 44 107zM342 150q0 -34 -24 -58t-58 -24h-41q-34 0 -58 24t-24 58v383q0 34 24 58t58 24h41q34 0 58 -24t24 -58v-383z" />
    <glyph glyph-name="one" unicode="1" horiz-adv-x="342" 
d="M273 34v615q0 19 -8 29t-20 10q-15 0 -30 -15l-136 -136q-11 -11 -11 -24q0 -14 10.5 -24.5t24.5 -10.5q12 0 23 11l79 78v-533q0 -16 10.5 -25t23.5 -9q15 0 24.5 8.5t9.5 25.5z" />
    <glyph glyph-name="two" unicode="2" 
d="M385 420q22 40 22 84q0 73 -56 126q-56 54 -135 54q-42 0 -80 -23.5t-62 -61.5q-6 -9 -6 -19q0 -14 11 -23.5t24 -9.5q19 0 28 16q16 24 39 38t51 14q49 0 84 -32q34 -31 34 -77q0 -26 -13 -51l-252 -402q-8 -14 -8 -26q0 -27 37 -27h273q16 0 25 10.5t9 23.5
q0 15 -8.5 24.5t-25.5 9.5h-212z" />
    <glyph glyph-name="three" unicode="3" 
d="M236 614q48 0 76 -31q24 -27 24 -69q0 -41 -26 -72q-29 -33 -74 -33h-69q-16 0 -25 -10t-9 -24t9.5 -24t24.5 -10h69q21 0 39.5 -8t32.5 -22t22 -32.5t8 -39.5v-69q0 -21 -8 -39.5t-22 -32.5t-32.5 -22t-39.5 -8h-137q-16 0 -25 -10.5t-9 -24.5t9 -24t25 -10h137
q71 0 121 50t50 121v69q0 42 -18 76.5t-49 58.5q33 24 50 60.5t17 78.5q0 70 -43 117q-48 53 -128 53h-137q-16 0 -25 -10.5t-9 -23.5q0 -15 9 -25t25 -10h137z" />
    <glyph glyph-name="four" unicode="4" horiz-adv-x="547" 
d="M376 205v103q0 16 -10.5 25t-23.5 9q-15 0 -24.5 -9.5t-9.5 -24.5v-103h-160l124 435q1 5 1 10q0 15 -10.5 24.5t-24.5 9.5q-10 0 -19 -6.5t-13 -18.5l-136 -479q-1 -2 -2 -7t-1 -8q0 -28 36 -28h205v-103q0 -16 10 -25t24 -9q15 0 24.5 8.5t9.5 25.5v103h68
q17 0 25.5 10t8.5 24q0 15 -8.5 24.5t-25.5 9.5h-68z" />
    <glyph glyph-name="five" unicode="5" 
d="M137 615h239q16 0 25 10.5t9 23.5q0 15 -8.5 25t-25.5 10h-273q-35 0 -35 -35v-273q0 -34 35 -34h136q21 0 40 -8t33 -22t22 -33t8 -40v-68q0 -21 -8 -39.5t-22 -33t-33 -22.5t-40 -8h-136q-17 0 -26 -10t-9 -24t9.5 -24t25.5 -10h136q71 0 121 50t50 121v68
q0 71 -50 121t-121 50h-102v205z" />
    <glyph glyph-name="six" unicode="6" 
d="M138 342h135q29 0 49 -20t20 -49v-136q0 -29 -20 -49t-49 -20h-68q-29 0 -48 20t-19 49v205zM150 410q8 31 18 55q47 109 153 153q21 10 21 31q0 14 -9.5 24.5t-23.5 10.5q-7 0 -14 -3q-64 -27 -113.5 -76.5t-76.5 -112.5q-37 -86 -37 -184v-171q0 -58 40 -98
q40 -39 97 -39h68q58 0 97 39q40 40 40 98v136q0 58 -40 98q-39 39 -97 39h-123z" />
    <glyph glyph-name="seven" unicode="7" 
d="M137 615h194l-159 -572q-1 -2 -1 -10q0 -15 10 -24t25 -9q25 0 32 25l171 615q1 5 1.5 8.5t0.5 7.5q0 28 -35 28h-273q-35 0 -35 -35v-68q0 -16 10.5 -25t24.5 -9q15 0 24.5 8.5t9.5 25.5v34z" />
    <glyph glyph-name="eight" unicode="8" horiz-adv-x="547" 
d="M273 410q-47 0 -76 32q-25 28 -25 71q0 42 25 70q29 32 76 32q48 0 77 -32q25 -28 25 -70q0 -43 -25 -71q-29 -32 -77 -32zM273 342q65 0 104 -43q33 -38 33 -94q0 -57 -34 -94q-37 -43 -103 -43q-65 0 -102 43q-34 38 -34 94q0 57 34 94q37 43 102 43zM387 380
q28 24 42.5 59t14.5 74q0 70 -43 117q-47 54 -128 54t-127 -54q-43 -47 -43 -117q0 -39 15 -73.5t43 -58.5q-46 -28 -69.5 -74.5t-23.5 -101.5q0 -84 51 -142q57 -63 154 -63q98 0 155 64q51 58 51 141q0 54 -23.5 101t-68.5 74z" />
    <glyph glyph-name="nine" unicode="9" 
d="M340 342h-135q-29 0 -48.5 19.5t-19.5 48.5v137q0 29 19.5 48.5t48.5 19.5h68q29 0 49 -19.5t20 -48.5v-108q0 -38 -0.5 -58t-1 -26.5t-0.5 -10.5v-2zM329 273q-4 -14 -9 -27.5t-10 -26.5q-22 -54 -61 -93t-91 -60q-11 -4 -16 -12.5t-5 -17.5q0 -14 9.5 -25t23.5 -11
q8 0 14 3q64 26 113.5 75.5t76.5 113.5q36 85 36 185v170q0 57 -40 97q-39 40 -97 40h-68q-57 0 -97 -40t-40 -97v-137q0 -57 40 -97t97 -40h124z" />
    <glyph glyph-name="colon" unicode=":" horiz-adv-x="205" 
d="M68 34q0 -14 10 -24t25 -10q14 0 24 10t10 24q0 15 -10 24.5t-24 9.5q-15 0 -25 -9.5t-10 -24.5zM68 311q0 -14 10 -24t25 -10q14 0 24 10t10 24t-10 24t-24 10q-15 0 -25 -10t-10 -24z" />
    <glyph glyph-name="semicolon" unicode=";" horiz-adv-x="205" 
d="M137 311q0 14 -10 24t-24 10q-15 0 -25 -10t-10 -24t10 -24t25 -10q14 0 24 10t10 24zM136 26q1 5 1 9q0 15 -10.5 24t-24.5 9q-27 0 -34 -25l-35 -148q0 -15 11 -24t25 -9q28 0 34 26z" />
    <glyph glyph-name="less" unicode="&#x3c;" 
d="M391 133l-212 106l212 106q19 10 19 30q0 14 -9.5 25t-23.5 11q-8 0 -16 -4l-274 -137q-24 -12 -24 -31t24 -32l274 -135q7 -4 16 -4q15 0 24.5 11t9.5 24q0 19 -20 30z" />
    <glyph glyph-name="equal" unicode="=" 
d="M376 308q16 0 25 10t9 24q0 15 -8.5 24.5t-25.5 9.5h-273q-17 0 -26 -10.5t-9 -23.5q0 -15 9.5 -24.5t25.5 -9.5h273zM376 137q16 0 25 10t9 24q0 15 -8.5 24.5t-25.5 9.5h-273q-17 0 -26 -10t-9 -24t9.5 -24t25.5 -10h273z" />
    <glyph glyph-name="greater" unicode="&#x3e;" 
d="M391 208q25 13 25 31q0 19 -25 31l-273 137q-8 4 -17 4q-14 0 -23.5 -11t-9.5 -25q0 -20 19 -30l212 -106l-212 -106q-19 -9 -19 -30q0 -13 9.5 -24t23.5 -11q8 0 17 4z" />
    <glyph glyph-name="question" unicode="?" 
d="M369 424q17 23 25 46.5t8 49.5q0 65 -47 115q-46 49 -116 49q-48 0 -91 -22t-73 -60q-8 -11 -8 -22q0 -13 11 -23.5t25 -10.5q16 0 27 14q20 26 48.5 40.5t60.5 14.5q21 0 38 -7.5t29.5 -20.5t19.5 -30t7 -36q0 -31 -19 -56q-25 -34 -62 -62q-47 -38 -47 -95v-137
q0 -17 10.5 -25.5t23.5 -8.5q15 0 24.5 8.5t9.5 25.5v137q0 26 21 41q43 31 75 75zM205 34q0 -14 10 -24t24 -10q15 0 24.5 10t9.5 24q0 15 -9.5 24.5t-24.5 9.5q-14 0 -24 -9.5t-10 -24.5z" />
    <glyph glyph-name="at" unicode="@" horiz-adv-x="820" 
d="M478 274q0 -14 -10 -24.5t-24 -10.5h-68q-15 0 -24.5 10.5t-9.5 24.5v137q0 14 10 23.5t24 9.5h102v-170zM581 239q-12 0 -21 11l-13 24v204q0 35 -34 35h-137q-21 0 -40 -8t-33 -22t-22 -32.5t-8 -39.5v-137q0 -21 8 -40t22.5 -33t33 -22t39.5 -8h68q15 0 30.5 7
t38.5 26q16 -16 30 -23q19 -10 38 -10h31q25 0 47.5 9t40.5 24t30.5 36t16.5 45q2 14 3.5 28t1.5 29q0 141 -100 241q-99 101 -242 101q-142 0 -242 -100t-100 -242t100 -242t242 -100q55 0 107 19t97 52q14 11 14 27q0 13 -10 24t-24 11q-13 0 -21 -7q-36 -28 -77 -43
t-86 -15q-113 0 -193 80q-80 82 -80 194q0 113 80 193t193 80q114 0 194 -80t80 -193l1 -11q0 -15 -4 -31.5t-12.5 -30t-21.5 -22t-32 -8.5h-34z" />
    <glyph glyph-name="A" unicode="A" horiz-adv-x="615" 
d="M188 172h248l49 -148q4 -15 17 -21q10 -2 15 -2q13 0 24 9t11 23q0 5 -2 13l-206 615q-9 29 -32 29q-21 0 -32 -29l-205 -615q-3 -6 -3 -13q0 -14 11 -23t24 -9q25 0 32 23zM413 241h-202l101 302z" />
    <glyph glyph-name="B" unicode="B" horiz-adv-x="547" 
d="M413 390q31 37 31 88v69q0 57 -40 97q-39 40 -96 40h-205q-35 0 -35 -35v-615q0 -34 35 -34h239q57 0 96 39q40 40 40 98v136q0 38 -17 68.5t-48 48.5zM137 342h205q28 0 48 -20t20 -49v-136q0 -29 -20 -49t-48 -20h-205v274zM308 410h-171v205h171q28 0 48 -19.5
t20 -48.5v-69q0 -28 -20 -48t-48 -20z" />
    <glyph glyph-name="C" unicode="C" 
d="M376 0q16 0 25 10.5t9 23.5q0 15 -8.5 24.5t-25.5 9.5h-171q-29 0 -48.5 20t-19.5 49v410q0 29 19.5 48.5t48.5 19.5h171q16 0 25 10.5t9 23.5q0 15 -8.5 25t-25.5 10h-171q-57 0 -97 -40t-40 -97v-410q0 -58 40 -98q40 -39 97 -39h171z" />
    <glyph glyph-name="D" unicode="D" horiz-adv-x="547" 
d="M478 137v410q0 57 -40 97q-39 40 -96 40h-239q-35 0 -35 -35v-615q0 -34 35 -34h239q57 0 96 39q40 40 40 98zM410 137q0 -29 -20 -49t-48 -20h-205v547h205q28 0 48 -19.5t20 -48.5v-410z" />
    <glyph glyph-name="E" unicode="E" 
d="M137 410v205h240q16 0 25 10.5t9 23.5q0 15 -8.5 25t-25.5 10h-274q-35 0 -35 -35v-617q0 -32 35 -32h274q16 0 25 10.5t9 23.5q0 15 -8.5 24.5t-25.5 9.5h-240v274h171q17 0 25.5 10t8.5 24q0 15 -8.5 24.5t-25.5 9.5h-171z" />
    <glyph glyph-name="F" unicode="F" 
d="M137 411v204h239q16 0 25 10.5t9 23.5q0 15 -8.5 25t-25.5 10h-273q-35 0 -35 -35v-615q0 -16 10.5 -25t24.5 -9q15 0 24.5 8.5t9.5 25.5v308h239q16 0 25 10.5t9 24.5q0 15 -8.5 24.5t-25.5 9.5h-239z" />
    <glyph glyph-name="G" unicode="G" horiz-adv-x="547" 
d="M478 34v342q0 34 -34 34h-68q-16 0 -25 -10t-9 -24t9 -24t25 -10h34v-274h-205q-29 0 -48.5 20t-19.5 49v410q0 29 19.5 48.5t48.5 19.5h239q17 0 25.5 10.5t8.5 23.5q0 15 -8.5 25t-25.5 10h-239q-57 0 -97 -40t-40 -97v-410q0 -58 40 -98q40 -39 97 -39h239q34 0 34 34
z" />
    <glyph glyph-name="H" unicode="H" horiz-adv-x="547" 
d="M410 410h-273v239q0 17 -10.5 26t-23.5 9q-15 0 -25 -9.5t-10 -25.5v-615q0 -16 10.5 -25t24.5 -9q15 0 24.5 8.5t9.5 25.5v308h273v-308q0 -16 10 -24.5t24 -8.5q13 0 23.5 9t10.5 26v615q0 16 -10 25t-24 9t-24 -9.5t-10 -24.5v-241z" />
    <glyph glyph-name="I" unicode="I" horiz-adv-x="205" 
d="M137 34v615q0 17 -10.5 26t-23.5 9q-15 0 -25 -9.5t-10 -25.5v-615q0 -16 10.5 -25t24.5 -9q15 0 24.5 8.5t9.5 25.5z" />
    <glyph glyph-name="J" unicode="J" horiz-adv-x="410" 
d="M342 137v512q0 17 -10.5 26t-23.5 9q-15 0 -25 -9.5t-10 -25.5v-512q0 -29 -19.5 -49t-48.5 -20h-102q-17 0 -26 -10t-9 -24t9.5 -24t25.5 -10h102q56 0 97 39q40 40 40 98z" />
    <glyph glyph-name="K" unicode="K" horiz-adv-x="547" 
d="M137 388v261q0 16 -10.5 25t-23.5 9q-14 0 -24.5 -9t-10.5 -25v-615q0 -16 10.5 -25t24.5 -9q15 0 24.5 8.5t9.5 25.5v261l81 80l200 -357q10 -19 29 -19q14 0 25 9.5t11 24.5q0 8 -5 18l-209 371l203 203q11 11 11 24q0 14 -10.5 24.5t-24.5 10.5q-13 0 -24 -11z" />
    <glyph glyph-name="L" unicode="L" 
d="M376 0q16 0 25 10.5t9 23.5q0 15 -8.5 24.5t-25.5 9.5h-239v581q0 17 -10.5 26t-23.5 9q-15 0 -25 -9.5t-10 -25.5v-615q0 -34 35 -34h273z" />
    <glyph glyph-name="M" unicode="M" horiz-adv-x="615" 
d="M548 34v612q0 18 -9.5 29t-21.5 11q-20 0 -33 -22l-176 -294l-176 294q-13 22 -32 22q-13 0 -22.5 -11t-9.5 -29v-612q0 -16 10.5 -25t24.5 -9q15 0 24.5 8.5t9.5 25.5v488l142 -236q13 -22 29 -22q17 0 30 22l141 236v-488q0 -16 10.5 -25t23.5 -9q15 0 25 8.5t10 25.5z
" />
    <glyph glyph-name="N" unicode="N" horiz-adv-x="547" 
d="M478 38v611q0 17 -10.5 26t-23.5 9q-15 0 -25 -9.5t-10 -25.5v-479l-276 492q-13 22 -33 22q-13 0 -22.5 -10t-9.5 -28v-612q0 -16 10.5 -25t24.5 -9q15 0 24.5 8.5t9.5 25.5v479l277 -492q12 -22 32 -22q13 0 22.5 11t9.5 28z" />
    <glyph glyph-name="O" unicode="O" horiz-adv-x="547" 
d="M478 137v410q0 57 -40 97q-39 40 -96 40h-137q-57 0 -97 -40t-40 -97v-410q0 -58 40 -98q40 -39 97 -39h137q57 0 96 39q40 40 40 98zM410 137q0 -29 -20 -49t-48 -20h-137q-29 0 -48.5 20t-19.5 49v410q0 29 19.5 48.5t48.5 19.5h137q28 0 48 -19.5t20 -48.5v-410z" />
    <glyph glyph-name="P" unicode="P" horiz-adv-x="547" 
d="M137 342v273h205q28 0 48 -19.5t20 -48.5v-137q0 -29 -20 -48.5t-48 -19.5h-205zM137 273h205q57 0 96 40q40 40 40 97v137q0 57 -40 97q-39 40 -96 40h-239q-35 0 -35 -35v-615q0 -16 10.5 -25t24.5 -9q15 0 24.5 8.5t9.5 25.5v239z" />
    <glyph glyph-name="Q" unicode="Q" horiz-adv-x="615" 
d="M383 81q-20 -13 -41 -13h-137q-29 0 -48.5 20t-19.5 49v410q0 29 19.5 48.5t48.5 19.5h137q28 0 48 -19.5t20 -48.5v-403l-83 56q-11 6 -20 6q-14 0 -24 -10.5t-10 -23.5q0 -18 15 -28zM474 101q4 15 4 36v410q0 57 -40 97q-39 40 -96 40h-137q-57 0 -97 -40t-40 -97
v-410q0 -58 40 -98q40 -39 97 -39h137q59 0 100 41l52 -35q7 -6 19 -6q15 0 25 10.5t10 24.5q0 17 -16 27z" />
    <glyph glyph-name="R" unicode="R" horiz-adv-x="547" 
d="M137 342v273h205q28 0 48 -19.5t20 -48.5v-137q0 -29 -20 -48.5t-48 -19.5h-205zM335 273h7q57 0 96 40q40 40 40 97v137q0 57 -40 97q-39 40 -96 40h-239q-35 0 -35 -35v-615q0 -16 10.5 -25t24.5 -9q15 0 24.5 8.5t9.5 25.5v239h117l162 -257q9 -16 27 -16
q14 0 24.5 10t10.5 23q0 10 -5 20z" />
    <glyph glyph-name="S" unicode="S" horiz-adv-x="547" 
d="M457 626q-39 28 -86 43t-98 15q-70 0 -123 -28q-39 -20 -58 -53t-19 -71q0 -30 10.5 -55t35.5 -40l255 -187q20 -13 30.5 -36t10.5 -48q0 -23 -9.5 -42.5t-28.5 -29.5q-55 -28 -108 -28q-36 0 -71.5 12.5t-73.5 37.5q-11 6 -19 6q-15 0 -24.5 -11t-9.5 -25q0 -18 16 -28
q48 -31 90.5 -46t90.5 -15q35 0 69.5 8.5t70.5 27.5q37 20 55 55.5t18 78.5q0 42 -17.5 79.5t-51.5 59.5l-253 188q-20 14 -20 38q0 18 11 35t31 28q41 22 92 22q78 0 145 -47q8 -7 20 -7q14 0 24 11t10 25q0 7 -3.5 14.5t-11.5 12.5z" />
    <glyph glyph-name="T" unicode="T" horiz-adv-x="547" 
d="M239 615v-581q0 -16 10.5 -25t23.5 -9q15 0 25 8.5t10 25.5v581h136q17 0 25.5 10.5t8.5 23.5q0 15 -8.5 25t-25.5 10h-341q-17 0 -26 -10.5t-9 -24.5t9.5 -24t25.5 -10h136z" />
    <glyph glyph-name="U" unicode="U" horiz-adv-x="547" 
d="M478 137v512q0 17 -10 26t-24 9t-24 -9.5t-10 -25.5v-512q0 -29 -20 -49t-48 -20h-137q-29 0 -48.5 20t-19.5 49v512q0 17 -10.5 26t-23.5 9q-15 0 -25 -9.5t-10 -25.5v-512q0 -58 40 -98q40 -39 97 -39h137q57 0 96 39q40 40 40 98z" />
    <glyph glyph-name="V" unicode="V" horiz-adv-x="615" 
d="M545 638q1 4 1.5 7t0.5 6q0 14 -10.5 23.5t-24.5 9.5q-10 0 -18.5 -6t-12.5 -18l-173 -512l-173 512q-4 15 -17 21q-8 3 -15 3q-13 0 -24 -9.5t-11 -23.5q0 -3 0.5 -6t1.5 -7l205 -608q11 -29 33 -29q21 0 32 29z" />
    <glyph glyph-name="W" unicode="W" horiz-adv-x="752" 
d="M683 642q1 2 1 8q0 15 -11 24.5t-25 9.5q-26 0 -32 -27l-112 -500l-96 265q-10 28 -32 28t-32 -28l-97 -265l-111 500q-6 27 -33 27q-13 0 -24 -9.5t-11 -23.5q0 -7 1 -9l137 -615q6 -28 33 -28q10 0 19 6.5t13 17.5l105 287l105 -287q9 -24 32 -24q26 0 33 28z" />
    <glyph glyph-name="X" unicode="X" horiz-adv-x="615" 
d="M308 404l-177 264q-10 16 -27 16q-14 0 -25 -10t-11 -24q0 -4 1 -9.5t5 -10.5l192 -288l-192 -289q-6 -9 -6 -19q0 -14 11 -24.5t24 -10.5q18 0 28 16l177 265l176 -265q10 -16 27 -16q15 0 26 10.5t11 23.5t-7 20l-192 289l192 288q7 10 7 19q0 15 -11 25t-25 10
q-19 0 -28 -16z" />
    <glyph glyph-name="Y" unicode="Y" horiz-adv-x="615" 
d="M277 342v-308q0 -16 10 -25t24 -9q15 0 24.5 8.5t9.5 25.5v308l197 285q9 10 9 22q0 15 -11 25t-25 10q-15 0 -25 -12l-179 -264l-179 264q-11 12 -25 12t-25 -10t-11 -25q0 -12 9 -22z" />
    <glyph glyph-name="Z" unicode="Z" horiz-adv-x="615" 
d="M545 630q9 15 9 26q0 28 -38 28h-410q-16 0 -25 -10.5t-9 -24.5t9 -24t25 -10h346l-375 -562q-9 -15 -9 -26q0 -27 38 -27h410q16 0 25 10.5t9 23.5q0 15 -8.5 24.5t-25.5 9.5h-346z" />
    <glyph glyph-name="bracketleft" unicode="[" horiz-adv-x="273" 
d="M175 -68q16 0 25 10t9 24q0 15 -8.5 24.5t-25.5 9.5h-38v684h38q16 0 25 10t9 24q0 15 -8.5 24.5t-25.5 9.5h-72q-35 0 -35 -34v-752q0 -34 35 -34h72z" />
    <glyph glyph-name="backslash" unicode="\" horiz-adv-x="615" 
d="M511 -90l-376 957q-10 22 -31 22q-15 0 -25.5 -9.5t-10.5 -23.5q0 -4 0.5 -7t1.5 -7l376 -957q10 -22 31 -22q15 0 25.5 9.5t10.5 23.5q0 4 -0.5 7t-1.5 7z" />
    <glyph glyph-name="bracketright" unicode="]" horiz-adv-x="273" 
d="M194 -34v752q0 34 -34 34h-73q-16 0 -25 -10.5t-9 -23.5q0 -15 9.5 -24.5t24.5 -9.5h39v-684h-39q-16 0 -25 -10.5t-9 -23.5q0 -15 9.5 -24.5t24.5 -9.5h73q34 0 34 34z" />
    <glyph glyph-name="asciicircum" unicode="^" 
d="M404 807q-31 42 -74 62t-91 20t-91 -21.5t-73 -60.5q-7 -10 -7 -21q0 -14 11 -24.5t24 -10.5q16 0 27 15q20 26 49 40t60 14q32 0 61 -14t49 -40q10 -15 27 -15q14 0 24.5 10.5t10.5 23.5q0 12 -7 22z" />
    <glyph glyph-name="underscore" unicode="_" horiz-adv-x="410" 
d="M410 -105v68h-410v-68h410z" />
    <glyph glyph-name="a" unicode="a" 
d="M342 137q0 -29 -20 -49t-49 -20h-68q-29 0 -48.5 20t-19.5 49v205q0 28 19.5 48t48.5 20h137v-273zM375 45q21 -27 56 -42q7 -4 14 -4q15 0 24.5 11t9.5 25q0 21 -22 30q-21 10 -34 29.5t-13 42.5v307q0 34 -34 34h-171q-57 0 -97 -40t-40 -96v-205q0 -58 40 -98
q40 -39 97 -39h68q30 0 57 12.5t45 32.5z" />
    <glyph glyph-name="b" unicode="b" 
d="M137 410h136q29 0 49 -20t20 -48v-205q0 -29 -20 -49t-49 -20h-136v342zM137 478v171q0 17 -10.5 26t-23.5 9q-15 0 -25 -9.5t-10 -25.5v-615q0 -34 35 -34h170q58 0 97 39q40 40 40 98v205q0 57 -40 97q-39 39 -97 39h-136z" />
    <glyph glyph-name="c" unicode="c" horiz-adv-x="410" 
d="M308 0q16 0 25 10.5t9 23.5q0 15 -8.5 24.5t-25.5 9.5h-103q-29 0 -48.5 20t-19.5 49v205q0 28 19.5 48t48.5 20h103q16 0 25 10.5t9 23.5q0 15 -8.5 24.5t-25.5 9.5h-103q-57 0 -97 -40t-40 -96v-205q0 -58 40 -98q40 -39 97 -39h103z" />
    <glyph glyph-name="d" unicode="d" 
d="M342 410v-342h-137q-29 0 -48.5 20t-19.5 49v205q0 28 19.5 48t48.5 20h137zM342 478h-137q-57 0 -97 -40t-40 -96v-205q0 -58 40 -98q40 -39 97 -39h171q34 0 34 34v615q0 17 -10 26t-24 9t-24 -9.5t-10 -25.5v-171z" />
    <glyph glyph-name="e" unicode="e" 
d="M137 273v69q0 28 19.5 48t48.5 20h68q29 0 49 -20t20 -48v-69h-205zM137 205h239q34 0 34 34v103q0 57 -40 97q-39 39 -97 39h-68q-57 0 -97 -40q-40 -39 -40 -96v-205q0 -58 40 -98q40 -39 97 -39h171q16 0 25 10.5t9 23.5q0 15 -8.5 24.5t-25.5 9.5h-171
q-29 0 -48.5 20t-19.5 49v68z" />
    <glyph glyph-name="f" unicode="f" horiz-adv-x="376" 
d="M171 478v69q0 29 20 48.5t48 19.5h34q17 0 26 10.5t9 23.5q0 15 -9 25t-26 10h-34q-56 0 -96 -40t-40 -97v-69h-35q-16 0 -25 -10t-9 -24t9.5 -24t24.5 -10h35v-376q0 -16 10 -25t24 -9q15 0 24.5 8.5t9.5 25.5v376h102q17 0 26 10.5t9 23.5q0 15 -9 24.5t-26 9.5h-102z
" />
    <glyph glyph-name="g" unicode="g" 
d="M342 68h-137q-29 0 -48.5 20t-19.5 49v205q0 28 19.5 48t48.5 20h137v-342zM342 0v-68q0 -29 -20 -49t-49 -20h-136q-17 0 -25.5 -10t-8.5 -24t9 -24t25 -10h136q58 0 98 40q39 39 39 97v512q0 34 -34 34h-171q-57 0 -97 -40t-40 -96v-205q0 -58 40 -98q40 -39 97 -39
h137z" />
    <glyph glyph-name="h" unicode="h" 
d="M137 478v171q0 17 -10.5 26t-23.5 9q-15 0 -25 -9.5t-10 -25.5v-615q0 -16 10.5 -25t24.5 -9q15 0 24.5 8.5t9.5 25.5v376h136q29 0 49 -20t20 -48v-308q0 -16 10 -25t24 -9q15 0 24.5 8.5t9.5 25.5v308q0 57 -40 97q-39 39 -97 39h-136z" />
    <glyph glyph-name="i" unicode="i" horiz-adv-x="205" 
d="M137 34v410q0 17 -10.5 25.5t-23.5 8.5q-15 0 -25 -9t-10 -25v-410q0 -16 10.5 -25t24.5 -9q15 0 24.5 8.5t9.5 25.5zM68 649q0 -14 10 -24t25 -10q14 0 24 10t10 24q0 15 -10 25t-24 10q-15 0 -25 -10t-10 -25z" />
    <glyph glyph-name="j" unicode="j" horiz-adv-x="205" 
d="M137 -68v512q0 17 -10.5 25.5t-23.5 8.5q-15 0 -25 -9t-10 -25v-512q0 -29 -19.5 -49t-48.5 -20h-34q-17 0 -25.5 -10t-8.5 -24t9 -24t25 -10h34q57 0 97 40q40 39 40 97zM68 649q0 -14 10 -24t25 -10q14 0 24 10t10 24q0 15 -10 25t-24 10q-15 0 -25 -10t-10 -25z" />
    <glyph glyph-name="k" unicode="k" 
d="M137 308v341q0 17 -10.5 26t-23.5 9q-15 0 -25 -9.5t-10 -25.5v-615q0 -16 10.5 -25t24.5 -9q15 0 24.5 8.5t9.5 25.5v188l33 25l179 -233q10 -15 26 -15q14 0 25 10.5t11 23.5q0 11 -8 22l-178 233l171 129q15 10 15 27q0 13 -10.5 24t-23.5 11q-12 0 -22 -7z" />
    <glyph glyph-name="l" unicode="l" horiz-adv-x="273" 
d="M171 0q16 0 25 10.5t9 23.5q0 15 -8.5 24.5t-25.5 9.5q-14 0 -24 10.5t-10 24.5v546q0 17 -10.5 26t-23.5 9q-15 0 -25 -9.5t-10 -25.5v-546q0 -21 8 -40t22.5 -33t33 -22t39.5 -8z" />
    <glyph glyph-name="m" unicode="m" horiz-adv-x="615" 
d="M273 410v-376q0 -16 10.5 -25t24.5 -9q15 0 24.5 8.5t9.5 25.5v376h68q29 0 48.5 -20t19.5 -48v-308q0 -16 10.5 -25t24.5 -9q15 0 24.5 8.5t9.5 25.5v308q0 57 -40 97q-39 39 -97 39h-307q-35 0 -35 -34v-410q0 -16 10.5 -25t24.5 -9q15 0 24.5 8.5t9.5 25.5v376h136z
" />
    <glyph glyph-name="n" unicode="n" 
d="M410 34v308q0 57 -40 97q-39 39 -97 39h-170q-35 0 -35 -34v-410q0 -16 10.5 -25t24.5 -9q15 0 24.5 8.5t9.5 25.5v376h136q29 0 49 -20t20 -48v-308q0 -16 10 -25t24 -9q15 0 24.5 8.5t9.5 25.5z" />
    <glyph glyph-name="o" unicode="o" 
d="M410 150v178q0 62 -44 106t-106 44h-41q-61 0 -107 -44q-44 -44 -44 -106v-178q0 -63 44 -107q44 -43 107 -43h41q63 0 106 43q44 44 44 107zM342 150q0 -34 -24 -58t-58 -24h-41q-34 0 -58 24t-24 58v178q0 34 24 58t58 24h41q34 0 58 -24t24 -58v-178z" />
    <glyph glyph-name="p" unicode="p" 
d="M137 68v342h136q29 0 49 -20t20 -48v-205q0 -29 -20 -49t-49 -20h-136zM137 0h136q58 0 97 39q40 40 40 98v205q0 57 -40 97q-39 39 -97 39h-170q-35 0 -35 -34v-615q0 -16 10.5 -25t24.5 -9q15 0 24.5 8.5t9.5 25.5v171z" />
    <glyph glyph-name="q" unicode="q" 
d="M342 68h-137q-29 0 -48.5 20t-19.5 49v205q0 28 19.5 48t48.5 20h137v-342zM342 0v-171q0 -16 10 -25t24 -9q15 0 24.5 8.5t9.5 25.5v615q0 34 -34 34h-171q-57 0 -97 -40t-40 -96v-205q0 -58 40 -98q40 -39 97 -39h137z" />
    <glyph glyph-name="r" unicode="r" horiz-adv-x="410" 
d="M342 376q0 21 -8 39.5t-22 32.5t-33 22t-40 8h-136q-35 0 -35 -34v-410q0 -16 10.5 -25t24.5 -9q15 0 24.5 8.5t9.5 25.5v376h102q15 0 24.5 -10t9.5 -24q0 -16 10.5 -25t24.5 -9q15 0 24.5 8.5t9.5 25.5z" />
    <glyph glyph-name="s" unicode="s" 
d="M389 441q19 -10 19 -30q0 -14 -9.5 -25t-23.5 -11q-8 0 -16 4q-59 30 -116 30t-96 -27q-10 -7 -10 -20t10 -19l218 -143q22 -14 32 -36t10 -45q0 -24 -10.5 -45t-30.5 -34q-59 -39 -134 -39q-74 0 -141 37q-19 10 -19 29q0 14 10 25t24 11q8 0 18 -5q53 -29 108 -29
q54 0 95 28q12 7 12 23q0 15 -12 23l-218 143q-19 13 -28 33.5t-9 43.5q0 22 10 43t27 32q55 39 134 39q74 0 146 -36z" />
    <glyph glyph-name="t" unicode="t" horiz-adv-x="410" 
d="M205 478v171q0 17 -10 26t-24 9t-24 -9.5t-10 -25.5v-171h-34q-17 0 -26 -10t-9 -24t9.5 -24t25.5 -10h34v-376q0 -16 10 -25t24 -9q15 0 24.5 8.5t9.5 25.5v376h103q16 0 25 10.5t9 23.5q0 15 -8.5 24.5t-25.5 9.5h-103z" />
    <glyph glyph-name="u" unicode="u" 
d="M410 34v410q0 17 -10 25.5t-24 8.5t-24 -9t-10 -25v-376h-137q-29 0 -48.5 20t-19.5 49v307q0 17 -10.5 25.5t-23.5 8.5q-15 0 -25 -9t-10 -25v-307q0 -58 40 -98q40 -39 97 -39h171q34 0 34 34z" />
    <glyph glyph-name="v" unicode="v" 
d="M408 433q1 4 1.5 7t0.5 6q0 14 -10.5 23t-24.5 9q-10 0 -18.5 -5.5t-12.5 -17.5l-105 -314l-104 314q-4 15 -17 21q-10 2 -15 2q-13 0 -24 -9t-11 -23q0 -3 0.5 -6t1.5 -7l137 -410q11 -29 32 -29q10 0 19 7.5t13 21.5z" />
    <glyph glyph-name="w" unicode="w" horiz-adv-x="615" 
d="M546 436l2 9q0 15 -11 24t-25 9q-27 0 -32 -26l-77 -302l-63 170q-10 28 -32 28q-11 0 -19.5 -5.5t-13.5 -20.5l-63 -172l-76 302q-7 26 -33 26q-14 0 -24.5 -9t-10.5 -23q0 -5 1 -10l103 -410q4 -15 13 -23.5t19 -8.5q23 0 33 28l71 188l70 -188q10 -28 33 -28
q25 0 33 32z" />
    <glyph glyph-name="x" unicode="x" 
d="M281 239l124 186q6 10 6 19q0 15 -11 25t-25 10q-18 0 -28 -16l-108 -162l-108 162q-11 15 -27 15q-14 0 -25 -9.5t-11 -23.5q0 -4 1 -9.5t5 -10.5l124 -186l-124 -186q-6 -9 -6 -19q0 -14 11 -24.5t24 -10.5q18 0 28 16l108 162l108 -162q10 -15 28 -15q14 0 25 9.5
t11 23.5q0 12 -6 20z" />
    <glyph glyph-name="y" unicode="y" 
d="M195 3l-36 -116q-8 -24 -30 -24h-33q-17 0 -25.5 -10t-8.5 -24t9 -24t25 -10h34q34 0 60 20t34 52l178 567q2 8 2 12q0 15 -10.5 24t-25.5 9q-25 0 -32 -24l-105 -336l-102 336q-9 24 -33 24q-14 0 -24.5 -9t-10.5 -24q0 -4 2 -12z" />
    <glyph glyph-name="z" unicode="z" 
d="M405 425q9 15 9 26q0 27 -38 27h-273q-17 0 -26 -10t-9 -24t9.5 -24t25.5 -10h209l-238 -357q-10 -14 -10 -26q0 -27 39 -27h273q16 0 25 10.5t9 23.5q0 15 -8.5 24.5t-25.5 9.5h-209z" />
    <glyph glyph-name="braceleft" unicode="{" horiz-adv-x="342" 
d="M245 -68q16 0 24.5 9.5t8.5 23.5t-9 24.5t-26 10.5q-14 0 -23.5 9.5t-9.5 23.5v240q0 20 -7 37t-19 32q26 29 26 67v240q0 13 12 24t22 11q16 0 25 10t9 24q0 15 -8.5 24.5t-25.5 9.5q-32 0 -66 -30q-37 -33 -37 -73v-240q0 -14 -10 -23.5t-24 -9.5q-16 0 -25 -10.5
t-9 -23.5q0 -15 9.5 -24.5t24.5 -9.5t24.5 -10.5t9.5 -24.5v-240q0 -21 8 -39.5t22.5 -32t33.5 -21.5t40 -8z" />
    <glyph glyph-name="bar" unicode="|" horiz-adv-x="376" 
d="M308 34v615q0 17 -10.5 26t-24.5 9t-24 -9.5t-10 -25.5v-615q0 -16 10.5 -25t23.5 -9q15 0 25 8.5t10 25.5zM137 34v615q0 17 -10.5 26t-23.5 9q-15 0 -25 -9.5t-10 -25.5v-615q0 -16 10.5 -25t24.5 -9q15 0 24.5 8.5t9.5 25.5z" />
    <glyph glyph-name="braceright" unicode="}" horiz-adv-x="342" 
d="M240 308q16 0 25 10t9 24q0 15 -8.5 24.5t-25.5 9.5q-14 0 -24 10t-10 23v240q0 38 -38 73q-35 30 -65 30q-16 0 -25 -10.5t-9 -23.5q0 -15 9 -24.5t25 -9.5q10 0 22 -11t12 -24v-240q0 -38 26 -67q-12 -15 -19 -32t-7 -37v-240q0 -14 -9.5 -23.5t-23.5 -9.5
q-17 0 -26 -10.5t-9 -24.5t8.5 -23.5t25.5 -9.5q43 0 73 29t30 72v240q0 14 10 24.5t24 10.5z" />
    <glyph glyph-name="asciitilde" unicode="~" horiz-adv-x="547" 
d="M468 215q10 10 10 24q0 15 -10 25t-24 10q-13 0 -24 -11q-24 -24 -61 -24h-12q-28 3 -50 25q-45 45 -109 45q-31 0 -59 -11.5t-50 -34.5q-11 -11 -11 -23q0 -14 10.5 -24.5t24.5 -10.5q13 0 23 10q28 26 62 26q35 0 61 -26q34 -35 88 -43q6 -1 11.5 -1.5t10.5 -0.5
q30 0 58.5 11.5t50.5 33.5z" />
    <glyph glyph-name="quotedblbase" unicode="&#x201e;" horiz-adv-x="342" 
d="M272 26q1 3 1 9q0 14 -10.5 23.5t-23.5 9.5q-11 0 -21.5 -6t-12.5 -20l-33 -136q-1 -3 -1 -9q0 -14 10.5 -23t24.5 -9q11 0 20 6.5t12 18.5zM135 26q2 6 2 9q0 14 -10.5 23.5t-24.5 9.5q-11 0 -20 -6.5t-12 -19.5l-34 -136q-2 -6 -2 -9q0 -14 10.5 -23t24.5 -9q11 0 20 6
t12 19z" />
    <glyph glyph-name="ellipsis" unicode="&#x2026;" horiz-adv-x="752" 
d="M215 54q0 -26 -15.5 -40.5t-37.5 -14.5q-23 0 -38.5 14.5t-15.5 40.5t16 40t38 14t37.5 -14.5t15.5 -39.5zM431 54q0 -26 -16 -40.5t-38 -14.5t-38 14.5t-16 40.5t16 40t38 14t38 -14.5t16 -39.5zM646 54q0 -26 -16 -40.5t-37 -14.5q-23 0 -38.5 14.5t-15.5 40.5t16 40
t38 14q21 0 37 -14.5t16 -39.5z" />
    <glyph glyph-name="circumflex" unicode="&#x2c6;" horiz-adv-x="684" 
d="M614 252q0 47 -19 75q-22 35 -76 46q-1 1 -7 1q-15 0 -24.5 -10.5t-9.5 -24.5q0 -13 7 -21q3 -5 10 -7.5t15.5 -5.5t16 -7.5t12.5 -11.5q7 -13 7 -34q0 -19 -14.5 -33t-35.5 -14q-15 0 -28 9l-214 142q-18 12 -34 17t-33 5q-51 0 -85 -36q-34 -35 -34 -82v-12
q8 -50 32 -76q22 -23 63 -33q5 -1 9 -1q15 0 24.5 10.5t9.5 25.5q0 26 -27 32q-18 5 -29 16.5t-14 34.5v5q0 19 15 32.5t35 13.5q16 0 30 -9l213 -142q31 -21 65 -21q46 0 83 35q37 34 37 81z" />
    <glyph glyph-name="perthousand" unicode="&#x2030;" horiz-adv-x="1435" 
d="M957 157q0 75 -49 118q-44 39 -108 39q-65 0 -108 -39q-49 -43 -49 -118t49 -118q43 -39 108 -39q64 0 108 39q49 43 49 118zM746 630q7 10 7 19q0 15 -11 25t-25 10q-19 0 -28 -16l-410 -615q-6 -9 -6 -19q0 -14 11 -24.5t24 -10.5q18 0 28 16zM383 526q0 76 -49 119
q-44 39 -108 39q-65 0 -108 -40q-50 -44 -50 -118t50 -118q43 -39 108 -39q64 0 108 39q49 43 49 118zM889 157q0 -42 -28 -67q-25 -22 -61 -22t-62 23q-27 25 -27 66q0 43 28 67q23 22 61 22q36 0 62.5 -23.5t26.5 -65.5zM314 526q0 -42 -28 -67q-23 -22 -60 -22
q-36 0 -62 23q-27 25 -27 66q0 43 28 67q23 22 61 22q36 0 62 -23.5t26 -65.5zM1367 157q0 75 -49 118q-44 39 -108 39q-65 0 -108 -39q-49 -43 -49 -118t49 -118q43 -39 108 -39q64 0 108 39q49 43 49 118zM1299 157q0 -42 -28 -67q-25 -22 -61 -22t-62 23q-27 25 -27 66
q0 43 28 67q25 22 61 22t62.5 -23.5t26.5 -65.5z" />
    <glyph glyph-name="bullet" unicode="&#x2022;" 
d="M239 287l-113 113q-10 10 -23 10q-14 0 -24.5 -10t-10.5 -25q0 -12 11 -23l112 -113l-112 -113q-11 -11 -11 -23q0 -14 10.5 -24.5t24.5 -10.5q12 0 23 11l113 112l113 -112q11 -11 23 -11q15 0 25 10.5t10 24.5q0 13 -10 23l-113 113l113 113q10 10 10 23q0 15 -10 25
t-25 10q-13 0 -23 -10z" />
    <glyph glyph-name="section" unicode="&#xa7;" 
d="M256 193l-91 105q-28 34 -28 77q0 42 24 74t64 42l89 -106q28 -34 28 -77q0 -40 -23.5 -72.5t-62.5 -42.5zM178 547q-52 -23 -81 -69t-29 -103q0 -67 45 -121l190 -221q5 -5 5 -12q0 -8 -3 -12q-6 -9 -17 -9h-49q-43 0 -82 27q-10 7 -21 7q-14 0 -23.5 -10t-9.5 -24
q0 -16 14 -27q56 -41 122 -41h49q38 0 63 26t25 62q0 33 -21 57l-52 60q51 24 79.5 70.5t28.5 100.5q0 67 -45 121l-186 220q-5 8 -5 14q0 8 5.5 14.5t13.5 6.5h45q46 0 83 -28q10 -7 20 -7q15 0 25 11t10 24q0 16 -14 27q-56 41 -124 41h-45q-19 0 -35 -7t-28 -19
t-18.5 -28t-6.5 -34q0 -35 24 -60z" />
    <glyph glyph-name="dieresis" unicode="&#xa8;" 
d="M137 410v205h240q16 0 25 10.5t9 23.5q0 15 -8.5 25t-25.5 10h-274q-35 0 -35 -35v-617q0 -32 35 -32h274q16 0 25 10.5t9 23.5q0 15 -8.5 24.5t-25.5 9.5h-240v274h171q17 0 25.5 10t8.5 24q0 15 -8.5 24.5t-25.5 9.5h-171zM103 820q0 -15 10 -25t25 -10t25.5 10
t10.5 25t-10.5 25.5t-25.5 10.5t-25 -10.5t-10 -25.5zM308 820q0 -14 9.5 -24t24.5 -10q14 0 24 10t10 24q0 15 -10 24.5t-24 9.5q-15 0 -24.5 -9.5t-9.5 -24.5z" />
    <glyph glyph-name="guillemotleft" unicode="&#xab;" horiz-adv-x="547" 
d="M271 118l-118 121l118 121q7 8 7 20q0 14 -11 24.5t-24 10.5q-16 0 -27 -14l-133 -141q-7 -10 -7 -21q0 -12 7 -20l133 -142q11 -14 27 -14q13 0 24 10t11 24q0 13 -7 21zM455 118l-117 121l117 121q8 10 8 20q0 14 -11 24.5t-25 10.5q-15 0 -26 -14l-134 -141
q-7 -10 -7 -21q0 -12 7 -20l134 -142q11 -14 26 -14q14 0 25 10t11 24q0 11 -8 21z" />
    <glyph glyph-name="logicalnot" unicode="&#xac;" horiz-adv-x="547" 
d="M479 215v127q0 34 -34 34h-342q-17 0 -26 -10.5t-9 -23.5q0 -15 9.5 -24.5t25.5 -9.5h308v-93q0 -17 10 -26t24 -9q15 0 24.5 9t9.5 26z" />
    <glyph glyph-name="plusminus" unicode="&#xb1;" 
d="M376 68q16 0 25 10.5t9 24.5q0 15 -8.5 24.5t-25.5 9.5h-273q-17 0 -26 -10.5t-9 -23.5q0 -15 9.5 -25t25.5 -10h273zM273 376h103q16 0 25 10t9 24q0 15 -8.5 24.5t-25.5 9.5h-103v103q0 16 -10 25t-24 9t-24 -9t-10 -25v-103h-102q-17 0 -26 -10t-9 -24t9.5 -24
t25.5 -10h102v-103q0 -16 10.5 -25t23.5 -9q15 0 24.5 8.5t9.5 25.5v103z" />
    <glyph glyph-name="paragraph" unicode="&#xb6;" horiz-adv-x="615" 
d="M513 615q16 0 25 10.5t9 23.5q0 15 -8.5 25t-25.5 10h-234q-103 0 -160 -62q-51 -57 -51 -150q0 -79 50 -138q51 -59 127 -69v-436q0 -16 10 -25t24 -9q15 0 24.5 8.5t9.5 25.5v786h84v-786q0 -16 10.5 -25t23.5 -9q15 0 24.5 8.5t9.5 25.5v786h48z" />
    <glyph glyph-name="cedilla" unicode="&#xb8;" 
d="M137 273v69q0 28 19.5 48t48.5 20h68q29 0 49 -20t20 -48v-69h-205zM137 205h239q34 0 34 34v103q0 57 -40 97q-39 39 -97 39h-68q-57 0 -97 -40q-40 -39 -40 -96v-205q0 -58 40 -98q40 -39 97 -39h171q16 0 25 10.5t9 23.5q0 15 -8.5 24.5t-25.5 9.5h-171
q-29 0 -48.5 20t-19.5 49v68zM103 649q0 -15 10 -25t25 -10t25.5 10t10.5 25t-10.5 25.5t-25.5 10.5t-25 -10.5t-10 -25.5zM308 649q0 -14 9.5 -24t24.5 -10q14 0 24 10t10 24q0 15 -10 25t-24 10q-15 0 -24.5 -10t-9.5 -25z" />
    <glyph glyph-name="guillemotright" unicode="&#xbb;" horiz-adv-x="547" 
d="M457 219q8 10 8 20t-8 21l-133 141q-11 14 -27 14q-13 0 -24 -10.5t-11 -23.5t7 -21l118 -121l-118 -121q-7 -8 -7 -20q0 -15 11 -25t24 -10q16 0 27 14zM273 219q7 8 7 20q0 11 -7 21l-134 141q-11 14 -26 14q-14 0 -25 -10.5t-11 -23.5q0 -11 8 -21l117 -121l-117 -121
q-8 -10 -8 -20q0 -15 11 -25t25 -10q15 0 26 14z" />
    <glyph glyph-name="Agrave" unicode="&#xc0;" horiz-adv-x="615" 
d="M188 172h248l49 -148q4 -15 17 -21q10 -2 15 -2q13 0 24 9t11 23q0 5 -2 13l-206 615q-9 29 -32 29q-21 0 -32 -29l-205 -615q-3 -6 -3 -13q0 -14 11 -23t24 -9q25 0 32 23zM413 241h-202l101 302z" />
    <glyph glyph-name="Aacute" unicode="&#xc1;" horiz-adv-x="547" 
d="M137 342h205q28 0 48 -20t20 -49v-136q0 -29 -20 -49t-48 -20h-205v274zM137 410v205h239q16 0 25 10.5t9 23.5q0 15 -8.5 25t-25.5 10h-273q-35 0 -35 -35v-615q0 -34 35 -34h239q57 0 96 39q40 40 40 98v136q0 58 -40 98q-39 39 -96 39h-205z" />
    <glyph glyph-name="Acircumflex" unicode="&#xc2;" horiz-adv-x="547" 
d="M413 390q31 37 31 88v69q0 57 -40 97q-39 40 -96 40h-205q-35 0 -35 -35v-615q0 -34 35 -34h239q57 0 96 39q40 40 40 98v136q0 38 -17 68.5t-48 48.5zM137 342h205q28 0 48 -20t20 -49v-136q0 -29 -20 -49t-48 -20h-205v274zM308 410h-171v205h171q28 0 48 -19.5
t20 -48.5v-69q0 -28 -20 -48t-48 -20z" />
    <glyph glyph-name="Atilde" unicode="&#xc3;" 
d="M376 615q16 0 25 10.5t9 23.5q0 15 -8.5 25t-25.5 10h-273q-35 0 -35 -35v-615q0 -16 10.5 -25t24.5 -9q15 0 24.5 8.5t9.5 25.5v581h239z" />
    <glyph glyph-name="Adieresis" unicode="&#xc4;" horiz-adv-x="615" 
d="M140 68h-37q-35 0 -35 -34v-68q0 -17 10.5 -25.5t24.5 -8.5q15 0 24.5 8.5t9.5 25.5v34h341v-34q0 -17 10.5 -25.5t24.5 -8.5q15 0 24.5 8.5t9.5 25.5v68q0 34 -34 34h-35v581q0 35 -34 35h-205q-31 0 -34 -31zM410 68h-202l62 547h140v-547z" />
    <glyph glyph-name="Aring" unicode="&#xc5;" 
d="M137 410v205h240q16 0 25 10.5t9 23.5q0 15 -8.5 25t-25.5 10h-274q-35 0 -35 -35v-617q0 -32 35 -32h274q16 0 25 10.5t9 23.5q0 15 -8.5 24.5t-25.5 9.5h-240v274h171q17 0 25.5 10t8.5 24q0 15 -8.5 24.5t-25.5 9.5h-171z" />
    <glyph glyph-name="AE" unicode="&#xc6;" horiz-adv-x="684" 
d="M376 416v233q0 17 -10.5 26t-23.5 9q-15 0 -24.5 -9.5t-9.5 -25.5v-233l-177 253q-11 15 -28 15q-13 0 -24 -10t-11 -24q0 -12 7 -20l179 -256l-182 -323q-4 -8 -4 -18q0 -14 11 -23.5t24 -9.5q19 0 30 18l175 312v-296q0 -16 10 -25t24 -9q15 0 24.5 8.5t9.5 25.5v296
l175 -312q10 -18 29 -18q14 0 25 9.5t11 23.5q0 8 -5 18l-181 323l179 256q7 8 7 19q0 15 -11 25t-25 10q-7 0 -14.5 -3.5t-12.5 -11.5z" />
    <glyph glyph-name="Ccedilla" unicode="&#xc7;" 
d="M273 342q35 0 53 -21q16 -17 16 -48v-136q0 -29 -20 -49t-49 -20h-68q-23 0 -40 13q-18 15 -25 35q-8 23 -31 23q-15 0 -25.5 -9t-10.5 -24q0 -4 2 -12q14 -42 49.5 -68t80.5 -26h68q58 0 97 39q40 40 40 98v136q0 63 -46 103q22 19 34 45.5t12 56.5v69q0 57 -40 97
q-39 40 -97 40h-68q-45 0 -80.5 -26t-49.5 -68q-2 -8 -2 -12q0 -15 11 -24.5t25 -9.5q10 0 19 6.5t13 17.5q7 21 24.5 34t39.5 13h68q29 0 49 -19.5t20 -48.5v-69q0 -28 -20 -48t-49 -20h-102q-17 0 -25.5 -10t-8.5 -24t9 -24t25 -10h102z" />
    <glyph glyph-name="Egrave" unicode="&#xc8;" horiz-adv-x="547" 
d="M478 34v615q0 19 -9 29.5t-22 10.5q-9 0 -18 -6t-15 -17l-277 -500v483q0 17 -10.5 26t-23.5 9q-15 0 -25 -9.5t-10 -25.5v-615q0 -18 9.5 -28.5t22.5 -10.5q19 0 33 23l277 499v-483q0 -16 10.5 -25t23.5 -9q15 0 24.5 8.5t9.5 25.5z" />
    <glyph glyph-name="Eacute" unicode="&#xc9;" horiz-adv-x="547" 
d="M342 752q16 0 25 10t9 24q0 15 -8.5 24.5t-25.5 9.5h-137q-16 0 -25 -10t-9 -24t9 -24t25 -10h137zM478 34v615q0 19 -9 29.5t-22 10.5q-9 0 -18 -6t-15 -17l-277 -500v483q0 17 -10.5 26t-23.5 9q-15 0 -25 -9.5t-10 -25.5v-615q0 -18 9.5 -28.5t22.5 -10.5q19 0 33 23
l277 499v-483q0 -16 10.5 -25t23.5 -9q15 0 24.5 8.5t9.5 25.5z" />
    <glyph glyph-name="Ecircumflex" unicode="&#xca;" horiz-adv-x="547" 
d="M137 388v261q0 16 -10.5 25t-23.5 9q-14 0 -24.5 -9t-10.5 -25v-615q0 -16 10.5 -25t24.5 -9q15 0 24.5 8.5t9.5 25.5v261l81 80l200 -357q10 -19 29 -19q14 0 25 9.5t11 24.5q0 8 -5 18l-209 371l203 203q11 11 11 24q0 14 -10.5 24.5t-24.5 10.5q-13 0 -24 -11z" />
    <glyph glyph-name="Edieresis" unicode="&#xcb;" horiz-adv-x="547" 
d="M478 34v615q0 35 -34 35h-171q-24 0 -32 -26l-171 -615q-2 -4 -2 -10q0 -15 10.5 -24t24.5 -9q11 0 20.5 5.5t11.5 19.5l164 590h111v-581q0 -16 10.5 -25t23.5 -9q15 0 24.5 8.5t9.5 25.5z" />
    <glyph glyph-name="Igrave" unicode="&#xcc;" horiz-adv-x="615" 
d="M548 34v612q0 18 -9.5 29t-21.5 11q-20 0 -33 -22l-176 -294l-176 294q-13 22 -32 22q-13 0 -22.5 -11t-9.5 -29v-612q0 -16 10.5 -25t24.5 -9q15 0 24.5 8.5t9.5 25.5v488l142 -236q13 -22 29 -22q17 0 30 22l141 236v-488q0 -16 10.5 -25t23.5 -9q15 0 25 8.5t10 25.5z
" />
    <glyph glyph-name="Iacute" unicode="&#xcd;" horiz-adv-x="547" 
d="M410 410h-273v239q0 17 -10.5 26t-23.5 9q-15 0 -25 -9.5t-10 -25.5v-615q0 -16 10.5 -25t24.5 -9q15 0 24.5 8.5t9.5 25.5v308h273v-308q0 -16 10 -24.5t24 -8.5q13 0 23.5 9t10.5 26v615q0 16 -10 25t-24 9t-24 -9.5t-10 -24.5v-241z" />
    <glyph glyph-name="Icircumflex" unicode="&#xce;" horiz-adv-x="602" 
d="M478 137v410q0 57 -40 97q-39 40 -96 40h-137q-57 0 -97 -40t-40 -97v-410q0 -58 40 -98q40 -39 97 -39h137q57 0 96 39q40 40 40 98zM410 137q0 -29 -20 -49t-48 -20h-137q-29 0 -48.5 20t-19.5 49v410q0 29 19.5 48.5t48.5 19.5h137q28 0 48 -19.5t20 -48.5v-410z" />
    <glyph glyph-name="Idieresis" unicode="&#xcf;" horiz-adv-x="547" 
d="M478 34v615q0 35 -34 35h-341q-35 0 -35 -35v-615q0 -16 10.5 -25t24.5 -9q15 0 24.5 8.5t9.5 25.5v581h273v-581q0 -16 10.5 -25t23.5 -9q15 0 24.5 8.5t9.5 25.5z" />
    <glyph glyph-name="Ntilde" unicode="&#xd1;" 
d="M376 0q16 0 25 10.5t9 23.5q0 15 -8.5 24.5t-25.5 9.5h-171q-29 0 -48.5 20t-19.5 49v410q0 29 19.5 48.5t48.5 19.5h171q16 0 25 10.5t9 23.5q0 15 -8.5 25t-25.5 10h-171q-57 0 -97 -40t-40 -97v-410q0 -58 40 -98q40 -39 97 -39h171z" />
    <glyph glyph-name="Ograve" unicode="&#xd2;" horiz-adv-x="547" 
d="M239 615v-581q0 -16 10.5 -25t23.5 -9q15 0 25 8.5t10 25.5v581h136q17 0 25.5 10.5t8.5 23.5q0 15 -8.5 25t-25.5 10h-341q-17 0 -26 -10.5t-9 -24.5t9.5 -24t25.5 -10h136z" />
    <glyph glyph-name="Oacute" unicode="&#xd3;" horiz-adv-x="547" 
d="M410 273v-136q0 -29 -20 -49t-48 -20h-171q-17 0 -25.5 -10t-8.5 -24t9 -24t25 -10h171q57 0 96 39q40 40 40 98v512q0 17 -10 26t-24 9t-24 -9.5t-10 -25.5v-307h-205q-29 0 -48.5 19.5t-19.5 48.5v239q0 17 -10.5 26t-23.5 9q-15 0 -25 -9.5t-10 -25.5v-239
q0 -57 40 -97t97 -40h205z" />
    <glyph glyph-name="Ocircumflex" unicode="&#xd4;" horiz-adv-x="684" 
d="M376 513h34q57 0 97 -40t40 -97v-34q0 -57 -40 -97t-97 -40h-34v308zM308 205h-35q-56 0 -96 40t-40 97v34q0 57 40 97t96 40h35v-308zM308 137v-103q0 -16 10 -25t24 -9q15 0 24.5 8.5t9.5 25.5v103h34q86 0 145 59q60 60 60 146v34q0 85 -60 145q-59 60 -145 60h-34v68
q0 17 -10.5 26t-23.5 9q-15 0 -24.5 -9.5t-9.5 -25.5v-68h-35q-85 0 -145 -60t-60 -145v-34q0 -86 60 -146q61 -59 145 -59h35z" />
    <glyph glyph-name="Otilde" unicode="&#xd5;" horiz-adv-x="615" 
d="M308 404l-177 264q-10 16 -27 16q-14 0 -25 -10t-11 -24q0 -4 1 -9.5t5 -10.5l192 -288l-192 -289q-6 -9 -6 -19q0 -14 11 -24.5t24 -10.5q18 0 28 16l177 265l176 -265q10 -16 27 -16q15 0 26 10.5t11 23.5t-7 20l-192 289l192 288q7 10 7 19q0 15 -11 25t-25 10
q-19 0 -28 -16z" />
    <glyph glyph-name="Odieresis" unicode="&#xd6;" horiz-adv-x="615" 
d="M410 68h-273v581q0 17 -10.5 26t-23.5 9q-15 0 -25 -9.5t-10 -25.5v-615q0 -34 35 -34h375v-68q0 -17 10.5 -26t24.5 -9q15 0 24.5 9t9.5 26v102q0 34 -34 34h-35v581q0 17 -10 26t-24 9t-24 -9.5t-10 -25.5v-581z" />
    <glyph glyph-name="Oslash" unicode="&#xd8;" horiz-adv-x="684" 
d="M376 68v581q0 17 -10.5 26t-23.5 9q-15 0 -24.5 -9.5t-9.5 -25.5v-581h-171v581q0 17 -10.5 26t-23.5 9q-15 0 -25 -9.5t-10 -25.5v-615q0 -34 35 -34h478q34 0 34 34v615q0 17 -10 26t-24 9t-24 -9.5t-10 -25.5v-581h-171z" />
    <glyph glyph-name="Ugrave" unicode="&#xd9;" horiz-adv-x="752" 
d="M615 0v-68q0 -17 10.5 -26t23.5 -9q15 0 25 9t10 26v102q0 34 -35 34h-34v581q0 17 -10 26t-24 9t-24 -9.5t-10 -25.5v-581h-171v581q0 17 -10.5 26t-23.5 9q-15 0 -24.5 -9.5t-9.5 -25.5v-581h-171v581q0 17 -10.5 26t-23.5 9q-15 0 -25 -9.5t-10 -25.5v-615
q0 -34 35 -34h512z" />
    <glyph glyph-name="Uacute" unicode="&#xda;" horiz-adv-x="684" 
d="M273 342h205q29 0 49 -20t20 -49v-136q0 -29 -20 -49t-49 -20h-205v274zM273 410v239q0 35 -34 35h-136q-17 0 -26 -10.5t-9 -24.5t9.5 -24t25.5 -10h102v-581q0 -34 34 -34h239q58 0 97 39q40 40 40 98v136q0 58 -40 98q-39 39 -97 39h-205z" />
    <glyph glyph-name="Ucircumflex" unicode="&#xdb;" horiz-adv-x="615" 
d="M547 34v615q0 17 -10.5 26t-23.5 9q-15 0 -25 -9.5t-10 -25.5v-615q0 -16 10.5 -25t24.5 -9q15 0 24.5 8.5t9.5 25.5zM137 342h136q29 0 49 -20t20 -49v-136q0 -29 -20 -49t-49 -20h-136v274zM137 410v239q0 17 -10.5 26t-23.5 9q-15 0 -25 -9.5t-10 -25.5v-615
q0 -34 35 -34h170q58 0 97 39q40 40 40 98v136q0 58 -40 98q-39 39 -97 39h-136z" />
    <glyph glyph-name="Udieresis" unicode="&#xdc;" horiz-adv-x="547" 
d="M137 342v-274h205q28 0 48 20t20 49v136q0 29 -20 49t-48 20h-205zM137 410h205q57 0 97 -40q39 -39 39 -97v-136q0 -58 -40 -98q-39 -39 -96 -39h-239q-35 0 -35 34v615q0 17 10.5 26t24.5 9t24 -9.5t10 -25.5v-239z" />
    <glyph glyph-name="germandbls" unicode="&#xdf;" horiz-adv-x="547" 
d="M410 342h-205q-29 0 -48.5 19.5t-19.5 48.5v137q0 29 19.5 48.5t48.5 19.5h205v-273zM293 273h117v-239q0 -16 10.5 -25t23.5 -9q15 0 24.5 8.5t9.5 25.5v615q0 35 -34 35h-239q-57 0 -97 -40t-40 -97v-137q0 -57 40 -97t97 -40h7l-138 -220q-6 -9 -6 -19q0 -14 11 -24.5
t25 -10.5q16 0 27 17z" />
    <glyph glyph-name="agrave" unicode="&#xe0;" 
d="M342 137q0 -29 -20 -49t-49 -20h-68q-29 0 -48.5 20t-19.5 49v205q0 28 19.5 48t48.5 20h137v-273zM375 45q21 -27 56 -42q7 -4 14 -4q15 0 24.5 11t9.5 25q0 21 -22 30q-21 10 -34 29.5t-13 42.5v307q0 34 -34 34h-171q-57 0 -97 -40t-40 -96v-205q0 -58 40 -98
q40 -39 97 -39h68q30 0 57 12.5t45 32.5z" />
    <glyph glyph-name="aacute" unicode="&#xe1;" 
d="M342 137q0 -29 -20 -49t-49 -20h-68q-29 0 -48.5 20t-19.5 49v205q0 28 19.5 48t48.5 20h68q29 0 49 -20t20 -48v-205zM232 478h-27q-57 0 -97 -40t-40 -96v-205q0 -58 40 -98q40 -39 97 -39h68q58 0 97 39q40 40 40 98v205q0 51 -33 89l-8 11l-181 173h188q16 0 25 10.5
t9 23.5q0 15 -8.5 25t-25.5 10h-273q-19 0 -28 -9t-9 -22q0 -16 13 -28z" />
    <glyph glyph-name="acircumflex" unicode="&#xe2;" 
d="M342 137q0 -29 -20 -49t-49 -20h-68q-29 0 -48.5 20t-19.5 49v205q0 28 19.5 48t48.5 20h68q29 0 49 -20t20 -48v-205zM137 455v105q0 26 16 40t38 14t38.5 -14t16.5 -40q0 -17 -13 -33q-7 -9 -28 -25q-7 -5 -17 -12.5t-23 -16.5q-5 -4 -12 -8.5t-16 -9.5zM273 476
q22 15 31.5 34.5t9.5 50.5q0 57 -38 92q-34 31 -84 31q-51 0 -85 -31q-39 -35 -39 -93v-423q0 -58 40 -98q40 -39 97 -39h68q58 0 97 39q40 40 40 98v205q0 60 -34 95q-38 39 -103 39z" />
    <glyph glyph-name="atilde" unicode="&#xe3;" 
d="M392 31q19 10 19 29q0 15 -9.5 25.5t-24.5 10.5q-10 0 -17 -4q-25 -14 -51.5 -19t-60.5 -5q-18 0 -40.5 2t-37.5 4q-14 3 -22.5 13.5t-8.5 23.5q0 15 12 26l218 151q39 33 39 76v1q0 24 -12 44.5t-34 35t-52 22.5t-66 8h-12q-43 0 -84.5 -10t-65.5 -28q-14 -11 -14 -26
t10 -25.5t24 -10.5q10 0 21 8q35 25 103 25q44 0 77 -10q35 -11 35 -36q0 -10 -11 -21l-218 -150q-19 -16 -28 -37t-9 -44q0 -38 22.5 -67t64.5 -35q19 -4 40.5 -6.5t47.5 -2.5q40 0 77.5 8t67.5 24z" />
    <glyph glyph-name="adieresis" unicode="&#xe4;" 
d="M342 410v-273q0 -29 -20 -49t-49 -20h-68q-29 0 -48.5 20t-19.5 49v205q0 28 19.5 48t48.5 20h137zM342 478h-137q-57 0 -97 -40t-40 -96v-205q0 -58 40 -98q40 -39 97 -39h68q58 0 97 39q40 40 40 98v410q0 57 -40 97q-39 40 -97 40h-136q-17 0 -25.5 -10.5t-8.5 -24.5
t9 -24t25 -10h136q29 0 49 -19.5t20 -48.5v-69z" />
    <glyph glyph-name="aring" unicode="&#xe5;" 
d="M137 273v69q0 28 19.5 48t48.5 20h68q29 0 49 -20t20 -48v-69h-205zM137 205h239q34 0 34 34v103q0 57 -40 97q-39 39 -97 39h-68q-57 0 -97 -40q-40 -39 -40 -96v-205q0 -58 40 -98q40 -39 97 -39h171q16 0 25 10.5t9 23.5q0 15 -8.5 24.5t-25.5 9.5h-171
q-29 0 -48.5 20t-19.5 49v68z" />
    <glyph glyph-name="ae" unicode="&#xe6;" horiz-adv-x="615" 
d="M351 273h-16v171q0 17 -10.5 25.5t-23.5 8.5q-15 0 -24.5 -9t-9.5 -25v-171h-16l-127 190q-10 16 -27 16q-14 0 -25 -10t-11 -24q0 -10 6 -20l124 -186l-124 -186q-6 -9 -6 -19q0 -14 11 -24.5t24 -10.5q18 0 28 16l127 190h16v-171q0 -16 10 -25t24 -9q15 0 24.5 8.5
t9.5 25.5v171h16l126 -190q10 -16 27 -16q15 0 26 10.5t11 23.5q0 12 -6 20l-124 186l124 186q6 10 6 19q0 15 -11 25t-25 10q-17 0 -28 -16z" />
    <glyph glyph-name="ccedilla" unicode="&#xe7;" horiz-adv-x="444" 
d="M248 205q28 -3 45 -23q15 -18 15 -45q0 -28 -18 -48.5t-51 -20.5h-34q-47 0 -82 28q-11 8 -21 8q-14 0 -24 -11t-10 -25q0 -16 14 -27q53 -41 123 -41h34q65 0 103 42q34 38 34 94q0 29 -11 56.5t-32 46.5q43 40 43 103q0 57 -34 94q-38 42 -103 42h-34q-70 0 -123 -41
q-14 -11 -14 -26t10 -25.5t24 -10.5q10 0 21 8q36 27 82 27h34q34 0 52 -21q17 -20 17 -47q0 -28 -18.5 -48.5t-50.5 -20.5h-34q-16 0 -25 -10t-9 -24t9 -24t25 -10h43z" />
    <glyph glyph-name="egrave" unicode="&#xe8;" 
d="M410 34v410q0 17 -10 25.5t-24 8.5t-24 -9t-10 -25v-376h-137q-29 0 -48.5 20t-19.5 49v307q0 17 -10.5 25.5t-23.5 8.5q-15 0 -25 -9t-10 -25v-307q0 -58 40 -98q40 -39 97 -39h171q34 0 34 34z" />
    <glyph glyph-name="eacute" unicode="&#xe9;" 
d="M308 615q16 0 25 10.5t9 23.5q0 15 -8.5 25t-25.5 10h-137q-17 0 -25.5 -10.5t-8.5 -24.5t9 -24t25 -10h137zM410 34v410q0 17 -10 25.5t-24 8.5t-24 -9t-10 -25v-376h-137q-29 0 -48.5 20t-19.5 49v307q0 17 -10.5 25.5t-23.5 8.5q-15 0 -25 -9t-10 -25v-307
q0 -58 40 -98q40 -39 97 -39h171q34 0 34 34z" />
    <glyph glyph-name="ecircumflex" unicode="&#xea;" 
d="M206 224l137 -212q9 -13 25 -13q13 0 24 9.5t11 24.5q0 10 -8 23l-141 218l138 144q11 13 11 26q0 15 -10.5 26t-24.5 11q-12 0 -21 -11l-217 -227v201q0 17 -10.5 25.5t-23.5 8.5q-15 0 -24.5 -9t-9.5 -25v-410q0 -16 10 -25t24 -9q15 0 24.5 8.5t9.5 25.5v110z" />
    <glyph glyph-name="edieresis" unicode="&#xeb;" 
d="M410 34v410q0 34 -34 34h-137q-25 0 -33 -23l-135 -410q-2 -8 -2 -12q0 -15 10.5 -24t24.5 -9q10 0 18.5 6t12.5 17l128 387h79v-376q0 -16 10 -25t24 -9q15 0 24.5 8.5t9.5 25.5z" />
    <glyph glyph-name="igrave" unicode="&#xec;" horiz-adv-x="547" 
d="M478 34q0 -16 -10 -25t-24 -9q-15 0 -24.5 8.5t-9.5 25.5v304l-109 -153q-14 -18 -28 -18q-15 0 -28 18l-108 153v-304q0 -16 -10.5 -25t-23.5 -9q-16 0 -25.5 8.5t-9.5 25.5v410q0 19 8.5 29.5t21.5 10.5q19 0 33 -20l142 -200l143 200q15 20 32 20q13 0 21.5 -10.5
t8.5 -29.5v-410z" />
    <glyph glyph-name="iacute" unicode="&#xed;" 
d="M342 273h-205v171q0 17 -10.5 25.5t-23.5 8.5q-15 0 -25 -9t-10 -25v-410q0 -16 10.5 -25t24.5 -9q15 0 24.5 8.5t9.5 25.5v171h205v-171q0 -16 10 -25t24 -9q15 0 24.5 8.5t9.5 25.5v410q0 17 -10 25.5t-24 8.5t-24 -9t-10 -25v-171z" />
    <glyph glyph-name="icircumflex" unicode="&#xee;" 
d="M410 150v178q0 62 -44 106t-106 44h-41q-61 0 -107 -44q-44 -44 -44 -106v-178q0 -63 44 -107q44 -43 107 -43h41q63 0 106 43q44 44 44 107zM342 150q0 -34 -24 -58t-58 -24h-41q-34 0 -58 24t-24 58v178q0 34 24 58t58 24h41q34 0 58 -24t24 -58v-178z" />
    <glyph glyph-name="idieresis" unicode="&#xef;" 
d="M410 34v308q0 57 -41 96q-40 40 -96 40h-170q-35 0 -35 -34v-410q0 -16 10.5 -25t24.5 -9q15 0 24.5 8.5t9.5 25.5v376h136q29 0 49 -20t20 -48v-308q0 -16 10 -25t24 -9q15 0 24.5 8.5t9.5 25.5z" />
    <glyph glyph-name="ntilde" unicode="&#xf1;" horiz-adv-x="410" 
d="M308 0q16 0 25 10.5t9 23.5q0 15 -8.5 24.5t-25.5 9.5h-103q-29 0 -48.5 20t-19.5 49v205q0 28 19.5 48t48.5 20h103q16 0 25 10.5t9 23.5q0 15 -8.5 24.5t-25.5 9.5h-103q-57 0 -97 -40t-40 -96v-205q0 -58 40 -98q40 -39 97 -39h103z" />
    <glyph glyph-name="ograve" unicode="&#xf2;" horiz-adv-x="615" 
d="M273 410v-376q0 -16 10.5 -25t24.5 -9q15 0 24.5 8.5t9.5 25.5v376h68q29 0 48.5 -20t19.5 -48v-308q0 -16 10.5 -25t24.5 -9q15 0 24.5 8.5t9.5 25.5v308q0 57 -40 97q-39 39 -97 39h-307q-35 0 -35 -34v-410q0 -16 10.5 -25t24.5 -9q15 0 24.5 8.5t9.5 25.5v376h136z
" />
    <glyph glyph-name="oacute" unicode="&#xf3;" 
d="M342 0v-68q0 -29 -20 -49t-49 -20h-136q-17 0 -25.5 -10t-8.5 -24t9 -24t25 -10h136q58 0 98 40q39 39 39 97v512q0 17 -10 25.5t-24 8.5t-24 -9t-10 -25v-376h-137q-29 0 -48.5 20t-19.5 49v307q0 17 -10.5 25.5t-23.5 8.5q-15 0 -25 -9t-10 -25v-307q0 -58 40 -98
q40 -39 97 -39h137z" />
    <glyph glyph-name="ocircumflex" unicode="&#xf4;" horiz-adv-x="615" 
d="M342 410q56 0 96 -40t40 -97v-68q0 -57 -40 -97q-39 -40 -96 -40v342zM273 68q-56 0 -96 40t-40 97v68q0 57 40 97t96 40v-342zM342 478v103q0 16 -10.5 25t-23.5 9q-15 0 -25 -9t-10 -25v-103q-85 0 -145 -60q-60 -59 -60 -145v-68q0 -85 60 -145t145 -60v-171
q0 -16 10.5 -25t24.5 -9q15 0 24.5 8.5t9.5 25.5v171q85 0 145 60t60 145v68q0 87 -60 146q-59 59 -145 59z" />
    <glyph glyph-name="otilde" unicode="&#xf5;" 
d="M281 239l124 186q6 10 6 19q0 15 -11 25t-25 10q-18 0 -28 -16l-108 -162l-108 162q-11 15 -27 15q-14 0 -25 -9.5t-11 -23.5q0 -4 1 -9.5t5 -10.5l124 -186l-124 -186q-6 -9 -6 -19q0 -14 11 -24.5t24 -10.5q18 0 28 16l108 162l108 -162q10 -15 28 -15q14 0 25 9.5
t11 23.5q0 12 -6 20z" />
    <glyph glyph-name="odieresis" unicode="&#xf6;" horiz-adv-x="547" 
d="M342 68h-137q-29 0 -48.5 20t-19.5 49v307q0 17 -10.5 25.5t-23.5 8.5q-15 0 -25 -9t-10 -25v-307q0 -58 40 -98q40 -39 97 -39h205v-27q0 -17 10.5 -26t23.5 -9q15 0 24.5 9t9.5 26v61q0 34 -34 34h-34v376q0 17 -10 25.5t-24 8.5t-24 -9t-10 -25v-376z" />
    <glyph glyph-name="divide" unicode="&#xf7;" 
d="M342 273h-137q-29 0 -48.5 20t-19.5 49v102q0 17 -10.5 25.5t-23.5 8.5q-15 0 -25 -9t-10 -25v-102q0 -58 40 -98q40 -39 97 -39h137v-171q0 -16 10 -25t24 -9q15 0 24.5 8.5t9.5 25.5v410q0 17 -10 25.5t-24 8.5t-24 -9t-10 -25v-171z" />
    <glyph glyph-name="oslash" unicode="&#xf8;" horiz-adv-x="615" 
d="M342 68v376q0 17 -10.5 25.5t-23.5 8.5q-15 0 -25 -9t-10 -25v-376h-68q-29 0 -48.5 20t-19.5 49v307q0 17 -10.5 25.5t-23.5 8.5q-15 0 -25 -9t-10 -25v-307q0 -58 40 -98q40 -39 97 -39h308q34 0 34 34v410q0 17 -10.5 25.5t-23.5 8.5q-15 0 -25 -9t-10 -25v-376h-136z
" />
    <glyph glyph-name="ugrave" unicode="&#xf9;" horiz-adv-x="684" 
d="M342 68v376q0 17 -10.5 25.5t-23.5 8.5q-15 0 -25 -9t-10 -25v-376h-68q-29 0 -48.5 20t-19.5 49v307q0 17 -10.5 25.5t-23.5 8.5q-15 0 -25 -9t-10 -25v-307q0 -58 40 -98q40 -39 97 -39h342v-34q0 -17 10 -25.5t24 -8.5q15 0 24.5 8.5t9.5 25.5v68q0 34 -34 34h-34v376
q0 17 -10.5 25.5t-23.5 8.5q-15 0 -25 -9t-10 -25v-376h-136z" />
    <glyph glyph-name="uacute" unicode="&#xfa;" horiz-adv-x="513" 
d="M171 205h137q32 0 52 -21q16 -19 16 -47t-18 -48.5t-50 -20.5h-137v137zM171 273v171q0 34 -34 34h-69q-16 0 -25 -10t-9 -24t9.5 -24t24.5 -10h35v-376q0 -34 34 -34h171q66 0 103 43q33 37 33 94t-34 94q-38 42 -102 42h-137z" />
    <glyph glyph-name="ucircumflex" unicode="&#xfb;" horiz-adv-x="547" 
d="M478 34v410q0 17 -10 25.5t-24 8.5t-24 -9t-10 -25v-410q0 -16 10.5 -25t23.5 -9q15 0 24.5 8.5t9.5 25.5zM137 205h68q34 0 52 -21q16 -19 16 -47t-18 -48.5t-50 -20.5h-68v137zM137 273v171q0 17 -10.5 25.5t-23.5 8.5q-15 0 -25 -9t-10 -25v-410q0 -34 35 -34h102
q66 0 103 43q34 37 34 94t-34 94q-38 42 -103 42h-68z" />
    <glyph glyph-name="udieresis" unicode="&#xfc;" 
d="M137 205h136q34 0 52 -21q17 -20 17 -47q0 -28 -18 -48.5t-51 -20.5h-136v137zM137 273v171q0 17 -10.5 25.5t-23.5 8.5q-15 0 -25 -9t-10 -25v-410q0 -34 35 -34h170q65 0 104 43q33 37 33 94t-34 94q-38 42 -103 42h-136z" />
    <glyph glyph-name="ydieresis" unicode="&#xff;" 
d="M342 273h-137q-33 0 -50.5 20.5t-17.5 48.5t18 48t50 20h137v-137zM258 205h84v-171q0 -16 10 -25t24 -9q15 0 24.5 8.5t9.5 25.5v410q0 34 -34 34h-171q-65 0 -102 -43q-35 -38 -35 -93q0 -49 28.5 -87.5t79.5 -47.5l-102 -154q-6 -9 -6 -19q0 -14 11 -24.5t24 -10.5
q18 0 28 16z" />
    <glyph glyph-name="endash" unicode="&#x2013;" 
d="M376 205q16 0 25 10.5t9 23.5q0 15 -8.5 24.5t-25.5 9.5h-273q-17 0 -26 -10t-9 -24t9.5 -24t25.5 -10h273z" />
    <glyph glyph-name="emdash" unicode="&#x2014;" 
d="M376 205q16 0 25 10.5t9 23.5q0 15 -8.5 24.5t-25.5 9.5h-273q-17 0 -26 -10t-9 -24t9.5 -24t25.5 -10h273z" />
    <glyph glyph-name="periodcentered" unicode="&#x2219;" horiz-adv-x="205" 
d="M68 342q0 -15 10 -24.5t25 -9.5q14 0 24 9.5t10 24.5q0 14 -10 24t-24 10q-15 0 -25 -10t-10 -24z" />
    <glyph glyph-name="onesuperior" unicode="&#xb9;" horiz-adv-x="820" 
d="M752 444v137q0 48 -32 77q-28 25 -71 25q-42 0 -70 -25q-32 -29 -32 -77v-137q0 -48 32 -77q28 -25 70 -25q40 0 71 26q32 29 32 76zM478 34v615q0 17 -10 26t-24 9t-24 -9.5t-10 -25.5v-483l-277 500q-11 18 -30 18q-15 0 -25 -9.5t-10 -25.5v-615q0 -16 10.5 -25
t24.5 -9q15 0 24.5 8.5t9.5 25.5v483l277 -499q10 -19 31 -19q14 0 23.5 9.5t9.5 25.5zM684 444q0 -16 -10.5 -25t-24.5 -9q-15 0 -24.5 8.5t-9.5 25.5v137q0 16 10.5 24.5t23.5 8.5q15 0 25 -8.5t10 -24.5v-137z" />
    <glyph glyph-name="Eth" unicode="&#xd0;" horiz-adv-x="547" 
d="M137 342v273h205q28 0 48 -19.5t20 -48.5v-137q0 -29 -20 -48.5t-48 -19.5h-205zM137 273h205q57 0 96 40q40 40 40 97v137q0 57 -40 97q-39 40 -96 40h-239q-35 0 -35 -35v-615q0 -16 10.5 -25t24.5 -9q15 0 24.5 8.5t9.5 25.5v239z" />
    <glyph glyph-name="multiply" unicode="&#xd7;" horiz-adv-x="547" 
d="M410 342h-205q-29 0 -48.5 19.5t-19.5 48.5v239q0 17 -10.5 26t-23.5 9q-15 0 -25 -9.5t-10 -25.5v-239q0 -57 40 -97t97 -40h205v-239q0 -16 10.5 -25t23.5 -9q15 0 24.5 8.5t9.5 25.5v615q0 17 -10 26t-24 9t-24 -9.5t-10 -25.5v-307z" />
    <glyph glyph-name="Yacute" unicode="&#xdd;" horiz-adv-x="547" 
d="M410 342v-205q0 -29 -20 -49t-48 -20h-239q-17 0 -26 -10t-9 -24t9.5 -24t25.5 -10h239q57 0 96 39q40 40 40 98v410q0 57 -40 97q-39 40 -96 40h-239q-17 0 -26 -10.5t-9 -24.5t9.5 -24t25.5 -10h239q28 0 48 -19.5t20 -48.5v-137h-171q-16 0 -25 -10t-9 -24t9.5 -24
t24.5 -10h171z" />
    <glyph glyph-name="Thorn" unicode="&#xde;" horiz-adv-x="615" 
d="M478 137q0 -29 -19.5 -49t-48.5 -20h-68q-29 0 -49 20t-20 49v410q0 29 20 48.5t49 19.5h68q29 0 48.5 -19.5t19.5 -48.5v-410zM137 410v239q0 17 -10.5 26t-23.5 9q-15 0 -25 -9.5t-10 -25.5v-615q0 -16 10.5 -25t24.5 -9q15 0 24.5 8.5t9.5 25.5v308h68v-205
q0 -58 40 -98q39 -39 97 -39h68q58 0 97 39q40 40 40 98v410q0 57 -40 97q-39 40 -97 40h-68q-58 0 -98 -40q-39 -41 -39 -97v-137h-68z" />
    <glyph glyph-name="eth" unicode="&#xf0;" 
d="M137 68v342h136q29 0 49 -20t20 -48v-205q0 -29 -20 -49t-49 -20h-136zM137 0h136q58 0 97 39q40 40 40 98v205q0 57 -40 97q-39 39 -97 39h-170q-35 0 -35 -34v-615q0 -16 10.5 -25t24.5 -9q15 0 24.5 8.5t9.5 25.5v171z" />
    <glyph glyph-name="yacute" unicode="&#xfd;" 
d="M342 205v-68q0 -29 -20 -49t-49 -20h-170q-17 0 -26 -10t-9 -24t9.5 -24t25.5 -10h170q58 0 97 39q40 40 40 98v205q0 57 -40 97q-39 39 -97 39h-170q-17 0 -26 -10t-9 -24t9.5 -24t25.5 -10h170q29 0 49 -20t20 -48v-69h-103q-16 0 -25 -10t-9 -24t9.5 -24t24.5 -10h103
z" />
    <glyph glyph-name="thorn" unicode="&#xfe;" horiz-adv-x="547" 
d="M410 116q0 -20 -13.5 -34t-34.5 -14h-41q-20 0 -34 14t-14 34v246q0 20 14 34t34 14h41q20 0 34 -14t14 -34v-246zM137 273v171q0 17 -10.5 25.5t-23.5 8.5q-15 0 -25 -9t-10 -25v-410q0 -16 10.5 -25t24.5 -9q15 0 24.5 8.5t9.5 25.5v171h68v-89q0 -48 34 -82t82 -34h41
q49 0 82 34q34 34 34 82v246q0 24 -9 45.5t-24.5 37t-37 24.5t-45.5 9h-41q-48 0 -82 -34q-34 -33 -34 -82v-89h-68z" />
    <glyph glyph-name="FL0410h" horiz-adv-x="615" 
d="M188 172h248l49 -148q4 -15 17 -21q10 -2 15 -2q13 0 24 9t11 23q0 5 -2 13l-206 615q-9 29 -32 29q-21 0 -32 -29l-205 -615q-3 -6 -3 -13q0 -14 11 -23t24 -9q25 0 32 23zM413 241h-202l101 302z" />
    <glyph glyph-name="FL0411h" horiz-adv-x="547" 
d="M137 342h205q28 0 48 -20t20 -49v-136q0 -29 -20 -49t-48 -20h-205v274zM137 410v205h239q16 0 25 10.5t9 23.5q0 15 -8.5 25t-25.5 10h-273q-35 0 -35 -35v-615q0 -34 35 -34h239q57 0 96 39q40 40 40 98v136q0 58 -40 98q-39 39 -96 39h-205z" />
    <glyph glyph-name="FL0412h" horiz-adv-x="547" 
d="M413 390q31 37 31 88v69q0 57 -40 97q-39 40 -96 40h-205q-35 0 -35 -35v-615q0 -34 35 -34h239q57 0 96 39q40 40 40 98v136q0 38 -17 68.5t-48 48.5zM137 342h205q28 0 48 -20t20 -49v-136q0 -29 -20 -49t-48 -20h-205v274zM308 410h-171v205h171q28 0 48 -19.5
t20 -48.5v-69q0 -28 -20 -48t-48 -20z" />
    <glyph glyph-name="FL0413h" 
d="M376 615q16 0 25 10.5t9 23.5q0 15 -8.5 25t-25.5 10h-273q-35 0 -35 -35v-615q0 -16 10.5 -25t24.5 -9q15 0 24.5 8.5t9.5 25.5v581h239z" />
    <glyph glyph-name="FL0414h" horiz-adv-x="615" 
d="M140 68h-37q-35 0 -35 -34v-68q0 -17 10.5 -25.5t24.5 -8.5q15 0 24.5 8.5t9.5 25.5v34h341v-34q0 -17 10.5 -25.5t24.5 -8.5q15 0 24.5 8.5t9.5 25.5v68q0 34 -34 34h-35v581q0 35 -34 35h-205q-31 0 -34 -31zM410 68h-202l62 547h140v-547z" />
    <glyph glyph-name="FL0415h" 
d="M137 410v205h240q16 0 25 10.5t9 23.5q0 15 -8.5 25t-25.5 10h-274q-35 0 -35 -35v-617q0 -32 35 -32h274q16 0 25 10.5t9 23.5q0 15 -8.5 24.5t-25.5 9.5h-240v274h171q17 0 25.5 10t8.5 24q0 15 -8.5 24.5t-25.5 9.5h-171z" />
    <glyph glyph-name="FL0416h" horiz-adv-x="684" 
d="M376 416v233q0 17 -10.5 26t-23.5 9q-15 0 -24.5 -9.5t-9.5 -25.5v-233l-177 253q-11 15 -28 15q-13 0 -24 -10t-11 -24q0 -12 7 -20l179 -256l-182 -323q-4 -8 -4 -18q0 -14 11 -23.5t24 -9.5q19 0 30 18l175 312v-296q0 -16 10 -25t24 -9q15 0 24.5 8.5t9.5 25.5v296
l175 -312q10 -18 29 -18q14 0 25 9.5t11 23.5q0 8 -5 18l-181 323l179 256q7 8 7 19q0 15 -11 25t-25 10q-7 0 -14.5 -3.5t-12.5 -11.5z" />
    <glyph glyph-name="FL0417h" 
d="M273 342q35 0 53 -21q16 -17 16 -48v-136q0 -29 -20 -49t-49 -20h-68q-23 0 -40 13q-18 15 -25 35q-8 23 -31 23q-15 0 -25.5 -9t-10.5 -24q0 -4 2 -12q14 -42 49.5 -68t80.5 -26h68q58 0 97 39q40 40 40 98v136q0 63 -46 103q22 19 34 45.5t12 56.5v69q0 57 -40 97
q-39 40 -97 40h-68q-45 0 -80.5 -26t-49.5 -68q-2 -8 -2 -12q0 -15 11 -24.5t25 -9.5q10 0 19 6.5t13 17.5q7 21 24.5 34t39.5 13h68q29 0 49 -19.5t20 -48.5v-69q0 -28 -20 -48t-49 -20h-102q-17 0 -25.5 -10t-8.5 -24t9 -24t25 -10h102z" />
    <glyph glyph-name="FL0418h" horiz-adv-x="547" 
d="M478 34v615q0 19 -9 29.5t-22 10.5q-9 0 -18 -6t-15 -17l-277 -500v483q0 17 -10.5 26t-23.5 9q-15 0 -25 -9.5t-10 -25.5v-615q0 -18 9.5 -28.5t22.5 -10.5q19 0 33 23l277 499v-483q0 -16 10.5 -25t23.5 -9q15 0 24.5 8.5t9.5 25.5z" />
    <glyph glyph-name="FL0419h" horiz-adv-x="547" 
d="M342 752q16 0 25 10t9 24q0 15 -8.5 24.5t-25.5 9.5h-137q-16 0 -25 -10t-9 -24t9 -24t25 -10h137zM478 34v615q0 19 -9 29.5t-22 10.5q-9 0 -18 -6t-15 -17l-277 -500v483q0 17 -10.5 26t-23.5 9q-15 0 -25 -9.5t-10 -25.5v-615q0 -18 9.5 -28.5t22.5 -10.5q19 0 33 23
l277 499v-483q0 -16 10.5 -25t23.5 -9q15 0 24.5 8.5t9.5 25.5z" />
    <glyph glyph-name="FL041Ah" horiz-adv-x="547" 
d="M137 388v261q0 16 -10.5 25t-23.5 9q-14 0 -24.5 -9t-10.5 -25v-615q0 -16 10.5 -25t24.5 -9q15 0 24.5 8.5t9.5 25.5v261l81 80l200 -357q10 -19 29 -19q14 0 25 9.5t11 24.5q0 8 -5 18l-209 371l203 203q11 11 11 24q0 14 -10.5 24.5t-24.5 10.5q-13 0 -24 -11z" />
    <glyph glyph-name="FL041Bh" horiz-adv-x="547" 
d="M478 34v615q0 35 -34 35h-171q-24 0 -32 -26l-171 -615q-2 -4 -2 -10q0 -15 10.5 -24t24.5 -9q11 0 20 6t11 19l165 590h111v-581q0 -16 10.5 -25t23.5 -9q15 0 24.5 8.5t9.5 25.5z" />
    <glyph glyph-name="FL041Ch" horiz-adv-x="615" 
d="M548 34v612q0 18 -9.5 29t-21.5 11q-20 0 -33 -22l-176 -294l-176 294q-13 22 -32 22q-13 0 -22.5 -11t-9.5 -29v-612q0 -16 10.5 -25t24.5 -9q15 0 24.5 8.5t9.5 25.5v488l142 -236q13 -22 29 -22q17 0 30 22l141 236v-488q0 -16 10.5 -25t23.5 -9q15 0 25 8.5t10 25.5z
" />
    <glyph glyph-name="FL041Dh" horiz-adv-x="547" 
d="M410 410h-273v239q0 17 -10.5 26t-23.5 9q-15 0 -25 -9.5t-10 -25.5v-615q0 -16 10.5 -25t24.5 -9q15 0 24.5 8.5t9.5 25.5v308h273v-308q0 -16 10 -24.5t24 -8.5q13 0 23.5 9t10.5 26v615q0 16 -10 25t-24 9t-24 -9.5t-10 -24.5v-241z" />
    <glyph glyph-name="FL041Eh" horiz-adv-x="602" 
d="M478 137v410q0 57 -40 97q-39 40 -96 40h-137q-57 0 -97 -40t-40 -97v-410q0 -58 40 -98q40 -39 97 -39h137q57 0 96 39q40 40 40 98zM410 137q0 -29 -20 -49t-48 -20h-137q-29 0 -48.5 20t-19.5 49v410q0 29 19.5 48.5t48.5 19.5h137q28 0 48 -19.5t20 -48.5v-410z" />
    <glyph glyph-name="FL041Fh" horiz-adv-x="547" 
d="M478 34v615q0 35 -34 35h-341q-35 0 -35 -35v-615q0 -16 10.5 -25t24.5 -9q15 0 24.5 8.5t9.5 25.5v581h273v-581q0 -16 10.5 -25t23.5 -9q15 0 24.5 8.5t9.5 25.5z" />
    <glyph glyph-name="FL0420h" horiz-adv-x="547" 
d="M137 342v273h205q28 0 48 -19.5t20 -48.5v-137q0 -29 -20 -48.5t-48 -19.5h-205zM137 273h205q57 0 96 40q40 40 40 97v137q0 57 -40 97q-39 40 -96 40h-239q-35 0 -35 -35v-615q0 -16 10.5 -25t24.5 -9q15 0 24.5 8.5t9.5 25.5v239z" />
    <glyph glyph-name="FL0421h" 
d="M376 0q16 0 25 10.5t9 23.5q0 15 -8.5 24.5t-25.5 9.5h-171q-29 0 -48.5 20t-19.5 49v410q0 29 19.5 48.5t48.5 19.5h171q16 0 25 10.5t9 23.5q0 15 -8.5 25t-25.5 10h-171q-57 0 -97 -40t-40 -97v-410q0 -58 40 -98q40 -39 97 -39h171z" />
    <glyph glyph-name="FL0422h" horiz-adv-x="547" 
d="M239 615v-581q0 -16 10.5 -25t23.5 -9q15 0 25 8.5t10 25.5v581h136q17 0 25.5 10.5t8.5 23.5q0 15 -8.5 25t-25.5 10h-341q-17 0 -26 -10.5t-9 -24.5t9.5 -24t25.5 -10h136z" />
    <glyph glyph-name="FL0423h" horiz-adv-x="547" 
d="M410 273v-136q0 -29 -20 -49t-48 -20h-171q-17 0 -25.5 -10t-8.5 -24t9 -24t25 -10h171q57 0 96 39q40 40 40 98v512q0 17 -10 26t-24 9t-24 -9.5t-10 -25.5v-307h-205q-29 0 -48.5 19.5t-19.5 48.5v239q0 17 -10.5 26t-23.5 9q-15 0 -25 -9.5t-10 -25.5v-239
q0 -57 40 -97t97 -40h205z" />
    <glyph glyph-name="FL0424h" horiz-adv-x="684" 
d="M376 513h34q57 0 97 -40t40 -97v-34q0 -57 -40 -97t-97 -40h-34v308zM308 205h-35q-56 0 -96 40t-40 97v34q0 57 40 97t96 40h35v-308zM308 137v-103q0 -16 10 -25t24 -9q15 0 24.5 8.5t9.5 25.5v103h34q86 0 145 59q60 60 60 146v34q0 85 -60 145q-59 60 -145 60h-34v68
q0 17 -10.5 26t-23.5 9q-15 0 -24.5 -9.5t-9.5 -25.5v-68h-35q-85 0 -145 -60t-60 -145v-34q0 -86 60 -146q61 -59 145 -59h35z" />
    <glyph glyph-name="FL0425h" horiz-adv-x="615" 
d="M308 404l-177 264q-10 16 -27 16q-14 0 -25 -10t-11 -24q0 -4 1 -9.5t5 -10.5l192 -288l-192 -289q-6 -9 -6 -19q0 -14 11 -24.5t24 -10.5q18 0 28 16l177 265l176 -265q10 -16 27 -16q15 0 26 10.5t11 23.5t-7 20l-192 289l192 288q7 10 7 19q0 15 -11 25t-25 10
q-19 0 -28 -16z" />
    <glyph glyph-name="FL0426h" horiz-adv-x="615" 
d="M410 68h-273v581q0 17 -10.5 26t-23.5 9q-15 0 -25 -9.5t-10 -25.5v-615q0 -34 35 -34h375v-68q0 -17 10.5 -26t24.5 -9q15 0 24.5 9t9.5 26v102q0 34 -34 34h-35v581q0 17 -10 26t-24 9t-24 -9.5t-10 -25.5v-581z" />
    <glyph glyph-name="FL0427h" horiz-adv-x="547" 
d="M410 342h-205q-29 0 -48.5 19.5t-19.5 48.5v239q0 17 -10.5 26t-23.5 9q-15 0 -25 -9.5t-10 -25.5v-239q0 -57 40 -97t97 -40h205v-239q0 -16 10.5 -25t23.5 -9q15 0 24.5 8.5t9.5 25.5v615q0 17 -10 26t-24 9t-24 -9.5t-10 -25.5v-307z" />
    <glyph glyph-name="FL0428h" horiz-adv-x="684" 
d="M376 68v581q0 17 -10.5 26t-23.5 9q-15 0 -24.5 -9.5t-9.5 -25.5v-581h-171v581q0 17 -10.5 26t-23.5 9q-15 0 -25 -9.5t-10 -25.5v-615q0 -34 35 -34h478q34 0 34 34v615q0 17 -10 26t-24 9t-24 -9.5t-10 -25.5v-581h-171z" />
    <glyph glyph-name="FL0429h" horiz-adv-x="752" 
d="M615 0v-68q0 -17 10.5 -26t23.5 -9q15 0 25 9t10 26v102q0 34 -35 34h-34v581q0 17 -10 26t-24 9t-24 -9.5t-10 -25.5v-581h-171v581q0 17 -10.5 26t-23.5 9q-15 0 -24.5 -9.5t-9.5 -25.5v-581h-171v581q0 17 -10.5 26t-23.5 9q-15 0 -25 -9.5t-10 -25.5v-615
q0 -34 35 -34h512z" />
    <glyph glyph-name="FL042Ah" horiz-adv-x="684" 
d="M273 342h205q29 0 49 -20t20 -49v-136q0 -29 -20 -49t-49 -20h-205v274zM273 410v239q0 35 -34 35h-136q-17 0 -26 -10.5t-9 -24.5t9.5 -24t25.5 -10h102v-581q0 -34 34 -34h239q58 0 97 39q40 40 40 98v136q0 58 -40 98q-39 39 -97 39h-205z" />
    <glyph glyph-name="FL042Bh" horiz-adv-x="615" 
d="M547 34v615q0 17 -10.5 26t-23.5 9q-15 0 -25 -9.5t-10 -25.5v-615q0 -16 10.5 -25t24.5 -9q15 0 24.5 8.5t9.5 25.5zM137 342h136q29 0 49 -20t20 -49v-136q0 -29 -20 -49t-49 -20h-136v274zM137 410v239q0 17 -10.5 26t-23.5 9q-15 0 -25 -9.5t-10 -25.5v-615
q0 -34 35 -34h170q58 0 97 39q40 40 40 98v136q0 58 -40 98q-39 39 -97 39h-136z" />
    <glyph glyph-name="FL042Ch" horiz-adv-x="547" 
d="M137 342v-274h205q28 0 48 20t20 49v136q0 29 -20 49t-48 20h-205zM137 410h205q57 0 97 -40q39 -39 39 -97v-136q0 -58 -40 -98q-39 -39 -96 -39h-239q-35 0 -35 34v615q0 17 10.5 26t24.5 9t24 -9.5t10 -25.5v-239z" />
    <glyph glyph-name="FL042Dh" horiz-adv-x="547" 
d="M410 342v-205q0 -29 -20 -49t-48 -20h-239q-17 0 -26 -10t-9 -24t9.5 -24t25.5 -10h239q57 0 96 39q40 40 40 98v410q0 57 -40 97q-39 40 -96 40h-239q-17 0 -26 -10.5t-9 -24.5t9.5 -24t25.5 -10h239q28 0 48 -19.5t20 -48.5v-137h-171q-16 0 -25 -10t-9 -24t9.5 -24
t24.5 -10h171z" />
    <glyph glyph-name="FL042Eh" horiz-adv-x="615" 
d="M478 137q0 -29 -19.5 -49t-48.5 -20h-68q-29 0 -49 20t-20 49v410q0 29 20 48.5t49 19.5h68q29 0 48.5 -19.5t19.5 -48.5v-410zM137 410v239q0 17 -10.5 26t-23.5 9q-15 0 -25 -9.5t-10 -25.5v-615q0 -16 10.5 -25t24.5 -9q15 0 24.5 8.5t9.5 25.5v308h68v-205
q0 -58 40 -98q39 -39 97 -39h68q58 0 97 39q40 40 40 98v410q0 57 -40 97q-39 40 -97 40h-68q-58 0 -98 -40q-39 -41 -39 -97v-137h-68z" />
    <glyph glyph-name="FL042Fh" horiz-adv-x="547" 
d="M410 342h-205q-29 0 -48.5 19.5t-19.5 48.5v137q0 29 19.5 48.5t48.5 19.5h205v-273zM293 273h117v-239q0 -16 10.5 -25t23.5 -9q15 0 24.5 8.5t9.5 25.5v615q0 35 -34 35h-239q-57 0 -97 -40t-40 -97v-137q0 -57 40 -97t97 -40h7l-138 -220q-6 -9 -6 -19q0 -14 11 -24.5
t25 -10.5q16 0 27 17z" />
    <glyph glyph-name="FL0430h" 
d="M342 137q0 -29 -20 -49t-49 -20h-68q-29 0 -48.5 20t-19.5 49v205q0 28 19.5 48t48.5 20h137v-273zM375 45q21 -27 56 -42q7 -4 14 -4q15 0 24.5 11t9.5 25q0 21 -22 30q-21 10 -34 29.5t-13 42.5v307q0 34 -34 34h-171q-57 0 -97 -40t-40 -96v-205q0 -58 40 -98
q40 -39 97 -39h68q30 0 57 12.5t45 32.5z" />
    <glyph glyph-name="FL0431h" 
d="M342 137q0 -29 -20 -49t-49 -20h-68q-29 0 -48.5 20t-19.5 49v205q0 28 19.5 48t48.5 20h68q29 0 49 -20t20 -48v-205zM232 478h-27q-57 0 -97 -40t-40 -96v-205q0 -58 40 -98q40 -39 97 -39h68q58 0 97 39q40 40 40 98v205q0 51 -33 89l-8 11l-181 173h188q16 0 25 10.5
t9 23.5q0 15 -8.5 25t-25.5 10h-273q-19 0 -28 -9t-9 -22q0 -16 13 -28z" />
    <glyph glyph-name="FL0432h" 
d="M342 137q0 -29 -20 -49t-49 -20h-68q-29 0 -48.5 20t-19.5 49v205q0 28 19.5 48t48.5 20h68q29 0 49 -20t20 -48v-205zM137 455v105q0 26 16 40t38 14t38.5 -14t16.5 -40q0 -17 -13 -33q-7 -9 -28 -25q-7 -5 -17 -12.5t-23 -16.5q-5 -4 -12 -8.5t-16 -9.5zM273 476
q22 15 31.5 34.5t9.5 50.5q0 57 -38 92q-34 31 -84 31q-51 0 -85 -31q-39 -35 -39 -93v-423q0 -58 40 -98q40 -39 97 -39h68q58 0 97 39q40 40 40 98v205q0 60 -34 95q-38 39 -103 39z" />
    <glyph glyph-name="FL0433h" 
d="M392 31q19 10 19 29q0 15 -9.5 25.5t-24.5 10.5q-10 0 -17 -4q-25 -14 -51.5 -19t-60.5 -5q-18 0 -40.5 2t-37.5 4q-14 3 -22.5 13.5t-8.5 23.5q0 15 12 26l218 151q39 33 39 76v1q0 24 -12 44.5t-34 35t-52 22.5t-66 8h-12q-43 0 -84.5 -10t-65.5 -28q-14 -11 -14 -26
t10 -25.5t24 -10.5q10 0 21 8q35 25 103 25q44 0 77 -10q35 -11 35 -36q0 -10 -11 -21l-218 -150q-19 -16 -28 -37t-9 -44q0 -38 22.5 -67t64.5 -35q19 -4 40.5 -6.5t47.5 -2.5q40 0 77.5 8t67.5 24z" />
    <glyph glyph-name="FL0434h" 
d="M342 410v-273q0 -29 -20 -49t-49 -20h-68q-29 0 -48.5 20t-19.5 49v205q0 28 19.5 48t48.5 20h137zM342 478h-137q-57 0 -97 -40t-40 -96v-205q0 -58 40 -98q40 -39 97 -39h68q58 0 97 39q40 40 40 98v410q0 57 -40 97q-39 40 -97 40h-136q-17 0 -25.5 -10.5t-8.5 -24.5
t9 -24t25 -10h136q29 0 49 -19.5t20 -48.5v-69z" />
    <glyph glyph-name="FL0435h" 
d="M137 273v69q0 28 19.5 48t48.5 20h68q29 0 49 -20t20 -48v-69h-205zM137 205h239q34 0 34 34v103q0 57 -40 97q-39 39 -97 39h-68q-57 0 -97 -40q-40 -39 -40 -96v-205q0 -58 40 -98q40 -39 97 -39h171q16 0 25 10.5t9 23.5q0 15 -8.5 24.5t-25.5 9.5h-171
q-29 0 -48.5 20t-19.5 49v68z" />
    <glyph glyph-name="FL0436h" horiz-adv-x="615" 
d="M351 273h-16v171q0 17 -10.5 25.5t-23.5 8.5q-15 0 -24.5 -9t-9.5 -25v-171h-16l-127 190q-10 16 -27 16q-14 0 -25 -10t-11 -24q0 -10 6 -20l124 -186l-124 -186q-6 -9 -6 -19q0 -14 11 -24.5t24 -10.5q18 0 28 16l127 190h16v-171q0 -16 10 -25t24 -9q15 0 24.5 8.5
t9.5 25.5v171h16l126 -190q10 -16 27 -16q15 0 26 10.5t11 23.5q0 12 -6 20l-124 186l124 186q6 10 6 19q0 15 -11 25t-25 10q-17 0 -28 -16z" />
    <glyph glyph-name="FL0437h" horiz-adv-x="444" 
d="M248 205q28 -3 45 -23q15 -18 15 -45q0 -28 -18 -48.5t-51 -20.5h-34q-47 0 -82 28q-11 8 -21 8q-14 0 -24 -11t-10 -25q0 -16 14 -27q53 -41 123 -41h34q65 0 103 42q34 38 34 94q0 29 -11 56.5t-32 46.5q43 40 43 103q0 57 -34 94q-38 42 -103 42h-34q-70 0 -123 -41
q-14 -11 -14 -26t10 -25.5t24 -10.5q10 0 21 8q36 27 82 27h34q34 0 52 -21q17 -20 17 -47q0 -28 -18.5 -48.5t-50.5 -20.5h-34q-16 0 -25 -10t-9 -24t9 -24t25 -10h43z" />
    <glyph glyph-name="FL0438h" 
d="M410 34v410q0 17 -10 25.5t-24 8.5t-24 -9t-10 -25v-376h-137q-29 0 -48.5 20t-19.5 49v307q0 17 -10.5 25.5t-23.5 8.5q-15 0 -25 -9t-10 -25v-307q0 -58 40 -98q40 -39 97 -39h171q34 0 34 34z" />
    <glyph glyph-name="FL0439h" 
d="M308 615q16 0 25 10.5t9 23.5q0 15 -8.5 25t-25.5 10h-137q-17 0 -25.5 -10.5t-8.5 -24.5t9 -24t25 -10h137zM410 34v410q0 17 -10 25.5t-24 8.5t-24 -9t-10 -25v-376h-137q-29 0 -48.5 20t-19.5 49v307q0 17 -10.5 25.5t-23.5 8.5q-15 0 -25 -9t-10 -25v-307
q0 -58 40 -98q40 -39 97 -39h171q34 0 34 34z" />
    <glyph glyph-name="FL043Ah" 
d="M206 224l137 -212q9 -13 25 -13q13 0 24 9.5t11 24.5q0 10 -8 23l-141 218l138 144q11 13 11 26q0 15 -10.5 26t-24.5 11q-12 0 -21 -11l-217 -227v201q0 17 -10.5 25.5t-23.5 8.5q-15 0 -24.5 -9t-9.5 -25v-410q0 -16 10 -25t24 -9q15 0 24.5 8.5t9.5 25.5v110z" />
    <glyph glyph-name="FL043Bh" 
d="M410 34v410q0 34 -34 34h-137q-25 0 -33 -23l-135 -410q-2 -8 -2 -12q0 -15 10.5 -24t24.5 -9q10 0 18.5 6t12.5 17l128 387h79v-376q0 -16 10 -25t24 -9q15 0 24.5 8.5t9.5 25.5z" />
    <glyph glyph-name="FL043Ch" horiz-adv-x="547" 
d="M478 34q0 -16 -10 -25t-24 -9q-15 0 -24.5 8.5t-9.5 25.5v304l-109 -153q-14 -18 -28 -18q-15 0 -28 18l-108 153v-304q0 -16 -10.5 -25t-23.5 -9q-16 0 -25.5 8.5t-9.5 25.5v410q0 19 8.5 29.5t21.5 10.5q19 0 33 -20l142 -200l143 200q15 20 32 20q13 0 21.5 -10.5
t8.5 -29.5v-410z" />
    <glyph glyph-name="FL043Dh" 
d="M342 273h-205v171q0 17 -10.5 25.5t-23.5 8.5q-15 0 -25 -9t-10 -25v-410q0 -16 10.5 -25t24.5 -9q15 0 24.5 8.5t9.5 25.5v171h205v-171q0 -16 10 -25t24 -9q15 0 24.5 8.5t9.5 25.5v410q0 17 -10 25.5t-24 8.5t-24 -9t-10 -25v-171z" />
    <glyph glyph-name="FL043Eh" 
d="M410 150v178q0 62 -44 106t-106 44h-41q-61 0 -107 -44q-44 -44 -44 -106v-178q0 -63 44 -107q44 -43 107 -43h41q63 0 106 43q44 44 44 107zM342 150q0 -34 -24 -58t-58 -24h-41q-34 0 -58 24t-24 58v178q0 34 24 58t58 24h41q34 0 58 -24t24 -58v-178z" />
    <glyph glyph-name="FL043Fh" 
d="M410 34v308q0 57 -41 96q-40 40 -96 40h-170q-35 0 -35 -34v-410q0 -16 10.5 -25t24.5 -9q15 0 24.5 8.5t9.5 25.5v376h136q29 0 49 -20t20 -48v-308q0 -16 10 -25t24 -9q15 0 24.5 8.5t9.5 25.5z" />
    <glyph glyph-name="FL0440h" 
d="M137 68v342h136q29 0 49 -20t20 -48v-205q0 -29 -20 -49t-49 -20h-136zM137 0h136q58 0 97 39q40 40 40 98v205q0 57 -40 97q-39 39 -97 39h-170q-35 0 -35 -34v-615q0 -16 10.5 -25t24.5 -9q15 0 24.5 8.5t9.5 25.5v171z" />
    <glyph glyph-name="FL0441h" horiz-adv-x="410" 
d="M308 0q16 0 25 10.5t9 23.5q0 15 -8.5 24.5t-25.5 9.5h-103q-29 0 -48.5 20t-19.5 49v205q0 28 19.5 48t48.5 20h103q16 0 25 10.5t9 23.5q0 15 -8.5 24.5t-25.5 9.5h-103q-57 0 -97 -40t-40 -96v-205q0 -58 40 -98q40 -39 97 -39h103z" />
    <glyph glyph-name="FL0442h" horiz-adv-x="615" 
d="M273 410v-376q0 -16 10.5 -25t24.5 -9q15 0 24.5 8.5t9.5 25.5v376h68q29 0 48.5 -20t19.5 -48v-308q0 -16 10.5 -25t24.5 -9q15 0 24.5 8.5t9.5 25.5v308q0 57 -40 97q-39 39 -97 39h-307q-35 0 -35 -34v-410q0 -16 10.5 -25t24.5 -9q15 0 24.5 8.5t9.5 25.5v376h136z
" />
    <glyph glyph-name="FL0443h" 
d="M342 0v-68q0 -29 -20 -49t-49 -20h-136q-17 0 -25.5 -10t-8.5 -24t9 -24t25 -10h136q58 0 98 40q39 39 39 97v512q0 17 -10 25.5t-24 8.5t-24 -9t-10 -25v-376h-137q-29 0 -48.5 20t-19.5 49v307q0 17 -10.5 25.5t-23.5 8.5q-15 0 -25 -9t-10 -25v-307q0 -58 40 -98
q40 -39 97 -39h137z" />
    <glyph glyph-name="FL0444h" horiz-adv-x="615" 
d="M342 410q56 0 96 -40t40 -97v-68q0 -57 -40 -97q-39 -40 -96 -40v342zM273 68q-56 0 -96 40t-40 97v68q0 57 40 97t96 40v-342zM342 478v103q0 16 -10.5 25t-23.5 9q-15 0 -25 -9t-10 -25v-103q-85 0 -145 -60q-60 -59 -60 -145v-68q0 -85 60 -145t145 -60v-171
q0 -16 10.5 -25t24.5 -9q15 0 24.5 8.5t9.5 25.5v171q85 0 145 60t60 145v68q0 87 -60 146q-59 59 -145 59z" />
    <glyph glyph-name="FL0445h" 
d="M281 239l124 186q6 10 6 19q0 15 -11 25t-25 10q-18 0 -28 -16l-108 -162l-108 162q-11 15 -27 15q-14 0 -25 -9.5t-11 -23.5q0 -4 1 -9.5t5 -10.5l124 -186l-124 -186q-6 -9 -6 -19q0 -14 11 -24.5t24 -10.5q18 0 28 16l108 162l108 -162q10 -15 28 -15q14 0 25 9.5
t11 23.5q0 12 -6 20z" />
    <glyph glyph-name="FL0446h" horiz-adv-x="547" 
d="M342 68h-137q-29 0 -48.5 20t-19.5 49v307q0 17 -10.5 25.5t-23.5 8.5q-15 0 -25 -9t-10 -25v-307q0 -58 40 -98q40 -39 97 -39h205v-27q0 -17 10.5 -26t23.5 -9q15 0 24.5 9t9.5 26v61q0 34 -34 34h-34v376q0 17 -10 25.5t-24 8.5t-24 -9t-10 -25v-376z" />
    <glyph glyph-name="FL0447h" 
d="M342 273h-137q-29 0 -48.5 20t-19.5 49v102q0 17 -10.5 25.5t-23.5 8.5q-15 0 -25 -9t-10 -25v-102q0 -58 40 -98q40 -39 97 -39h137v-171q0 -16 10 -25t24 -9q15 0 24.5 8.5t9.5 25.5v410q0 17 -10 25.5t-24 8.5t-24 -9t-10 -25v-171z" />
    <glyph glyph-name="FL0448h" horiz-adv-x="615" 
d="M342 68v376q0 17 -10.5 25.5t-23.5 8.5q-15 0 -25 -9t-10 -25v-376h-68q-29 0 -48.5 20t-19.5 49v307q0 17 -10.5 25.5t-23.5 8.5q-15 0 -25 -9t-10 -25v-307q0 -58 40 -98q40 -39 97 -39h308q34 0 34 34v410q0 17 -10.5 25.5t-23.5 8.5q-15 0 -25 -9t-10 -25v-376h-136z
" />
    <glyph glyph-name="FL0449h" horiz-adv-x="684" 
d="M342 68v376q0 17 -10.5 25.5t-23.5 8.5q-15 0 -25 -9t-10 -25v-376h-68q-29 0 -48.5 20t-19.5 49v307q0 17 -10.5 25.5t-23.5 8.5q-15 0 -25 -9t-10 -25v-307q0 -58 40 -98q40 -39 97 -39h342v-34q0 -17 10 -25.5t24 -8.5q15 0 24.5 8.5t9.5 25.5v68q0 34 -34 34h-34v376
q0 17 -10.5 25.5t-23.5 8.5q-15 0 -25 -9t-10 -25v-376h-136z" />
    <glyph glyph-name="FL044Ah" horiz-adv-x="513" 
d="M171 205h137q32 0 52 -21q16 -19 16 -47t-18 -48.5t-50 -20.5h-137v137zM171 273v171q0 34 -34 34h-69q-16 0 -25 -10t-9 -24t9.5 -24t24.5 -10h35v-376q0 -34 34 -34h171q66 0 103 43q33 37 33 94t-34 94q-38 42 -102 42h-137z" />
    <glyph glyph-name="FL044Bh" horiz-adv-x="547" 
d="M478 34v410q0 17 -10 25.5t-24 8.5t-24 -9t-10 -25v-410q0 -16 10.5 -25t23.5 -9q15 0 24.5 8.5t9.5 25.5zM137 205h68q34 0 52 -21q16 -19 16 -47t-18 -48.5t-50 -20.5h-68v137zM137 273v171q0 17 -10.5 25.5t-23.5 8.5q-15 0 -25 -9t-10 -25v-410q0 -34 35 -34h102
q66 0 103 43q34 37 34 94t-34 94q-38 42 -103 42h-68z" />
    <glyph glyph-name="FL044Ch" 
d="M137 205h136q34 0 52 -21q17 -20 17 -47q0 -28 -18 -48.5t-51 -20.5h-136v137zM137 273v171q0 17 -10.5 25.5t-23.5 8.5q-15 0 -25 -9t-10 -25v-410q0 -34 35 -34h170q65 0 104 43q33 37 33 94t-34 94q-38 42 -103 42h-136z" />
    <glyph glyph-name="FL044Dh" 
d="M342 205v-68q0 -29 -20 -49t-49 -20h-170q-17 0 -26 -10t-9 -24t9.5 -24t25.5 -10h170q58 0 97 39q40 40 40 98v205q0 57 -40 97q-39 39 -97 39h-170q-17 0 -26 -10t-9 -24t9.5 -24t25.5 -10h170q29 0 49 -20t20 -48v-69h-103q-16 0 -25 -10t-9 -24t9.5 -24t24.5 -10h103
z" />
    <glyph glyph-name="FL044Eh" horiz-adv-x="547" 
d="M410 116q0 -20 -13.5 -34t-34.5 -14h-41q-20 0 -34 14t-14 34v246q0 20 14 34t34 14h41q20 0 34 -14t14 -34v-246zM137 273v171q0 17 -10.5 25.5t-23.5 8.5q-15 0 -25 -9t-10 -25v-410q0 -16 10.5 -25t24.5 -9q15 0 24.5 8.5t9.5 25.5v171h68v-89q0 -48 34 -82t82 -34h41
q49 0 82 34q34 34 34 82v246q0 24 -9 45.5t-24.5 37t-37 24.5t-45.5 9h-41q-48 0 -82 -34q-34 -33 -34 -82v-89h-68z" />
    <glyph glyph-name="FL044Fh" 
d="M342 273h-137q-33 0 -50.5 20.5t-17.5 48.5t18 48t50 20h137v-137zM258 205h84v-171q0 -16 10 -25t24 -9q15 0 24.5 8.5t9.5 25.5v410q0 34 -34 34h-171q-65 0 -102 -43q-35 -38 -35 -93q0 -49 28.5 -87.5t79.5 -47.5l-102 -154q-6 -9 -6 -19q0 -14 11 -24.5t24 -10.5
q18 0 28 16z" />
    <glyph glyph-name="FL0401h" 
d="M137 410v205h240q16 0 25 10.5t9 23.5q0 15 -8.5 25t-25.5 10h-274q-35 0 -35 -35v-617q0 -32 35 -32h274q16 0 25 10.5t9 23.5q0 15 -8.5 24.5t-25.5 9.5h-240v274h171q17 0 25.5 10t8.5 24q0 15 -8.5 24.5t-25.5 9.5h-171zM103 820q0 -15 10 -25t25 -10t25.5 10
t10.5 25t-10.5 25.5t-25.5 10.5t-25 -10.5t-10 -25.5zM308 820q0 -14 9.5 -24t24.5 -10q14 0 24 10t10 24q0 15 -10 24.5t-24 9.5q-15 0 -24.5 -9.5t-9.5 -24.5z" />
    <glyph glyph-name="FL0451h" 
d="M137 273v69q0 28 19.5 48t48.5 20h68q29 0 49 -20t20 -48v-69h-205zM137 205h239q34 0 34 34v103q0 57 -40 97q-39 39 -97 39h-68q-57 0 -97 -40q-40 -39 -40 -96v-205q0 -58 40 -98q40 -39 97 -39h171q16 0 25 10.5t9 23.5q0 15 -8.5 24.5t-25.5 9.5h-171
q-29 0 -48.5 20t-19.5 49v68zM103 649q0 -15 10 -25t25 -10t25.5 10t10.5 25t-10.5 25.5t-25.5 10.5t-25 -10.5t-10 -25.5zM308 649q0 -14 9.5 -24t24.5 -10q14 0 24 10t10 24q0 15 -10 25t-24 10q-15 0 -24.5 -10t-9.5 -25z" />
    <glyph glyph-name="FL2116h" horiz-adv-x="820" 
d="M752 444v137q0 48 -32 77q-28 25 -71 25q-42 0 -70 -25q-32 -29 -32 -77v-137q0 -48 32 -77q28 -25 70 -25q40 0 71 26q32 29 32 76zM478 34v615q0 17 -10 26t-24 9t-24 -9.5t-10 -25.5v-483l-277 500q-11 18 -30 18q-15 0 -25 -9.5t-10 -25.5v-615q0 -16 10.5 -25
t24.5 -9q15 0 24.5 8.5t9.5 25.5v483l277 -499q10 -19 31 -19q14 0 23.5 9.5t9.5 25.5zM684 444q0 -16 -10.5 -25t-24.5 -9q-15 0 -24.5 8.5t-9.5 25.5v137q0 16 10.5 24.5t23.5 8.5q15 0 25 -8.5t10 -24.5v-137z" />
    <glyph glyph-name="afii10017" unicode="&#x410;" horiz-adv-x="615" 
d="M188 172h248l49 -148q4 -15 17 -21q10 -2 15 -2q13 0 24 9t11 23q0 5 -2 13l-206 615q-9 29 -32 29q-21 0 -32 -29l-205 -615q-3 -6 -3 -13q0 -14 11 -23t24 -9q25 0 32 23zM413 241h-202l101 302z" />
    <glyph glyph-name="afii10018" unicode="&#x411;" horiz-adv-x="547" 
d="M137 342h205q28 0 48 -20t20 -49v-136q0 -29 -20 -49t-48 -20h-205v274zM137 410v205h239q16 0 25 10.5t9 23.5q0 15 -8.5 25t-25.5 10h-273q-35 0 -35 -35v-615q0 -34 35 -34h239q57 0 96 39q40 40 40 98v136q0 58 -40 98q-39 39 -96 39h-205z" />
    <glyph glyph-name="afii10019" unicode="&#x412;" horiz-adv-x="547" 
d="M413 390q31 37 31 88v69q0 57 -40 97q-39 40 -96 40h-205q-35 0 -35 -35v-615q0 -34 35 -34h239q57 0 96 39q40 40 40 98v136q0 38 -17 68.5t-48 48.5zM137 342h205q28 0 48 -20t20 -49v-136q0 -29 -20 -49t-48 -20h-205v274zM308 410h-171v205h171q28 0 48 -19.5
t20 -48.5v-69q0 -28 -20 -48t-48 -20z" />
    <glyph glyph-name="afii10020" unicode="&#x413;" 
d="M376 615q16 0 25 10.5t9 23.5q0 15 -8.5 25t-25.5 10h-273q-35 0 -35 -35v-615q0 -16 10.5 -25t24.5 -9q15 0 24.5 8.5t9.5 25.5v581h239z" />
    <glyph glyph-name="afii10021" unicode="&#x414;" horiz-adv-x="615" 
d="M140 68h-37q-35 0 -35 -34v-68q0 -17 10.5 -25.5t24.5 -8.5q15 0 24.5 8.5t9.5 25.5v34h341v-34q0 -17 10.5 -25.5t24.5 -8.5q15 0 24.5 8.5t9.5 25.5v68q0 34 -34 34h-35v581q0 35 -34 35h-205q-31 0 -34 -31zM410 68h-202l62 547h140v-547z" />
    <glyph glyph-name="afii10022" unicode="&#x415;" 
d="M137 410v205h240q16 0 25 10.5t9 23.5q0 15 -8.5 25t-25.5 10h-274q-35 0 -35 -35v-617q0 -32 35 -32h274q16 0 25 10.5t9 23.5q0 15 -8.5 24.5t-25.5 9.5h-240v274h171q17 0 25.5 10t8.5 24q0 15 -8.5 24.5t-25.5 9.5h-171z" />
    <glyph glyph-name="afii10024" unicode="&#x416;" horiz-adv-x="684" 
d="M376 416v233q0 17 -10.5 26t-23.5 9q-15 0 -24.5 -9.5t-9.5 -25.5v-233l-177 253q-11 15 -28 15q-13 0 -24 -10t-11 -24q0 -12 7 -20l179 -256l-182 -323q-4 -8 -4 -18q0 -14 11 -23.5t24 -9.5q19 0 30 18l175 312v-296q0 -16 10 -25t24 -9q15 0 24.5 8.5t9.5 25.5v296
l175 -312q10 -18 29 -18q14 0 25 9.5t11 23.5q0 8 -5 18l-181 323l179 256q7 8 7 19q0 15 -11 25t-25 10q-7 0 -14.5 -3.5t-12.5 -11.5z" />
    <glyph glyph-name="afii10025" unicode="&#x417;" 
d="M273 342q35 0 53 -21q16 -17 16 -48v-136q0 -29 -20 -49t-49 -20h-68q-23 0 -40 13q-18 15 -25 35q-8 23 -31 23q-15 0 -25.5 -9t-10.5 -24q0 -4 2 -12q14 -42 49.5 -68t80.5 -26h68q58 0 97 39q40 40 40 98v136q0 63 -46 103q22 19 34 45.5t12 56.5v69q0 57 -40 97
q-39 40 -97 40h-68q-45 0 -80.5 -26t-49.5 -68q-2 -8 -2 -12q0 -15 11 -24.5t25 -9.5q10 0 19 6.5t13 17.5q7 21 24.5 34t39.5 13h68q29 0 49 -19.5t20 -48.5v-69q0 -28 -20 -48t-49 -20h-102q-17 0 -25.5 -10t-8.5 -24t9 -24t25 -10h102z" />
    <glyph glyph-name="afii10026" unicode="&#x418;" horiz-adv-x="547" 
d="M478 34v615q0 19 -9 29.5t-22 10.5q-9 0 -18 -6t-15 -17l-277 -500v483q0 17 -10.5 26t-23.5 9q-15 0 -25 -9.5t-10 -25.5v-615q0 -18 9.5 -28.5t22.5 -10.5q19 0 33 23l277 499v-483q0 -16 10.5 -25t23.5 -9q15 0 24.5 8.5t9.5 25.5z" />
    <glyph glyph-name="afii10027" unicode="&#x419;" horiz-adv-x="547" 
d="M342 752q16 0 25 10t9 24q0 15 -8.5 24.5t-25.5 9.5h-137q-16 0 -25 -10t-9 -24t9 -24t25 -10h137zM478 34v615q0 19 -9 29.5t-22 10.5q-9 0 -18 -6t-15 -17l-277 -500v483q0 17 -10.5 26t-23.5 9q-15 0 -25 -9.5t-10 -25.5v-615q0 -18 9.5 -28.5t22.5 -10.5q19 0 33 23
l277 499v-483q0 -16 10.5 -25t23.5 -9q15 0 24.5 8.5t9.5 25.5z" />
    <glyph glyph-name="afii10028" unicode="&#x41a;" horiz-adv-x="547" 
d="M137 388v261q0 16 -10.5 25t-23.5 9q-14 0 -24.5 -9t-10.5 -25v-615q0 -16 10.5 -25t24.5 -9q15 0 24.5 8.5t9.5 25.5v261l81 80l200 -357q10 -19 29 -19q14 0 25 9.5t11 24.5q0 8 -5 18l-209 371l203 203q11 11 11 24q0 14 -10.5 24.5t-24.5 10.5q-13 0 -24 -11z" />
    <glyph glyph-name="afii10029" unicode="&#x41b;" horiz-adv-x="547" 
d="M478 34v615q0 35 -34 35h-171q-24 0 -32 -26l-171 -615q-2 -4 -2 -10q0 -15 10.5 -24t24.5 -9q11 0 20 6t11 19l165 590h111v-581q0 -16 10.5 -25t23.5 -9q15 0 24.5 8.5t9.5 25.5z" />
    <glyph glyph-name="afii10030" unicode="&#x41c;" horiz-adv-x="615" 
d="M548 34v612q0 18 -9.5 29t-21.5 11q-20 0 -33 -22l-176 -294l-176 294q-13 22 -32 22q-13 0 -22.5 -11t-9.5 -29v-612q0 -16 10.5 -25t24.5 -9q15 0 24.5 8.5t9.5 25.5v488l142 -236q13 -22 29 -22q17 0 30 22l141 236v-488q0 -16 10.5 -25t23.5 -9q15 0 25 8.5t10 25.5z
" />
    <glyph glyph-name="afii10031" unicode="&#x41d;" horiz-adv-x="547" 
d="M410 410h-273v239q0 17 -10.5 26t-23.5 9q-15 0 -25 -9.5t-10 -25.5v-615q0 -16 10.5 -25t24.5 -9q15 0 24.5 8.5t9.5 25.5v308h273v-308q0 -16 10 -24.5t24 -8.5q13 0 23.5 9t10.5 26v615q0 16 -10 25t-24 9t-24 -9.5t-10 -24.5v-241z" />
    <glyph glyph-name="afii10032" unicode="&#x41e;" horiz-adv-x="602" 
d="M478 137v410q0 57 -40 97q-39 40 -96 40h-137q-57 0 -97 -40t-40 -97v-410q0 -58 40 -98q40 -39 97 -39h137q57 0 96 39q40 40 40 98zM410 137q0 -29 -20 -49t-48 -20h-137q-29 0 -48.5 20t-19.5 49v410q0 29 19.5 48.5t48.5 19.5h137q28 0 48 -19.5t20 -48.5v-410z" />
    <glyph glyph-name="afii10033" unicode="&#x41f;" horiz-adv-x="547" 
d="M478 34v615q0 35 -34 35h-341q-35 0 -35 -35v-615q0 -16 10.5 -25t24.5 -9q15 0 24.5 8.5t9.5 25.5v581h273v-581q0 -16 10.5 -25t23.5 -9q15 0 24.5 8.5t9.5 25.5z" />
    <glyph glyph-name="afii10034" unicode="&#x420;" horiz-adv-x="547" 
d="M137 342v273h205q28 0 48 -19.5t20 -48.5v-137q0 -29 -20 -48.5t-48 -19.5h-205zM137 273h205q57 0 96 40q40 40 40 97v137q0 57 -40 97q-39 40 -96 40h-239q-35 0 -35 -35v-615q0 -16 10.5 -25t24.5 -9q15 0 24.5 8.5t9.5 25.5v239z" />
    <glyph glyph-name="afii10035" unicode="&#x421;" 
d="M376 0q16 0 25 10.5t9 23.5q0 15 -8.5 24.5t-25.5 9.5h-171q-29 0 -48.5 20t-19.5 49v410q0 29 19.5 48.5t48.5 19.5h171q16 0 25 10.5t9 23.5q0 15 -8.5 25t-25.5 10h-171q-57 0 -97 -40t-40 -97v-410q0 -58 40 -98q40 -39 97 -39h171z" />
    <glyph glyph-name="afii10036" unicode="&#x422;" horiz-adv-x="547" 
d="M239 615v-581q0 -16 10.5 -25t23.5 -9q15 0 25 8.5t10 25.5v581h136q17 0 25.5 10.5t8.5 23.5q0 15 -8.5 25t-25.5 10h-341q-17 0 -26 -10.5t-9 -24.5t9.5 -24t25.5 -10h136z" />
    <glyph glyph-name="afii10037" unicode="&#x423;" horiz-adv-x="547" 
d="M410 273v-136q0 -29 -20 -49t-48 -20h-171q-17 0 -25.5 -10t-8.5 -24t9 -24t25 -10h171q57 0 96 39q40 40 40 98v512q0 17 -10 26t-24 9t-24 -9.5t-10 -25.5v-307h-205q-29 0 -48.5 19.5t-19.5 48.5v239q0 17 -10.5 26t-23.5 9q-15 0 -25 -9.5t-10 -25.5v-239
q0 -57 40 -97t97 -40h205z" />
    <glyph glyph-name="afii10038" unicode="&#x424;" horiz-adv-x="684" 
d="M376 513h34q57 0 97 -40t40 -97v-34q0 -57 -40 -97t-97 -40h-34v308zM308 205h-35q-56 0 -96 40t-40 97v34q0 57 40 97t96 40h35v-308zM308 137v-103q0 -16 10 -25t24 -9q15 0 24.5 8.5t9.5 25.5v103h34q86 0 145 59q60 60 60 146v34q0 85 -60 145q-59 60 -145 60h-34v68
q0 17 -10.5 26t-23.5 9q-15 0 -24.5 -9.5t-9.5 -25.5v-68h-35q-85 0 -145 -60t-60 -145v-34q0 -86 60 -146q61 -59 145 -59h35z" />
    <glyph glyph-name="afii10039" unicode="&#x425;" horiz-adv-x="615" 
d="M308 404l-177 264q-10 16 -27 16q-14 0 -25 -10t-11 -24q0 -4 1 -9.5t5 -10.5l192 -288l-192 -289q-6 -9 -6 -19q0 -14 11 -24.5t24 -10.5q18 0 28 16l177 265l176 -265q10 -16 27 -16q15 0 26 10.5t11 23.5t-7 20l-192 289l192 288q7 10 7 19q0 15 -11 25t-25 10
q-19 0 -28 -16z" />
    <glyph glyph-name="afii10040" unicode="&#x426;" horiz-adv-x="615" 
d="M410 68h-273v581q0 17 -10.5 26t-23.5 9q-15 0 -25 -9.5t-10 -25.5v-615q0 -34 35 -34h375v-68q0 -17 10.5 -26t24.5 -9q15 0 24.5 9t9.5 26v102q0 34 -34 34h-35v581q0 17 -10 26t-24 9t-24 -9.5t-10 -25.5v-581z" />
    <glyph glyph-name="afii10041" unicode="&#x427;" horiz-adv-x="547" 
d="M410 342h-205q-29 0 -48.5 19.5t-19.5 48.5v239q0 17 -10.5 26t-23.5 9q-15 0 -25 -9.5t-10 -25.5v-239q0 -57 40 -97t97 -40h205v-239q0 -16 10.5 -25t23.5 -9q15 0 24.5 8.5t9.5 25.5v615q0 17 -10 26t-24 9t-24 -9.5t-10 -25.5v-307z" />
    <glyph glyph-name="afii10042" unicode="&#x428;" horiz-adv-x="684" 
d="M376 68v581q0 17 -10.5 26t-23.5 9q-15 0 -24.5 -9.5t-9.5 -25.5v-581h-171v581q0 17 -10.5 26t-23.5 9q-15 0 -25 -9.5t-10 -25.5v-615q0 -34 35 -34h478q34 0 34 34v615q0 17 -10 26t-24 9t-24 -9.5t-10 -25.5v-581h-171z" />
    <glyph glyph-name="afii10043" unicode="&#x429;" horiz-adv-x="752" 
d="M615 0v-68q0 -17 10.5 -26t23.5 -9q15 0 25 9t10 26v102q0 34 -35 34h-34v581q0 17 -10 26t-24 9t-24 -9.5t-10 -25.5v-581h-171v581q0 17 -10.5 26t-23.5 9q-15 0 -24.5 -9.5t-9.5 -25.5v-581h-171v581q0 17 -10.5 26t-23.5 9q-15 0 -25 -9.5t-10 -25.5v-615
q0 -34 35 -34h512z" />
    <glyph glyph-name="afii10044" unicode="&#x42a;" horiz-adv-x="684" 
d="M273 342h205q29 0 49 -20t20 -49v-136q0 -29 -20 -49t-49 -20h-205v274zM273 410v239q0 35 -34 35h-136q-17 0 -26 -10.5t-9 -24.5t9.5 -24t25.5 -10h102v-581q0 -34 34 -34h239q58 0 97 39q40 40 40 98v136q0 58 -40 98q-39 39 -97 39h-205z" />
    <glyph glyph-name="afii10045" unicode="&#x42b;" horiz-adv-x="615" 
d="M547 34v615q0 17 -10.5 26t-23.5 9q-15 0 -25 -9.5t-10 -25.5v-615q0 -16 10.5 -25t24.5 -9q15 0 24.5 8.5t9.5 25.5zM137 342h136q29 0 49 -20t20 -49v-136q0 -29 -20 -49t-49 -20h-136v274zM137 410v239q0 17 -10.5 26t-23.5 9q-15 0 -25 -9.5t-10 -25.5v-615
q0 -34 35 -34h170q58 0 97 39q40 40 40 98v136q0 58 -40 98q-39 39 -97 39h-136z" />
    <glyph glyph-name="afii10046" unicode="&#x42c;" horiz-adv-x="547" 
d="M137 342v-274h205q28 0 48 20t20 49v136q0 29 -20 49t-48 20h-205zM137 410h205q57 0 97 -40q39 -39 39 -97v-136q0 -58 -40 -98q-39 -39 -96 -39h-239q-35 0 -35 34v615q0 17 10.5 26t24.5 9t24 -9.5t10 -25.5v-239z" />
    <glyph glyph-name="afii10047" unicode="&#x42d;" horiz-adv-x="547" 
d="M410 342v-205q0 -29 -20 -49t-48 -20h-239q-17 0 -26 -10t-9 -24t9.5 -24t25.5 -10h239q57 0 96 39q40 40 40 98v410q0 57 -40 97q-39 40 -96 40h-239q-17 0 -26 -10.5t-9 -24.5t9.5 -24t25.5 -10h239q28 0 48 -19.5t20 -48.5v-137h-171q-16 0 -25 -10t-9 -24t9.5 -24
t24.5 -10h171z" />
    <glyph glyph-name="afii10048" unicode="&#x42e;" horiz-adv-x="615" 
d="M478 137q0 -29 -19.5 -49t-48.5 -20h-68q-29 0 -49 20t-20 49v410q0 29 20 48.5t49 19.5h68q29 0 48.5 -19.5t19.5 -48.5v-410zM137 410v239q0 17 -10.5 26t-23.5 9q-15 0 -25 -9.5t-10 -25.5v-615q0 -16 10.5 -25t24.5 -9q15 0 24.5 8.5t9.5 25.5v308h68v-205
q0 -58 40 -98q39 -39 97 -39h68q58 0 97 39q40 40 40 98v410q0 57 -40 97q-39 40 -97 40h-68q-58 0 -98 -40q-39 -41 -39 -97v-137h-68z" />
    <glyph glyph-name="afii10049" unicode="&#x42f;" horiz-adv-x="547" 
d="M410 342h-205q-29 0 -48.5 19.5t-19.5 48.5v137q0 29 19.5 48.5t48.5 19.5h205v-273zM293 273h117v-239q0 -16 10.5 -25t23.5 -9q15 0 24.5 8.5t9.5 25.5v615q0 35 -34 35h-239q-57 0 -97 -40t-40 -97v-137q0 -57 40 -97t97 -40h7l-138 -220q-6 -9 -6 -19q0 -14 11 -24.5
t25 -10.5q16 0 27 17z" />
    <glyph glyph-name="afii10065" unicode="&#x430;" 
d="M342 137q0 -29 -20 -49t-49 -20h-68q-29 0 -48.5 20t-19.5 49v205q0 28 19.5 48t48.5 20h137v-273zM375 45q21 -27 56 -42q7 -4 14 -4q15 0 24.5 11t9.5 25q0 21 -22 30q-21 10 -34 29.5t-13 42.5v307q0 34 -34 34h-171q-57 0 -97 -40t-40 -96v-205q0 -58 40 -98
q40 -39 97 -39h68q30 0 57 12.5t45 32.5z" />
    <glyph glyph-name="afii10066" unicode="&#x431;" 
d="M342 137q0 -29 -20 -49t-49 -20h-68q-29 0 -48.5 20t-19.5 49v205q0 28 19.5 48t48.5 20h68q29 0 49 -20t20 -48v-205zM232 478h-27q-57 0 -97 -40t-40 -96v-205q0 -58 40 -98q40 -39 97 -39h68q58 0 97 39q40 40 40 98v205q0 51 -33 89l-8 11l-181 173h188q16 0 25 10.5
t9 23.5q0 15 -8.5 25t-25.5 10h-273q-19 0 -28 -9t-9 -22q0 -16 13 -28z" />
    <glyph glyph-name="afii10067" unicode="&#x432;" 
d="M342 137q0 -29 -20 -49t-49 -20h-68q-29 0 -48.5 20t-19.5 49v205q0 28 19.5 48t48.5 20h68q29 0 49 -20t20 -48v-205zM137 455v105q0 26 16 40t38 14t38.5 -14t16.5 -40q0 -17 -13 -33q-7 -9 -28 -25q-7 -5 -17 -12.5t-23 -16.5q-5 -4 -12 -8.5t-16 -9.5zM273 476
q22 15 31.5 34.5t9.5 50.5q0 57 -38 92q-34 31 -84 31q-51 0 -85 -31q-39 -35 -39 -93v-423q0 -58 40 -98q40 -39 97 -39h68q58 0 97 39q40 40 40 98v205q0 60 -34 95q-38 39 -103 39z" />
    <glyph glyph-name="afii10068" unicode="&#x433;" 
d="M392 31q19 10 19 29q0 15 -9.5 25.5t-24.5 10.5q-10 0 -17 -4q-25 -14 -51.5 -19t-60.5 -5q-18 0 -40.5 2t-37.5 4q-14 3 -22.5 13.5t-8.5 23.5q0 15 12 26l218 151q39 33 39 76v1q0 24 -12 44.5t-34 35t-52 22.5t-66 8h-12q-43 0 -84.5 -10t-65.5 -28q-14 -11 -14 -26
t10 -25.5t24 -10.5q10 0 21 8q35 25 103 25q44 0 77 -10q35 -11 35 -36q0 -10 -11 -21l-218 -150q-19 -16 -28 -37t-9 -44q0 -38 22.5 -67t64.5 -35q19 -4 40.5 -6.5t47.5 -2.5q40 0 77.5 8t67.5 24z" />
    <glyph glyph-name="afii10069" unicode="&#x434;" 
d="M342 410v-273q0 -29 -20 -49t-49 -20h-68q-29 0 -48.5 20t-19.5 49v205q0 28 19.5 48t48.5 20h137zM342 478h-137q-57 0 -97 -40t-40 -96v-205q0 -58 40 -98q40 -39 97 -39h68q58 0 97 39q40 40 40 98v410q0 57 -40 97q-39 40 -97 40h-136q-17 0 -25.5 -10.5t-8.5 -24.5
t9 -24t25 -10h136q29 0 49 -19.5t20 -48.5v-69z" />
    <glyph glyph-name="afii10070" unicode="&#x435;" 
d="M137 273v69q0 28 19.5 48t48.5 20h68q29 0 49 -20t20 -48v-69h-205zM137 205h239q34 0 34 34v103q0 57 -40 97q-39 39 -97 39h-68q-57 0 -97 -40q-40 -39 -40 -96v-205q0 -58 40 -98q40 -39 97 -39h171q16 0 25 10.5t9 23.5q0 15 -8.5 24.5t-25.5 9.5h-171
q-29 0 -48.5 20t-19.5 49v68z" />
    <glyph glyph-name="afii10072" unicode="&#x436;" horiz-adv-x="615" 
d="M351 273h-16v171q0 17 -10.5 25.5t-23.5 8.5q-15 0 -24.5 -9t-9.5 -25v-171h-16l-127 190q-10 16 -27 16q-14 0 -25 -10t-11 -24q0 -10 6 -20l124 -186l-124 -186q-6 -9 -6 -19q0 -14 11 -24.5t24 -10.5q18 0 28 16l127 190h16v-171q0 -16 10 -25t24 -9q15 0 24.5 8.5
t9.5 25.5v171h16l126 -190q10 -16 27 -16q15 0 26 10.5t11 23.5q0 12 -6 20l-124 186l124 186q6 10 6 19q0 15 -11 25t-25 10q-17 0 -28 -16z" />
    <glyph glyph-name="afii10073" unicode="&#x437;" horiz-adv-x="444" 
d="M248 205q28 -3 45 -23q15 -18 15 -45q0 -28 -18 -48.5t-51 -20.5h-34q-47 0 -82 28q-11 8 -21 8q-14 0 -24 -11t-10 -25q0 -16 14 -27q53 -41 123 -41h34q65 0 103 42q34 38 34 94q0 29 -11 56.5t-32 46.5q43 40 43 103q0 57 -34 94q-38 42 -103 42h-34q-70 0 -123 -41
q-14 -11 -14 -26t10 -25.5t24 -10.5q10 0 21 8q36 27 82 27h34q34 0 52 -21q17 -20 17 -47q0 -28 -18.5 -48.5t-50.5 -20.5h-34q-16 0 -25 -10t-9 -24t9 -24t25 -10h43z" />
    <glyph glyph-name="afii10074" unicode="&#x438;" 
d="M410 34v410q0 17 -10 25.5t-24 8.5t-24 -9t-10 -25v-376h-137q-29 0 -48.5 20t-19.5 49v307q0 17 -10.5 25.5t-23.5 8.5q-15 0 -25 -9t-10 -25v-307q0 -58 40 -98q40 -39 97 -39h171q34 0 34 34z" />
    <glyph glyph-name="afii10075" unicode="&#x439;" 
d="M308 615q16 0 25 10.5t9 23.5q0 15 -8.5 25t-25.5 10h-137q-17 0 -25.5 -10.5t-8.5 -24.5t9 -24t25 -10h137zM410 34v410q0 17 -10 25.5t-24 8.5t-24 -9t-10 -25v-376h-137q-29 0 -48.5 20t-19.5 49v307q0 17 -10.5 25.5t-23.5 8.5q-15 0 -25 -9t-10 -25v-307
q0 -58 40 -98q40 -39 97 -39h171q34 0 34 34z" />
    <glyph glyph-name="afii10076" unicode="&#x43a;" 
d="M206 224l137 -212q9 -13 25 -13q13 0 24 9.5t11 24.5q0 10 -8 23l-141 218l138 144q11 13 11 26q0 15 -10.5 26t-24.5 11q-12 0 -21 -11l-217 -227v201q0 17 -10.5 25.5t-23.5 8.5q-15 0 -24.5 -9t-9.5 -25v-410q0 -16 10 -25t24 -9q15 0 24.5 8.5t9.5 25.5v110z" />
    <glyph glyph-name="afii10077" unicode="&#x43b;" 
d="M410 34v410q0 34 -34 34h-137q-25 0 -33 -23l-135 -410q-2 -8 -2 -12q0 -15 10.5 -24t24.5 -9q10 0 18.5 6t12.5 17l128 387h79v-376q0 -16 10 -25t24 -9q15 0 24.5 8.5t9.5 25.5z" />
    <glyph glyph-name="afii10078" unicode="&#x43c;" horiz-adv-x="547" 
d="M478 34q0 -16 -10 -25t-24 -9q-15 0 -24.5 8.5t-9.5 25.5v304l-109 -153q-14 -18 -28 -18q-15 0 -28 18l-108 153v-304q0 -16 -10.5 -25t-23.5 -9q-16 0 -25.5 8.5t-9.5 25.5v410q0 19 8.5 29.5t21.5 10.5q19 0 33 -20l142 -200l143 200q15 20 32 20q13 0 21.5 -10.5
t8.5 -29.5v-410z" />
    <glyph glyph-name="afii10079" unicode="&#x43d;" 
d="M342 273h-205v171q0 17 -10.5 25.5t-23.5 8.5q-15 0 -25 -9t-10 -25v-410q0 -16 10.5 -25t24.5 -9q15 0 24.5 8.5t9.5 25.5v171h205v-171q0 -16 10 -25t24 -9q15 0 24.5 8.5t9.5 25.5v410q0 17 -10 25.5t-24 8.5t-24 -9t-10 -25v-171z" />
    <glyph glyph-name="afii10080" unicode="&#x43e;" 
d="M410 150v178q0 62 -44 106t-106 44h-41q-61 0 -107 -44q-44 -44 -44 -106v-178q0 -63 44 -107q44 -43 107 -43h41q63 0 106 43q44 44 44 107zM342 150q0 -34 -24 -58t-58 -24h-41q-34 0 -58 24t-24 58v178q0 34 24 58t58 24h41q34 0 58 -24t24 -58v-178z" />
    <glyph glyph-name="afii10081" unicode="&#x43f;" 
d="M410 34v308q0 57 -41 96q-40 40 -96 40h-170q-35 0 -35 -34v-410q0 -16 10.5 -25t24.5 -9q15 0 24.5 8.5t9.5 25.5v376h136q29 0 49 -20t20 -48v-308q0 -16 10 -25t24 -9q15 0 24.5 8.5t9.5 25.5z" />
    <glyph glyph-name="afii10082" unicode="&#x440;" 
d="M137 68v342h136q29 0 49 -20t20 -48v-205q0 -29 -20 -49t-49 -20h-136zM137 0h136q58 0 97 39q40 40 40 98v205q0 57 -40 97q-39 39 -97 39h-170q-35 0 -35 -34v-615q0 -16 10.5 -25t24.5 -9q15 0 24.5 8.5t9.5 25.5v171z" />
    <glyph glyph-name="afii10083" unicode="&#x441;" horiz-adv-x="410" 
d="M308 0q16 0 25 10.5t9 23.5q0 15 -8.5 24.5t-25.5 9.5h-103q-29 0 -48.5 20t-19.5 49v205q0 28 19.5 48t48.5 20h103q16 0 25 10.5t9 23.5q0 15 -8.5 24.5t-25.5 9.5h-103q-57 0 -97 -40t-40 -96v-205q0 -58 40 -98q40 -39 97 -39h103z" />
    <glyph glyph-name="afii10084" unicode="&#x442;" horiz-adv-x="615" 
d="M273 410v-376q0 -16 10.5 -25t24.5 -9q15 0 24.5 8.5t9.5 25.5v376h68q29 0 48.5 -20t19.5 -48v-308q0 -16 10.5 -25t24.5 -9q15 0 24.5 8.5t9.5 25.5v308q0 57 -40 97q-39 39 -97 39h-307q-35 0 -35 -34v-410q0 -16 10.5 -25t24.5 -9q15 0 24.5 8.5t9.5 25.5v376h136z
" />
    <glyph glyph-name="afii10085" unicode="&#x443;" 
d="M342 0v-68q0 -29 -20 -49t-49 -20h-136q-17 0 -25.5 -10t-8.5 -24t9 -24t25 -10h136q58 0 98 40q39 39 39 97v512q0 17 -10 25.5t-24 8.5t-24 -9t-10 -25v-376h-137q-29 0 -48.5 20t-19.5 49v307q0 17 -10.5 25.5t-23.5 8.5q-15 0 -25 -9t-10 -25v-307q0 -58 40 -98
q40 -39 97 -39h137z" />
    <glyph glyph-name="afii10086" unicode="&#x444;" horiz-adv-x="615" 
d="M342 410q56 0 96 -40t40 -97v-68q0 -57 -40 -97q-39 -40 -96 -40v342zM273 68q-56 0 -96 40t-40 97v68q0 57 40 97t96 40v-342zM342 478v103q0 16 -10.5 25t-23.5 9q-15 0 -25 -9t-10 -25v-103q-85 0 -145 -60q-60 -59 -60 -145v-68q0 -85 60 -145t145 -60v-171
q0 -16 10.5 -25t24.5 -9q15 0 24.5 8.5t9.5 25.5v171q85 0 145 60t60 145v68q0 87 -60 146q-59 59 -145 59z" />
    <glyph glyph-name="afii10087" unicode="&#x445;" 
d="M281 239l124 186q6 10 6 19q0 15 -11 25t-25 10q-18 0 -28 -16l-108 -162l-108 162q-11 15 -27 15q-14 0 -25 -9.5t-11 -23.5q0 -4 1 -9.5t5 -10.5l124 -186l-124 -186q-6 -9 -6 -19q0 -14 11 -24.5t24 -10.5q18 0 28 16l108 162l108 -162q10 -15 28 -15q14 0 25 9.5
t11 23.5q0 12 -6 20z" />
    <glyph glyph-name="afii10088" unicode="&#x446;" horiz-adv-x="547" 
d="M342 68h-137q-29 0 -48.5 20t-19.5 49v307q0 17 -10.5 25.5t-23.5 8.5q-15 0 -25 -9t-10 -25v-307q0 -58 40 -98q40 -39 97 -39h205v-27q0 -17 10.5 -26t23.5 -9q15 0 24.5 9t9.5 26v61q0 34 -34 34h-34v376q0 17 -10 25.5t-24 8.5t-24 -9t-10 -25v-376z" />
    <glyph glyph-name="afii10089" unicode="&#x447;" 
d="M342 273h-137q-29 0 -48.5 20t-19.5 49v102q0 17 -10.5 25.5t-23.5 8.5q-15 0 -25 -9t-10 -25v-102q0 -58 40 -98q40 -39 97 -39h137v-171q0 -16 10 -25t24 -9q15 0 24.5 8.5t9.5 25.5v410q0 17 -10 25.5t-24 8.5t-24 -9t-10 -25v-171z" />
    <glyph glyph-name="afii10090" unicode="&#x448;" horiz-adv-x="615" 
d="M342 68v376q0 17 -10.5 25.5t-23.5 8.5q-15 0 -25 -9t-10 -25v-376h-68q-29 0 -48.5 20t-19.5 49v307q0 17 -10.5 25.5t-23.5 8.5q-15 0 -25 -9t-10 -25v-307q0 -58 40 -98q40 -39 97 -39h308q34 0 34 34v410q0 17 -10.5 25.5t-23.5 8.5q-15 0 -25 -9t-10 -25v-376h-136z
" />
    <glyph glyph-name="afii10091" unicode="&#x449;" horiz-adv-x="684" 
d="M342 68v376q0 17 -10.5 25.5t-23.5 8.5q-15 0 -25 -9t-10 -25v-376h-68q-29 0 -48.5 20t-19.5 49v307q0 17 -10.5 25.5t-23.5 8.5q-15 0 -25 -9t-10 -25v-307q0 -58 40 -98q40 -39 97 -39h342v-34q0 -17 10 -25.5t24 -8.5q15 0 24.5 8.5t9.5 25.5v68q0 34 -34 34h-34v376
q0 17 -10.5 25.5t-23.5 8.5q-15 0 -25 -9t-10 -25v-376h-136z" />
    <glyph glyph-name="afii10092" unicode="&#x44a;" horiz-adv-x="513" 
d="M171 205h137q32 0 52 -21q16 -19 16 -47t-18 -48.5t-50 -20.5h-137v137zM171 273v171q0 34 -34 34h-69q-16 0 -25 -10t-9 -24t9.5 -24t24.5 -10h35v-376q0 -34 34 -34h171q66 0 103 43q33 37 33 94t-34 94q-38 42 -102 42h-137z" />
    <glyph glyph-name="afii10093" unicode="&#x44b;" horiz-adv-x="547" 
d="M478 34v410q0 17 -10 25.5t-24 8.5t-24 -9t-10 -25v-410q0 -16 10.5 -25t23.5 -9q15 0 24.5 8.5t9.5 25.5zM137 205h68q34 0 52 -21q16 -19 16 -47t-18 -48.5t-50 -20.5h-68v137zM137 273v171q0 17 -10.5 25.5t-23.5 8.5q-15 0 -25 -9t-10 -25v-410q0 -34 35 -34h102
q66 0 103 43q34 37 34 94t-34 94q-38 42 -103 42h-68z" />
    <glyph glyph-name="afii10094" unicode="&#x44c;" 
d="M137 205h136q34 0 52 -21q17 -20 17 -47q0 -28 -18 -48.5t-51 -20.5h-136v137zM137 273v171q0 17 -10.5 25.5t-23.5 8.5q-15 0 -25 -9t-10 -25v-410q0 -34 35 -34h170q65 0 104 43q33 37 33 94t-34 94q-38 42 -103 42h-136z" />
    <glyph glyph-name="afii10095" unicode="&#x44d;" 
d="M342 205v-68q0 -29 -20 -49t-49 -20h-170q-17 0 -26 -10t-9 -24t9.5 -24t25.5 -10h170q58 0 97 39q40 40 40 98v205q0 57 -40 97q-39 39 -97 39h-170q-17 0 -26 -10t-9 -24t9.5 -24t25.5 -10h170q29 0 49 -20t20 -48v-69h-103q-16 0 -25 -10t-9 -24t9.5 -24t24.5 -10h103
z" />
    <glyph glyph-name="afii10096" unicode="&#x44e;" horiz-adv-x="547" 
d="M410 116q0 -20 -13.5 -34t-34.5 -14h-41q-20 0 -34 14t-14 34v246q0 20 14 34t34 14h41q20 0 34 -14t14 -34v-246zM137 273v171q0 17 -10.5 25.5t-23.5 8.5q-15 0 -25 -9t-10 -25v-410q0 -16 10.5 -25t24.5 -9q15 0 24.5 8.5t9.5 25.5v171h68v-89q0 -48 34 -82t82 -34h41
q49 0 82 34q34 34 34 82v246q0 24 -9 45.5t-24.5 37t-37 24.5t-45.5 9h-41q-48 0 -82 -34q-34 -33 -34 -82v-89h-68z" />
    <glyph glyph-name="afii10097" unicode="&#x44f;" 
d="M342 273h-137q-33 0 -50.5 20.5t-17.5 48.5t18 48t50 20h137v-137zM258 205h84v-171q0 -16 10 -25t24 -9q15 0 24.5 8.5t9.5 25.5v410q0 34 -34 34h-171q-65 0 -102 -43q-35 -38 -35 -93q0 -49 28.5 -87.5t79.5 -47.5l-102 -154q-6 -9 -6 -19q0 -14 11 -24.5t24 -10.5
q18 0 28 16z" />
    <glyph glyph-name="afii10054" unicode="&#x405;" horiz-adv-x="547" 
d="M457 626q-39 28 -86 43t-98 15q-70 0 -123 -28q-39 -20 -58 -53t-19 -71q0 -30 10.5 -55t35.5 -40l255 -187q20 -13 30.5 -36t10.5 -48q0 -23 -9.5 -42.5t-28.5 -29.5q-55 -28 -108 -28q-36 0 -71.5 12.5t-73.5 37.5q-11 6 -19 6q-15 0 -24.5 -11t-9.5 -25q0 -18 16 -28
q48 -31 90.5 -46t90.5 -15q35 0 69.5 8.5t70.5 27.5q37 20 55 55.5t18 78.5q0 42 -17.5 79.5t-51.5 59.5l-253 188q-20 14 -20 38q0 18 11 35t31 28q41 22 92 22q78 0 145 -47q8 -7 20 -7q14 0 24 11t10 25q0 7 -3.5 14.5t-11.5 12.5z" />
    <glyph glyph-name="afii10102" unicode="&#x455;" 
d="M389 441q19 -10 19 -30q0 -14 -9.5 -25t-23.5 -11q-8 0 -16 4q-59 30 -116 30t-96 -27q-10 -7 -10 -20t10 -19l218 -143q22 -14 32 -36t10 -45q0 -24 -10.5 -45t-30.5 -34q-59 -39 -134 -39q-74 0 -141 37q-19 10 -19 29q0 14 10 25t24 11q8 0 18 -5q53 -29 108 -29
q54 0 95 28q12 7 12 23q0 15 -12 23l-218 143q-19 13 -28 33.5t-9 43.5q0 22 10 43t27 32q55 39 134 39q74 0 146 -36z" />
    <glyph glyph-name="afii10105" unicode="&#x458;" horiz-adv-x="205" 
d="M137 -68v512q0 17 -10.5 25.5t-23.5 8.5q-15 0 -25 -9t-10 -25v-512q0 -29 -19.5 -49t-48.5 -20h-34q-17 0 -25.5 -10t-8.5 -24t9 -24t25 -10h34q57 0 97 40q40 39 40 97zM68 649q0 -14 10 -24t25 -10q14 0 24 10t10 24q0 15 -10 25t-24 10q-15 0 -25 -10t-10 -25z" />
    <glyph glyph-name="afii10071" unicode="&#x451;" 
d="M137 273v69q0 28 19.5 48t48.5 20h68q29 0 49 -20t20 -48v-69h-205zM137 205h239q34 0 34 34v103q0 57 -40 97q-39 39 -97 39h-68q-57 0 -97 -40q-40 -39 -40 -96v-205q0 -58 40 -98q40 -39 97 -39h171q16 0 25 10.5t9 23.5q0 15 -8.5 24.5t-25.5 9.5h-171
q-29 0 -48.5 20t-19.5 49v68zM103 649q0 -15 10 -25t25 -10t25.5 10t10.5 25t-10.5 25.5t-25.5 10.5t-25 -10.5t-10 -25.5zM308 649q0 -14 9.5 -24t24.5 -10q14 0 24 10t10 24q0 15 -10 25t-24 10q-15 0 -24.5 -10t-9.5 -25z" />
    <glyph glyph-name="afii61352" unicode="&#x2116;" horiz-adv-x="820" 
d="M752 444v137q0 48 -32 77q-28 25 -71 25q-42 0 -70 -25q-32 -29 -32 -77v-137q0 -48 32 -77q28 -25 70 -25q40 0 71 26q32 29 32 76zM478 34v615q0 17 -10 26t-24 9t-24 -9.5t-10 -25.5v-483l-277 500q-11 18 -30 18q-15 0 -25 -9.5t-10 -25.5v-615q0 -16 10.5 -25
t24.5 -9q15 0 24.5 8.5t9.5 25.5v483l277 -499q10 -19 31 -19q14 0 23.5 9.5t9.5 25.5zM684 444q0 -16 -10.5 -25t-24.5 -9q-15 0 -24.5 8.5t-9.5 25.5v137q0 16 10.5 24.5t23.5 8.5q15 0 25 -8.5t10 -24.5v-137z" />
    <glyph glyph-name="afii10023" unicode="&#x401;" 
d="M137 410v205h240q16 0 25 10.5t9 23.5q0 15 -8.5 25t-25.5 10h-274q-35 0 -35 -35v-617q0 -32 35 -32h274q16 0 25 10.5t9 23.5q0 15 -8.5 24.5t-25.5 9.5h-240v274h171q17 0 25.5 10t8.5 24q0 15 -8.5 24.5t-25.5 9.5h-171zM103 820q0 -15 10 -25t25 -10t25.5 10
t10.5 25t-10.5 25.5t-25.5 10.5t-25 -10.5t-10 -25.5zM308 820q0 -14 9.5 -24t24.5 -10q14 0 24 10t10 24q0 15 -10 24.5t-24 9.5q-15 0 -24.5 -9.5t-9.5 -24.5z" />
    <glyph glyph-name="afii10057" unicode="&#x408;" horiz-adv-x="410" 
d="M342 137v512q0 17 -10.5 26t-23.5 9q-15 0 -25 -9.5t-10 -25.5v-512q0 -29 -19.5 -49t-48.5 -20h-102q-17 0 -26 -10t-9 -24t9.5 -24t25.5 -10h102q56 0 97 39q40 40 40 98z" />
    <glyph glyph-name="afii10103" unicode="&#x456;" horiz-adv-x="205" 
d="M137 34v410q0 17 -10.5 25.5t-23.5 8.5q-15 0 -25 -9t-10 -25v-410q0 -16 10.5 -25t24.5 -9q15 0 24.5 8.5t9.5 25.5zM68 649q0 -14 10 -24t25 -10q14 0 24 10t10 24q0 15 -10 25t-24 10q-15 0 -25 -10t-10 -25z" />
    <glyph glyph-name="FL0168" 
d="M137 410v205h240q16 0 25 10.5t9 23.5q0 15 -8.5 25t-25.5 10h-274q-35 0 -35 -35v-617q0 -32 35 -32h274q16 0 25 10.5t9 23.5q0 15 -8.5 24.5t-25.5 9.5h-240v274h171q17 0 25.5 10t8.5 24q0 15 -8.5 24.5t-25.5 9.5h-171zM103 820q0 -15 10 -25t25 -10t25.5 10
t10.5 25t-10.5 25.5t-25.5 10.5t-25 -10.5t-10 -25.5zM308 820q0 -14 9.5 -24t24.5 -10q14 0 24 10t10 24q0 15 -10 24.5t-24 9.5q-15 0 -24.5 -9.5t-9.5 -24.5z" />
    <glyph glyph-name="FL0184" 
d="M137 273v69q0 28 19.5 48t48.5 20h68q29 0 49 -20t20 -48v-69h-205zM137 205h239q34 0 34 34v103q0 57 -40 97q-39 39 -97 39h-68q-57 0 -97 -40q-40 -39 -40 -96v-205q0 -58 40 -98q40 -39 97 -39h171q16 0 25 10.5t9 23.5q0 15 -8.5 24.5t-25.5 9.5h-171
q-29 0 -48.5 20t-19.5 49v68zM103 649q0 -15 10 -25t25 -10t25.5 10t10.5 25t-10.5 25.5t-25.5 10.5t-25 -10.5t-10 -25.5zM308 649q0 -14 9.5 -24t24.5 -10q14 0 24 10t10 24q0 15 -10 25t-24 10q-15 0 -24.5 -10t-9.5 -25z" />
    <glyph glyph-name="minus" unicode="&#x2212;" 
d="M376 205q16 0 25 10.5t9 23.5q0 15 -8.5 24.5t-25.5 9.5h-273q-17 0 -26 -10t-9 -24t9.5 -24t25.5 -10h273z" />
    <glyph glyph-name="FL0406h" unicode="&#x406;" horiz-adv-x="205" 
d="M137 34v615q0 17 -10.5 26t-23.5 9q-15 0 -25 -9.5t-10 -25.5v-615q0 -16 10.5 -25t24.5 -9q15 0 24.5 8.5t9.5 25.5z" />
    <glyph glyph-name=".null" horiz-adv-x="0" 
 />
    </font>
</defs>
</svg>
